<?xml version="1.0" encoding="UTF-8"?>
<svg id="Layer_2" data-name="Layer 2" xmlns="http://www.w3.org/2000/svg" xmlns:xlink="http://www.w3.org/1999/xlink" viewBox="0 0 531.19 489.04">
  <defs>
    <style>
      .cls-1 {
        fill: none;
      }

      .cls-2 {
        fill: #510e74;
      }

      .cls-3 {
        fill: #372b2a;
      }

      .cls-4 {
        fill: #98bada;
      }

      .cls-5 {
        clip-path: url(#clippath);
      }
    </style>
    <clipPath id="clippath">
      <rect class="cls-1" x="381.43" width="149.76" height="489.04"/>
    </clipPath>
  </defs>
  <g id="Layer_1-2" data-name="Layer 1">
    <g>
      <rect class="cls-2" x="381.43" width="149.76" height="489.04"/>
      <g>
        <path class="cls-4" d="M403.33,470.8c-.06.2,0,.26.24.26.06,0,.07.02.06.08l-.02.05s-.03.05-.08.05h-1.14s-.05-.02-.04-.06l.02-.06c.02-.06.04-.06.09-.06.28,0,.37-.05.43-.26l.56-1.92c.06-.21,0-.26-.26-.26-.05,0-.08-.01-.06-.07l.02-.05s.03-.06.08-.06h1.15s.06.02.04.06l-.02.06s-.03.06-.09.06c-.32,0-.36.06-.42.26l-.55,1.92Z"/>
        <path class="cls-4" d="M404.98,470.07c.4-.51.82-.94,1.12-.94.18,0,.23.22.12.49-.16.4-.35.8-.5,1.21-.04.09,0,.12.05.12.1,0,.3-.23.38-.34.03-.04.04-.04.08-.02l.04.03s.02.04,0,.07c-.17.27-.49.6-.73.6-.22,0-.21-.31-.11-.53.16-.37.31-.74.46-1.12.04-.12.02-.18-.05-.18-.14,0-.74.59-.94.95-.06.1-.13.24-.18.38l-.14.38c-.02.05-.03.07-.1.07h-.18c-.06,0-.07-.03-.05-.08.21-.56.39-1.05.56-1.55.03-.08.02-.14-.05-.14-.08,0-.25.17-.39.36-.02.02-.04.02-.06,0l-.04-.03s-.03-.04,0-.06c.22-.35.52-.6.74-.6.2,0,.22.24.13.5l-.16.43h.02Z"/>
        <path class="cls-4" d="M407.93,469.35c.11-.1.22-.2.37-.2.14,0,.21.09.21.2,0,.12-.08.19-.18.19-.14,0-.16-.15-.24-.15-.04,0-.08.02-.11.06.01.06.02.13.02.18,0,.34-.22.76-.69.91-.23.07-.44.12-.44.24,0,.1.13.2.34.34.09.06.24.15.4.27.18.12.36.26.36.47,0,.3-.39.52-1.04.52-.57,0-.93-.2-.93-.48,0-.35.58-.55.84-.62-.23-.14-.33-.26-.33-.39,0-.16.19-.25.46-.39-.18-.08-.27-.27-.27-.44,0-.58.44-.94.8-.94.22,0,.34.09.43.22ZM407.33,471.59l-.34-.22c-.46.15-.64.32-.64.51,0,.23.21.36.64.36.38,0,.59-.11.59-.32,0-.12-.1-.22-.26-.33ZM407.69,469.57c0-.17-.06-.3-.19-.3-.26,0-.5.52-.5.85,0,.17.07.3.18.3.29,0,.5-.57.5-.85Z"/>
        <path class="cls-4" d="M408.83,471.16c-.02.06-.04.08-.1.08h-.18c-.05,0-.07-.03-.05-.09.18-.48.36-.98.52-1.48.06-.17.03-.21-.03-.21-.07,0-.24.16-.38.35-.02.03-.04.03-.06.01l-.04-.03s-.02-.04,0-.07c.24-.36.54-.6.74-.6.18,0,.24.22.14.49l-.14.34h.02c.26-.4.51-.83.84-.83.13,0,.23.08.23.23s-.1.24-.22.24c-.14,0-.14-.13-.24-.13-.2,0-.6.67-.8,1.09-.05.1-.08.18-.14.33l-.09.27Z"/>
        <path class="cls-4" d="M410.59,470.36c-.02.08-.03.15-.03.24,0,.2.07.37.28.37.15,0,.32-.11.5-.32.03-.04.05-.03.08-.01l.03.02s.02.04,0,.08c-.16.28-.49.55-.79.55-.38,0-.5-.28-.5-.54,0-.71.7-1.62,1.27-1.62.21,0,.36.12.36.33,0,.27-.25.7-1.19.91ZM410.62,470.18c.56-.1.82-.47.82-.71,0-.1-.04-.15-.13-.15-.22,0-.54.4-.7.86Z"/>
        <path class="cls-4" d="M413.77,468.53c.04-.13-.02-.17-.23-.17-.04,0-.05-.02-.04-.05l.02-.06s.02-.04.06-.04h.56s.03,0,.04.02l.02.02s0,.02,0,.04c-.22.62-.74,2.14-.85,2.54-.02.08,0,.12.04.12.09,0,.23-.12.39-.34.02-.03.04-.04.07-.01l.04.02s.02.04,0,.07c-.13.23-.46.6-.75.6-.1,0-.14-.07-.14-.18,0-.08.03-.21.11-.49h-.02c-.21.3-.58.67-.88.67-.26,0-.37-.13-.37-.44,0-.76.74-1.71,1.31-1.71.16,0,.27.06.35.19l.26-.79ZM412.23,470.71c0,.15.06.28.19.28.26,0,.68-.54.83-.89.06-.14.12-.31.12-.52,0-.17-.09-.3-.25-.3-.36,0-.9.9-.9,1.43Z"/>
        <path class="cls-4" d="M414.81,469.58c.03-.08,0-.12-.06-.12-.09,0-.28.21-.38.35-.02.03-.04.03-.06.01l-.04-.03s-.02-.04,0-.07c.22-.33.51-.6.76-.6.12,0,.17.1.17.23,0,.07,0,.15-.07.31-.07.21-.41.9-.5,1.16-.04.1.01.12.05.12.09,0,.3-.23.39-.35.02-.03.04-.02.06,0l.04.03s.02.04,0,.06c-.22.33-.51.6-.74.6-.13,0-.18-.12-.18-.23,0-.09.02-.16.08-.33.1-.28.43-.97.49-1.15ZM414.93,468.55c0-.14.12-.27.26-.27s.26.12.26.27-.12.26-.26.26-.26-.12-.26-.26Z"/>
        <path class="cls-4" d="M415.9,470.36c-.02.08-.03.15-.03.24,0,.2.07.37.28.37.15,0,.32-.11.5-.32.03-.04.05-.03.08-.01l.03.02s.02.04,0,.08c-.16.28-.49.55-.79.55-.38,0-.5-.28-.5-.54,0-.71.7-1.62,1.27-1.62.21,0,.36.12.36.33,0,.27-.25.7-1.19.91ZM415.93,470.18c.56-.1.82-.47.82-.71,0-.1-.04-.15-.13-.15-.22,0-.54.4-.7.86Z"/>
        <path class="cls-4" d="M418.01,470.07c.4-.51.82-.94,1.12-.94.18,0,.23.22.12.49-.16.4-.35.8-.5,1.21-.04.09,0,.12.05.12.1,0,.3-.23.38-.34.03-.04.04-.04.08-.02l.04.03s.02.04,0,.07c-.17.27-.49.6-.73.6-.22,0-.21-.31-.11-.53.16-.37.31-.74.46-1.12.04-.12.02-.18-.05-.18-.14,0-.74.59-.94.95-.06.1-.13.24-.18.38l-.14.38c-.02.05-.03.07-.1.07h-.18c-.06,0-.07-.03-.05-.08.21-.56.39-1.05.56-1.55.03-.08.02-.14-.05-.14-.08,0-.25.17-.39.36-.02.02-.04.02-.06,0l-.04-.03s-.03-.04,0-.06c.22-.35.52-.6.74-.6.2,0,.22.24.13.5l-.16.43h.02Z"/>
        <path class="cls-4" d="M420.56,469.17h.44s.06.02.04.07l-.04.09s-.03.05-.08.05h-.44l-.5,1.44s-.01.05-.01.06c0,.04.02.07.06.07.08,0,.28-.19.38-.34.02-.03.04-.03.06-.01l.04.03s.02.03,0,.06c-.14.25-.5.6-.74.6-.14,0-.18-.11-.18-.24,0-.1.03-.21.05-.28l.48-1.39h-.29s-.05-.02-.03-.06l.04-.09s.03-.05.08-.05h.28l.12-.34c.02-.06.03-.08.09-.1.09-.02.2-.08.25-.08.04,0,.06.02.04.09l-.15.44Z"/>
        <path class="cls-4" d="M420.76,470.95c0-.13.09-.23.22-.23.3,0,.08.42.34.42.17,0,.28-.15.28-.34,0-.4-.34-.69-.34-1.06,0-.31.22-.61.62-.61.24,0,.46.12.46.32,0,.12-.08.2-.19.2-.13,0-.17-.09-.2-.21-.02-.1-.06-.16-.14-.16-.13,0-.22.1-.22.29,0,.41.36.69.36,1.13,0,.34-.29.59-.69.59-.28,0-.48-.14-.48-.33Z"/>
        <path class="cls-4" d="M422.33,471c0-.16.12-.29.28-.29s.28.12.28.29c0,.16-.12.28-.28.28s-.28-.12-.28-.28ZM422.71,469.48c0-.16.12-.29.28-.29s.28.12.28.29-.12.28-.28.28-.28-.12-.28-.28Z"/>
        <path class="cls-4" d="M425.51,468.61h.43l1.05,2.63h-.35l-.96-2.42h.08l-.95,2.42h-.35l1.06-2.63ZM425.01,470.24h1.42v.31h-1.42v-.31Z"/>
        <path class="cls-4" d="M427.62,468.61h.34v2.32h1.55v.31h-1.89v-2.63Z"/>
        <path class="cls-4" d="M430.44,471.1c-.19-.12-.33-.28-.43-.48-.1-.2-.15-.43-.15-.69s.05-.49.15-.69c.1-.2.24-.37.43-.48.19-.12.4-.18.65-.18.19,0,.36.04.51.11.15.07.28.17.37.3.09.13.14.28.15.45h-.34c-.02-.16-.09-.29-.21-.4-.12-.1-.28-.15-.47-.15h-.04c-.18,0-.34.05-.47.14-.13.09-.23.22-.3.38-.07.16-.1.34-.1.53s.03.37.1.53c.07.16.17.28.3.38.13.09.29.14.47.14h.04c.13,0,.24-.02.34-.07.1-.05.18-.11.23-.2s.09-.18.1-.28h.34c-.01.17-.06.32-.15.45-.09.13-.22.23-.37.3-.15.07-.32.11-.51.11-.25,0-.46-.06-.65-.18Z"/>
        <path class="cls-4" d="M433.36,471.11c-.19-.11-.33-.27-.44-.47-.1-.2-.16-.44-.16-.72s.05-.52.16-.72c.11-.2.25-.36.44-.47.19-.11.4-.16.63-.16s.44.05.63.16c.19.11.33.27.44.47.1.2.16.44.16.72s-.05.51-.16.72c-.11.2-.25.36-.44.47-.19.11-.4.16-.63.16s-.45-.05-.63-.16ZM434.45,470.84c.13-.08.23-.2.31-.36s.11-.34.11-.56-.04-.4-.11-.56c-.08-.16-.18-.28-.31-.36s-.28-.13-.45-.13h-.04c-.17,0-.32.04-.45.13-.13.08-.23.2-.31.36-.07.16-.11.34-.11.56s.04.4.11.56c.07.16.18.28.31.36.13.08.28.13.45.13h.04c.17,0,.32-.04.45-.13Z"/>
        <path class="cls-4" d="M436.01,468.61h.34v1.16h1.39v-1.16h.34v2.63h-.34v-1.16h-1.39v1.16h-.34v-2.63Z"/>
        <path class="cls-4" d="M439.47,471.11c-.19-.11-.33-.27-.44-.47-.1-.2-.16-.44-.16-.72s.05-.52.16-.72c.11-.2.25-.36.44-.47.19-.11.4-.16.63-.16s.44.05.63.16c.19.11.33.27.44.47.1.2.16.44.16.72s-.05.51-.16.72c-.11.2-.25.36-.44.47-.19.11-.4.16-.63.16s-.45-.05-.63-.16ZM440.57,470.84c.13-.08.23-.2.31-.36s.11-.34.11-.56-.04-.4-.11-.56c-.08-.16-.18-.28-.31-.36s-.28-.13-.45-.13h-.04c-.17,0-.32.04-.45.13-.13.08-.23.2-.31.36-.07.16-.11.34-.11.56s.04.4.11.56c.07.16.18.28.31.36.13.08.28.13.45.13h.04c.17,0,.32-.04.45-.13Z"/>
        <path class="cls-4" d="M442.13,468.61h.34v2.32h1.55v.31h-1.89v-2.63Z"/>
        <path class="cls-4" d="M445.77,468.61h.93c.24,0,.45.05.63.16s.32.26.42.45c.1.2.15.43.15.71s-.05.5-.15.7-.24.35-.42.45c-.18.11-.39.16-.63.16h-.93v-2.63ZM447.15,470.81c.14-.08.24-.19.31-.34.07-.15.11-.33.11-.55,0-.33-.08-.58-.24-.75s-.38-.26-.67-.26h-.55v2.01h.55c.19,0,.36-.04.49-.12Z"/>
        <path class="cls-4" d="M448.71,468.61h1.89v.31h-1.55v.82h1.33v.31h-1.33v.89h1.59v.31h-1.93v-2.63Z"/>
        <path class="cls-4" d="M451.41,468.61h.47l1.36,2.3-.06.02v-2.32h.34v2.63h-.46l-1.36-2.3h.06s0,2.3,0,2.3h-.34v-2.63Z"/>
        <path class="cls-4" d="M455.2,468.61h.43l1.05,2.63h-.35l-.96-2.42h.08l-.95,2.42h-.35l1.06-2.63ZM454.69,470.24h1.42v.31h-1.42v-.31Z"/>
        <path class="cls-4" d="M457.66,468.91h-.95v-.31h2.23v.31h-.95v2.32h-.34v-2.32Z"/>
        <path class="cls-4" d="M459.25,470.81h.43v.42h-.43v-.42Z"/>
        <path class="cls-4" d="M460.32,471.52h.12c.08,0,.13-.02.17-.06.04-.04.06-.09.06-.17v-.06h-.22v-.42h.42v.5c0,.09-.02.17-.05.23-.03.06-.08.11-.14.14-.06.03-.14.05-.23.05h-.14v-.21Z"/>
        <path class="cls-4" d="M462.93,468.61h1.09c.16,0,.3.03.43.09.13.06.23.15.3.27.07.12.11.26.11.42s-.04.31-.11.43-.17.21-.3.27c-.13.06-.27.09-.43.09h-.75v1.05h-.34v-2.63ZM464.38,469.75c.1-.08.15-.2.15-.36s-.05-.28-.15-.36-.24-.12-.41-.12h-.69v.96h.69c.18,0,.32-.04.41-.12Z"/>
        <path class="cls-4" d="M466.16,468.61h.43l1.05,2.63h-.35l-.96-2.42h.08l-.95,2.42h-.35l1.06-2.63ZM465.66,470.24h1.42v.31h-1.42v-.31Z"/>
        <path class="cls-4" d="M468.28,468.61h1.11c.16,0,.3.03.42.09s.22.15.29.25c.07.11.1.23.1.36,0,.16-.04.3-.12.42-.08.12-.18.2-.3.24.14,0,.24.03.3.08.06.06.09.15.09.28v.9h-.34v-.84c0-.09-.02-.15-.05-.18-.03-.03-.09-.05-.18-.05h-.98v1.07h-.34v-2.63ZM469.61,469.8c.08-.04.14-.1.19-.17s.07-.16.07-.26c0-.14-.05-.26-.14-.33-.09-.08-.22-.12-.39-.12h-.72v.94h.72c.1,0,.19-.02.28-.06Z"/>
        <path class="cls-4" d="M471.09,468.61h1.81v.31h-1.47v.89h1.28v.31h-1.28v1.12h-.34v-2.63Z"/>
        <path class="cls-4" d="M474.02,471.15c-.15-.08-.26-.19-.33-.34s-.11-.32-.11-.52v-1.69h.34v1.65c0,.23.05.4.16.52.11.12.26.18.47.18h.04c.2,0,.36-.06.46-.18.11-.12.16-.3.16-.52v-1.65h.34v1.69c0,.3-.08.54-.25.71-.17.18-.41.26-.73.26-.22,0-.4-.04-.54-.12Z"/>
        <path class="cls-4" d="M476.48,468.61h.57l.87,2.45h-.08s.86-2.45.86-2.45h.56v2.63h-.34v-2.46h.04s-.86,2.46-.86,2.46h-.44l-.88-2.45h.04s0,2.45,0,2.45h-.34v-2.63Z"/>
        <path class="cls-4" d="M481.71,471.05c-.14-.12-.26-.27-.34-.47-.08-.2-.12-.42-.12-.67s.04-.47.12-.67c.08-.2.19-.35.34-.47.14-.12.31-.19.49-.22v.31c-.13.02-.24.08-.34.17s-.17.21-.22.36c-.05.15-.08.32-.08.51,0,.29.06.53.17.71s.26.3.46.33v.31c-.19-.03-.35-.1-.49-.22Z"/>
        <path class="cls-4" d="M482.99,468.61h1.81v.31h-1.47v.89h1.28v.31h-1.28v1.12h-.34v-2.63Z"/>
        <path class="cls-4" d="M485.51,468.61h1.11c.16,0,.3.03.42.09s.22.15.29.25c.07.11.1.23.1.36,0,.16-.04.3-.12.42-.08.12-.18.2-.3.24.14,0,.24.03.3.08.06.06.09.15.09.28v.9h-.34v-.84c0-.09-.02-.15-.05-.18-.03-.03-.09-.05-.18-.05h-.98v1.07h-.34v-2.63ZM486.85,469.8c.08-.04.14-.1.19-.17s.07-.16.07-.26c0-.14-.05-.26-.14-.33-.09-.08-.22-.12-.39-.12h-.72v.94h.72c.1,0,.19-.02.28-.06Z"/>
        <path class="cls-4" d="M489.06,468.61h.43l1.05,2.63h-.35l-.96-2.42h.08l-.95,2.42h-.35l1.06-2.63ZM488.55,470.24h1.42v.31h-1.42v-.31Z"/>
        <path class="cls-4" d="M491.53,471.1c-.19-.12-.33-.28-.43-.48-.1-.21-.15-.44-.15-.7s.05-.5.15-.7c.1-.2.25-.36.44-.48.19-.12.41-.17.67-.17.21,0,.39.04.55.11.15.08.27.18.36.32.09.13.14.29.15.46h-.34c-.02-.18-.09-.33-.22-.43s-.29-.15-.49-.15h-.04c-.18,0-.34.04-.47.12-.14.08-.24.2-.32.36-.08.16-.11.35-.11.56s.04.41.11.56c.08.16.18.28.32.36.14.08.29.12.48.12h.04c.15,0,.28-.03.39-.08.12-.06.2-.13.27-.24.06-.1.09-.21.09-.34v-.09h-.77v-.3h.78c.1,0,.17.03.22.08.05.05.07.12.07.22v1.03h-.3v-.31c-.04.05-.1.11-.17.16s-.16.1-.27.13c-.11.03-.23.05-.36.05-.25,0-.47-.06-.65-.17Z"/>
        <path class="cls-4" d="M494.13,468.61h1.11c.16,0,.3.03.42.09s.22.15.29.25c.07.11.1.23.1.36,0,.16-.04.3-.12.42-.08.12-.18.2-.3.24.14,0,.24.03.3.08.06.06.09.15.09.28v.9h-.34v-.84c0-.09-.02-.15-.05-.18-.03-.03-.09-.05-.18-.05h-.98v1.07h-.34v-2.63ZM495.46,469.8c.08-.04.14-.1.19-.17s.07-.16.07-.26c0-.14-.05-.26-.14-.33-.09-.08-.22-.12-.39-.12h-.72v.94h.72c.1,0,.19-.02.28-.06Z"/>
        <path class="cls-4" d="M497.67,468.61h.43l1.05,2.63h-.35l-.96-2.42h.08l-.95,2.42h-.35l1.06-2.63ZM497.17,470.24h1.42v.31h-1.42v-.31Z"/>
        <path class="cls-4" d="M499.79,468.61h.47l1.36,2.3-.06.02v-2.32h.34v2.63h-.46l-1.36-2.3h.06s0,2.3,0,2.3h-.34v-2.63Z"/>
        <path class="cls-4" d="M503.26,471.1c-.19-.12-.33-.28-.43-.48-.1-.2-.15-.43-.15-.69s.05-.49.15-.69c.1-.2.24-.37.43-.48.19-.12.4-.18.65-.18.19,0,.36.04.51.11.15.07.28.17.37.3.09.13.14.28.15.45h-.34c-.02-.16-.09-.29-.21-.4-.12-.1-.28-.15-.47-.15h-.04c-.18,0-.34.05-.47.14-.13.09-.23.22-.3.38-.07.16-.1.34-.1.53s.03.37.1.53c.07.16.17.28.3.38.13.09.29.14.47.14h.04c.13,0,.24-.02.34-.07.1-.05.18-.11.23-.2s.09-.18.1-.28h.34c-.01.17-.06.32-.15.45-.09.13-.22.23-.37.3-.15.07-.32.11-.51.11-.25,0-.46-.06-.65-.18Z"/>
        <path class="cls-4" d="M505.73,468.61h1.89v.31h-1.55v.82h1.33v.31h-1.33v.89h1.59v.31h-1.93v-2.63Z"/>
        <path class="cls-4" d="M508.76,468.79c.14.12.26.27.34.47.08.2.12.42.12.67s-.04.47-.12.67c-.08.2-.19.35-.34.47-.14.12-.31.19-.49.22v-.31c.13-.02.24-.08.34-.17.09-.09.17-.21.22-.36.05-.15.08-.32.08-.51,0-.29-.06-.53-.17-.71s-.26-.3-.46-.33v-.31c.19.03.35.1.49.22Z"/>
        <path class="cls-4" d="M509.72,471.52h.12c.08,0,.13-.02.17-.06.04-.04.06-.09.06-.17v-.06h-.22v-.42h.42v.5c0,.09-.02.17-.05.23-.03.06-.08.11-.14.14-.06.03-.14.05-.23.05h-.14v-.21Z"/>
        <path class="cls-4" d="M418.45,473.11h.34v2.32h1.55v.31h-1.89v-2.63Z"/>
        <path class="cls-4" d="M421.01,473.11h.34v2.63h-.34v-2.63Z"/>
        <path class="cls-4" d="M422.31,473.11h.57l.87,2.45h-.08s.86-2.45.86-2.45h.56v2.63h-.34v-2.46h.04s-.86,2.46-.86,2.46h-.44l-.88-2.45h.04s0,2.45,0,2.45h-.34v-2.63Z"/>
        <path class="cls-4" d="M426.48,475.61c-.19-.11-.33-.27-.44-.47-.1-.2-.16-.44-.16-.72s.05-.52.16-.72c.11-.2.25-.36.44-.47.19-.11.4-.16.63-.16s.44.05.63.16c.19.11.33.27.44.47.1.2.16.44.16.72s-.05.51-.16.72c-.11.2-.25.36-.44.47-.19.11-.4.16-.63.16s-.45-.05-.63-.16ZM427.57,475.34c.13-.08.23-.2.31-.36s.11-.34.11-.56-.04-.4-.11-.56c-.08-.16-.18-.28-.31-.36s-.28-.13-.45-.13h-.04c-.17,0-.32.04-.45.13-.13.08-.23.2-.31.36-.07.16-.11.34-.11.56s.04.4.11.56c.07.16.18.28.31.36.13.08.28.13.45.13h.04c.17,0,.32-.04.45-.13Z"/>
        <path class="cls-4" d="M429.13,473.11h.47l1.36,2.3-.06.02v-2.32h.34v2.63h-.46l-1.36-2.3h.06s0,2.3,0,2.3h-.34v-2.63Z"/>
        <path class="cls-4" d="M432.19,473.11h1.89v.31h-1.55v.82h1.33v.31h-1.33v.89h1.59v.31h-1.93v-2.63Z"/>
        <path class="cls-4" d="M434.89,473.11h.47l1.36,2.3-.06.02v-2.32h.34v2.63h-.46l-1.36-2.3h.06s0,2.3,0,2.3h-.34v-2.63Z"/>
        <path class="cls-4" d="M437.94,473.11h1.89v.31h-1.55v.82h1.33v.31h-1.33v.89h1.59v.31h-1.93v-2.63Z"/>
        <path class="cls-4" d="M440.43,476.02h.12c.08,0,.13-.02.17-.06.04-.04.06-.09.06-.17v-.06h-.22v-.42h.42v.5c0,.09-.02.17-.05.23-.03.06-.08.11-.14.14-.06.03-.14.05-.23.05h-.14v-.21Z"/>
        <path class="cls-4" d="M443.04,473.11h.34v2.32h1.55v.31h-1.89v-2.63Z"/>
        <path class="cls-4" d="M445.6,473.11h.34v2.63h-.34v-2.63Z"/>
        <path class="cls-4" d="M446.89,473.11h.47l1.36,2.3-.06.02v-2.32h.34v2.63h-.46l-1.36-2.3h.06s0,2.3,0,2.3h-.34v-2.63Z"/>
        <path class="cls-4" d="M450.68,473.11h.43l1.05,2.63h-.35l-.96-2.42h.08l-.95,2.42h-.35l1.06-2.63ZM450.18,474.74h1.42v.31h-1.42v-.31Z"/>
        <path class="cls-4" d="M452.8,473.11h.34v2.32h1.55v.31h-1.89v-2.63Z"/>
        <path class="cls-4" d="M455.64,475.61c-.19-.11-.33-.27-.44-.47-.1-.2-.16-.44-.16-.72s.05-.52.16-.72c.11-.2.25-.36.44-.47.19-.11.4-.16.63-.16s.44.05.63.16c.19.11.33.27.44.47.1.2.16.44.16.72s-.05.51-.16.72c-.11.2-.25.36-.44.47-.19.11-.4.16-.63.16s-.45-.05-.63-.16ZM456.73,475.34c.13-.08.23-.2.31-.36s.11-.34.11-.56-.04-.4-.11-.56c-.08-.16-.18-.28-.31-.36s-.28-.13-.45-.13h-.04c-.17,0-.32.04-.45.13-.13.08-.23.2-.31.36-.07.16-.11.34-.11.56s.04.4.11.56c.07.16.18.28.31.36.13.08.28.13.45.13h.04c.17,0,.32-.04.45-.13Z"/>
        <path class="cls-4" d="M458.74,475.61c-.19-.11-.33-.27-.44-.47-.1-.2-.16-.44-.16-.72s.05-.52.16-.72c.11-.2.25-.36.44-.47.19-.11.4-.16.63-.16s.44.05.63.16c.19.11.33.27.44.47.1.2.16.44.16.72s-.05.51-.16.72c-.11.2-.25.36-.44.47-.19.11-.4.16-.63.16s-.45-.05-.63-.16ZM459.83,475.34c.13-.08.23-.2.31-.36s.11-.34.11-.56-.04-.4-.11-.56c-.08-.16-.18-.28-.31-.36s-.28-.13-.45-.13h-.04c-.17,0-.32.04-.45.13-.13.08-.23.2-.31.36-.07.16-.11.34-.11.56s.04.4.11.56c.07.16.18.28.31.36.13.08.28.13.45.13h.04c.17,0,.32-.04.45-.13Z"/>
        <path class="cls-4" d="M461.39,473.11h.34v2.32h1.55v.31h-1.89v-2.63Z"/>
        <path class="cls-4" d="M463.74,476.02h.12c.08,0,.13-.02.17-.06.04-.04.06-.09.06-.17v-.06h-.22v-.42h.42v.5c0,.09-.02.17-.05.23-.03.06-.08.11-.14.14-.06.03-.14.05-.23.05h-.14v-.21Z"/>
        <path class="cls-4" d="M466.77,475.6c-.19-.12-.33-.28-.43-.48-.1-.2-.15-.43-.15-.69s.05-.49.15-.69c.1-.2.24-.37.43-.48.19-.12.4-.18.65-.18.19,0,.36.04.51.11.15.07.28.17.37.3.09.13.14.28.15.45h-.34c-.02-.16-.09-.29-.21-.4-.12-.1-.28-.15-.47-.15h-.04c-.18,0-.34.05-.47.14-.13.09-.23.22-.3.38-.07.16-.1.34-.1.53s.03.37.1.53c.07.16.17.28.3.38.13.09.29.14.47.14h.04c.13,0,.24-.02.34-.07.1-.05.18-.11.23-.2s.09-.18.1-.28h.34c-.01.17-.06.32-.15.45-.09.13-.22.23-.37.3-.15.07-.32.11-.51.11-.25,0-.46-.06-.65-.18Z"/>
        <path class="cls-4" d="M469.24,473.11h.34v2.63h-.34v-2.63Z"/>
        <path class="cls-4" d="M471.2,473.41h-.95v-.31h2.23v.31h-.95v2.32h-.34v-2.32Z"/>
        <path class="cls-4" d="M473.15,473.11h1.11c.16,0,.3.03.42.09s.22.15.29.25c.07.11.1.23.1.36,0,.16-.04.3-.12.42-.08.12-.18.2-.3.24.14,0,.24.03.3.08.06.06.09.15.09.28v.9h-.34v-.84c0-.09-.02-.15-.05-.18-.03-.03-.09-.05-.18-.05h-.98v1.07h-.34v-2.63ZM474.49,474.3c.08-.04.14-.1.19-.17s.07-.16.07-.26c0-.14-.05-.26-.14-.33-.09-.08-.22-.12-.39-.12h-.72v.94h.72c.1,0,.19-.02.28-.06Z"/>
        <path class="cls-4" d="M476.4,475.61c-.19-.11-.33-.27-.44-.47-.1-.2-.16-.44-.16-.72s.05-.52.16-.72c.11-.2.25-.36.44-.47.19-.11.4-.16.63-.16s.44.05.63.16c.19.11.33.27.44.47.1.2.16.44.16.72s-.05.51-.16.72c-.11.2-.25.36-.44.47-.19.11-.4.16-.63.16s-.45-.05-.63-.16ZM477.5,475.34c.13-.08.23-.2.31-.36s.11-.34.11-.56-.04-.4-.11-.56c-.08-.16-.18-.28-.31-.36s-.28-.13-.45-.13h-.04c-.17,0-.32.04-.45.13-.13.08-.23.2-.31.36-.07.16-.11.34-.11.56s.04.4.11.56c.07.16.18.28.31.36.13.08.28.13.45.13h.04c.17,0,.32-.04.45-.13Z"/>
        <path class="cls-4" d="M479.06,473.11h.47l1.36,2.3-.06.02v-2.32h.34v2.63h-.46l-1.36-2.3h.06s0,2.3,0,2.3h-.34v-2.63Z"/>
        <path class="cls-4" d="M482.11,473.11h1.89v.31h-1.55v.82h1.33v.31h-1.33v.89h1.59v.31h-1.93v-2.63Z"/>
        <path class="cls-4" d="M484.81,473.11h.34v2.32h1.55v.31h-1.89v-2.63Z"/>
        <path class="cls-4" d="M487.38,473.11h.34v2.32h1.55v.31h-1.89v-2.63Z"/>
        <path class="cls-4" d="M490.21,475.61c-.19-.11-.33-.27-.44-.47-.1-.2-.16-.44-.16-.72s.05-.52.16-.72c.11-.2.25-.36.44-.47.19-.11.4-.16.63-.16s.44.05.63.16c.19.11.33.27.44.47.1.2.16.44.16.72s-.05.51-.16.72c-.11.2-.25.36-.44.47-.19.11-.4.16-.63.16s-.45-.05-.63-.16ZM491.31,475.34c.13-.08.23-.2.31-.36s.11-.34.11-.56-.04-.4-.11-.56c-.08-.16-.18-.28-.31-.36s-.28-.13-.45-.13h-.04c-.17,0-.32.04-.45.13-.13.08-.23.2-.31.36-.07.16-.11.34-.11.56s.04.4.11.56c.07.16.18.28.31.36.13.08.28.13.45.13h.04c.17,0,.32-.04.45-.13Z"/>
        <path class="cls-4" d="M492.87,473.11h.34v2.32h1.55v.31h-1.89v-2.63Z"/>
      </g>
      <g>
        <path class="cls-4" d="M398.58,18.98h1.81v.31h-1.47v.89h1.28v.31h-1.28v1.12h-.34v-2.63Z"/>
        <path class="cls-4" d="M401.1,18.98h.34v2.63h-.34v-2.63Z"/>
        <path class="cls-4" d="M402.4,18.98h1.11c.16,0,.3.03.42.09s.22.15.29.25c.07.11.1.23.1.36,0,.16-.04.3-.12.42-.08.12-.18.2-.3.24.14,0,.24.03.3.08.06.06.09.15.09.28v.9h-.34v-.84c0-.09-.02-.15-.05-.18-.03-.03-.09-.05-.18-.05h-.98v1.07h-.34v-2.63ZM403.73,20.17c.08-.04.14-.1.19-.17s.07-.16.07-.26c0-.14-.05-.26-.14-.33-.09-.08-.22-.12-.39-.12h-.72v.94h.72c.1,0,.19-.02.28-.06Z"/>
        <path class="cls-4" d="M406.39,18.98h1.13c.14,0,.26.03.38.08.11.06.2.14.27.24.06.1.1.23.1.37s-.04.27-.12.38-.18.18-.31.23c.14.03.26.09.35.2s.14.25.14.42c0,.14-.03.27-.1.38-.07.11-.16.19-.28.25-.12.06-.25.09-.38.09h-1.16v-2.63ZM407.81,20.01c.08-.07.12-.18.12-.31s-.04-.23-.12-.31c-.08-.07-.19-.11-.33-.11h-.75v.83h.75c.14,0,.24-.04.33-.11ZM407.85,21.18c.09-.08.14-.18.14-.32s-.05-.24-.14-.32c-.09-.08-.21-.12-.36-.12h-.76v.87h.76c.15,0,.27-.04.36-.12Z"/>
        <path class="cls-4" d="M409.85,18.98h.43l1.05,2.63h-.35l-.96-2.42h.08l-.95,2.42h-.35l1.06-2.63ZM409.34,20.61h1.42v.31h-1.42v-.31Z"/>
        <path class="cls-4" d="M411.96,18.98h.34v2.32h1.55v.31h-1.89v-2.63Z"/>
        <path class="cls-4" d="M414.73,21.54c-.15-.07-.27-.17-.35-.3-.08-.13-.13-.29-.13-.48h.34c0,.18.06.32.19.42s.3.15.51.15h.04c.18,0,.32-.04.42-.12.1-.08.15-.18.15-.3,0-.11-.04-.2-.11-.27-.07-.07-.18-.12-.33-.15l-.42-.09c-.21-.04-.38-.13-.49-.24-.11-.12-.17-.28-.17-.48,0-.14.04-.26.12-.38.08-.11.19-.21.33-.27.14-.07.3-.1.49-.1s.36.03.5.1.25.16.33.29c.08.12.12.27.13.43h-.34c-.01-.16-.07-.28-.18-.37-.11-.09-.25-.14-.42-.14h-.04c-.11,0-.21.02-.3.06-.09.04-.15.09-.2.16-.05.07-.07.14-.07.22,0,.1.03.19.1.25.07.07.16.11.29.14l.42.08c.23.04.4.13.52.25s.18.29.18.49c0,.15-.04.29-.12.4-.08.11-.19.2-.33.26-.14.06-.31.09-.5.09-.21,0-.39-.03-.54-.1Z"/>
        <path class="cls-4" d="M417.75,18.98h.43l1.05,2.63h-.35l-.96-2.42h.08l-.95,2.42h-.35l1.06-2.63ZM417.25,20.61h1.42v.31h-1.42v-.31Z"/>
        <path class="cls-4" d="M419.87,18.98h.57l.87,2.45h-.08s.86-2.45.86-2.45h.56v2.63h-.34v-2.46h.04s-.86,2.46-.86,2.46h-.44l-.88-2.45h.04s0,2.45,0,2.45h-.34v-2.63Z"/>
        <path class="cls-4" d="M430.72,18.98h1.13c.14,0,.26.03.38.08.11.06.2.14.27.24.06.1.1.23.1.37s-.04.27-.12.38-.18.18-.31.23c.14.03.26.09.35.2s.14.25.14.42c0,.14-.03.27-.1.38-.07.11-.16.19-.28.25-.12.06-.25.09-.38.09h-1.16v-2.63ZM432.13,20.01c.08-.07.12-.18.12-.31s-.04-.23-.12-.31c-.08-.07-.19-.11-.33-.11h-.75v.83h.75c.14,0,.24-.04.33-.11ZM432.18,21.18c.09-.08.14-.18.14-.32s-.05-.24-.14-.32c-.09-.08-.21-.12-.36-.12h-.76v.87h.76c.15,0,.27-.04.36-.12Z"/>
        <path class="cls-4" d="M433.47,18.98h.34v2.32h1.55v.31h-1.89v-2.63Z"/>
        <path class="cls-4" d="M436.77,18.98h.43l1.05,2.63h-.35l-.96-2.42h.08l-.95,2.42h-.35l1.06-2.63ZM436.26,20.61h1.42v.31h-1.42v-.31Z"/>
        <path class="cls-4" d="M439.23,21.47c-.19-.12-.33-.28-.43-.48-.1-.2-.15-.43-.15-.69s.05-.49.15-.69c.1-.2.24-.37.43-.48.19-.12.4-.18.65-.18.19,0,.36.04.51.11.15.07.28.17.37.3.09.13.14.28.15.45h-.34c-.02-.16-.09-.29-.21-.4-.12-.1-.28-.15-.47-.15h-.04c-.18,0-.34.05-.47.14-.13.09-.23.22-.3.38-.07.16-.1.34-.1.53s.03.37.1.53c.07.16.17.28.3.38.13.09.29.14.47.14h.04c.13,0,.24-.02.34-.07.1-.05.18-.11.23-.2s.09-.18.1-.28h.34c-.01.17-.06.32-.15.45-.09.13-.22.23-.37.3-.15.07-.32.11-.51.11-.25,0-.46-.06-.65-.18Z"/>
        <path class="cls-4" d="M441.71,18.98h.34v2.63h-.34v-2.63ZM441.96,20.42l1.44-1.44h.44l-1.89,1.91v-.46ZM442.48,20.21l.23-.26,1.15,1.66h-.42l-.96-1.4Z"/>
        <path class="cls-4" d="M444.79,21.47c-.19-.12-.33-.28-.43-.48-.1-.2-.15-.43-.15-.69s.05-.49.15-.69c.1-.2.24-.37.43-.48.19-.12.4-.18.65-.18.19,0,.36.04.51.11.15.07.28.17.37.3.09.13.14.28.15.45h-.34c-.02-.16-.09-.29-.21-.4-.12-.1-.28-.15-.47-.15h-.04c-.18,0-.34.05-.47.14-.13.09-.23.22-.3.38-.07.16-.1.34-.1.53s.03.37.1.53c.07.16.17.28.3.38.13.09.29.14.47.14h.04c.13,0,.24-.02.34-.07.1-.05.18-.11.23-.2s.09-.18.1-.28h.34c-.01.17-.06.32-.15.45-.09.13-.22.23-.37.3-.15.07-.32.11-.51.11-.25,0-.46-.06-.65-.18Z"/>
        <path class="cls-4" d="M447.68,21.52c-.15-.08-.26-.19-.33-.34s-.11-.32-.11-.52v-1.69h.34v1.65c0,.23.05.4.16.52.11.12.26.18.47.18h.04c.2,0,.36-.06.46-.18.11-.12.16-.3.16-.52v-1.65h.34v1.69c0,.3-.08.54-.25.71-.17.18-.41.26-.73.26-.22,0-.4-.04-.54-.12Z"/>
        <path class="cls-4" d="M450.14,18.98h1.11c.16,0,.3.03.42.09s.22.15.29.25c.07.11.1.23.1.36,0,.16-.04.3-.12.42-.08.12-.18.2-.3.24.14,0,.24.03.3.08.06.06.09.15.09.28v.9h-.34v-.84c0-.09-.02-.15-.05-.18-.03-.03-.09-.05-.18-.05h-.98v1.07h-.34v-2.63ZM451.47,20.17c.08-.04.14-.1.19-.17s.07-.16.07-.26c0-.14-.05-.26-.14-.33-.09-.08-.22-.12-.39-.12h-.72v.94h.72c.1,0,.19-.02.28-.06Z"/>
        <path class="cls-4" d="M452.95,18.98h1.11c.16,0,.3.03.42.09s.22.15.29.25c.07.11.1.23.1.36,0,.16-.04.3-.12.42-.08.12-.18.2-.3.24.14,0,.24.03.3.08.06.06.09.15.09.28v.9h-.34v-.84c0-.09-.02-.15-.05-.18-.03-.03-.09-.05-.18-.05h-.98v1.07h-.34v-2.63ZM454.28,20.17c.08-.04.14-.1.19-.17s.07-.16.07-.26c0-.14-.05-.26-.14-.33-.09-.08-.22-.12-.39-.12h-.72v.94h.72c.1,0,.19-.02.28-.06Z"/>
        <path class="cls-4" d="M456.49,18.98h.43l1.05,2.63h-.35l-.96-2.42h.08l-.95,2.42h-.35l1.06-2.63ZM455.99,20.61h1.42v.31h-1.42v-.31Z"/>
        <path class="cls-4" d="M458.61,18.98h.47l1.36,2.3-.06.02v-2.32h.34v2.63h-.46l-1.36-2.3h.06s0,2.3,0,2.3h-.34v-2.63Z"/>
        <path class="cls-4" d="M462.32,19.28h-.95v-.31h2.23v.31h-.95v2.32h-.34v-2.32Z"/>
        <path class="cls-4" d="M471.29,18.98h.57l.87,2.45h-.08s.86-2.45.86-2.45h.56v2.63h-.34v-2.46h.04s-.86,2.46-.86,2.46h-.44l-.88-2.45h.04s0,2.45,0,2.45h-.34v-2.63Z"/>
        <path class="cls-4" d="M475.75,18.98h.43l1.05,2.63h-.35l-.96-2.42h.08l-.95,2.42h-.35l1.06-2.63ZM475.25,20.61h1.42v.31h-1.42v-.31Z"/>
        <path class="cls-4" d="M478.22,21.47c-.19-.12-.33-.28-.43-.48-.1-.2-.15-.43-.15-.69s.05-.49.15-.69c.1-.2.24-.37.43-.48.19-.12.4-.18.65-.18.19,0,.36.04.51.11.15.07.28.17.37.3.09.13.14.28.15.45h-.34c-.02-.16-.09-.29-.21-.4-.12-.1-.28-.15-.47-.15h-.04c-.18,0-.34.05-.47.14-.13.09-.23.22-.3.38-.07.16-.1.34-.1.53s.03.37.1.53c.07.16.17.28.3.38.13.09.29.14.47.14h.04c.13,0,.24-.02.34-.07.1-.05.18-.11.23-.2s.09-.18.1-.28h.34c-.01.17-.06.32-.15.45-.09.13-.22.23-.37.3-.15.07-.32.11-.51.11-.25,0-.46-.06-.65-.18Z"/>
        <path class="cls-4" d="M480.7,18.98h1.11c.16,0,.3.03.42.09s.22.15.29.25c.07.11.1.23.1.36,0,.16-.04.3-.12.42-.08.12-.18.2-.3.24.14,0,.24.03.3.08.06.06.09.15.09.28v.9h-.34v-.84c0-.09-.02-.15-.05-.18-.03-.03-.09-.05-.18-.05h-.98v1.07h-.34v-2.63ZM482.03,20.17c.08-.04.14-.1.19-.17s.07-.16.07-.26c0-.14-.05-.26-.14-.33-.09-.08-.22-.12-.39-.12h-.72v.94h.72c.1,0,.19-.02.28-.06Z"/>
        <path class="cls-4" d="M483.95,21.48c-.19-.11-.33-.27-.44-.47-.1-.2-.16-.44-.16-.72s.05-.52.16-.72c.11-.2.25-.36.44-.47.19-.11.4-.16.63-.16s.44.05.63.16c.19.11.33.27.44.47.1.2.16.44.16.72s-.05.51-.16.72c-.11.2-.25.36-.44.47-.19.11-.4.16-.63.16s-.45-.05-.63-.16ZM485.04,21.21c.13-.08.23-.2.31-.36s.11-.34.11-.56-.04-.4-.11-.56c-.08-.16-.18-.28-.31-.36s-.28-.13-.45-.13h-.04c-.17,0-.32.04-.45.13-.13.08-.23.2-.31.36-.07.16-.11.34-.11.56s.04.4.11.56c.07.16.18.28.31.36.13.08.28.13.45.13h.04c.17,0,.32-.04.45-.13Z"/>
        <path class="cls-4" d="M487.02,21.47c-.19-.12-.33-.28-.43-.48-.1-.2-.15-.43-.15-.69s.05-.49.15-.69c.1-.2.24-.37.43-.48.19-.12.4-.18.65-.18.19,0,.36.04.51.11.15.07.28.17.37.3.09.13.14.28.15.45h-.34c-.02-.16-.09-.29-.21-.4-.12-.1-.28-.15-.47-.15h-.04c-.18,0-.34.05-.47.14-.13.09-.23.22-.3.38-.07.16-.1.34-.1.53s.03.37.1.53c.07.16.17.28.3.38.13.09.29.14.47.14h.04c.13,0,.24-.02.34-.07.1-.05.18-.11.23-.2s.09-.18.1-.28h.34c-.01.17-.06.32-.15.45-.09.13-.22.23-.37.3-.15.07-.32.11-.51.11-.25,0-.46-.06-.65-.18Z"/>
        <path class="cls-4" d="M490.06,20.52l-.95-1.54h.39l.73,1.21.73-1.21h.38l-.95,1.54v1.09h-.34v-1.09Z"/>
        <path class="cls-4" d="M492.27,21.47c-.19-.12-.33-.28-.43-.48-.1-.2-.15-.43-.15-.69s.05-.49.15-.69c.1-.2.24-.37.43-.48.19-.12.4-.18.65-.18.19,0,.36.04.51.11.15.07.28.17.37.3.09.13.14.28.15.45h-.34c-.02-.16-.09-.29-.21-.4-.12-.1-.28-.15-.47-.15h-.04c-.18,0-.34.05-.47.14-.13.09-.23.22-.3.38-.07.16-.1.34-.1.53s.03.37.1.53c.07.16.17.28.3.38.13.09.29.14.47.14h.04c.13,0,.24-.02.34-.07.1-.05.18-.11.23-.2s.09-.18.1-.28h.34c-.01.17-.06.32-.15.45-.09.13-.22.23-.37.3-.15.07-.32.11-.51.11-.25,0-.46-.06-.65-.18Z"/>
        <path class="cls-4" d="M494.74,18.98h.34v2.32h1.55v.31h-1.89v-2.63Z"/>
        <path class="cls-4" d="M497.3,18.98h.34v2.63h-.34v-2.63Z"/>
        <path class="cls-4" d="M499.02,21.47c-.19-.12-.33-.28-.43-.48-.1-.2-.15-.43-.15-.69s.05-.49.15-.69c.1-.2.24-.37.43-.48.19-.12.4-.18.65-.18.19,0,.36.04.51.11.15.07.28.17.37.3.09.13.14.28.15.45h-.34c-.02-.16-.09-.29-.21-.4-.12-.1-.28-.15-.47-.15h-.04c-.18,0-.34.05-.47.14-.13.09-.23.22-.3.38-.07.16-.1.34-.1.53s.03.37.1.53c.07.16.17.28.3.38.13.09.29.14.47.14h.04c.13,0,.24-.02.34-.07.1-.05.18-.11.23-.2s.09-.18.1-.28h.34c-.01.17-.06.32-.15.45-.09.13-.22.23-.37.3-.15.07-.32.11-.51.11-.25,0-.46-.06-.65-.18Z"/>
        <path class="cls-4" d="M502.68,18.98h.57l.87,2.45h-.08s.86-2.45.86-2.45h.56v2.63h-.34v-2.46h.04s-.86,2.46-.86,2.46h-.44l-.88-2.45h.04s0,2.45,0,2.45h-.34v-2.63Z"/>
        <path class="cls-4" d="M506.82,21.52c-.15-.08-.26-.19-.33-.34s-.11-.32-.11-.52v-1.69h.34v1.65c0,.23.05.4.16.52.11.12.26.18.47.18h.04c.2,0,.36-.06.46-.18.11-.12.16-.3.16-.52v-1.65h.34v1.69c0,.3-.08.54-.25.71-.17.18-.41.26-.73.26-.22,0-.4-.04-.54-.12Z"/>
        <path class="cls-4" d="M509.56,21.54c-.15-.07-.27-.17-.35-.3-.08-.13-.13-.29-.13-.48h.34c0,.18.06.32.19.42s.3.15.51.15h.04c.18,0,.32-.04.42-.12.1-.08.15-.18.15-.3,0-.11-.04-.2-.11-.27-.07-.07-.18-.12-.33-.15l-.42-.09c-.21-.04-.38-.13-.49-.24-.11-.12-.17-.28-.17-.48,0-.14.04-.26.12-.38.08-.11.19-.21.33-.27.14-.07.3-.1.49-.1s.36.03.5.1.25.16.33.29c.08.12.12.27.13.43h-.34c-.01-.16-.07-.28-.18-.37-.11-.09-.25-.14-.42-.14h-.04c-.11,0-.21.02-.3.06-.09.04-.15.09-.2.16-.05.07-.07.14-.07.22,0,.1.03.19.1.25.07.07.16.11.29.14l.42.08c.23.04.4.13.52.25s.18.29.18.49c0,.15-.04.29-.12.4-.08.11-.19.2-.33.26-.14.06-.31.09-.5.09-.21,0-.39-.03-.54-.1Z"/>
        <path class="cls-4" d="M511.88,18.98h.34v2.63h-.34v-2.63ZM512.14,20.42l1.44-1.44h.44l-1.89,1.91v-.46ZM512.66,20.21l.23-.26,1.15,1.66h-.42l-.96-1.4Z"/>
      </g>
      <g>
        <path class="cls-4" d="M397.02,37.08h2.38c.29,0,.56.06.79.18s.43.29.57.51.21.48.21.77-.08.57-.25.79c-.17.22-.38.38-.65.48.3.05.55.19.74.42.19.22.28.52.28.88,0,.3-.07.57-.22.79s-.34.41-.59.53-.52.19-.81.19h-2.45v-5.54ZM399.99,39.25c.17-.16.26-.37.26-.64s-.09-.49-.26-.64c-.17-.16-.4-.23-.69-.23h-1.57v1.75h1.57c.28,0,.51-.08.69-.23ZM400.09,41.73c.19-.16.28-.39.28-.68s-.09-.52-.28-.68c-.19-.16-.44-.24-.76-.24h-1.6v1.83h1.6c.32,0,.57-.08.76-.24Z"/>
        <path class="cls-4" d="M402.13,37.08h.67v5.54h-.67v-5.54Z"/>
        <path class="cls-4" d="M404.4,42.54c-.2-.1-.35-.24-.46-.42-.11-.18-.17-.38-.17-.6,0-.28.07-.51.21-.68s.31-.3.53-.38c.21-.08.44-.13.68-.15l1.14-.1v-.13c0-.2-.04-.37-.11-.51-.07-.14-.17-.24-.3-.32-.13-.07-.29-.11-.47-.11h-.06c-.23,0-.43.06-.59.17-.16.11-.26.27-.28.47h-.67c.02-.36.18-.65.47-.87.29-.22.66-.34,1.1-.34.33,0,.62.07.86.2.24.13.42.32.54.55.12.23.18.48.18.75v1.66c0,.4.01.69.04.87h-.63c-.03-.14-.04-.35-.04-.63-.08.2-.25.36-.48.5s-.51.21-.82.21c-.24,0-.46-.05-.66-.15ZM405.72,42c.17-.08.32-.2.44-.34.12-.14.17-.3.17-.46v-.44l-1.04.08c-.25.02-.46.09-.61.21-.16.12-.23.27-.23.46,0,.18.07.33.2.45.13.12.29.18.49.18h.07c.17,0,.34-.04.51-.13Z"/>
        <path class="cls-4" d="M408.8,42.43c-.28-.18-.49-.42-.64-.74-.15-.31-.22-.66-.22-1.05s.07-.74.22-1.05c.15-.31.36-.56.64-.74.28-.18.61-.27,1-.27.3,0,.56.06.79.17.23.11.42.27.56.48.14.21.22.45.25.72h-.67c-.04-.24-.14-.43-.3-.58-.16-.15-.36-.22-.59-.22h-.07c-.25,0-.47.07-.64.2-.18.13-.31.31-.39.54-.08.23-.13.47-.13.74,0,.42.1.77.3,1.06.2.28.49.43.86.43h.07c.23,0,.43-.08.58-.23s.26-.34.3-.57h.67c-.05.42-.21.75-.5,1-.29.25-.65.37-1.1.37-.39,0-.73-.09-1-.27Z"/>
        <path class="cls-4" d="M412.35,37.08h.67v3.4l1.86-1.82h.89l-1.65,1.57,1.72,2.38h-.83l-1.38-1.92-.62.61v1.31h-.67v-5.54Z"/>
        <path class="cls-4" d="M416.96,42.43c-.28-.18-.49-.42-.64-.74-.15-.31-.22-.66-.22-1.05s.07-.74.22-1.05c.15-.31.36-.56.64-.74.28-.18.61-.27,1-.27.29,0,.56.06.79.17.23.11.42.27.56.48.14.21.22.45.25.72h-.67c-.04-.24-.14-.43-.3-.58s-.36-.22-.59-.22h-.07c-.25,0-.47.07-.64.2-.18.13-.31.31-.39.54-.08.23-.13.47-.13.74,0,.42.1.77.3,1.06.2.28.49.43.86.43h.07c.23,0,.43-.08.58-.23s.26-.34.3-.57h.67c-.05.42-.21.75-.5,1-.29.25-.65.37-1.1.37-.39,0-.73-.09-1-.27Z"/>
        <path class="cls-4" d="M421.08,42.51c-.2-.12-.36-.29-.46-.5-.1-.21-.15-.46-.15-.74v-2.61h.67v2.45c0,.34.07.59.21.76s.35.25.64.25h.07c.18,0,.35-.05.51-.16s.29-.26.39-.46.15-.43.15-.7v-2.14h.67v3.95h-.67v-.75c-.09.25-.25.45-.47.6-.22.15-.49.23-.81.23-.29,0-.54-.06-.74-.18Z"/>
        <path class="cls-4" d="M424.99,38.66h.63v.88c.08-.29.23-.52.44-.68.21-.16.46-.24.73-.24h.36v.64h-.32c-.36,0-.65.12-.86.37s-.31.58-.31,1.01v1.98h-.67v-3.95Z"/>
        <path class="cls-4" d="M427.92,38.66h.63v.88c.08-.29.23-.52.44-.68.21-.16.46-.24.73-.24h.36v.64h-.32c-.36,0-.65.12-.86.37s-.31.58-.31,1.01v1.98h-.67v-3.95Z"/>
        <path class="cls-4" d="M431.15,42.54c-.19-.1-.35-.24-.46-.42-.11-.18-.17-.38-.17-.6,0-.28.07-.51.21-.68s.31-.3.53-.38c.21-.08.44-.13.68-.15l1.14-.1v-.13c0-.2-.04-.37-.11-.51-.07-.14-.17-.24-.3-.32-.13-.07-.29-.11-.47-.11h-.06c-.23,0-.43.06-.59.17-.16.11-.26.27-.28.47h-.67c.02-.36.18-.65.47-.87.29-.22.66-.34,1.1-.34.33,0,.62.07.86.2.24.13.42.32.54.55.12.23.18.48.18.75v1.66c0,.4.01.69.04.87h-.63c-.03-.14-.04-.35-.04-.63-.08.2-.25.36-.48.5s-.51.21-.82.21c-.24,0-.46-.05-.66-.15ZM432.47,42c.17-.08.32-.2.44-.34.12-.14.17-.3.17-.46v-.44l-1.04.08c-.25.02-.46.09-.61.21-.16.12-.23.27-.23.46,0,.18.07.33.2.45s.3.18.49.18h.07c.17,0,.34-.04.51-.13Z"/>
        <path class="cls-4" d="M434.93,38.66h.67v.59c.13-.21.3-.37.52-.49.22-.12.48-.18.79-.18s.54.06.75.17c.21.11.37.28.49.49.11.21.17.46.17.75v2.62h-.67v-2.47c0-.22-.03-.4-.09-.55s-.15-.26-.28-.34-.28-.12-.47-.12h-.06c-.22,0-.41.06-.58.17-.17.11-.31.27-.4.47-.1.2-.15.43-.15.69v2.13h-.67v-3.95Z"/>
        <path class="cls-4" d="M440.07,42.41c-.14-.14-.21-.34-.21-.6v-2.56h-.89v-.58h.89v-1.28h.67v1.28h.96v.58h-.96v2.47c0,.12.02.2.07.25.05.05.13.07.25.07h.77v.59h-.93c-.27,0-.47-.07-.62-.21Z"/>
        <path class="cls-4" d="M444.76,42.54c-.2-.1-.35-.24-.46-.42-.11-.18-.17-.38-.17-.6,0-.28.07-.51.21-.68s.31-.3.53-.38c.21-.08.44-.13.68-.15l1.14-.1v-.13c0-.2-.04-.37-.11-.51-.07-.14-.17-.24-.3-.32-.13-.07-.29-.11-.47-.11h-.06c-.23,0-.43.06-.59.17-.16.11-.26.27-.28.47h-.67c.02-.36.18-.65.47-.87.29-.22.66-.34,1.1-.34.33,0,.62.07.86.2.24.13.42.32.54.55.12.23.18.48.18.75v1.66c0,.4.01.69.04.87h-.63c-.03-.14-.04-.35-.04-.63-.08.2-.25.36-.48.5s-.51.21-.82.21c-.24,0-.46-.05-.66-.15ZM446.07,42c.17-.08.32-.2.43-.34.12-.14.17-.3.17-.46v-.44l-1.04.08c-.25.02-.46.09-.61.21-.16.12-.23.27-.23.46,0,.18.07.33.2.45s.3.18.49.18h.07c.17,0,.34-.04.51-.13Z"/>
        <path class="cls-4" d="M448.53,38.66h.67v.59c.13-.21.3-.37.52-.49.22-.12.48-.18.79-.18s.54.06.75.17c.21.11.37.28.49.49.11.21.17.46.17.75v2.62h-.67v-2.47c0-.22-.03-.4-.09-.55s-.15-.26-.28-.34-.28-.12-.47-.12h-.06c-.22,0-.41.06-.58.17-.17.11-.31.27-.4.47-.1.2-.15.43-.15.69v2.13h-.67v-3.95Z"/>
        <path class="cls-4" d="M453.68,42.45c-.26-.17-.46-.4-.61-.71s-.22-.67-.22-1.09.08-.79.23-1.1c.16-.31.37-.55.64-.71.27-.17.57-.25.91-.25.26,0,.51.06.75.19s.4.28.51.47v-2.16h.67v5.54h-.67v-.58c-.11.19-.28.35-.53.47-.25.12-.51.19-.78.19-.34,0-.64-.08-.89-.25ZM455.32,41.94c.18-.12.32-.29.42-.52.1-.22.15-.49.15-.79s-.05-.56-.15-.79c-.1-.22-.24-.4-.42-.52-.18-.12-.38-.18-.6-.18h-.06c-.23,0-.42.06-.59.18-.17.12-.3.29-.4.52-.09.22-.14.49-.14.79,0,.46.1.82.31,1.09.21.27.48.4.82.4h.06c.22,0,.42-.06.6-.18Z"/>
        <path class="cls-4" d="M459.84,37.08h3.81v.65h-3.1v1.87h2.7v.65h-2.7v2.36h-.71v-5.54Z"/>
        <path class="cls-4" d="M464.43,37.14h.75v.81h-.75v-.81ZM464.47,38.66h.67v3.95h-.67v-3.95Z"/>
        <path class="cls-4" d="M466.35,38.66h.63v.88c.08-.29.23-.52.44-.68.21-.16.46-.24.73-.24h.36v.64h-.32c-.36,0-.65.12-.86.37-.21.25-.31.58-.31,1.01v1.98h-.67v-3.95Z"/>
        <path class="cls-4" d="M471.15,37.08h2.38c.29,0,.55.06.79.18.24.12.43.29.57.51.14.22.21.48.21.77s-.08.57-.25.79c-.17.22-.38.38-.65.48.3.05.55.19.74.42.19.22.29.52.29.88,0,.3-.07.57-.22.79s-.34.41-.59.53c-.25.12-.52.19-.81.19h-2.45v-5.54ZM474.12,39.25c.17-.16.26-.37.26-.64s-.09-.49-.26-.64c-.17-.16-.4-.23-.69-.23h-1.57v1.75h1.57c.28,0,.51-.08.69-.23ZM474.22,41.73c.19-.16.28-.39.28-.68s-.09-.52-.28-.68c-.19-.16-.44-.24-.76-.24h-1.6v1.83h1.6c.32,0,.57-.08.76-.24Z"/>
        <path class="cls-4" d="M476.66,42.54c-.19-.1-.35-.24-.46-.42-.11-.18-.17-.38-.17-.6,0-.28.07-.51.21-.68s.32-.3.53-.38c.21-.08.44-.13.68-.15l1.14-.1v-.13c0-.2-.04-.37-.11-.51-.07-.14-.17-.24-.3-.32-.13-.07-.29-.11-.47-.11h-.06c-.23,0-.43.06-.59.17-.16.11-.26.27-.28.47h-.67c.02-.36.18-.65.47-.87.29-.22.66-.34,1.1-.34.33,0,.62.07.86.2.24.13.42.32.54.55.12.23.18.48.18.75v1.66c0,.4.01.69.04.87h-.63c-.03-.14-.04-.35-.04-.63-.08.2-.25.36-.48.5-.24.14-.51.21-.82.21-.24,0-.46-.05-.66-.15ZM477.97,42c.17-.08.32-.2.44-.34.12-.14.17-.3.17-.46v-.44l-1.04.08c-.25.02-.46.09-.61.21-.16.12-.23.27-.23.46,0,.18.07.33.2.45.13.12.29.18.49.18h.07c.17,0,.34-.04.51-.13Z"/>
        <path class="cls-4" d="M480.43,37.08h.67v5.54h-.67v-5.54Z"/>
        <path class="cls-4" d="M482.44,42.34c-.28-.24-.42-.55-.43-.93h.67c.03.24.12.42.29.54s.38.18.64.18h.07c.23,0,.42-.05.57-.16.15-.11.22-.25.22-.42,0-.14-.05-.26-.14-.34-.09-.09-.24-.15-.46-.19l-.58-.12c-.34-.07-.62-.19-.82-.37-.21-.18-.31-.42-.31-.74,0-.25.07-.47.2-.65.13-.18.31-.32.54-.41s.47-.14.73-.14c.49,0,.87.12,1.13.36s.4.55.41.92h-.67c-.03-.21-.11-.38-.25-.51s-.33-.21-.58-.21h-.07c-.23,0-.42.05-.56.16-.14.11-.21.24-.21.4,0,.15.05.27.14.35.1.09.25.15.47.19l.62.13c.33.06.59.18.78.36.19.18.29.43.29.75,0,.24-.06.45-.19.62-.13.18-.31.32-.54.42s-.49.15-.79.15c-.5,0-.89-.12-1.17-.36Z"/>
        <path class="cls-4" d="M486.53,42.54c-.19-.1-.35-.24-.46-.42-.11-.18-.17-.38-.17-.6,0-.28.07-.51.21-.68s.31-.3.53-.38c.21-.08.44-.13.68-.15l1.14-.1v-.13c0-.2-.04-.37-.11-.51-.07-.14-.17-.24-.3-.32-.13-.07-.29-.11-.47-.11h-.06c-.23,0-.43.06-.59.17-.16.11-.26.27-.28.47h-.67c.02-.36.18-.65.47-.87.29-.22.66-.34,1.1-.34.33,0,.62.07.86.2.24.13.42.32.54.55.12.23.18.48.18.75v1.66c0,.4.01.69.04.87h-.63c-.03-.14-.04-.35-.04-.63-.08.2-.25.36-.48.5-.24.14-.51.21-.82.21-.24,0-.46-.05-.66-.15ZM487.84,42c.17-.08.32-.2.44-.34.12-.14.17-.3.17-.46v-.44l-1.04.08c-.25.02-.46.09-.61.21-.16.12-.23.27-.23.46,0,.18.07.33.2.45s.29.18.49.18h.07c.17,0,.34-.04.51-.13Z"/>
        <path class="cls-4" d="M490.3,38.66h.67v.58c.13-.19.29-.35.5-.47.21-.12.45-.18.72-.18.29,0,.55.06.77.19.22.13.39.32.51.57.14-.26.33-.46.57-.58.23-.12.49-.19.77-.19s.54.06.75.17c.21.11.37.28.48.49.11.21.17.46.17.75v2.62h-.67v-2.47c0-.33-.07-.58-.21-.74-.14-.17-.35-.25-.63-.25h-.06c-.19,0-.37.06-.53.17-.16.11-.29.27-.38.47s-.14.43-.14.69v2.13h-.67v-2.47c0-.33-.07-.58-.2-.74-.13-.17-.34-.25-.63-.25h-.06c-.19,0-.37.06-.53.17-.16.11-.29.27-.38.47s-.14.43-.14.69v2.13h-.67v-3.95Z"/>
        <path class="cls-4" d="M500.01,42.43c-.28-.17-.51-.42-.67-.73-.16-.31-.25-.67-.25-1.07s.08-.76.25-1.07c.16-.31.39-.55.67-.73.28-.17.6-.26.95-.26s.67.09.96.26c.28.17.51.42.67.73.16.31.25.67.25,1.07s-.08.76-.25,1.07c-.16.31-.39.55-.67.73s-.6.26-.96.26-.66-.09-.95-.26ZM501.6,41.95c.18-.12.31-.29.42-.51.1-.22.15-.49.15-.79s-.05-.57-.15-.79c-.1-.22-.24-.4-.42-.51-.18-.12-.38-.18-.6-.18h-.07c-.22,0-.42.06-.6.18-.18.12-.31.29-.42.51-.1.22-.15.49-.15.79s.05.57.15.79c.1.22.24.4.42.51.18.12.38.18.6.18h.07c.22,0,.42-.06.6-.18Z"/>
        <path class="cls-4" d="M503.81,38.66h.67v.58c.11-.19.28-.35.53-.47.25-.12.51-.19.77-.19.34,0,.64.08.89.25s.46.4.61.71c.15.31.22.67.22,1.1s-.08.79-.23,1.09-.36.55-.64.71c-.27.17-.57.25-.91.25-.27,0-.52-.06-.75-.19-.23-.12-.4-.28-.51-.47v2.16h-.67v-5.54ZM506.3,41.94c.17-.12.3-.29.4-.52.09-.22.14-.49.14-.79,0-.46-.1-.82-.31-1.09-.21-.27-.48-.4-.83-.4h-.06c-.22,0-.42.06-.6.18-.18.12-.31.29-.42.52s-.15.49-.15.79.05.56.15.79c.1.22.24.4.42.52s.38.18.6.18h.06c.23,0,.43-.06.6-.18Z"/>
        <path class="cls-4" d="M509.16,42.46c-.28-.16-.5-.39-.66-.7-.16-.31-.25-.69-.25-1.13s.08-.81.25-1.12c.17-.31.39-.54.67-.7s.57-.23.89-.23c.33,0,.62.07.87.22s.44.35.58.62c.13.27.2.57.2.91v.4h-2.79c.01.31.07.56.18.77.11.21.25.36.43.47.17.1.35.15.54.15h.06c.23,0,.42-.06.58-.17.16-.11.27-.28.32-.5h.67c-.07.39-.26.69-.56.91s-.65.32-1.07.32c-.34,0-.64-.08-.92-.23ZM510.76,39.42c-.17-.18-.4-.27-.66-.27h-.06c-.25,0-.48.08-.68.25s-.33.43-.4.79h2.09c-.02-.33-.11-.59-.28-.77Z"/>
        <path class="cls-4" d="M512.71,38.66h.67v.59c.13-.21.3-.37.52-.49.22-.12.48-.18.79-.18.29,0,.54.06.75.17.21.11.37.28.49.49.11.21.17.46.17.75v2.62h-.67v-2.47c0-.22-.03-.4-.09-.55-.06-.15-.15-.26-.28-.34s-.28-.12-.47-.12h-.06c-.22,0-.41.06-.58.17-.17.11-.31.27-.4.47s-.15.43-.15.69v2.13h-.67v-3.95Z"/>
        <path class="cls-4" d="M401.77,52.58c-.27-.1-.47-.25-.62-.43-.15-.18-.23-.39-.26-.63h.67c.04.21.16.36.36.47.2.11.45.17.75.17h.08c.36,0,.65-.1.87-.31.22-.21.33-.52.33-.94v-.58c-.12.2-.28.35-.49.47s-.46.18-.74.18c-.32,0-.61-.08-.88-.23s-.47-.38-.63-.68c-.16-.3-.23-.67-.23-1.1s.08-.8.23-1.11c.16-.31.36-.54.63-.69s.56-.23.88-.23c.29,0,.54.06.76.19.22.12.37.28.47.47v-.58h.67v3.95c0,.33-.08.63-.23.9-.15.27-.37.47-.66.62-.29.15-.63.22-1.02.22-.36,0-.67-.05-.94-.15ZM403.38,50.26c.17-.12.31-.28.42-.5.1-.22.15-.47.15-.76s-.05-.55-.15-.77-.23-.39-.4-.51c-.17-.12-.35-.18-.55-.18h-.07c-.21,0-.4.05-.57.16-.17.11-.3.27-.4.49-.1.22-.15.49-.15.81,0,.47.1.83.3,1.07.2.24.47.36.79.36h.06c.21,0,.4-.06.57-.17Z"/>
        <path class="cls-4" d="M405.83,47.04h.63v.88c.08-.29.23-.52.44-.68s.46-.24.73-.24h.36v.64h-.32c-.36,0-.65.12-.86.37-.21.25-.31.58-.31,1.01v1.98h-.67v-3.95Z"/>
        <path class="cls-4" d="M409.27,50.84c-.28-.16-.5-.39-.66-.7-.16-.31-.25-.69-.25-1.13s.08-.81.25-1.12c.17-.31.39-.54.67-.7s.57-.23.89-.23c.33,0,.62.07.87.22s.44.35.58.62c.13.27.2.57.2.91v.4h-2.79c.01.31.07.56.18.77.11.21.25.36.43.47.17.1.35.15.54.15h.06c.23,0,.42-.06.58-.17.16-.11.27-.28.32-.5h.67c-.07.39-.26.69-.56.91s-.65.32-1.07.32c-.34,0-.64-.08-.92-.23ZM410.87,47.8c-.17-.18-.4-.27-.66-.27h-.06c-.25,0-.48.08-.68.25s-.33.43-.4.79h2.09c-.02-.33-.11-.59-.28-.77Z"/>
        <path class="cls-4" d="M413.49,50.84c-.28-.16-.5-.39-.66-.7-.16-.31-.25-.69-.25-1.13s.08-.81.25-1.12c.17-.31.39-.54.67-.7s.57-.23.89-.23c.33,0,.62.07.87.22s.44.35.58.62c.13.27.2.57.2.91v.4h-2.79c.01.31.07.56.18.77.11.21.25.36.43.47.17.1.35.15.54.15h.06c.23,0,.42-.06.58-.17.16-.11.27-.28.32-.5h.67c-.07.39-.26.69-.56.91s-.65.32-1.07.32c-.34,0-.64-.08-.92-.23ZM415.09,47.8c-.17-.18-.4-.27-.66-.27h-.06c-.25,0-.48.08-.68.25s-.33.43-.4.79h2.09c-.02-.33-.11-.59-.28-.77Z"/>
        <path class="cls-4" d="M417.05,47.04h.67v.59c.13-.21.3-.37.52-.49.22-.12.48-.18.79-.18.29,0,.54.06.75.17.21.11.37.28.49.49.11.21.17.46.17.75v2.62h-.67v-2.47c0-.22-.03-.4-.09-.55-.06-.15-.15-.26-.28-.34s-.28-.12-.47-.12h-.06c-.22,0-.41.06-.58.17-.17.11-.31.27-.4.47s-.15.43-.15.69v2.13h-.67v-3.95Z"/>
        <path class="cls-4" d="M421.27,51.59h.26c.16,0,.28-.04.36-.12s.12-.2.12-.36v-.12h-.46v-.89h.89v1.05c0,.19-.04.35-.11.48-.07.13-.17.23-.3.3-.13.07-.29.1-.47.1h-.28v-.45Z"/>
        <path class="cls-4" d="M426.74,50.89c-.25-.12-.42-.28-.53-.47v.58h-.67v-5.54h.67v2.16c.11-.19.27-.35.51-.47s.48-.19.75-.19c.33,0,.63.08.91.25s.48.4.64.71c.15.31.23.67.23,1.1s-.07.79-.22,1.09-.35.55-.61.71-.56.25-.89.25c-.27,0-.53-.06-.77-.19ZM428.03,50.33c.17-.12.3-.29.4-.52.1-.22.14-.49.14-.79,0-.46-.1-.82-.31-1.09-.21-.27-.48-.4-.83-.4h-.06c-.22,0-.42.06-.6.18-.18.12-.31.29-.42.52-.1.22-.15.49-.15.79s.05.56.15.79c.1.22.24.4.42.52.18.12.38.18.6.18h.06c.23,0,.43-.06.6-.18Z"/>
        <path class="cls-4" d="M430.18,45.53h.75v.81h-.75v-.81ZM430.22,47.04h.67v3.95h-.67v-3.95Z"/>
        <path class="cls-4" d="M432.72,50.79c-.14-.14-.21-.34-.21-.6v-2.56h-.89v-.58h.89v-1.28h.67v1.28h.96v.58h-.96v2.47c0,.12.02.2.07.25.05.05.13.07.25.07h.77v.59h-.93c-.27,0-.47-.07-.62-.21Z"/>
        <path class="cls-4" d="M435.69,50.79c-.14-.14-.21-.34-.21-.6v-2.56h-.89v-.58h.89v-1.28h.67v1.28h.96v.58h-.96v2.47c0,.12.02.2.07.25.05.05.13.07.25.07h.77v.59h-.93c-.27,0-.47-.07-.62-.21Z"/>
        <path class="cls-4" d="M438.66,50.84c-.28-.16-.5-.39-.66-.7-.16-.31-.25-.69-.25-1.13s.08-.81.25-1.12.39-.54.67-.7c.28-.16.57-.23.89-.23.33,0,.62.07.87.22s.44.35.58.62c.13.27.2.57.2.91v.4h-2.79c.01.31.07.56.18.77.11.21.25.36.43.47.17.1.35.15.54.15h.06c.23,0,.42-.06.59-.17.16-.11.27-.28.32-.5h.67c-.07.39-.26.69-.56.91s-.65.32-1.07.32c-.34,0-.64-.08-.92-.23ZM440.26,47.8c-.17-.18-.4-.27-.66-.27h-.06c-.25,0-.48.08-.68.25s-.33.43-.4.79h2.09c-.02-.33-.11-.59-.28-.77Z"/>
        <path class="cls-4" d="M442.21,47.04h.63v.88c.08-.29.23-.52.44-.68s.46-.24.73-.24h.36v.64h-.32c-.36,0-.65.12-.86.37-.21.25-.31.58-.31,1.01v1.98h-.67v-3.95Z"/>
        <path class="cls-4" d="M447.29,50.93c-.2-.1-.35-.24-.46-.42-.11-.18-.17-.38-.17-.6,0-.28.07-.51.21-.68s.31-.3.53-.38c.21-.08.44-.13.68-.15l1.14-.1v-.13c0-.2-.04-.37-.11-.51-.07-.14-.17-.24-.3-.32-.13-.07-.29-.11-.47-.11h-.06c-.23,0-.43.06-.59.17-.16.11-.26.27-.28.47h-.67c.02-.36.18-.65.47-.87.29-.22.66-.34,1.1-.34.33,0,.62.07.86.2.24.13.42.32.54.55.12.23.18.48.18.75v1.66c0,.4.01.69.04.87h-.63c-.03-.14-.04-.35-.04-.63-.08.2-.25.36-.48.5s-.51.21-.82.21c-.24,0-.46-.05-.66-.15ZM448.6,50.38c.17-.08.32-.2.44-.34.12-.14.17-.3.17-.46v-.44l-1.04.08c-.25.02-.46.09-.61.21-.16.12-.23.27-.23.46,0,.18.07.33.2.45.13.12.29.18.49.18h.07c.17,0,.34-.04.51-.13Z"/>
        <path class="cls-4" d="M451.06,47.04h.67v.59c.13-.21.3-.37.52-.49.22-.12.48-.18.79-.18s.54.06.75.17c.21.11.37.28.49.49.11.21.17.46.17.75v2.62h-.67v-2.47c0-.22-.03-.4-.09-.55s-.15-.26-.28-.34-.28-.12-.47-.12h-.06c-.22,0-.41.06-.58.17-.17.11-.31.27-.4.47-.1.2-.15.43-.15.69v2.13h-.67v-3.95Z"/>
        <path class="cls-4" d="M456.21,50.83c-.26-.17-.46-.4-.61-.71-.15-.31-.22-.67-.22-1.09s.08-.79.23-1.1c.16-.31.37-.55.64-.71.27-.17.57-.25.91-.25.26,0,.51.06.75.19.23.12.4.28.51.47v-2.16h.67v5.54h-.67v-.58c-.11.19-.28.35-.53.47-.25.12-.51.19-.78.19-.34,0-.64-.08-.89-.25ZM457.85,50.33c.18-.12.32-.29.42-.52.1-.22.15-.49.15-.79s-.05-.56-.15-.79c-.1-.22-.24-.4-.42-.52-.18-.12-.38-.18-.6-.18h-.06c-.23,0-.42.06-.59.18-.17.12-.3.29-.4.52-.1.22-.14.49-.14.79,0,.46.1.82.31,1.09.21.27.48.4.82.4h.06c.22,0,.42-.06.6-.18Z"/>
        <path class="cls-4" d="M462.25,47.04h.63v.88c.08-.29.23-.52.44-.68.21-.16.46-.24.73-.24h.36v.64h-.32c-.36,0-.65.12-.86.37s-.31.58-.31,1.01v1.98h-.67v-3.95Z"/>
        <path class="cls-4" d="M465.13,45.53h.75v.81h-.75v-.81ZM465.17,47.04h.67v3.95h-.67v-3.95Z"/>
        <path class="cls-4" d="M467.06,47.04h.67v.58c.11-.19.28-.35.53-.47s.51-.19.77-.19c.34,0,.64.08.89.25s.46.4.61.71.22.67.22,1.1-.08.79-.23,1.09-.37.55-.64.71-.57.25-.91.25c-.27,0-.52-.06-.75-.19-.23-.12-.4-.28-.51-.47v2.16h-.67v-5.54ZM469.54,50.33c.17-.12.3-.29.4-.52.09-.22.14-.49.14-.79,0-.46-.1-.82-.31-1.09-.21-.27-.48-.4-.83-.4h-.06c-.22,0-.42.06-.6.18-.18.12-.31.29-.42.52s-.15.49-.15.79.05.56.15.79c.1.22.24.4.42.52.18.12.38.18.6.18h.06c.23,0,.43-.06.6-.18Z"/>
        <path class="cls-4" d="M472.4,50.84c-.28-.16-.5-.39-.66-.7-.16-.31-.25-.69-.25-1.13s.08-.81.25-1.12.39-.54.67-.7c.28-.16.57-.23.89-.23.33,0,.62.07.87.22s.44.35.58.62c.13.27.2.57.2.91v.4h-2.79c.01.31.07.56.18.77.11.21.25.36.43.47.17.1.35.15.54.15h.06c.23,0,.42-.06.59-.17.16-.11.27-.28.32-.5h.67c-.07.39-.26.69-.56.91s-.65.32-1.07.32c-.34,0-.64-.08-.92-.23ZM474.01,47.8c-.17-.18-.4-.27-.66-.27h-.06c-.25,0-.48.08-.68.25-.2.17-.33.43-.4.79h2.09c-.02-.33-.11-.59-.28-.77Z"/>
        <path class="cls-4" d="M475.88,50.11h.9v.89h-.9v-.89Z"/>
        <path class="cls-4" d="M479.11,45.46h.75l2.04,5.01h-.13s1.95-5.01,1.95-5.01h.75l-2.21,5.54h-.89l-2.26-5.54Z"/>
        <path class="cls-4" d="M485.11,45.53h.75v.81h-.75v-.81ZM485.15,47.04h.67v3.95h-.67v-3.95Z"/>
        <path class="cls-4" d="M487.7,50.82c-.28-.17-.51-.42-.67-.73-.16-.31-.25-.67-.25-1.07s.08-.76.25-1.07c.16-.31.39-.55.67-.73.28-.17.6-.26.95-.26s.67.09.96.26c.28.17.51.42.67.73.16.31.25.67.25,1.07s-.08.76-.25,1.07c-.16.31-.39.55-.67.73s-.6.26-.96.26-.66-.09-.95-.26ZM489.29,50.33c.18-.12.31-.29.42-.51.1-.22.15-.49.15-.79s-.05-.57-.15-.79c-.1-.22-.24-.4-.42-.51-.18-.12-.38-.18-.6-.18h-.07c-.22,0-.42.06-.6.18-.18.12-.31.29-.42.51-.1.22-.15.49-.15.79s.05.57.15.79c.1.22.24.4.42.51.18.12.38.18.6.18h.07c.22,0,.42-.06.6-.18Z"/>
        <path class="cls-4" d="M491.5,45.46h.67v5.54h-.67v-5.54Z"/>
        <path class="cls-4" d="M494.05,50.84c-.28-.16-.5-.39-.66-.7-.16-.31-.25-.69-.25-1.13s.08-.81.25-1.12.39-.54.67-.7c.28-.16.57-.23.89-.23.33,0,.62.07.87.22s.44.35.58.62c.13.27.2.57.2.91v.4h-2.79c.01.31.07.56.18.77.11.21.25.36.43.47.17.1.35.15.54.15h.06c.23,0,.42-.06.59-.17.16-.11.27-.28.32-.5h.67c-.07.39-.26.69-.56.91s-.65.32-1.07.32c-.34,0-.64-.08-.92-.23ZM495.65,47.8c-.17-.18-.4-.27-.66-.27h-.06c-.25,0-.48.08-.68.25s-.33.43-.4.79h2.09c-.02-.33-.11-.59-.28-.77Z"/>
        <path class="cls-4" d="M498.16,50.79c-.14-.14-.21-.34-.21-.6v-2.56h-.89v-.58h.89v-1.28h.67v1.28h.96v.58h-.96v2.47c0,.12.02.2.07.25.05.05.13.07.25.07h.77v.59h-.92c-.27,0-.47-.07-.62-.21Z"/>
        <path class="cls-4" d="M502.41,45.53h.75v.81h-.75v-.81ZM502.45,47.04h.67v3.95h-.67v-3.95Z"/>
        <path class="cls-4" d="M504.33,47.04h.63v.88c.08-.29.23-.52.44-.68s.46-.24.73-.24h.36v.64h-.32c-.36,0-.65.12-.86.37-.21.25-.31.58-.31,1.01v1.98h-.67v-3.95Z"/>
        <path class="cls-4" d="M507.22,45.53h.75v.81h-.75v-.81ZM507.26,47.04h.67v3.95h-.67v-3.95Z"/>
        <path class="cls-4" d="M509.27,50.72c-.28-.24-.42-.55-.43-.93h.67c.03.24.12.42.29.54s.38.18.64.18h.07c.23,0,.42-.05.57-.16.15-.11.22-.25.22-.42,0-.14-.05-.26-.14-.34-.09-.09-.24-.15-.45-.19l-.58-.12c-.34-.07-.62-.19-.82-.37-.21-.18-.31-.42-.31-.74,0-.25.07-.47.2-.65.13-.18.31-.32.54-.41.22-.09.47-.14.73-.14.49,0,.87.12,1.13.36s.4.55.41.92h-.67c-.03-.21-.11-.38-.25-.51-.14-.14-.33-.21-.58-.21h-.07c-.23,0-.42.05-.56.16-.14.11-.21.24-.21.4,0,.15.05.27.14.35.1.09.25.15.47.19l.62.13c.33.06.59.18.78.36.19.18.29.43.29.75,0,.24-.06.45-.19.62-.13.18-.31.32-.54.42-.23.1-.49.15-.79.15-.5,0-.89-.12-1.17-.36Z"/>
        <path class="cls-4" d="M396.56,59.28c-.25-.12-.42-.28-.53-.47v.58h-.67v-5.54h.67v2.16c.11-.19.27-.35.51-.47s.48-.19.75-.19c.33,0,.63.08.91.25.27.17.48.4.64.71.15.31.23.67.23,1.1s-.07.79-.22,1.09c-.15.31-.35.55-.61.71-.26.17-.56.25-.89.25-.27,0-.53-.06-.78-.19ZM397.84,58.71c.17-.12.3-.29.4-.52.09-.22.14-.49.14-.79,0-.46-.1-.82-.31-1.09-.21-.27-.48-.4-.83-.4h-.06c-.22,0-.42.06-.6.18-.18.12-.32.29-.42.52s-.15.49-.15.79.05.56.15.79c.1.22.24.4.42.52.18.12.38.18.6.18h.06c.23,0,.43-.06.6-.18Z"/>
        <path class="cls-4" d="M400.04,55.43h.63v.88c.08-.29.23-.52.44-.68.21-.16.46-.24.73-.24h.36v.64h-.32c-.36,0-.65.12-.86.37-.21.25-.31.58-.31,1.01v1.98h-.67v-3.95Z"/>
        <path class="cls-4" d="M402.92,53.91h.75v.81h-.75v-.81ZM402.96,55.43h.67v3.95h-.67v-3.95Z"/>
        <path class="cls-4" d="M404.85,55.43h.67v.59c.13-.21.3-.37.52-.49.22-.12.48-.18.79-.18.29,0,.54.06.75.17.21.11.37.28.49.49.11.21.17.46.17.75v2.62h-.67v-2.47c0-.22-.03-.4-.09-.55s-.15-.26-.28-.34c-.13-.08-.28-.12-.47-.12h-.06c-.22,0-.41.06-.58.17-.17.11-.31.27-.4.47-.1.2-.15.43-.15.69v2.13h-.67v-3.95Z"/>
        <path class="cls-4" d="M409.97,60.97c-.27-.1-.47-.25-.62-.43-.15-.18-.23-.39-.26-.63h.67c.04.21.16.36.36.47.2.11.45.17.75.17h.08c.36,0,.65-.1.87-.31.22-.21.33-.52.33-.94v-.58c-.12.2-.28.35-.49.47s-.46.18-.74.18c-.32,0-.61-.08-.88-.23s-.47-.38-.63-.68c-.16-.3-.23-.67-.23-1.1s.08-.8.23-1.11c.16-.31.36-.54.63-.69s.56-.23.88-.23c.29,0,.54.06.76.19.22.12.37.28.47.47v-.58h.67v3.95c0,.33-.08.63-.23.9-.15.27-.37.47-.66.62-.29.15-.63.22-1.02.22-.36,0-.67-.05-.94-.15ZM411.58,58.64c.17-.12.31-.28.42-.5.1-.22.15-.47.15-.76s-.05-.55-.15-.77-.23-.39-.4-.51c-.17-.12-.35-.18-.55-.18h-.07c-.21,0-.4.05-.57.16-.17.11-.3.27-.4.49-.1.22-.15.49-.15.81,0,.47.1.83.3,1.07.2.24.47.36.79.36h.06c.21,0,.4-.06.57-.17Z"/>
        <path class="cls-4" d="M414.15,59.1c-.28-.24-.42-.55-.44-.93h.67c.03.24.12.42.29.54s.38.18.64.18h.07c.23,0,.42-.05.57-.16s.22-.25.22-.42c0-.14-.05-.26-.14-.34s-.24-.15-.45-.19l-.58-.12c-.34-.07-.62-.19-.82-.37-.21-.18-.31-.42-.31-.74,0-.25.07-.47.2-.65.13-.18.31-.32.54-.41s.47-.14.73-.14c.49,0,.87.12,1.13.36s.4.55.41.92h-.67c-.03-.21-.11-.38-.25-.51s-.33-.21-.58-.21h-.07c-.23,0-.42.05-.56.16-.14.11-.21.24-.21.4,0,.15.05.27.14.35.1.09.25.15.47.19l.62.13c.33.06.59.18.78.36s.29.43.29.75c0,.24-.06.45-.19.62-.13.18-.31.32-.54.42s-.49.15-.79.15c-.5,0-.89-.12-1.17-.36Z"/>
        <path class="cls-4" d="M420.2,59.31c-.2-.1-.35-.24-.46-.42-.11-.18-.17-.38-.17-.6,0-.28.07-.51.21-.68s.31-.3.53-.38c.21-.08.44-.13.68-.15l1.14-.1v-.13c0-.2-.04-.37-.11-.51-.07-.14-.17-.24-.3-.32-.13-.07-.29-.11-.47-.11h-.06c-.23,0-.43.06-.59.17-.16.11-.26.27-.28.47h-.67c.02-.36.18-.65.47-.87.29-.22.66-.34,1.1-.34.33,0,.62.07.86.2.24.13.42.32.54.55.12.23.18.48.18.75v1.66c0,.4.01.69.04.87h-.63c-.03-.14-.04-.35-.04-.63-.08.2-.25.36-.48.5s-.51.21-.82.21c-.24,0-.46-.05-.66-.15ZM421.51,58.76c.17-.08.32-.2.44-.34.12-.14.17-.3.17-.46v-.44l-1.04.08c-.25.02-.46.09-.61.21-.16.12-.23.27-.23.46,0,.18.07.33.2.45s.3.18.49.18h.07c.17,0,.34-.04.51-.13Z"/>
        <path class="cls-4" d="M425.91,55.43h.67v.58c.11-.19.28-.35.53-.47s.51-.19.77-.19c.34,0,.64.08.89.25s.46.4.61.71.22.67.22,1.1-.08.79-.23,1.09-.37.55-.64.71-.57.25-.91.25c-.27,0-.52-.06-.75-.19-.23-.12-.4-.28-.51-.47v2.16h-.67v-5.54ZM428.4,58.71c.17-.12.3-.29.4-.52.1-.22.14-.49.14-.79,0-.46-.1-.82-.31-1.09-.21-.27-.48-.4-.83-.4h-.06c-.22,0-.42.06-.6.18-.18.12-.31.29-.42.52-.1.22-.15.49-.15.79s.05.56.15.79c.1.22.24.4.42.52s.38.18.6.18h.06c.23,0,.43-.06.6-.18Z"/>
        <path class="cls-4" d="M431.27,59.2c-.28-.17-.51-.42-.67-.73-.16-.31-.25-.67-.25-1.07s.08-.76.25-1.07c.16-.31.39-.55.67-.73.28-.17.6-.26.95-.26s.67.09.96.26c.28.17.51.42.67.73.16.31.25.67.25,1.07s-.08.76-.25,1.07c-.16.31-.39.55-.67.73s-.6.26-.96.26-.66-.09-.95-.26ZM432.85,58.71c.18-.12.31-.29.42-.51.1-.22.15-.49.15-.79s-.05-.57-.15-.79c-.1-.22-.24-.4-.42-.51-.18-.12-.38-.18-.6-.18h-.07c-.22,0-.42.06-.6.18-.18.12-.31.29-.42.51-.1.22-.15.49-.15.79s.05.57.15.79c.1.22.24.4.42.51.18.12.38.18.6.18h.07c.22,0,.42-.06.6-.18Z"/>
        <path class="cls-4" d="M435.06,53.85h.67v5.54h-.67v-5.54Z"/>
        <path class="cls-4" d="M436.9,53.91h.75v.81h-.75v-.81ZM436.94,55.43h.67v3.95h-.67v-3.95Z"/>
        <path class="cls-4" d="M438.95,59.1c-.28-.24-.42-.55-.43-.93h.67c.03.24.12.42.29.54s.38.18.64.18h.07c.23,0,.42-.05.57-.16.15-.11.22-.25.22-.42,0-.14-.05-.26-.14-.34s-.24-.15-.45-.19l-.58-.12c-.34-.07-.62-.19-.82-.37-.21-.18-.31-.42-.31-.74,0-.25.07-.47.2-.65.13-.18.31-.32.54-.41s.47-.14.73-.14c.49,0,.87.12,1.13.36s.4.55.41.92h-.67c-.03-.21-.11-.38-.25-.51s-.33-.21-.58-.21h-.07c-.23,0-.42.05-.56.16-.14.11-.21.24-.21.4,0,.15.05.27.14.35s.25.15.47.19l.62.13c.33.06.59.18.78.36s.29.43.29.75c0,.24-.06.45-.19.62-.13.18-.31.32-.54.42s-.49.15-.79.15c-.5,0-.89-.12-1.17-.36Z"/>
        <path class="cls-4" d="M442.65,53.85h.67v2.17c.13-.21.31-.38.53-.49.22-.12.48-.18.79-.18s.55.06.76.17c.21.12.37.28.48.49.11.21.16.46.16.74v2.63h-.67v-2.47c0-.21-.03-.39-.09-.54s-.15-.26-.28-.34c-.13-.08-.29-.12-.47-.12h-.07c-.2,0-.38.05-.55.15-.17.1-.31.25-.42.44s-.16.42-.16.68v2.19h-.67v-5.54Z"/>
        <path class="cls-4" d="M447.88,59.23c-.28-.16-.5-.39-.66-.7-.16-.31-.25-.69-.25-1.13s.08-.81.25-1.12c.17-.31.39-.54.67-.7s.57-.23.89-.23c.33,0,.62.07.87.22s.44.35.58.62c.13.27.2.57.2.91v.4h-2.79c.01.31.07.56.18.77.11.21.25.36.43.47s.35.15.54.15h.06c.23,0,.42-.06.59-.17s.27-.28.32-.5h.67c-.07.39-.26.69-.56.91-.3.22-.66.32-1.07.32-.34,0-.64-.08-.92-.23ZM449.48,56.19c-.17-.18-.4-.27-.66-.27h-.06c-.25,0-.48.08-.68.25-.2.17-.33.43-.4.79h2.09c-.02-.33-.11-.59-.28-.77Z"/>
        <path class="cls-4" d="M452.03,59.21c-.26-.17-.46-.4-.61-.71-.15-.31-.22-.67-.22-1.09s.08-.79.23-1.1c.16-.31.37-.55.64-.71.27-.17.57-.25.91-.25.26,0,.51.06.75.19.23.12.4.28.51.47v-2.16h.67v5.54h-.67v-.58c-.11.19-.28.35-.53.47-.25.12-.51.19-.78.19-.34,0-.63-.08-.89-.25ZM453.66,58.71c.18-.12.32-.29.42-.52.1-.22.15-.49.15-.79s-.05-.56-.15-.79-.24-.4-.42-.52c-.18-.12-.38-.18-.6-.18h-.06c-.23,0-.42.06-.59.18-.17.12-.3.29-.4.52-.09.22-.14.49-.14.79,0,.46.1.82.31,1.09.21.27.48.4.82.4h.06c.22,0,.42-.06.6-.18Z"/>
        <path class="cls-4" d="M458.19,59.1c-.28-.24-.42-.55-.43-.93h.67c.03.24.12.42.29.54.17.12.38.18.64.18h.07c.23,0,.42-.05.57-.16.15-.11.22-.25.22-.42,0-.14-.05-.26-.14-.34s-.24-.15-.45-.19l-.58-.12c-.34-.07-.62-.19-.82-.37-.21-.18-.31-.42-.31-.74,0-.25.07-.47.2-.65.13-.18.31-.32.54-.41.22-.09.47-.14.73-.14.49,0,.87.12,1.13.36.26.24.4.55.41.92h-.67c-.03-.21-.11-.38-.25-.51s-.33-.21-.58-.21h-.07c-.23,0-.42.05-.56.16-.14.11-.21.24-.21.4,0,.15.05.27.14.35.09.09.25.15.47.19l.62.13c.33.06.59.18.78.36s.29.43.29.75c0,.24-.06.45-.19.62-.13.18-.31.32-.54.42-.23.1-.49.15-.79.15-.5,0-.89-.12-1.17-.36Z"/>
        <path class="cls-4" d="M462.56,59.2c-.28-.17-.51-.42-.67-.73-.16-.31-.25-.67-.25-1.07s.08-.76.25-1.07c.16-.31.39-.55.67-.73.28-.17.6-.26.95-.26s.67.09.96.26c.28.17.51.42.67.73.16.31.25.67.25,1.07s-.08.76-.25,1.07c-.16.31-.39.55-.67.73s-.6.26-.96.26-.66-.09-.95-.26ZM464.15,58.71c.18-.12.31-.29.42-.51.1-.22.15-.49.15-.79s-.05-.57-.15-.79c-.1-.22-.24-.4-.42-.51-.18-.12-.38-.18-.6-.18h-.07c-.22,0-.42.06-.6.18-.18.12-.31.29-.42.51-.1.22-.15.49-.15.79s.05.57.15.79c.1.22.24.4.42.51.18.12.38.18.6.18h.07c.22,0,.42-.06.6-.18Z"/>
        <path class="cls-4" d="M466.72,56h-.89v-.58h.89v-.79c0-.27.07-.47.2-.6.13-.13.34-.19.6-.19h1.07v.58h-.89c-.12,0-.2.02-.25.07s-.07.13-.07.25v.68h1v.58h-1v3.38h-.67v-3.38Z"/>
        <path class="cls-4" d="M469.79,59.17c-.14-.14-.21-.34-.21-.6v-2.56h-.89v-.58h.89v-1.28h.67v1.28h.96v.58h-.96v2.47c0,.12.02.2.07.25.05.05.13.07.25.07h.77v.59h-.93c-.27,0-.47-.07-.62-.21Z"/>
        <path class="cls-4" d="M472.14,55.43h.67v.59c.13-.21.3-.37.52-.49.22-.12.48-.18.79-.18s.54.06.75.17c.21.11.37.28.49.49.11.21.17.46.17.75v2.62h-.67v-2.47c0-.22-.03-.4-.09-.55s-.15-.26-.28-.34c-.13-.08-.29-.12-.47-.12h-.06c-.22,0-.41.06-.58.17-.17.11-.31.27-.4.47s-.15.43-.15.69v2.13h-.67v-3.95Z"/>
        <path class="cls-4" d="M477.37,59.23c-.28-.16-.5-.39-.66-.7-.16-.31-.25-.69-.25-1.13s.08-.81.25-1.12c.17-.31.39-.54.67-.7s.57-.23.89-.23c.33,0,.62.07.87.22.25.15.44.35.58.62.13.27.2.57.2.91v.4h-2.79c.01.31.07.56.18.77.11.21.25.36.43.47s.35.15.54.15h.06c.23,0,.42-.06.58-.17s.27-.28.32-.5h.67c-.07.39-.26.69-.56.91s-.66.32-1.07.32c-.34,0-.64-.08-.92-.23ZM478.97,56.19c-.17-.18-.4-.27-.66-.27h-.06c-.25,0-.48.08-.68.25-.2.17-.33.43-.4.79h2.09c-.02-.33-.11-.59-.28-.77Z"/>
        <path class="cls-4" d="M481.05,59.1c-.28-.24-.42-.55-.43-.93h.67c.03.24.12.42.29.54s.38.18.64.18h.07c.23,0,.42-.05.57-.16.15-.11.22-.25.22-.42,0-.14-.05-.26-.14-.34-.09-.09-.24-.15-.46-.19l-.58-.12c-.34-.07-.62-.19-.82-.37-.21-.18-.31-.42-.31-.74,0-.25.07-.47.2-.65.13-.18.31-.32.54-.41s.47-.14.73-.14c.49,0,.87.12,1.13.36s.4.55.41.92h-.67c-.03-.21-.11-.38-.25-.51s-.33-.21-.58-.21h-.07c-.23,0-.42.05-.56.16-.14.11-.21.24-.21.4,0,.15.05.27.14.35.1.09.25.15.47.19l.62.13c.33.06.59.18.78.36.19.18.29.43.29.75,0,.24-.06.45-.19.62-.13.18-.31.32-.54.42s-.49.15-.79.15c-.5,0-.89-.12-1.17-.36Z"/>
        <path class="cls-4" d="M484.88,59.1c-.28-.24-.42-.55-.44-.93h.67c.03.24.12.42.29.54.17.12.38.18.64.18h.07c.23,0,.42-.05.57-.16s.22-.25.22-.42c0-.14-.05-.26-.14-.34s-.24-.15-.45-.19l-.58-.12c-.34-.07-.62-.19-.82-.37-.21-.18-.31-.42-.31-.74,0-.25.07-.47.2-.65.13-.18.31-.32.54-.41s.47-.14.73-.14c.49,0,.87.12,1.13.36.26.24.4.55.41.92h-.67c-.03-.21-.11-.38-.25-.51s-.33-.21-.58-.21h-.07c-.23,0-.42.05-.56.16-.14.11-.21.24-.21.4,0,.15.05.27.14.35.09.09.25.15.47.19l.62.13c.33.06.59.18.78.36s.29.43.29.75c0,.24-.06.45-.19.62-.13.18-.31.32-.54.42s-.49.15-.79.15c-.5,0-.89-.12-1.17-.36Z"/>
        <path class="cls-4" d="M491,59.17c-.14-.14-.21-.34-.21-.6v-2.56h-.89v-.58h.89v-1.28h.67v1.28h.96v.58h-.96v2.47c0,.12.02.2.07.25.05.05.13.07.25.07h.77v.59h-.93c-.27,0-.47-.07-.62-.21Z"/>
        <path class="cls-4" d="M493.35,53.85h.67v2.17c.13-.21.31-.38.53-.49.22-.12.48-.18.79-.18s.55.06.76.17c.21.12.37.28.48.49.11.21.16.46.16.74v2.63h-.67v-2.47c0-.21-.03-.39-.09-.54s-.15-.26-.28-.34c-.13-.08-.29-.12-.47-.12h-.07c-.19,0-.38.05-.55.15-.17.1-.31.25-.42.44s-.16.42-.16.68v2.19h-.67v-5.54Z"/>
        <path class="cls-4" d="M497.91,55.43h.63v.88c.08-.29.23-.52.44-.68s.46-.24.73-.24h.36v.64h-.32c-.36,0-.65.12-.86.37-.21.25-.31.58-.31,1.01v1.98h-.67v-3.95Z"/>
        <path class="cls-4" d="M501.36,59.2c-.28-.17-.51-.42-.67-.73-.16-.31-.25-.67-.25-1.07s.08-.76.25-1.07c.16-.31.39-.55.67-.73.28-.17.6-.26.95-.26s.67.09.96.26c.28.17.51.42.67.73.16.31.25.67.25,1.07s-.08.76-.25,1.07c-.16.31-.39.55-.67.73s-.6.26-.96.26-.66-.09-.95-.26ZM502.94,58.71c.18-.12.31-.29.42-.51.1-.22.15-.49.15-.79s-.05-.57-.15-.79c-.1-.22-.24-.4-.42-.51-.18-.12-.38-.18-.6-.18h-.07c-.22,0-.42.06-.6.18-.18.12-.31.29-.42.51-.1.22-.15.49-.15.79s.05.57.15.79c.1.22.24.4.42.51.18.12.38.18.6.18h.07c.22,0,.42-.06.6-.18Z"/>
        <path class="cls-4" d="M505.73,59.28c-.2-.12-.36-.29-.46-.5-.1-.21-.15-.46-.15-.74v-2.61h.67v2.45c0,.34.07.59.21.76.14.17.35.25.64.25h.07c.18,0,.35-.05.51-.16.16-.11.29-.26.39-.46s.15-.43.15-.7v-2.14h.67v3.95h-.67v-.75c-.09.25-.25.45-.47.6-.22.15-.49.23-.81.23-.29,0-.54-.06-.74-.18Z"/>
        <path class="cls-4" d="M510.2,60.97c-.27-.1-.47-.25-.62-.43-.15-.18-.23-.39-.26-.63h.67c.04.21.16.36.36.47.2.11.45.17.75.17h.08c.36,0,.65-.1.87-.31.22-.21.33-.52.33-.94v-.58c-.12.2-.28.35-.49.47s-.46.18-.74.18c-.32,0-.61-.08-.88-.23-.26-.15-.47-.38-.63-.68s-.23-.67-.23-1.1.08-.8.23-1.11.37-.54.63-.69c.26-.16.56-.23.88-.23.29,0,.54.06.76.19s.37.28.47.47v-.58h.67v3.95c0,.33-.08.63-.23.9-.15.27-.37.47-.66.62-.29.15-.63.22-1.02.22-.36,0-.67-.05-.94-.15ZM511.8,58.64c.17-.12.31-.28.42-.5.1-.22.15-.47.15-.76s-.05-.55-.15-.77-.23-.39-.4-.51c-.17-.12-.35-.18-.55-.18h-.07c-.21,0-.4.05-.57.16-.17.11-.3.27-.4.49-.1.22-.15.49-.15.81,0,.47.1.83.3,1.07.2.24.47.36.79.36h.06c.21,0,.4-.06.57-.17Z"/>
        <path class="cls-4" d="M514.26,53.85h.67v2.17c.13-.21.31-.38.53-.49.22-.12.48-.18.79-.18s.55.06.76.17c.21.12.37.28.48.49.11.21.16.46.16.74v2.63h-.67v-2.47c0-.21-.03-.39-.09-.54-.06-.15-.15-.26-.28-.34s-.28-.12-.47-.12h-.07c-.19,0-.38.05-.55.15-.17.1-.31.25-.42.44-.11.19-.16.42-.16.68v2.19h-.67v-5.54Z"/>
        <path class="cls-4" d="M404.72,67.55c-.14-.14-.21-.34-.21-.6v-2.56h-.89v-.58h.89v-1.28h.67v1.28h.96v.58h-.96v2.47c0,.12.02.2.07.25.05.05.13.07.25.07h.77v.59h-.93c-.27,0-.47-.07-.62-.21Z"/>
        <path class="cls-4" d="M407.07,62.23h.67v2.17c.13-.21.31-.38.53-.49.22-.12.48-.18.79-.18s.55.06.76.17c.21.12.37.28.48.49.11.21.16.46.16.74v2.63h-.67v-2.47c0-.21-.03-.39-.09-.54s-.15-.26-.28-.34-.28-.12-.47-.12h-.07c-.2,0-.38.05-.55.15-.17.1-.31.25-.42.44s-.16.42-.16.68v2.19h-.67v-5.54Z"/>
        <path class="cls-4" d="M412.3,67.61c-.28-.16-.5-.39-.66-.7-.16-.31-.25-.69-.25-1.13s.08-.81.25-1.12c.17-.31.39-.54.67-.7s.57-.23.89-.23c.33,0,.62.07.87.22s.44.35.58.62c.13.27.2.57.2.91v.4h-2.79c.01.31.07.56.18.77.11.21.25.36.43.47s.35.15.54.15h.06c.23,0,.42-.06.59-.17s.27-.28.32-.5h.67c-.07.39-.26.69-.56.91-.3.22-.66.32-1.07.32-.34,0-.64-.08-.92-.23ZM413.9,64.57c-.17-.18-.4-.27-.66-.27h-.06c-.25,0-.48.08-.68.25-.2.17-.33.43-.4.79h2.09c-.02-.33-.11-.59-.28-.77Z"/>
        <path class="cls-4" d="M417.8,63.81h.67v.58c.13-.19.29-.35.5-.47.21-.12.45-.18.72-.18.3,0,.55.06.78.19.22.13.39.32.51.57.14-.26.33-.46.57-.58s.49-.19.77-.19.54.06.75.17c.21.11.37.28.48.49.11.21.17.46.17.75v2.62h-.67v-2.47c0-.33-.07-.58-.21-.74-.14-.17-.35-.25-.63-.25h-.06c-.2,0-.37.06-.53.17-.16.11-.29.27-.38.47s-.14.43-.14.69v2.13h-.67v-2.47c0-.33-.07-.58-.2-.74-.13-.17-.34-.25-.63-.25h-.06c-.19,0-.37.06-.53.17-.16.11-.29.27-.38.47-.09.2-.14.43-.14.69v2.13h-.67v-3.95Z"/>
        <path class="cls-4" d="M424.86,62.29h.75v.81h-.75v-.81ZM424.9,63.81h.67v3.95h-.67v-3.95Z"/>
        <path class="cls-4" d="M427.37,67.59c-.26-.17-.46-.4-.61-.71s-.22-.67-.22-1.09.08-.79.23-1.1c.16-.31.37-.55.64-.71.27-.17.57-.25.91-.25.26,0,.51.06.75.19s.4.28.51.47v-2.16h.67v5.54h-.67v-.58c-.11.19-.28.35-.53.47-.25.12-.51.19-.78.19-.34,0-.64-.08-.89-.25ZM429,67.09c.18-.12.32-.29.42-.52.1-.22.15-.49.15-.79s-.05-.56-.15-.79c-.1-.22-.24-.4-.42-.52-.18-.12-.38-.18-.6-.18h-.06c-.23,0-.42.06-.59.18-.17.12-.3.29-.4.52-.09.22-.14.49-.14.79,0,.46.1.82.31,1.09.21.27.48.4.82.4h.06c.22,0,.42-.06.6-.18Z"/>
        <path class="cls-4" d="M432.05,67.59c-.26-.17-.46-.4-.61-.71-.15-.31-.22-.67-.22-1.09s.08-.79.23-1.1c.16-.31.37-.55.64-.71.27-.17.57-.25.91-.25.26,0,.51.06.75.19.23.12.4.28.51.47v-2.16h.67v5.54h-.67v-.58c-.11.19-.28.35-.53.47-.25.12-.51.19-.78.19-.34,0-.63-.08-.89-.25ZM433.69,67.09c.18-.12.32-.29.42-.52.1-.22.15-.49.15-.79s-.05-.56-.15-.79-.24-.4-.42-.52c-.18-.12-.38-.18-.6-.18h-.06c-.23,0-.42.06-.59.18-.17.12-.3.29-.4.52-.09.22-.14.49-.14.79,0,.46.1.82.31,1.09.21.27.48.4.82.4h.06c.22,0,.42-.06.6-.18Z"/>
        <path class="cls-4" d="M436.14,62.23h.67v5.54h-.67v-5.54Z"/>
        <path class="cls-4" d="M438.69,67.61c-.28-.16-.5-.39-.66-.7-.16-.31-.25-.69-.25-1.13s.08-.81.25-1.12.39-.54.67-.7c.28-.16.57-.23.89-.23.33,0,.62.07.87.22s.44.35.58.62c.13.27.2.57.2.91v.4h-2.79c.01.31.07.56.18.77.11.21.25.36.43.47.17.1.35.15.54.15h.06c.23,0,.42-.06.59-.17.16-.11.27-.28.32-.5h.67c-.07.39-.26.69-.56.91s-.65.32-1.07.32c-.34,0-.64-.08-.92-.23ZM440.29,64.57c-.17-.18-.4-.27-.66-.27h-.06c-.25,0-.48.08-.68.25-.2.17-.33.43-.4.79h2.09c-.02-.33-.11-.59-.28-.77Z"/>
        <path class="cls-4" d="M445.39,67.66c-.25-.12-.42-.28-.53-.47v.58h-.67v-5.54h.67v2.16c.11-.19.27-.35.51-.47.23-.12.48-.19.75-.19.33,0,.63.08.91.25s.48.4.64.71.23.67.23,1.1-.07.79-.22,1.09-.35.55-.61.71-.56.25-.89.25c-.27,0-.53-.06-.77-.19ZM446.68,67.09c.17-.12.3-.29.4-.52.1-.22.14-.49.14-.79,0-.46-.1-.82-.31-1.09-.21-.27-.48-.4-.83-.4h-.06c-.22,0-.42.06-.6.18-.18.12-.31.29-.42.52-.1.22-.15.49-.15.79s.05.56.15.79c.1.22.24.4.42.52s.38.18.6.18h.06c.23,0,.43-.06.6-.18Z"/>
        <path class="cls-4" d="M449.54,67.61c-.28-.16-.5-.39-.66-.7-.16-.31-.25-.69-.25-1.13s.08-.81.25-1.12.39-.54.67-.7c.28-.16.57-.23.89-.23.33,0,.62.07.87.22s.44.35.58.62c.13.27.2.57.2.91v.4h-2.79c.01.31.07.56.18.77.11.21.25.36.43.47.17.1.35.15.54.15h.06c.23,0,.42-.06.59-.17.16-.11.27-.28.32-.5h.67c-.07.39-.26.69-.56.91s-.65.32-1.07.32c-.34,0-.64-.08-.92-.23ZM451.14,64.57c-.17-.18-.4-.27-.66-.27h-.06c-.25,0-.48.08-.68.25s-.33.43-.4.79h2.09c-.02-.33-.11-.59-.28-.77Z"/>
        <path class="cls-4" d="M453.47,64.39h-.89v-.58h.89v-.79c0-.27.07-.47.2-.6.13-.13.34-.19.6-.19h1.07v.58h-.89c-.12,0-.2.02-.25.07-.05.04-.07.13-.07.25v.68h1v.58h-1v3.38h-.67v-3.38Z"/>
        <path class="cls-4" d="M456.48,67.58c-.28-.17-.51-.42-.67-.73-.16-.31-.25-.67-.25-1.07s.08-.76.25-1.07c.16-.31.39-.55.67-.73.28-.17.6-.26.95-.26s.67.09.96.26c.28.17.51.42.67.73.16.31.25.67.25,1.07s-.08.76-.25,1.07c-.16.31-.39.55-.67.73s-.6.26-.96.26-.66-.09-.95-.26ZM458.06,67.1c.18-.12.31-.29.42-.51.1-.22.15-.49.15-.79s-.05-.57-.15-.79c-.1-.22-.24-.4-.42-.51-.18-.12-.38-.18-.6-.18h-.07c-.22,0-.42.06-.6.18-.18.12-.31.29-.42.51-.1.22-.15.49-.15.79s.05.57.15.79c.1.22.24.4.42.51.18.12.38.18.6.18h.07c.22,0,.42-.06.6-.18Z"/>
        <path class="cls-4" d="M460.27,63.81h.63v.88c.08-.29.23-.52.44-.68.21-.16.46-.24.73-.24h.36v.64h-.32c-.36,0-.65.12-.86.37-.21.25-.31.58-.31,1.01v1.98h-.67v-3.95Z"/>
        <path class="cls-4" d="M463.72,67.61c-.28-.16-.5-.39-.66-.7-.16-.31-.25-.69-.25-1.13s.08-.81.25-1.12c.17-.31.39-.54.67-.7s.57-.23.89-.23c.33,0,.62.07.87.22s.44.35.58.62c.13.27.2.57.2.91v.4h-2.79c.01.31.07.56.18.77.11.21.25.36.43.47s.35.15.54.15h.06c.23,0,.42-.06.59-.17s.27-.28.32-.5h.67c-.07.39-.26.69-.56.91-.3.22-.66.32-1.07.32-.34,0-.64-.08-.92-.23ZM465.32,64.57c-.17-.18-.4-.27-.66-.27h-.06c-.25,0-.48.08-.68.25-.2.17-.33.43-.4.79h2.09c-.02-.33-.11-.59-.28-.77Z"/>
        <path class="cls-4" d="M470.22,67.47c-.39-.25-.69-.59-.9-1.02-.21-.43-.31-.92-.31-1.46s.1-1.03.31-1.46c.21-.43.51-.77.9-1.02.39-.25.85-.37,1.37-.37.4,0,.76.08,1.08.23.32.15.58.36.78.64.2.27.3.59.32.94h-.71c-.04-.34-.19-.62-.44-.83-.26-.21-.59-.32-.99-.32h-.08c-.39,0-.72.1-.99.29-.28.19-.49.46-.63.79-.14.33-.21.71-.21,1.12s.07.78.21,1.12c.14.33.35.6.63.79.28.19.61.29.99.29h.08c.27,0,.51-.05.72-.15.21-.1.37-.24.49-.41.12-.17.19-.37.22-.59h.71c-.02.35-.13.67-.32.94-.2.27-.45.49-.78.64s-.68.23-1.08.23c-.52,0-.98-.12-1.37-.37Z"/>
        <path class="cls-4" d="M474.22,63.81h.72l1.47,3.24-.25,1-1.94-4.25ZM474.44,68.56h.79c.14,0,.25-.03.32-.09.07-.06.14-.17.21-.34l1.71-4.32h.7l-1.87,4.66c-.11.26-.23.44-.37.53s-.34.15-.58.15h-.9v-.59Z"/>
        <path class="cls-4" d="M478.87,63.81h.67v.58c.11-.19.28-.35.53-.47.25-.12.51-.19.77-.19.34,0,.64.08.89.25s.46.4.61.71c.15.31.22.67.22,1.1s-.08.79-.23,1.09-.36.55-.64.71c-.27.17-.57.25-.91.25-.27,0-.52-.06-.75-.19-.23-.12-.4-.28-.51-.47v2.16h-.67v-5.54ZM481.36,67.09c.17-.12.3-.29.4-.52.09-.22.14-.49.14-.79,0-.46-.1-.82-.31-1.09-.21-.27-.48-.4-.83-.4h-.06c-.22,0-.42.06-.6.18-.18.12-.31.29-.42.52s-.15.49-.15.79.05.56.15.79c.1.22.24.4.42.52s.38.18.6.18h.06c.23,0,.43-.06.6-.18Z"/>
        <path class="cls-4" d="M483.55,63.81h.63v.88c.08-.29.23-.52.44-.68.21-.16.46-.24.73-.24h.36v.64h-.32c-.36,0-.65.12-.86.37s-.31.58-.31,1.01v1.98h-.67v-3.95Z"/>
        <path class="cls-4" d="M486.44,62.29h.75v.81h-.75v-.81ZM486.48,63.81h.67v3.95h-.67v-3.95Z"/>
        <path class="cls-4" d="M489.03,67.58c-.28-.17-.51-.42-.67-.73-.16-.31-.25-.67-.25-1.07s.08-.76.25-1.07c.16-.31.39-.55.67-.73.28-.17.6-.26.95-.26s.67.09.96.26c.28.17.51.42.67.73.16.31.25.67.25,1.07s-.08.76-.25,1.07c-.16.31-.39.55-.67.73s-.6.26-.96.26-.66-.09-.95-.26ZM490.62,67.1c.18-.12.31-.29.42-.51.1-.22.15-.49.15-.79s-.05-.57-.15-.79c-.1-.22-.24-.4-.42-.51-.18-.12-.38-.18-.6-.18h-.07c-.22,0-.42.06-.6.18-.18.12-.32.29-.42.51-.1.22-.15.49-.15.79s.05.57.15.79c.1.22.24.4.42.51.18.12.38.18.6.18h.07c.22,0,.42-.06.6-.18Z"/>
        <path class="cls-4" d="M492.83,62.23h.67v5.54h-.67v-5.54Z"/>
        <path class="cls-4" d="M497.05,67.69c-.19-.1-.35-.24-.46-.42-.11-.18-.17-.38-.17-.6,0-.28.07-.51.21-.68.14-.17.31-.3.53-.38.21-.08.44-.13.68-.15l1.14-.1v-.13c0-.2-.04-.37-.11-.51-.07-.14-.17-.24-.3-.32-.13-.07-.29-.11-.47-.11h-.06c-.23,0-.43.06-.59.17-.16.11-.26.27-.28.47h-.67c.02-.36.18-.65.47-.87.29-.22.66-.34,1.1-.34.33,0,.62.07.86.2.24.13.42.32.54.55.12.23.18.48.18.75v1.66c0,.4.01.69.04.87h-.63c-.03-.14-.04-.35-.04-.63-.08.2-.25.36-.48.5s-.51.21-.82.21c-.24,0-.46-.05-.66-.15ZM498.37,67.15c.17-.08.32-.2.43-.34.12-.14.17-.3.17-.46v-.44l-1.04.08c-.25.02-.46.09-.61.21-.16.12-.23.27-.23.46,0,.18.07.33.2.45s.3.18.49.18h.07c.17,0,.34-.04.51-.13Z"/>
        <path class="cls-4" d="M500.82,63.81h.67v.59c.13-.21.3-.37.52-.49.22-.12.48-.18.79-.18.29,0,.54.06.75.17.21.11.37.28.49.49.11.21.17.46.17.75v2.62h-.67v-2.47c0-.22-.03-.4-.09-.55-.06-.15-.15-.26-.28-.34s-.28-.12-.47-.12h-.06c-.22,0-.41.06-.58.17-.17.11-.31.27-.4.47s-.15.43-.15.69v2.13h-.67v-3.95Z"/>
        <path class="cls-4" d="M505.98,67.59c-.26-.17-.46-.4-.61-.71s-.22-.67-.22-1.09.08-.79.23-1.1c.16-.31.37-.55.64-.71.27-.17.57-.25.91-.25.26,0,.51.06.75.19.23.12.4.28.51.47v-2.16h.67v5.54h-.67v-.58c-.11.19-.28.35-.53.47-.25.12-.51.19-.78.19-.34,0-.64-.08-.89-.25ZM507.61,67.09c.18-.12.32-.29.42-.52.1-.22.15-.49.15-.79s-.05-.56-.15-.79c-.1-.22-.24-.4-.42-.52-.18-.12-.38-.18-.6-.18h-.06c-.23,0-.42.06-.59.18-.17.12-.3.29-.4.52-.1.22-.14.49-.14.79,0,.46.1.82.31,1.09.21.27.48.4.82.4h.06c.22,0,.42-.06.6-.18Z"/>
        <path class="cls-4" d="M400.98,72.19h.7l1.01,3.48h-.13l.94-3.48h.74l.97,3.48h-.12l.97-3.48h.7l-1.23,3.95h-.78l-.93-3.37h.09l-.92,3.37h-.78l-1.24-3.95Z"/>
        <path class="cls-4" d="M407.86,76.08c-.2-.1-.35-.24-.46-.42-.11-.18-.17-.38-.17-.6,0-.28.07-.51.21-.68s.31-.3.53-.38c.21-.08.44-.13.68-.15l1.14-.1v-.13c0-.2-.04-.37-.11-.51-.07-.14-.17-.24-.3-.32-.13-.07-.29-.11-.47-.11h-.06c-.23,0-.43.06-.59.17-.16.11-.26.27-.28.47h-.67c.02-.36.18-.65.47-.87.29-.22.66-.34,1.1-.34.33,0,.62.07.86.2.24.13.42.32.54.55.12.23.18.48.18.75v1.66c0,.4.01.69.04.87h-.63c-.03-.14-.04-.35-.04-.63-.08.2-.25.36-.48.5s-.51.21-.82.21c-.24,0-.46-.05-.66-.15ZM409.17,75.53c.17-.08.32-.2.44-.34.12-.14.17-.3.17-.46v-.44l-1.04.08c-.25.02-.46.09-.61.21-.16.12-.23.27-.23.46,0,.18.07.33.2.45s.3.18.49.18h.07c.17,0,.34-.04.51-.13Z"/>
        <path class="cls-4" d="M411.63,72.19h.63v.88c.08-.29.23-.52.44-.68.21-.16.46-.24.73-.24h.36v.64h-.32c-.36,0-.65.12-.86.37-.21.25-.31.58-.31,1.01v1.98h-.67v-3.95Z"/>
        <path class="cls-4" d="M414.55,72.19h.67v.58c.13-.19.29-.35.5-.47.21-.12.45-.18.72-.18.3,0,.55.06.78.19.22.13.39.32.51.57.14-.26.33-.46.57-.58s.49-.19.77-.19.54.06.75.17c.21.11.37.28.48.49.11.21.17.46.17.75v2.62h-.67v-2.47c0-.33-.07-.58-.21-.74-.14-.17-.35-.25-.63-.25h-.06c-.2,0-.37.06-.53.17-.16.11-.29.27-.38.47s-.14.43-.14.69v2.13h-.67v-2.47c0-.33-.07-.58-.2-.74-.13-.17-.34-.25-.63-.25h-.06c-.19,0-.37.06-.53.17-.16.11-.29.27-.38.47-.09.2-.14.43-.14.69v2.13h-.67v-3.95Z"/>
        <path class="cls-4" d="M423.59,72.19h.67v.58c.13-.19.29-.35.5-.47.21-.12.45-.18.72-.18.3,0,.55.06.77.19.22.13.39.32.51.57.14-.26.33-.46.57-.58.23-.12.49-.19.77-.19s.54.06.75.17c.21.11.37.28.48.49.11.21.17.46.17.75v2.62h-.67v-2.47c0-.33-.07-.58-.21-.74-.14-.17-.35-.25-.63-.25h-.06c-.19,0-.37.06-.53.17-.16.11-.29.27-.38.47-.1.2-.14.43-.14.69v2.13h-.67v-2.47c0-.33-.07-.58-.2-.74-.13-.17-.34-.25-.63-.25h-.06c-.19,0-.37.06-.53.17-.16.11-.29.27-.38.47s-.14.43-.14.69v2.13h-.67v-3.95Z"/>
        <path class="cls-4" d="M431.26,76.04c-.2-.12-.36-.29-.46-.5-.1-.21-.15-.46-.15-.74v-2.61h.67v2.45c0,.34.07.59.21.76s.35.25.64.25h.07c.18,0,.35-.05.51-.16s.29-.26.39-.46.15-.43.15-.7v-2.14h.67v3.95h-.67v-.75c-.09.25-.25.45-.47.6-.22.15-.49.23-.81.23-.29,0-.54-.06-.74-.18Z"/>
        <path class="cls-4" d="M435.29,75.87c-.28-.24-.42-.55-.43-.93h.67c.03.24.12.42.29.54s.38.18.64.18h.07c.23,0,.42-.05.57-.16.15-.11.22-.25.22-.42,0-.14-.05-.26-.14-.34s-.24-.15-.45-.19l-.58-.12c-.34-.07-.62-.19-.82-.37-.21-.18-.31-.42-.31-.74,0-.25.07-.47.2-.65.13-.18.31-.32.54-.41s.47-.14.73-.14c.49,0,.87.12,1.13.36s.4.55.41.92h-.67c-.03-.21-.11-.38-.25-.51s-.33-.21-.58-.21h-.07c-.23,0-.42.05-.56.16-.14.11-.21.24-.21.4,0,.15.05.27.14.35s.25.15.47.19l.62.13c.33.06.59.18.78.36s.29.43.29.75c0,.24-.06.45-.19.62-.13.18-.31.32-.54.42s-.49.15-.79.15c-.5,0-.89-.12-1.17-.36Z"/>
        <path class="cls-4" d="M439,70.61h.67v3.4l1.86-1.82h.89l-1.64,1.57,1.72,2.38h-.83l-1.38-1.92-.62.61v1.31h-.67v-5.54Z"/>
        <path class="cls-4" d="M445.17,75.87c-.28-.24-.42-.55-.44-.93h.67c.03.24.12.42.29.54s.38.18.64.18h.07c.23,0,.42-.05.57-.16s.22-.25.22-.42c0-.14-.05-.26-.14-.34s-.24-.15-.45-.19l-.58-.12c-.34-.07-.62-.19-.82-.37-.21-.18-.31-.42-.31-.74,0-.25.07-.47.2-.65.13-.18.31-.32.54-.41s.47-.14.73-.14c.49,0,.87.12,1.13.36s.4.55.41.92h-.67c-.03-.21-.11-.38-.25-.51s-.33-.21-.58-.21h-.07c-.23,0-.42.05-.56.16-.14.11-.21.24-.21.4,0,.15.05.27.14.35.1.09.25.15.47.19l.62.13c.33.06.59.18.78.36s.29.43.29.75c0,.24-.06.45-.19.62-.13.18-.31.32-.54.42s-.49.15-.79.15c-.5,0-.89-.12-1.17-.36Z"/>
        <path class="cls-4" d="M449.54,75.99c-.28-.16-.5-.39-.66-.7-.16-.31-.25-.69-.25-1.13s.08-.81.25-1.12c.17-.31.39-.54.67-.7s.57-.23.89-.23c.33,0,.62.07.87.22s.44.35.58.62c.13.27.2.57.2.91v.4h-2.79c.01.31.07.56.18.77.11.21.25.36.43.47.17.1.35.15.54.15h.06c.23,0,.42-.06.58-.17.16-.11.27-.28.32-.5h.67c-.07.39-.26.69-.56.91s-.65.32-1.07.32c-.34,0-.64-.08-.92-.23ZM451.14,72.95c-.17-.18-.4-.27-.66-.27h-.06c-.25,0-.48.08-.68.25s-.33.43-.4.79h2.09c-.02-.33-.11-.59-.28-.77Z"/>
        <path class="cls-4" d="M453.65,75.94c-.14-.14-.21-.34-.21-.6v-2.56h-.89v-.58h.89v-1.28h.67v1.28h.96v.58h-.96v2.47c0,.12.02.2.07.25.05.05.13.07.25.07h.77v.59h-.92c-.27,0-.47-.07-.62-.21Z"/>
        <path class="cls-4" d="M456.61,75.94c-.14-.14-.21-.34-.21-.6v-2.56h-.89v-.58h.89v-1.28h.67v1.28h.96v.58h-.96v2.47c0,.12.02.2.07.25.05.05.13.07.25.07h.77v.59h-.93c-.27,0-.47-.07-.62-.21Z"/>
        <path class="cls-4" d="M458.96,70.61h.67v5.54h-.67v-5.54Z"/>
        <path class="cls-4" d="M461.51,75.99c-.28-.16-.5-.39-.66-.7-.16-.31-.25-.69-.25-1.13s.08-.81.25-1.12.39-.54.67-.7c.28-.16.57-.23.89-.23.33,0,.62.07.87.22s.44.35.58.62c.13.27.2.57.2.91v.4h-2.79c.01.31.07.56.18.77.11.21.25.36.43.47.17.1.35.15.54.15h.06c.23,0,.42-.06.59-.17.16-.11.27-.28.32-.5h.67c-.07.39-.26.69-.56.91s-.65.32-1.07.32c-.34,0-.64-.08-.92-.23ZM463.11,72.95c-.17-.18-.4-.27-.66-.27h-.06c-.25,0-.48.08-.68.25-.2.17-.33.43-.4.79h2.09c-.02-.33-.11-.59-.28-.77Z"/>
        <path class="cls-4" d="M466.97,70.68h.75v.81h-.75v-.81ZM467.01,72.19h.67v3.95h-.67v-3.95Z"/>
        <path class="cls-4" d="M468.89,72.19h.67v.59c.13-.21.3-.37.52-.49.22-.12.48-.18.79-.18.29,0,.54.06.75.17.21.11.37.28.49.49.11.21.17.46.17.75v2.62h-.67v-2.47c0-.22-.03-.4-.09-.55s-.15-.26-.28-.34c-.13-.08-.29-.12-.47-.12h-.06c-.22,0-.41.06-.58.17-.17.11-.31.27-.4.47s-.15.43-.15.69v2.13h-.67v-3.95Z"/>
        <path class="cls-4" d="M474.03,75.94c-.14-.14-.21-.34-.21-.6v-2.56h-.89v-.58h.89v-1.28h.67v1.28h.96v.58h-.96v2.47c0,.12.02.2.07.25.05.05.13.07.25.07h.77v.59h-.92c-.27,0-.47-.07-.62-.21Z"/>
        <path class="cls-4" d="M477.01,75.97c-.28-.17-.51-.42-.67-.73-.16-.31-.25-.67-.25-1.07s.08-.76.25-1.07c.16-.31.39-.55.67-.73.28-.17.6-.26.95-.26s.67.09.96.26c.28.17.51.42.67.73.16.31.25.67.25,1.07s-.08.76-.25,1.07c-.16.31-.39.55-.67.73s-.6.26-.96.26-.66-.09-.95-.26ZM478.59,75.48c.18-.12.31-.29.42-.51.1-.22.15-.49.15-.79s-.05-.57-.15-.79c-.1-.22-.24-.4-.42-.51-.18-.12-.38-.18-.6-.18h-.07c-.22,0-.42.06-.6.18-.18.12-.32.29-.42.51-.1.22-.15.49-.15.79s.05.57.15.79c.1.22.24.4.42.51.18.12.38.18.6.18h.07c.22,0,.42-.06.6-.18Z"/>
        <path class="cls-4" d="M483.22,75.94c-.14-.14-.21-.34-.21-.6v-2.56h-.89v-.58h.89v-1.28h.67v1.28h.96v.58h-.96v2.47c0,.12.02.2.07.25.05.05.13.07.25.07h.77v.59h-.93c-.27,0-.47-.07-.62-.21Z"/>
        <path class="cls-4" d="M485.57,70.61h.67v2.17c.13-.21.31-.38.53-.49.22-.12.48-.18.79-.18s.55.06.76.17c.21.12.37.28.48.49.11.21.16.46.16.74v2.63h-.67v-2.47c0-.21-.03-.39-.09-.54s-.15-.26-.28-.34-.28-.12-.47-.12h-.07c-.2,0-.38.05-.55.15-.17.1-.31.25-.42.44s-.16.42-.16.68v2.19h-.67v-5.54Z"/>
        <path class="cls-4" d="M490.8,75.99c-.28-.16-.5-.39-.66-.7-.16-.31-.25-.69-.25-1.13s.08-.81.25-1.12c.17-.31.39-.54.67-.7s.57-.23.89-.23c.33,0,.62.07.87.22s.44.35.58.62c.13.27.2.57.2.91v.4h-2.79c.01.31.07.56.18.77.11.21.25.36.43.47.17.1.35.15.54.15h.06c.23,0,.42-.06.58-.17.16-.11.27-.28.32-.5h.67c-.07.39-.26.69-.56.91s-.65.32-1.07.32c-.34,0-.64-.08-.92-.23ZM492.4,72.95c-.17-.18-.4-.27-.66-.27h-.06c-.25,0-.48.08-.68.25s-.33.43-.4.79h2.09c-.02-.33-.11-.59-.28-.77Z"/>
        <path class="cls-4" d="M496.43,75.87c-.28-.24-.42-.55-.43-.93h.67c.03.24.12.42.29.54s.38.18.64.18h.07c.23,0,.42-.05.57-.16.15-.11.22-.25.22-.42,0-.14-.05-.26-.14-.34-.09-.09-.24-.15-.45-.19l-.58-.12c-.34-.07-.62-.19-.82-.37-.21-.18-.31-.42-.31-.74,0-.25.07-.47.2-.65.13-.18.31-.32.54-.41.22-.09.47-.14.73-.14.49,0,.87.12,1.13.36s.4.55.41.92h-.67c-.03-.21-.11-.38-.25-.51-.14-.14-.33-.21-.58-.21h-.07c-.23,0-.42.05-.56.16-.14.11-.21.24-.21.4,0,.15.05.27.14.35.1.09.25.15.47.19l.62.13c.33.06.59.18.78.36.19.18.29.43.29.75,0,.24-.06.45-.19.62-.13.18-.31.32-.54.42-.23.1-.49.15-.79.15-.5,0-.89-.12-1.17-.36Z"/>
        <path class="cls-4" d="M500.13,70.61h.67v3.4l1.86-1.82h.89l-1.64,1.57,1.72,2.38h-.83l-1.38-1.92-.62.61v1.31h-.67v-5.54Z"/>
        <path class="cls-4" d="M504.28,70.68h.75v.81h-.75v-.81ZM504.32,72.19h.67v3.95h-.67v-3.95Z"/>
        <path class="cls-4" d="M506.2,72.19h.67v.59c.13-.21.3-.37.52-.49.22-.12.48-.18.79-.18.29,0,.54.06.75.17.21.11.37.28.49.49.11.21.17.46.17.75v2.62h-.67v-2.47c0-.22-.03-.4-.09-.55s-.15-.26-.28-.34c-.13-.08-.28-.12-.47-.12h-.06c-.22,0-.41.06-.58.17-.17.11-.31.27-.4.47-.1.2-.15.43-.15.69v2.13h-.67v-3.95Z"/>
        <path class="cls-4" d="M510.42,76.74h.26c.16,0,.28-.04.36-.12s.12-.2.12-.36v-.12h-.46v-.89h.89v1.05c0,.19-.04.35-.11.48-.07.13-.17.23-.3.3-.13.07-.29.1-.47.1h-.29v-.45Z"/>
        <path class="cls-4" d="M394.98,80.57h.7l1.01,3.48h-.13l.94-3.48h.74l.97,3.48h-.12l.97-3.48h.7l-1.23,3.95h-.78l-.93-3.37h.09l-.92,3.37h-.78l-1.24-3.95Z"/>
        <path class="cls-4" d="M402.15,84.35c-.28-.17-.51-.42-.67-.73-.16-.31-.25-.67-.25-1.07s.08-.76.25-1.07c.16-.31.39-.55.67-.73.28-.17.6-.26.95-.26s.67.09.96.26c.28.17.51.42.67.73.16.31.25.67.25,1.07s-.08.76-.25,1.07c-.16.31-.39.55-.67.73s-.6.26-.96.26-.66-.09-.95-.26ZM403.74,83.86c.18-.12.31-.29.42-.51.1-.22.15-.49.15-.79s-.05-.57-.15-.79c-.1-.22-.24-.4-.42-.51-.18-.12-.38-.18-.6-.18h-.07c-.22,0-.42.06-.6.18-.18.12-.31.29-.42.51-.1.22-.15.49-.15.79s.05.57.15.79c.1.22.24.4.42.51.18.12.38.18.6.18h.07c.22,0,.42-.06.6-.18Z"/>
        <path class="cls-4" d="M406.62,84.35c-.28-.17-.51-.42-.67-.73-.16-.31-.25-.67-.25-1.07s.08-.76.25-1.07c.16-.31.39-.55.67-.73.28-.17.6-.26.95-.26s.67.09.96.26c.28.17.51.42.67.73.16.31.25.67.25,1.07s-.08.76-.25,1.07c-.16.31-.39.55-.67.73s-.6.26-.96.26-.66-.09-.95-.26ZM408.21,83.86c.18-.12.31-.29.42-.51.1-.22.15-.49.15-.79s-.05-.57-.15-.79c-.1-.22-.24-.4-.42-.51-.18-.12-.38-.18-.6-.18h-.07c-.22,0-.42.06-.6.18-.18.12-.31.29-.42.51-.1.22-.15.49-.15.79s.05.57.15.79c.1.22.24.4.42.51.18.12.38.18.6.18h.07c.22,0,.42-.06.6-.18Z"/>
        <path class="cls-4" d="M411.01,84.36c-.26-.17-.46-.4-.61-.71-.15-.31-.22-.67-.22-1.09s.08-.79.23-1.1c.16-.31.37-.55.64-.71.27-.17.57-.25.91-.25.26,0,.51.06.75.19s.4.28.51.47v-2.16h.67v5.54h-.67v-.58c-.11.19-.28.35-.53.47-.25.12-.51.19-.78.19-.34,0-.64-.08-.89-.25ZM412.64,83.86c.18-.12.32-.29.42-.52.1-.22.15-.49.15-.79s-.05-.56-.15-.79-.24-.4-.42-.52c-.18-.12-.38-.18-.6-.18h-.06c-.23,0-.42.06-.59.18-.17.12-.3.29-.4.52s-.14.49-.14.79c0,.46.1.82.31,1.09.21.27.48.4.82.4h.06c.22,0,.42-.06.6-.18Z"/>
        <path class="cls-4" d="M414.57,80.57h.72l1.47,3.24-.25,1-1.94-4.25ZM414.78,85.32h.79c.14,0,.25-.03.32-.09.07-.06.14-.17.21-.34l1.71-4.32h.7l-1.87,4.66c-.11.26-.23.44-.37.53-.14.1-.34.15-.58.15h-.9v-.59Z"/>
        <path class="cls-4" d="M418.54,85.12h.26c.16,0,.28-.04.36-.12s.12-.2.12-.36v-.12h-.46v-.89h.89v1.05c0,.19-.04.35-.11.48s-.17.23-.3.3c-.13.07-.29.1-.47.1h-.28v-.45Z"/>
        <path class="cls-4" d="M423.28,84.32c-.14-.14-.21-.34-.21-.6v-2.56h-.89v-.58h.89v-1.28h.67v1.28h.96v.58h-.96v2.47c0,.12.02.2.07.25.05.05.13.07.25.07h.77v.59h-.92c-.27,0-.47-.07-.62-.21Z"/>
        <path class="cls-4" d="M426.25,84.37c-.28-.16-.5-.39-.66-.7-.16-.31-.25-.69-.25-1.13s.08-.81.25-1.12c.17-.31.39-.54.67-.7s.57-.23.89-.23c.33,0,.62.07.87.22.25.15.44.35.58.62.13.27.2.57.2.91v.4h-2.79c.01.31.07.56.18.77.11.21.25.36.43.47s.35.15.54.15h.06c.23,0,.42-.06.58-.17.16-.11.27-.28.32-.5h.67c-.07.39-.26.69-.56.91-.3.22-.66.32-1.07.32-.34,0-.64-.08-.92-.23ZM427.85,81.33c-.17-.18-.4-.27-.66-.27h-.06c-.25,0-.48.08-.68.25-.2.17-.33.43-.4.79h2.09c-.02-.33-.11-.59-.28-.77Z"/>
        <path class="cls-4" d="M430.68,82.53l-1.44-1.95h.78l1.05,1.42,1.05-1.42h.77l-1.44,1.94,1.48,2.02h-.78l-1.09-1.49-1.11,1.49h-.76l1.49-2Z"/>
        <path class="cls-4" d="M434.31,84.32c-.14-.14-.21-.34-.21-.6v-2.56h-.89v-.58h.89v-1.28h.67v1.28h.96v.58h-.96v2.47c0,.12.02.2.07.25.05.05.13.07.25.07h.77v.59h-.93c-.27,0-.47-.07-.62-.21Z"/>
        <path class="cls-4" d="M437.23,84.43c-.2-.12-.36-.29-.46-.5-.1-.21-.15-.46-.15-.74v-2.61h.67v2.45c0,.34.07.59.21.76s.35.25.64.25h.07c.18,0,.35-.05.51-.16s.29-.26.39-.46.15-.43.15-.7v-2.14h.67v3.95h-.67v-.75c-.09.25-.25.45-.47.6-.22.15-.49.23-.81.23-.29,0-.54-.06-.74-.18Z"/>
        <path class="cls-4" d="M441.14,80.57h.63v.88c.08-.29.23-.52.44-.68.21-.16.46-.24.73-.24h.36v.64h-.32c-.36,0-.65.12-.86.37-.21.25-.31.58-.31,1.01v1.98h-.67v-3.95Z"/>
        <path class="cls-4" d="M444.58,84.37c-.28-.16-.5-.39-.66-.7-.16-.31-.25-.69-.25-1.13s.08-.81.25-1.12c.17-.31.39-.54.67-.7s.57-.23.89-.23c.33,0,.62.07.87.22s.44.35.58.62c.13.27.2.57.2.91v.4h-2.79c.01.31.07.56.18.77.11.21.25.36.43.47s.35.15.54.15h.06c.23,0,.42-.06.59-.17.16-.11.27-.28.32-.5h.67c-.07.39-.26.69-.56.91s-.66.32-1.07.32c-.34,0-.64-.08-.92-.23ZM446.18,81.33c-.17-.18-.4-.27-.66-.27h-.06c-.25,0-.48.08-.68.25-.2.17-.33.43-.4.79h2.09c-.02-.33-.11-.59-.29-.77Z"/>
        <path class="cls-4" d="M448.73,84.36c-.26-.17-.46-.4-.61-.71s-.22-.67-.22-1.09.08-.79.23-1.1c.16-.31.37-.55.64-.71.27-.17.57-.25.91-.25.26,0,.51.06.75.19.23.12.4.28.51.47v-2.16h.67v5.54h-.67v-.58c-.11.19-.28.35-.53.47-.25.12-.51.19-.78.19-.34,0-.64-.08-.89-.25ZM450.36,83.86c.18-.12.32-.29.42-.52.1-.22.15-.49.15-.79s-.05-.56-.15-.79c-.1-.22-.24-.4-.42-.52-.18-.12-.38-.18-.6-.18h-.06c-.23,0-.42.06-.59.18-.17.12-.3.29-.4.52-.1.22-.14.49-.14.79,0,.46.1.82.31,1.09.21.27.48.4.82.4h.06c.22,0,.42-.06.6-.18Z"/>
        <path class="cls-4" d="M455.16,84.46c-.2-.1-.35-.24-.46-.42-.11-.18-.17-.38-.17-.6,0-.28.07-.51.21-.68s.31-.3.53-.38c.21-.08.44-.13.68-.15l1.14-.1v-.13c0-.2-.04-.37-.11-.51-.07-.14-.17-.24-.3-.32-.13-.07-.29-.11-.47-.11h-.06c-.23,0-.43.06-.59.17-.16.11-.26.27-.28.47h-.67c.02-.36.18-.65.47-.87.29-.22.66-.34,1.1-.34.33,0,.62.07.86.2.24.13.42.32.54.55.12.23.18.48.18.75v1.66c0,.4.01.69.04.87h-.63c-.03-.14-.04-.35-.04-.63-.08.2-.25.36-.48.5s-.51.21-.82.21c-.24,0-.46-.05-.66-.15ZM456.47,83.91c.17-.08.32-.2.43-.34.12-.14.17-.3.17-.46v-.44l-1.04.08c-.25.02-.46.09-.61.21-.16.12-.23.27-.23.46,0,.18.07.33.2.45s.3.18.49.18h.07c.17,0,.34-.04.51-.13Z"/>
        <path class="cls-4" d="M458.93,80.57h.67v.59c.13-.21.3-.37.52-.49.22-.12.48-.18.79-.18s.54.06.75.17c.21.11.37.28.49.49.11.21.17.46.17.75v2.62h-.67v-2.47c0-.22-.03-.4-.09-.55s-.15-.26-.28-.34-.28-.12-.47-.12h-.06c-.22,0-.41.06-.58.17-.17.11-.31.27-.4.47-.1.2-.15.43-.15.69v2.13h-.67v-3.95Z"/>
        <path class="cls-4" d="M464.09,84.36c-.26-.17-.46-.4-.61-.71s-.22-.67-.22-1.09.08-.79.23-1.1c.16-.31.37-.55.64-.71.27-.17.57-.25.91-.25.26,0,.51.06.75.19s.4.28.51.47v-2.16h.67v5.54h-.67v-.58c-.11.19-.28.35-.53.47-.25.12-.51.19-.78.19-.34,0-.64-.08-.89-.25ZM465.72,83.86c.18-.12.32-.29.42-.52.1-.22.15-.49.15-.79s-.05-.56-.15-.79c-.1-.22-.24-.4-.42-.52-.18-.12-.38-.18-.6-.18h-.06c-.23,0-.42.06-.59.18-.17.12-.3.29-.4.52-.09.22-.14.49-.14.79,0,.46.1.82.31,1.09.21.27.48.4.82.4h.06c.22,0,.42-.06.6-.18Z"/>
        <path class="cls-4" d="M470.12,78.99h.67v5.54h-.67v-5.54Z"/>
        <path class="cls-4" d="M471.96,79.06h.75v.81h-.75v-.81ZM472,80.57h.67v3.95h-.67v-3.95Z"/>
        <path class="cls-4" d="M473.88,80.57h.67v.59c.13-.21.3-.37.52-.49.22-.12.48-.18.79-.18s.54.06.75.17c.21.11.37.28.49.49.11.21.17.46.17.75v2.62h-.67v-2.47c0-.22-.03-.4-.09-.55s-.15-.26-.28-.34-.28-.12-.47-.12h-.06c-.22,0-.41.06-.58.17-.17.11-.31.27-.4.47-.1.2-.15.43-.15.69v2.13h-.67v-3.95Z"/>
        <path class="cls-4" d="M479.01,86.11c-.27-.1-.47-.25-.62-.43-.15-.18-.23-.39-.26-.63h.67c.04.21.16.36.36.47.2.11.45.17.75.17h.08c.36,0,.65-.1.87-.31.22-.21.33-.52.33-.94v-.58c-.12.2-.28.35-.49.47s-.46.18-.74.18c-.32,0-.61-.08-.88-.23s-.47-.38-.63-.68c-.16-.3-.23-.67-.23-1.1s.08-.8.23-1.11c.16-.31.36-.54.63-.69s.56-.23.88-.23c.29,0,.54.06.76.19.22.12.37.28.47.47v-.58h.67v3.95c0,.33-.08.63-.23.9-.15.27-.37.47-.66.62-.29.15-.63.22-1.02.22-.36,0-.67-.05-.94-.15ZM480.61,83.79c.17-.12.31-.28.42-.5.1-.22.15-.47.15-.76s-.05-.55-.15-.77-.23-.39-.4-.51c-.17-.12-.35-.18-.55-.18h-.07c-.21,0-.4.05-.57.16-.17.11-.3.27-.4.49-.1.22-.15.49-.15.81,0,.47.1.83.3,1.07.2.24.47.36.79.36h.06c.21,0,.4-.06.57-.17Z"/>
        <path class="cls-4" d="M483.73,84.37c-.28-.16-.5-.39-.66-.7-.16-.31-.25-.69-.25-1.13s.08-.81.25-1.12.39-.54.67-.7c.28-.16.57-.23.89-.23.33,0,.62.07.87.22s.44.35.58.62c.13.27.2.57.2.91v.4h-2.79c.01.31.07.56.18.77.11.21.25.36.43.47.17.1.35.15.54.15h.06c.23,0,.42-.06.59-.17.16-.11.27-.28.32-.5h.67c-.07.39-.26.69-.56.91s-.65.32-1.07.32c-.34,0-.64-.08-.92-.23ZM485.33,81.33c-.17-.18-.4-.27-.66-.27h-.06c-.25,0-.48.08-.68.25s-.33.43-.4.79h2.09c-.02-.33-.11-.59-.28-.77Z"/>
        <path class="cls-4" d="M487.29,80.57h.63v.88c.08-.29.23-.52.44-.68s.46-.24.73-.24h.36v.64h-.32c-.36,0-.65.12-.86.37-.21.25-.31.58-.31,1.01v1.98h-.67v-3.95Z"/>
        <path class="cls-4" d="M490.17,79.06h.75v.81h-.75v-.81ZM490.21,80.57h.67v3.95h-.67v-3.95Z"/>
        <path class="cls-4" d="M492.09,80.57h.67v.59c.13-.21.3-.37.52-.49.22-.12.48-.18.79-.18.29,0,.54.06.75.17.21.11.37.28.49.49.11.21.17.46.17.75v2.62h-.67v-2.47c0-.22-.03-.4-.09-.55-.06-.15-.15-.26-.28-.34s-.28-.12-.47-.12h-.06c-.22,0-.41.06-.58.17-.17.11-.31.27-.4.47s-.15.43-.15.69v2.13h-.67v-3.95Z"/>
        <path class="cls-4" d="M497.22,86.11c-.27-.1-.47-.25-.62-.43-.15-.18-.23-.39-.26-.63h.67c.04.21.16.36.36.47.2.11.45.17.75.17h.08c.36,0,.65-.1.87-.31.22-.21.33-.52.33-.94v-.58c-.12.2-.28.35-.49.47-.21.12-.46.18-.74.18-.32,0-.61-.08-.88-.23-.26-.15-.47-.38-.63-.68-.16-.3-.23-.67-.23-1.1s.08-.8.23-1.11c.16-.31.36-.54.63-.69.26-.16.56-.23.88-.23.29,0,.54.06.76.19s.37.28.47.47v-.58h.67v3.95c0,.33-.08.63-.23.9-.15.27-.37.47-.66.62-.29.15-.63.22-1.02.22-.36,0-.67-.05-.94-.15ZM498.82,83.79c.17-.12.31-.28.42-.5.1-.22.15-.47.15-.76s-.05-.55-.15-.77-.23-.39-.4-.51c-.17-.12-.35-.18-.55-.18h-.07c-.21,0-.4.05-.57.16-.17.11-.3.27-.4.49s-.15.49-.15.81c0,.47.1.83.3,1.07.2.24.47.36.79.36h.06c.21,0,.4-.06.57-.17Z"/>
        <path class="cls-4" d="M503.22,78.99h.67v5.54h-.67v-5.54Z"/>
        <path class="cls-4" d="M505.77,84.35c-.28-.17-.51-.42-.67-.73-.16-.31-.25-.67-.25-1.07s.08-.76.25-1.07c.16-.31.39-.55.67-.73.28-.17.6-.26.95-.26s.67.09.96.26c.28.17.51.42.67.73.16.31.25.67.25,1.07s-.08.76-.25,1.07c-.16.31-.39.55-.67.73s-.6.26-.96.26-.66-.09-.95-.26ZM507.36,83.86c.18-.12.31-.29.42-.51.1-.22.15-.49.15-.79s-.05-.57-.15-.79c-.1-.22-.24-.4-.42-.51-.18-.12-.38-.18-.6-.18h-.07c-.22,0-.42.06-.6.18-.18.12-.31.29-.42.51-.1.22-.15.49-.15.79s.05.57.15.79c.1.22.24.4.42.51.18.12.38.18.6.18h.07c.22,0,.42-.06.6-.18Z"/>
        <path class="cls-4" d="M509.57,80.57h.67v.59c.13-.21.3-.37.52-.49.22-.12.48-.18.79-.18s.54.06.75.17c.21.11.37.28.49.49.11.21.17.46.17.75v2.62h-.67v-2.47c0-.22-.03-.4-.09-.55s-.15-.26-.28-.34-.28-.12-.47-.12h-.06c-.22,0-.41.06-.58.17-.17.11-.31.27-.4.47-.1.2-.15.43-.15.69v2.13h-.67v-3.95Z"/>
        <path class="cls-4" d="M514.7,86.11c-.27-.1-.47-.25-.62-.43-.15-.18-.23-.39-.26-.63h.67c.04.21.16.36.36.47.2.11.45.17.75.17h.08c.36,0,.65-.1.87-.31.22-.21.33-.52.33-.94v-.58c-.12.2-.28.35-.49.47s-.46.18-.74.18c-.32,0-.61-.08-.88-.23s-.47-.38-.63-.68c-.16-.3-.23-.67-.23-1.1s.08-.8.23-1.11c.16-.31.36-.54.63-.69s.56-.23.88-.23c.29,0,.54.06.76.19.22.12.37.28.47.47v-.58h.67v3.95c0,.33-.08.63-.23.9-.15.27-.37.47-.66.62s-.63.22-1.02.22c-.36,0-.67-.05-.94-.15ZM516.3,83.79c.17-.12.31-.28.42-.5.1-.22.15-.47.15-.76s-.05-.55-.15-.77c-.1-.22-.23-.39-.4-.51-.17-.12-.35-.18-.55-.18h-.07c-.21,0-.4.05-.57.16-.17.11-.3.27-.4.49s-.15.49-.15.81c0,.47.1.83.3,1.07.2.24.47.36.79.36h.06c.21,0,.4-.06.57-.17Z"/>
        <path class="cls-4" d="M422.93,92.84c-.2-.1-.35-.24-.46-.42-.11-.18-.17-.38-.17-.6,0-.28.07-.51.21-.68.14-.17.31-.3.53-.38.21-.08.44-.13.68-.15l1.14-.1v-.13c0-.2-.04-.37-.11-.51-.07-.14-.17-.24-.3-.32-.13-.07-.29-.11-.47-.11h-.06c-.23,0-.43.06-.59.17-.16.11-.26.27-.28.47h-.67c.02-.36.18-.65.47-.87.29-.22.66-.34,1.1-.34.33,0,.62.07.86.2.24.13.42.32.54.55.12.23.18.48.18.75v1.66c0,.4.01.69.04.87h-.63c-.03-.14-.04-.35-.04-.63-.08.2-.25.36-.48.5s-.51.21-.82.21c-.24,0-.46-.05-.66-.15ZM424.25,92.29c.17-.08.32-.2.44-.34.12-.14.17-.3.17-.46v-.44l-1.04.08c-.25.02-.46.09-.61.21-.16.12-.23.27-.23.46,0,.18.07.33.2.45s.29.18.49.18h.07c.17,0,.34-.04.51-.13Z"/>
        <path class="cls-4" d="M427.09,89.53h-.89v-.58h.89v-.79c0-.27.07-.47.2-.6.13-.13.34-.19.6-.19h1.07v.58h-.89c-.12,0-.2.02-.25.07s-.07.13-.07.25v.68h1v.58h-1v3.38h-.67v-3.38Z"/>
        <path class="cls-4" d="M430.17,92.7c-.14-.14-.21-.34-.21-.6v-2.56h-.89v-.58h.89v-1.28h.67v1.28h.96v.58h-.96v2.47c0,.12.02.2.07.25.05.05.13.07.25.07h.77v.59h-.93c-.27,0-.47-.07-.62-.21Z"/>
        <path class="cls-4" d="M433.14,92.76c-.28-.16-.5-.39-.66-.7-.16-.31-.25-.69-.25-1.13s.08-.81.25-1.12.39-.54.67-.7c.28-.16.57-.23.89-.23.33,0,.62.07.87.22s.44.35.58.62c.13.27.2.57.2.91v.4h-2.79c.01.31.07.56.18.77.11.21.25.36.43.47.17.1.35.15.54.15h.06c.23,0,.42-.06.59-.17.16-.11.27-.28.32-.5h.67c-.07.39-.26.69-.56.91s-.65.32-1.07.32c-.34,0-.64-.08-.92-.23ZM434.74,89.72c-.17-.18-.4-.27-.66-.27h-.06c-.25,0-.48.08-.68.25s-.33.43-.4.79h2.09c-.02-.33-.11-.59-.28-.77Z"/>
        <path class="cls-4" d="M436.69,88.96h.63v.88c.08-.29.23-.52.44-.68s.46-.24.73-.24h.36v.64h-.32c-.36,0-.65.12-.86.37-.21.25-.31.58-.31,1.01v1.98h-.67v-3.95Z"/>
        <path class="cls-4" d="M441.85,92.7c-.14-.14-.21-.34-.21-.6v-2.56h-.89v-.58h.89v-1.28h.67v1.28h.96v.58h-.96v2.47c0,.12.02.2.07.25.05.05.13.07.25.07h.77v.59h-.93c-.27,0-.47-.07-.62-.21Z"/>
        <path class="cls-4" d="M444.2,87.38h.67v2.17c.13-.21.31-.38.53-.49.22-.12.48-.18.79-.18s.55.06.76.17c.21.12.37.28.48.49.11.21.16.46.16.74v2.63h-.67v-2.47c0-.21-.03-.39-.09-.54s-.15-.26-.28-.34-.28-.12-.47-.12h-.07c-.2,0-.38.05-.55.15-.17.1-.31.25-.42.44s-.16.42-.16.68v2.19h-.67v-5.54Z"/>
        <path class="cls-4" d="M449.43,92.76c-.28-.16-.5-.39-.66-.7-.16-.31-.25-.69-.25-1.13s.08-.81.25-1.12c.17-.31.39-.54.67-.7s.57-.23.89-.23c.33,0,.62.07.87.22s.44.35.58.62c.13.27.2.57.2.91v.4h-2.79c.01.31.07.56.18.77.11.21.25.36.43.47s.35.15.54.15h.06c.23,0,.42-.06.59-.17s.27-.28.32-.5h.67c-.07.39-.26.69-.56.91-.3.22-.66.32-1.07.32-.34,0-.64-.08-.92-.23ZM451.03,89.72c-.17-.18-.4-.27-.66-.27h-.06c-.25,0-.48.08-.68.25-.2.17-.33.43-.4.79h2.09c-.02-.33-.11-.59-.28-.77Z"/>
        <path class="cls-4" d="M455.33,89.53h-.89v-.58h.89v-.79c0-.27.07-.47.2-.6.13-.13.34-.19.6-.19h1.07v.58h-.89c-.12,0-.2.02-.25.07s-.07.13-.07.25v.68h2.65v3.95h-.67v-3.38h-1.98v3.38h-.67v-3.38ZM457.94,87.44h.75v.81h-.75v-.81Z"/>
        <path class="cls-4" d="M459.87,88.96h.63v.88c.08-.29.23-.52.44-.68.21-.16.46-.24.73-.24h.36v.64h-.32c-.36,0-.65.12-.86.37-.21.25-.31.58-.31,1.01v1.98h-.67v-3.95Z"/>
        <path class="cls-4" d="M462.87,92.63c-.28-.24-.42-.55-.43-.93h.67c.03.24.12.42.29.54s.38.18.64.18h.07c.23,0,.42-.05.57-.16.15-.11.22-.25.22-.42,0-.14-.05-.26-.14-.34-.09-.09-.24-.15-.46-.19l-.58-.12c-.34-.07-.62-.19-.82-.37-.21-.18-.31-.42-.31-.74,0-.25.07-.47.2-.65.13-.18.31-.32.54-.41s.47-.14.73-.14c.49,0,.87.12,1.13.36s.4.55.41.92h-.67c-.03-.21-.11-.38-.25-.51s-.33-.21-.58-.21h-.07c-.23,0-.42.05-.56.16-.14.11-.21.24-.21.4,0,.15.05.27.14.35.1.09.25.15.47.19l.62.13c.33.06.59.18.78.36.19.18.29.43.29.75,0,.24-.06.45-.19.62-.13.18-.31.32-.54.42s-.49.15-.79.15c-.5,0-.89-.12-1.17-.36Z"/>
        <path class="cls-4" d="M467.14,92.7c-.14-.14-.21-.34-.21-.6v-2.56h-.89v-.58h.89v-1.28h.67v1.28h.96v.58h-.96v2.47c0,.12.02.2.07.25.05.05.13.07.25.07h.77v.59h-.92c-.27,0-.47-.07-.62-.21Z"/>
        <path class="cls-4" d="M472.03,92.74c-.26-.17-.46-.4-.61-.71s-.22-.67-.22-1.09.08-.79.23-1.1.37-.55.64-.71c.27-.17.57-.25.91-.25.26,0,.51.06.75.19.23.12.4.28.51.47v-2.16h.67v5.54h-.67v-.58c-.11.19-.28.35-.53.47-.25.12-.51.19-.78.19-.34,0-.64-.08-.89-.25ZM473.66,92.24c.18-.12.32-.29.42-.52.1-.22.15-.49.15-.79s-.05-.56-.15-.79c-.1-.22-.24-.4-.42-.52-.18-.12-.38-.18-.6-.18h-.06c-.23,0-.42.06-.59.18-.17.12-.3.29-.4.52-.1.22-.14.49-.14.79,0,.46.1.82.31,1.09.21.27.48.4.82.4h.06c.22,0,.42-.06.6-.18Z"/>
        <path class="cls-4" d="M476.11,88.96h.63v.88c.08-.29.23-.52.44-.68.21-.16.46-.24.73-.24h.36v.64h-.32c-.36,0-.65.12-.86.37-.21.25-.31.58-.31,1.01v1.98h-.67v-3.95Z"/>
        <path class="cls-4" d="M479,87.44h.75v.81h-.75v-.81ZM479.04,88.96h.67v3.95h-.67v-3.95Z"/>
        <path class="cls-4" d="M480.92,88.96h.67v.59c.13-.21.3-.37.52-.49.22-.12.48-.18.79-.18.29,0,.54.06.75.17.21.11.37.28.49.49.11.21.17.46.17.75v2.62h-.67v-2.47c0-.22-.03-.4-.09-.55s-.15-.26-.28-.34c-.13-.08-.29-.12-.47-.12h-.06c-.22,0-.41.06-.58.17-.17.11-.31.27-.4.47s-.15.43-.15.69v2.13h-.67v-3.95Z"/>
        <path class="cls-4" d="M485.48,87.38h.67v3.4l1.86-1.82h.89l-1.64,1.57,1.72,2.38h-.83l-1.38-1.92-.62.61v1.31h-.67v-5.54Z"/>
        <path class="cls-4" d="M489.6,92.02h.9v.89h-.9v-.89Z"/>
      </g>
      <g class="cls-5">
        <rect class="cls-3" y="154.14" width="381.43" height="192.83"/>
      </g>
    </g>
  </g>
</svg>