<?xml version="1.0" encoding="UTF-8"?>
<svg id="Layer_2" data-name="Layer 2" xmlns="http://www.w3.org/2000/svg" xmlns:xlink="http://www.w3.org/1999/xlink" viewBox="0 0 149.33 489.04">
  <defs>
    <style>
      .cls-1 {
        fill: #510e75;
      }

      .cls-2 {
        fill: #98bada;
      }
    </style>
    <symbol id="New_Symbol_3" data-name="New Symbol 3" viewBox="0 0 154.2 504.97">
      <g>
        <rect class="cls-1" width="154.2" height="504.97"/>
        <path class="cls-2" d="M41.52,21h3.35v-2.14h-3.35c-.29,0-.52-.23-.52-.52h0c0-.29.23-.52.52-.52h3.94v-2.13h-6.55v8.4h6.55v-2.04h-3.94c-.29,0-.52-.23-.52-.52v-.02c0-.29.23-.52.52-.52ZM29.39,19.89c0,2.43-1.67,4.4-4.38,4.4s-4.38-1.97-4.38-4.4,1.64-4.4,4.38-4.4,4.38,1.97,4.38,4.4ZM25,17.95c-1.21,0-1.93.87-1.93,1.94s.68,1.94,1.93,1.94,1.93-.87,1.93-1.94-.73-1.94-1.93-1.94ZM34.13,15.49c-2.74,0-4.38,1.97-4.38,4.4s1.55,4.4,4.38,4.4,4.38-1.97,4.38-4.4-1.67-4.4-4.38-4.4ZM36.06,19.89c0,1.07-.73,1.94-1.93,1.94s-1.93-.87-1.93-1.94.72-1.94,1.93-1.94,1.93.87,1.93,1.94ZM18.85,17.91c.71,0,1.04.04,1.74.17v-2.3c-.53-.14-1.15-.21-1.97-.21h0c-2.59,0-4.4,1.93-4.4,4.32s1.8,4.32,4.4,4.32h0c.75,0,1.3-.07,1.97-.21v-2.3c-.69.14-1.01.17-1.74.17-1.33,0-2.21-.89-2.21-1.98,0-1.1.79-1.98,2.21-1.98ZM48.66,21h3.35v-2.14h-3.35c-.29,0-.52-.23-.52-.52h0c0-.29.23-.52.52-.52h3.94v-2.13h-6.55v8.4h6.55v-2.04h-3.94c-.29,0-.52-.23-.52-.52v-.02c0-.29.23-.52.52-.52Z"/>
        <g>
          <rect class="cls-2" x="65.34" y="238.4" width="26.98" height="8.07"/>
          <path class="cls-2" d="M65.33,307.56v14.91h26.98v-8.07h-8.27v-6.84c0-5.17-4.19-9.36-9.36-9.36h0c-5.17,0-9.36,4.19-9.36,9.36ZM77.2,308.79v5.61h-5.03v-5.61c0-1.39,1.13-2.52,2.52-2.52s2.52,1.13,2.52,2.52Z"/>
          <path class="cls-2" d="M65.34,334.16v7.99l.04-.02,26.96,11.61v-7.95l-4.55-1.96v-11.35l4.55-1.96v-8.05l-27,11.63v.06ZM80.96,340.89l-6.34-2.73,6.34-2.73v5.46Z"/>
          <path class="cls-2" d="M92.34,297.07v-21.06h-6.56v12.67c0,.92-.74,1.66-1.66,1.66h-.06c-.92,0-1.66-.74-1.66-1.66v-10.77h-6.89v10.77c0,.92-.74,1.66-1.66,1.66s-1.66-.74-1.66-1.66v-12.67h-6.84v21.06h27Z"/>
          <polygon class="cls-2" points="65.34 179.62 80.16 186 65.34 192.39 65.34 201.13 92.34 189.5 92.34 182.88 65.34 171.25 65.34 179.62"/>
          <path class="cls-2" d="M74.48,248.65h0c-5.05,0-9.15,4.1-9.15,9.15v15.42h26.98v-8.07h-10.5l10.52-7.73v-8.99l-9.11,6.69c-1.15-3.74-4.63-6.46-8.75-6.46ZM74.48,256.72c1.27,0,2.31,1.03,2.31,2.31v6.12h-4.62v-6.12c0-1.27,1.03-2.31,2.31-2.31h0Z"/>
          <path class="cls-2" d="M64.7,160.27c0,8.82,6.33,14.09,14.14,14.09s14.14-4.98,14.14-14.09-6.33-14.09-14.14-14.09-14.14,5.36-14.14,14.09ZM85.07,160.27c0,4.01-2.79,6.21-6.23,6.21s-6.23-2.32-6.23-6.21,2.79-6.21,6.23-6.21,6.23,2.36,6.23,6.21Z"/>
          <rect class="cls-2" x="65.34" y="202.27" width="26.98" height="8.07"/>
          <polygon class="cls-2" points="73.17 237.07 73.17 228.35 92.32 228.35 92.32 220.28 73.17 220.28 73.17 211.56 65.34 211.56 65.34 237.07 73.17 237.07"/>
        </g>
        <g>
          <path class="cls-2" d="M80.77,481.97h-4.8v8.6h2.57v-2.63h2.23c1.65,0,2.98-1.33,2.98-2.98h0c0-1.65-1.33-2.98-2.98-2.98ZM80.38,485.75h-1.83v-1.6h1.83c.44,0,.8.36.8.8s-.36.8-.8.8Z"/>
          <path class="cls-2" d="M39.09,481.97h-2.55,0s-3.7,8.6-3.7,8.6h2.53l.62-1.45h3.62l.62,1.45h2.56l-3.7-8.6h-.02ZM36.95,486.95l.87-2.02.87,2.02h-1.74Z"/>
          <path class="cls-2" d="M88.4,481.97h-2.55,0s-3.7,8.6-3.7,8.6h2.53l.62-1.45h3.62l.62,1.45h2.56l-3.7-8.6h-.02ZM86.25,486.95l.87-2.02.87,2.02h-1.74Z"/>
          <path class="cls-2" d="M25.97,490.58h6.71v-2.09h-4.04c-.29,0-.53-.24-.53-.53v-.02c0-.29.24-.53.53-.53h3.43v-2.2h-3.43c-.29,0-.53-.24-.53-.53s.24-.53.53-.53h4.04v-2.18h-6.71v8.6Z"/>
          <path class="cls-2" d="M64.57,490.58h6.71v-2.09h-4.04c-.29,0-.53-.24-.53-.53v-.02c0-.29.24-.53.53-.53h3.43v-2.2h-3.43c-.29,0-.53-.24-.53-.53s.24-.53.53-.53h4.04v-2.18h-6.71v8.6Z"/>
          <path class="cls-2" d="M103.25,487.41h3.77v-2.2h-3.66c-.29,0-.53-.24-.53-.53s.24-.53.53-.53h4.26v-2.18h-6.93v8.6h2.56v-3.17Z"/>
          <path class="cls-2" d="M99.99,484.88h0c0-1.61-1.3-2.91-2.91-2.91h-4.91v8.6h2.57v-3.35l2.46,3.35h2.87l-2.13-2.9c1.19-.37,2.06-1.47,2.06-2.79ZM97.42,484.88c0,.41-.33.74-.74.74h-1.95v-1.47h1.95c.41,0,.74.33.74.74h0Z"/>
          <path class="cls-2" d="M59.36,490.58c2.66,0,4.29-1.93,4.29-4.3s-1.63-4.3-4.29-4.3h-4.13v8.6h4.13ZM59.28,484.15c1.17,0,1.89.97,1.89,2.17s-.72,2.17-1.89,2.17h-1.5v-4.33h1.5Z"/>
          <path class="cls-2" d="M50.91,482.01h-2.56v4.4c0,1.49-.98,1.8-1.8,1.8-.67,0-1.8-.23-1.8-1.8v-4.4h-2.56v4.4c0,2.57,1.79,4.36,4.36,4.36s4.36-1.75,4.36-4.36v-4.4h0Z"/>
          <path class="cls-2" d="M116.77,482.01h-2.56v4.4c0,1.49-.98,1.8-1.8,1.8-.67,0-1.8-.23-1.8-1.8v-4.4h-2.56v4.4c0,2.57,1.79,4.36,4.36,4.36s4.36-1.75,4.36-4.36v-4.4h0Z"/>
          <polygon class="cls-2" points="122.68 487.25 120.23 482.01 117.41 482.01 117.41 490.57 119.6 490.57 119.6 486.31 121.63 490.57 123.43 490.57 125.46 486.31 125.46 490.57 127.87 490.57 127.87 482.01 125.16 482.01 122.68 487.25"/>
        </g>
      </g>
    </symbol>
  </defs>
  <g id="Layer_1-2" data-name="Layer 1">
    <use width="154.2" height="504.97" transform="scale(.97)" xlink:href="#New_Symbol_3"/>
  </g>
</svg>