<?xml version="1.0" encoding="UTF-8"?>
<svg id="Layer_2" data-name="Layer 2" xmlns="http://www.w3.org/2000/svg" xmlns:xlink="http://www.w3.org/1999/xlink" viewBox="0.00 0 149.76 489.04">
  <defs>
    <style>
      .cls-1 {
        fill: none;
      }

      .cls-2 {
        fill: #372b2a;
      }

      .cls-3 {
        fill: #372b2a;
      }

      .cls-4 {
        fill: #dfe9f2;
      }

      .cls-5 {
        clip-path: url(#clippath);
      }
    </style>
    <clipPath id="clippath">
      <rect class="cls-1" x="0" width="149.76" height="489.04"/>
    </clipPath>
  </defs>
  <g id="Layer_1-2" data-name="Layer 1">
    <g>
      <rect class="cls-4" x="0" width="149.76" height="489.04"/>
      <g>
        <g>
          <path class="cls-2" d="M27.9,466.05c-2.86,0-4.58,2.34-4.58,5.22s1.62,5.22,4.58,5.22,4.58-2.34,4.58-5.22-1.74-5.22-4.58-5.22ZM27.9,473.57c-1.17,0-1.82-1.03-1.82-2.3s.68-2.3,1.82-2.3,1.82,1.03,1.82,2.3-.69,2.3-1.82,2.3Z"/>
          <path class="cls-2" d="M18.25,466.05c-2.86,0-4.58,2.34-4.58,5.22s1.62,5.22,4.58,5.22,4.58-2.34,4.58-5.22-1.74-5.22-4.58-5.22ZM18.25,473.57c-1.17,0-1.82-1.03-1.82-2.3s.68-2.3,1.82-2.3,1.82,1.03,1.82,2.3-.69,2.3-1.82,2.3Z"/>
          <polygon class="cls-2" points="40.63 472.39 37.79 466.32 34.52 466.32 34.52 476.25 37.06 476.25 37.06 471.31 39.41 476.25 41.5 476.25 43.85 471.31 43.85 476.25 46.64 476.25 46.64 466.32 43.5 466.32 40.63 472.39"/>
          <path class="cls-2" d="M50.84,473.21v-6.89h-2.48v9.93h7.77v-2.42h-4.68c-.34,0-.61-.27-.61-.61v-.02"/>
          <polyline class="cls-2" points="10.61 476.25 13.09 476.25 13.09 466.32 11.22 466.32 8.45 467.85 8.45 470.62 10.61 469.43"/>
        </g>
        <g>
          <path class="cls-3" d="M79.99,466.05c-1.4,0-2.63.17-3.61.46v2.54c1.09-.29,2.02-.46,2.96-.46,1.22,0,1.62.24,1.62.64v.02c0,.35-.28.56-.61.64-.76.19-1.67.27-2.44.27v2.12c1.22,0,2.19.07,2.95.27.38.1.55.24.55.52,0,.43-.62.77-1.91.77-1.1,0-2.21-.36-3.12-.63v2.64c1.15.44,2.11.63,3.68.63,2.33,0,3.83-1.08,3.83-2.71h0c0-1.39-.74-2.24-2.66-2.51l-.73-.09.74-.06c1.48-.2,2.21-1.19,2.21-2.51h0c0-1.41-1.07-2.56-3.45-2.56Z"/>
          <path class="cls-3" d="M102.53,472.58h4.36v-2.54h-4.24c-.34,0-.61-.27-.61-.61s.27-.61.61-.61h4.94v-2.53h-8.03v9.97h2.97v-3.67Z"/>
          <path class="cls-3" d="M125.11,466.05c-3.26,0-5.2,2.34-5.2,5.22s1.84,5.22,5.2,5.22,5.2-2.34,5.2-5.22-1.98-5.22-5.2-5.22ZM125.11,473.57c-1.48,0-2.29-1.03-2.29-2.3s.86-2.3,2.29-2.3,2.29,1.03,2.29,2.3-.87,2.3-2.29,2.3Z"/>
          <path class="cls-3" d="M111,473.18v-6.89h-2.48v9.93h7.6v-2.42h-4.5c-.34,0-.61-.27-.61-.61v-.02"/>
          <polygon class="cls-3" points="139.1 466.28 131.07 466.28 131.07 468.71 135.47 468.71 130.98 474.61 130.98 476.25 139.36 476.25 139.36 473.83 134.62 473.83 139.1 467.92 139.1 466.28"/>
          <path class="cls-3" d="M118.45,476.49c-.94,0-1.46-.65-1.46-1.46s.54-1.46,1.46-1.46,1.46.65,1.46,1.46-.55,1.46-1.46,1.46Z"/>
          <path class="cls-3" d="M85.81,476.49c-.94,0-1.46-.65-1.46-1.46s.54-1.46,1.46-1.46,1.46.65,1.46,1.46-.55,1.46-1.46,1.46Z"/>
          <path class="cls-3" d="M91.92,466.05c-1.4,0-2.63.17-3.61.46v2.54c1.09-.29,2.02-.46,2.96-.46,1.22,0,1.62.24,1.62.64v.02c0,.35-.28.56-.61.64-.76.19-1.67.27-2.44.27v2.12c1.22,0,2.19.07,2.95.27.38.1.55.24.55.52,0,.43-.62.77-1.91.77-1.1,0-2.21-.36-3.12-.63v2.64c1.15.44,2.11.63,3.68.63,2.33,0,3.83-1.08,3.83-2.71h0c0-1.39-.74-2.24-2.66-2.51l-.73-.09.74-.06c1.48-.2,2.21-1.19,2.21-2.51h0c0-1.41-1.07-2.56-3.45-2.56Z"/>
          <path class="cls-3" d="M141.49,476.49c-.94,0-1.46-.65-1.46-1.46s.54-1.46,1.46-1.46,1.46.65,1.46,1.46-.55,1.46-1.46,1.46Z"/>
        </g>
        <path class="cls-2" d="M62.39,475.56c-1.37,0-2.54-.47-3.37-1.24-.17-.16-.26-.4-.26-.63v-1.04c0-.46.38-.84.84-.84h8.23v-.5c0-2.9-2.49-5.25-5.55-5.25s-5.55,2.36-5.55,5.25c0,3.04,2.38,5.25,5.66,5.25,1.9,0,3.52-.53,4.77-1.55v-1.39c-1.12,1.26-2.75,1.94-4.77,1.94ZM65.81,468.99v.97c0,.46-.38.84-.84.84h-5.36c-.46,0-.84-.38-.84-.84v-.97c0-.23.08-.46.25-.63.83-.8,1.99-1.31,3.27-1.31s2.44.5,3.27,1.31c.17.16.25.39.25.63Z"/>
      </g>
      <g class="cls-5">
        <g>
          <path class="cls-3" d="M280.56,214.51h23.56v-15.07h-23.56c-2.01,0-3.63-1.63-3.63-3.63h0c0-2.01,1.63-3.63,3.63-3.63h27.71v-14.96h-46.05v59.05h46.05v-14.36h-27.71c-2.01,0-3.63-1.63-3.63-3.63v-.13c0-2.01,1.63-3.63,3.63-3.63ZM195.26,206.75c0,17.08-11.72,30.93-30.82,30.93s-30.82-13.85-30.82-30.93,11.53-30.93,30.82-30.93,30.82,13.85,30.82,30.93ZM164.44,193.13c-8.5,0-13.57,6.1-13.57,13.62s4.8,13.62,13.57,13.62,13.57-6.1,13.57-13.62-5.16-13.62-13.57-13.62ZM228.63,175.82c-19.29,0-30.82,13.85-30.82,30.93s10.89,30.93,30.82,30.93,30.82-13.85,30.82-30.93-11.72-30.93-30.82-30.93ZM242.2,206.75c0,7.52-5.16,13.62-13.57,13.62s-13.57-6.1-13.57-13.62,5.08-13.62,13.57-13.62,13.57,6.1,13.57,13.62ZM121.23,192.8c5.02,0,7.28.3,12.21,1.23v-16.17c-3.75-.97-8.07-1.46-13.84-1.46h0c-18.18,0-30.92,13.59-30.92,30.34s12.62,30.34,30.92,30.34h0c5.24,0,9.14-.49,13.84-1.46v-16.16c-4.85.97-7.12,1.23-12.21,1.23-9.34,0-15.56-6.24-15.56-13.94,0-7.7,5.53-13.94,15.56-13.94ZM330.71,214.51h23.56v-15.07h-23.56c-2.01,0-3.63-1.63-3.63-3.63h0c0-2.01,1.63-3.63,3.63-3.63h27.71v-14.96h-46.05v59.05h46.05v-14.36h-27.71c-2.01,0-3.63-1.63-3.63-3.63v-.13c0-2.01,1.63-3.63,3.63-3.63Z"/>
          <g>
            <path class="cls-3" d="M244.58,244.88v59.07h44.48v-15.91h-22.86c-2.01,0-3.64-1.63-3.64-3.64v-39.52s-17.98,0-17.98,0Z"/>
            <path class="cls-3" d="M240.59,274.42c0,17.09-11.73,30.94-30.83,30.94s-30.83-13.85-30.83-30.94,11.53-30.94,30.83-30.94,30.83,13.85,30.83,30.94ZM209.76,260.79c-8.5,0-13.58,6.1-13.58,13.62s4.8,13.62,13.58,13.62,13.58-6.1,13.58-13.62-5.16-13.62-13.58-13.62Z"/>
            <path class="cls-3" d="M317.32,243.48c-19.3,0-30.83,13.85-30.83,30.94s10.9,30.94,30.83,30.94,30.83-13.85,30.83-30.94-11.73-30.94-30.83-30.94ZM330.9,274.42c0,7.52-5.16,13.62-13.58,13.62s-13.58-6.1-13.58-13.62,5.08-13.62,13.58-13.62,13.58,6.1,13.58,13.62Z"/>
            <path class="cls-3" d="M166.53,260.47c5.02,0,7.28.3,12.21,1.23v-16.18c-3.75-.97-8.07-1.46-13.84-1.46h0c-18.19,0-30.93,13.59-30.93,30.35s12.62,30.34,30.93,30.34h0c5.25,0,9.15-.49,13.84-1.46v-16.16c-4.85.97-7.12,1.23-12.21,1.23-9.34,0-15.57-6.24-15.57-13.95,0-7.7,5.53-13.95,15.57-13.95Z"/>
            <path class="cls-3" d="M498.51,282.19h23.56v-15.07h-23.56c-2.01,0-3.64-1.63-3.64-3.64h0c0-2.01,1.63-3.64,3.64-3.64h27.72v-14.96h-46.06v59.07h46.06v-14.36h-27.72c-2.01,0-3.64-1.63-3.64-3.64v-.13c0-2.01,1.63-3.64,3.64-3.64Z"/>
            <path class="cls-3" d="M455.31,275.77l-31.79-30.59h-11.91v58.8h17.59v-30.59l31.79,30.59h11.91v-58.8h-17.59v30.59Z"/>
            <path class="cls-3" d="M405.89,300.56v-33.49h-26.96v14.08h10.97c1.94,0,3.51,1.57,3.51,3.51h0c0,1.77-1.31,3.27-3.07,3.49-1.69.21-3.79.38-6.37.38-11.62,0-15.57-6.24-15.57-13.95s5.18-13.95,17.65-13.95c5.95,0,11.87.68,17.4,2.1v-16.18c-5.54-1.46-12.08-2.33-19.04-2.33h0c-20.74,0-33.02,13.59-33.02,30.35s11.93,30.34,30.45,30.34h2.25c6.96,0,15.26-1.64,21.79-4.37Z"/>
          </g>
        </g>
      </g>
    </g>
  </g>
</svg>