<?xml version="1.0" encoding="UTF-8"?>
<svg id="Layer_2" data-name="Layer 2" xmlns="http://www.w3.org/2000/svg" xmlns:xlink="http://www.w3.org/1999/xlink" viewBox="0 0 437.56 489.04">
  <defs>
    <style>
      .cls-1 {
        fill: none;
      }

      .cls-2 {
        fill: #372b2a;
      }

      .cls-3 {
        fill: #dfe9f2;
      }

      .cls-4 {
        clip-path: url(#clippath);
      }
    </style>
    <clipPath id="clippath">
      <rect class="cls-1" x="61.09" width="149.76" height="489.04"/>
    </clipPath>
  </defs>
  <g id="Layer_1-2" data-name="Layer 1">
    <g>
      <rect class="cls-3" x="61.09" width="149.76" height="489.04"/>
      <path class="cls-1" d="M207.98,4.03L159.31.03c-.05,0-.1-.02-.15-.03h-47.28c-.06,0-.11.03-.17.04l-47.56,4c-1.58,0-2.86,1.62-2.86,24.12v460.65h149.56s0-460.65,0-460.65c0-22.5-1.28-24.12-2.86-24.12Z"/>
      <g class="cls-4">
        <g>
          <path class="cls-2" d="M191.89,214.51h23.56v-15.07h-23.56c-2.01,0-3.63-1.63-3.63-3.63h0c0-2.01,1.63-3.63,3.63-3.63h27.71v-14.96h-46.05v59.05h46.05v-14.36h-27.71c-2.01,0-3.63-1.63-3.63-3.63v-.13c0-2.01,1.63-3.63,3.63-3.63ZM106.59,206.75c0,17.08-11.72,30.93-30.82,30.93s-30.82-13.85-30.82-30.93,11.53-30.93,30.82-30.93,30.82,13.85,30.82,30.93ZM75.77,193.13c-8.5,0-13.57,6.1-13.57,13.62s4.8,13.62,13.57,13.62,13.57-6.1,13.57-13.62-5.16-13.62-13.57-13.62ZM139.96,175.82c-19.29,0-30.82,13.85-30.82,30.93s10.89,30.93,30.82,30.93,30.82-13.85,30.82-30.93-11.72-30.93-30.82-30.93ZM153.53,206.75c0,7.52-5.16,13.62-13.57,13.62s-13.57-6.1-13.57-13.62,5.08-13.62,13.57-13.62,13.57,6.1,13.57,13.62ZM32.55,192.8c5.02,0,7.28.3,12.21,1.23v-16.17c-3.75-.97-8.07-1.46-13.84-1.46h0c-18.18,0-30.92,13.59-30.92,30.34s12.62,30.34,30.92,30.34h0c5.24,0,9.14-.49,13.84-1.46v-16.16c-4.85.97-7.12,1.23-12.21,1.23-9.34,0-15.56-6.24-15.56-13.94,0-7.7,5.53-13.94,15.56-13.94ZM242.04,214.51h23.56v-15.07h-23.56c-2.01,0-3.63-1.63-3.63-3.63h0c0-2.01,1.63-3.63,3.63-3.63h27.71v-14.96h-46.05v59.05h46.05v-14.36h-27.71c-2.01,0-3.63-1.63-3.63-3.63v-.13c0-2.01,1.63-3.63,3.63-3.63Z"/>
          <g>
            <path class="cls-2" d="M155.91,244.88v59.07h44.48v-15.91h-22.86c-2.01,0-3.64-1.63-3.64-3.64v-39.52s-17.98,0-17.98,0Z"/>
            <path class="cls-2" d="M151.92,274.42c0,17.09-11.73,30.94-30.83,30.94s-30.83-13.85-30.83-30.94,11.53-30.94,30.83-30.94,30.83,13.85,30.83,30.94ZM121.09,260.79c-8.5,0-13.58,6.1-13.58,13.62s4.8,13.62,13.58,13.62,13.58-6.1,13.58-13.62-5.16-13.62-13.58-13.62Z"/>
            <path class="cls-2" d="M228.65,243.48c-19.3,0-30.83,13.85-30.83,30.94s10.9,30.94,30.83,30.94,30.83-13.85,30.83-30.94-11.73-30.94-30.83-30.94ZM242.23,274.42c0,7.52-5.16,13.62-13.58,13.62s-13.58-6.1-13.58-13.62,5.08-13.62,13.58-13.62,13.58,6.1,13.58,13.62Z"/>
            <path class="cls-2" d="M77.86,260.47c5.02,0,7.28.3,12.21,1.23v-16.18c-3.75-.97-8.07-1.46-13.84-1.46h0c-18.19,0-30.93,13.59-30.93,30.35s12.62,30.34,30.93,30.34h0c5.25,0,9.15-.49,13.84-1.46v-16.16c-4.85.97-7.12,1.23-12.21,1.23-9.34,0-15.57-6.24-15.57-13.95,0-7.7,5.53-13.95,15.57-13.95Z"/>
            <path class="cls-2" d="M409.84,282.19h23.56v-15.07h-23.56c-2.01,0-3.64-1.63-3.64-3.64h0c0-2.01,1.63-3.64,3.64-3.64h27.72v-14.96h-46.06v59.07h46.06v-14.36h-27.72c-2.01,0-3.64-1.63-3.64-3.64v-.13c0-2.01,1.63-3.64,3.64-3.64Z"/>
            <path class="cls-2" d="M366.64,275.77l-31.79-30.59h-11.91v58.8h17.59v-30.59l31.79,30.59h11.91v-58.8h-17.59v30.59Z"/>
            <path class="cls-2" d="M317.22,300.56v-33.49h-26.96v14.08h10.97c1.94,0,3.51,1.57,3.51,3.51h0c0,1.77-1.31,3.27-3.07,3.49-1.69.21-3.79.38-6.37.38-11.62,0-15.57-6.24-15.57-13.95s5.18-13.95,17.65-13.95c5.95,0,11.87.68,17.4,2.1v-16.18c-5.54-1.46-12.08-2.33-19.04-2.33h0c-20.74,0-33.02,13.59-33.02,30.35s11.93,30.34,30.45,30.34h2.25c6.96,0,15.26-1.64,21.79-4.37Z"/>
          </g>
        </g>
      </g>
      <g>
        <rect class="cls-2" x="150.61" y="465.84" width="3.01" height="10.06"/>
        <path class="cls-2" d="M144.4,465.6c-3.29,0-5.25,2.36-5.25,5.27s1.86,5.27,5.25,5.27,5.25-2.36,5.25-5.27-2-5.27-5.25-5.27ZM144.4,473.2c-1.5,0-2.31-1.04-2.31-2.32s.87-2.32,2.31-2.32,2.31,1.04,2.31,2.32-.88,2.32-2.31,2.32Z"/>
        <polygon class="cls-2" points="129.5 468.76 132.75 468.76 132.75 475.9 135.76 475.9 135.76 468.76 139.01 468.76 139.01 465.84 129.5 465.84 129.5 468.76"/>
        <polygon class="cls-2" points="171.64 468.76 174.89 468.76 174.89 475.9 177.9 475.9 177.9 468.76 181.15 468.76 181.15 465.84 171.64 465.84 171.64 468.76"/>
        <polygon class="cls-2" points="181.76 468.76 185.01 468.76 185.01 475.9 188.02 475.9 188.02 468.76 191.27 468.76 191.27 465.84 181.76 465.84 181.76 468.76"/>
        <path class="cls-2" d="M87.92,465.81h-2.99v.02s-4.34,10.1-4.34,10.1h2.98l.73-1.7h4.25l.73,1.7h3.02l-4.36-10.12h-.02ZM85.4,471.67l1.02-2.38,1.02,2.38h-2.05Z"/>
        <path class="cls-2" d="M72.48,475.94h7.89v-2.46h-4.75c-.34,0-.62-.28-.62-.62v-.02c0-.34.28-.62.62-.62h4.04v-2.58h-4.04c-.34,0-.62-.28-.62-.62s.28-.62.62-.62h4.75v-2.56h-7.89v10.12Z"/>
        <path class="cls-2" d="M117.89,475.94h7.89v-2.46h-4.75c-.34,0-.62-.28-.62-.62v-.02c0-.34.28-.62.62-.62h4.04v-2.58h-4.04c-.34,0-.62-.28-.62-.62s.28-.62.62-.62h4.75v-2.56h-7.89v10.12Z"/>
        <path class="cls-2" d="M163.03,475.92h7.89v-2.46h-4.75c-.34,0-.62-.28-.62-.62v-.02c0-.34.28-.62.62-.62h4.04v-2.58h-4.04c-.34,0-.62-.28-.62-.62s.28-.62.62-.62h4.75v-2.56h-7.89v10.12Z"/>
        <path class="cls-2" d="M191.76,475.92h7.89v-2.46h-4.75c-.34,0-.62-.28-.62-.62v-.02c0-.34.28-.62.62-.62h4.04v-2.58h-4.04c-.34,0-.62-.28-.62-.62s.28-.62.62-.62h4.75v-2.56h-7.89v10.12Z"/>
        <path class="cls-2" d="M111.76,475.94c3.12,0,5.04-2.27,5.04-5.06s-1.92-5.06-5.04-5.06h-4.86v10.12h4.86ZM111.68,468.38c1.38,0,2.22,1.14,2.22,2.55s-.84,2.55-2.22,2.55h-1.76v-5.1h1.76Z"/>
        <path class="cls-2" d="M101.83,465.86h-3.01v5.17c0,1.75-1.15,2.12-2.12,2.12-.79,0-2.12-.27-2.12-2.12v-5.17h-3.01v5.17c0,3.02,2.11,5.13,5.13,5.13s5.13-2.06,5.13-5.13v-5.17h0Z"/>
        <path class="cls-2" d="M154.73,465.84v10.06h7.58v-2.71h-3.89c-.34,0-.62-.28-.62-.62v-6.73s-3.06,0-3.06,0Z"/>
      </g>
    </g>
  </g>
</svg>