<?xml version="1.0" encoding="UTF-8"?>
<svg id="Layer_2" data-name="Layer 2" xmlns="http://www.w3.org/2000/svg" viewBox="0 0 149.76 45.82">
  <defs>
    <style>
      .cls-1 {
        fill: none;
        stroke: #dfe9f2;
        stroke-miterlimit: 10;
        stroke-width: .15px;
      }

      .cls-2 {
        fill: #372b2a;
      }

      .cls-3 {
        fill: #dfe9f2;
      }
    </style>
  </defs>
  <g id="Layer_1-2" data-name="Layer 1">
    <g>
      <path class="cls-2" d="M149.76,45.82H0L3.74,8C4.19,3.46,7.98,0,12.52,0h124.71c4.54,0,8.34,3.46,8.79,8l3.74,37.81Z"/>
      <g>
        <g>
          <path class="cls-3" d="M65.09,23.95c-.19-.12-.33-.28-.43-.48s-.15-.43-.15-.69.05-.49.15-.69.24-.37.43-.48c.19-.12.4-.18.65-.18.19,0,.36.04.51.11s.28.17.37.3c.09.13.14.28.15.45h-.34c-.02-.16-.09-.29-.21-.4s-.28-.15-.47-.15h-.04c-.18,0-.34.05-.47.14-.13.09-.23.22-.3.38-.07.16-.1.34-.1.53s.03.37.1.53.17.28.3.38c.13.09.29.14.47.14h.04c.13,0,.24-.02.34-.07s.18-.11.24-.2.09-.18.1-.28h.34c-.01.17-.06.32-.15.45-.09.13-.22.23-.37.3s-.33.11-.51.11c-.25,0-.46-.06-.65-.18Z"/>
          <path class="cls-3" d="M68.01,23.96c-.19-.11-.33-.27-.44-.47-.1-.2-.16-.44-.16-.72s.05-.52.16-.72c.11-.2.25-.36.44-.47.19-.11.4-.16.63-.16s.44.05.63.16c.19.11.33.27.44.47s.16.44.16.72-.05.51-.16.72-.25.36-.44.47c-.19.11-.4.16-.63.16s-.45-.05-.63-.16ZM69.11,23.69c.13-.08.23-.2.31-.36s.11-.34.11-.56-.04-.4-.11-.56c-.08-.16-.18-.28-.31-.36-.13-.08-.28-.13-.45-.13h-.04c-.17,0-.32.04-.45.13s-.23.2-.31.36c-.07.16-.11.34-.11.56s.04.4.11.56c.07.16.18.28.31.36s.28.13.45.13h.04c.17,0,.32-.04.45-.13Z"/>
          <path class="cls-3" d="M71.11,23.96c-.19-.11-.33-.27-.44-.47-.1-.2-.16-.44-.16-.72s.05-.52.16-.72c.11-.2.25-.36.44-.47.19-.11.4-.16.63-.16s.44.05.63.16c.19.11.33.27.44.47s.16.44.16.72-.05.51-.16.72-.25.36-.44.47c-.19.11-.4.16-.63.16s-.45-.05-.63-.16ZM72.2,23.69c.13-.08.23-.2.31-.36s.11-.34.11-.56-.04-.4-.11-.56c-.08-.16-.18-.28-.31-.36-.13-.08-.28-.13-.45-.13h-.04c-.17,0-.32.04-.45.13s-.23.2-.31.36c-.07.16-.11.34-.11.56s.04.4.11.56c.07.16.18.28.31.36s.28.13.45.13h.04c.17,0,.32-.04.45-.13Z"/>
          <path class="cls-3" d="M73.76,21.46h1.89v.31h-1.55v.82h1.33v.31h-1.33v.89h1.59v.31h-1.93v-2.63Z"/>
          <path class="cls-3" d="M76.47,21.46h1.89v.31h-1.55v.82h1.33v.31h-1.33v.89h1.59v.31h-1.93v-2.63Z"/>
          <path class="cls-3" d="M79.07,23.67h.43v.42h-.43v-.42Z"/>
          <path class="cls-3" d="M81.1,21.46h.43l1.05,2.63h-.35l-.96-2.42h.08l-.95,2.42h-.35l1.06-2.63ZM80.59,23.09h1.42v.31h-1.42v-.31Z"/>
          <path class="cls-3" d="M83.57,24.01c-.15-.08-.26-.19-.33-.34s-.11-.32-.11-.52v-1.69h.34v1.65c0,.23.05.4.16.52.11.12.26.18.47.18h.04c.2,0,.36-.06.46-.18.11-.12.16-.3.16-.52v-1.65h.34v1.69c0,.3-.08.54-.25.71-.17.18-.41.26-.73.26-.22,0-.4-.04-.54-.12Z"/>
        </g>
        <path class="cls-1" d="M85.51,26.07c-7.09.47-14.18.47-21.27,0-1.05-.07-1.87-.95-1.87-2.01v-2.4c0-1.07.84-1.96,1.9-2.01,7.07-.35,14.14-.35,21.2,0,1.07.05,1.9.94,1.9,2.01v2.4c0,1.05-.82,1.94-1.87,2.01Z"/>
      </g>
    </g>
  </g>
</svg>