<?xml version="1.0" encoding="UTF-8"?>
<svg id="Layer_2" data-name="Layer 2" xmlns="http://www.w3.org/2000/svg" viewBox="0 0 149.76 154.2">
  <defs>
    <style>
      .cls-1 {
        fill: #372b2a;
      }

      .cls-2 {
        fill: #dfe9f2;
      }
    </style>
  </defs>
  <g id="Layer_1-2" data-name="Layer 1">
    <g>
      <rect class="cls-1" width="149.76" height="154.2"/>
      <g>
        <path class="cls-2" d="M30.41,78.39c-.32-.14-.57-.35-.75-.62-.18-.28-.27-.61-.27-1.01h.71c0,.38.13.67.4.88.27.21.62.31,1.07.31h.08c.37,0,.67-.08.88-.25s.32-.38.32-.64c0-.23-.08-.42-.23-.56s-.38-.25-.69-.31l-.89-.18c-.45-.09-.79-.27-1.02-.51-.23-.25-.35-.58-.35-1,0-.29.08-.55.25-.79.16-.24.39-.43.68-.57.29-.14.63-.21,1.02-.21s.75.07,1.05.21c.3.14.53.34.7.6.17.26.26.57.27.91h-.71c-.02-.33-.15-.59-.38-.78-.23-.19-.53-.29-.89-.29h-.08c-.24,0-.45.04-.63.12-.18.08-.32.19-.42.33-.1.14-.15.3-.15.47,0,.22.07.39.21.53.14.14.34.23.6.28l.89.17c.48.1.85.27,1.1.53s.38.6.38,1.03c0,.32-.08.6-.25.84s-.4.42-.7.55c-.3.13-.66.19-1.06.19-.44,0-.82-.07-1.14-.21Z"/>
        <path class="cls-2" d="M35.02,78.45c-.19-.1-.35-.24-.46-.42-.11-.18-.17-.38-.17-.6,0-.28.07-.51.21-.68s.32-.3.53-.38c.21-.08.44-.13.68-.15l1.14-.1v-.13c0-.2-.04-.37-.11-.51-.07-.14-.17-.24-.3-.32-.13-.07-.29-.11-.47-.11h-.06c-.23,0-.43.06-.59.17-.16.11-.26.27-.28.47h-.67c.02-.36.18-.65.47-.87.29-.22.66-.34,1.1-.34.33,0,.62.07.86.2.24.13.42.32.54.55.12.23.18.48.18.75v1.66c0,.4.01.69.04.87h-.63c-.03-.14-.04-.35-.04-.63-.08.2-.25.36-.48.5-.24.14-.51.21-.82.21-.24,0-.46-.05-.66-.15ZM36.33,77.9c.17-.08.32-.2.44-.34.12-.14.17-.3.17-.46v-.44l-1.04.08c-.25.02-.46.09-.61.21-.16.12-.23.27-.23.46,0,.18.07.33.2.45.13.12.29.18.49.18h.07c.17,0,.34-.04.51-.13Z"/>
        <path class="cls-2" d="M39.35,78.31c-.14-.14-.21-.34-.21-.6v-2.56h-.89v-.58h.89v-1.28h.67v1.28h.96v.58h-.96v2.47c0,.12.02.2.07.25.05.05.13.07.25.07h.77v.59h-.93c-.27,0-.47-.07-.62-.21Z"/>
        <path class="cls-2" d="M42.28,78.42c-.2-.12-.36-.29-.46-.5-.1-.21-.15-.46-.15-.74v-2.61h.67v2.45c0,.34.07.59.21.76s.35.25.64.25h.07c.18,0,.35-.05.51-.16s.29-.26.39-.46c.1-.2.15-.43.15-.7v-2.14h.67v3.95h-.67v-.75c-.09.25-.25.45-.47.6-.22.15-.49.23-.81.23-.29,0-.54-.06-.74-.18Z"/>
        <path class="cls-2" d="M46.19,74.56h.63v.88c.08-.29.23-.52.44-.68.21-.16.46-.24.73-.24h.36v.64h-.32c-.36,0-.65.12-.86.37s-.31.58-.31,1.01v1.98h-.67v-3.95Z"/>
        <path class="cls-2" d="M49.57,78.35c-.26-.17-.46-.4-.61-.71s-.22-.67-.22-1.09.08-.79.23-1.1c.16-.31.37-.55.64-.71.27-.17.57-.25.91-.25.26,0,.51.06.75.19s.4.28.51.47v-2.16h.67v5.54h-.67v-.58c-.11.19-.28.35-.53.47-.25.12-.51.19-.78.19-.34,0-.64-.08-.89-.25ZM51.2,77.85c.18-.12.32-.29.42-.52.1-.22.15-.49.15-.79s-.05-.56-.15-.79c-.1-.22-.24-.4-.42-.52-.18-.12-.38-.18-.6-.18h-.06c-.23,0-.42.06-.59.18-.17.12-.3.29-.4.52-.09.22-.14.49-.14.79,0,.46.1.82.31,1.09.21.27.48.4.82.4h.06c.22,0,.42-.06.6-.18Z"/>
        <path class="cls-2" d="M54.05,78.45c-.2-.1-.35-.24-.46-.42-.11-.18-.17-.38-.17-.6,0-.28.07-.51.21-.68s.31-.3.53-.38c.21-.08.44-.13.68-.15l1.14-.1v-.13c0-.2-.04-.37-.11-.51-.07-.14-.17-.24-.3-.32-.13-.07-.29-.11-.47-.11h-.06c-.23,0-.43.06-.59.17-.16.11-.26.27-.28.47h-.67c.02-.36.18-.65.47-.87.29-.22.66-.34,1.1-.34.33,0,.62.07.86.2.24.13.42.32.54.55.12.23.18.48.18.75v1.66c0,.4.01.69.04.87h-.63c-.03-.14-.04-.35-.04-.63-.08.2-.25.36-.48.5s-.51.21-.82.21c-.24,0-.46-.05-.66-.15ZM55.37,77.9c.17-.08.32-.2.44-.34.12-.14.17-.3.17-.46v-.44l-1.04.08c-.25.02-.46.09-.61.21-.16.12-.23.27-.23.46,0,.18.07.33.2.45.13.12.29.18.49.18h.07c.17,0,.34-.04.51-.13Z"/>
        <path class="cls-2" d="M57.2,74.56h.72l1.47,3.24-.25,1-1.94-4.25ZM57.42,79.31h.79c.14,0,.25-.03.32-.09.07-.06.14-.17.21-.34l1.71-4.32h.7l-1.87,4.66c-.11.26-.23.44-.37.53s-.34.15-.58.15h-.9v-.59Z"/>
        <path class="cls-2" d="M61.9,78.24c-.28-.24-.42-.55-.44-.93h.67c.03.24.12.42.29.54s.38.18.64.18h.07c.23,0,.42-.05.57-.16.15-.11.22-.25.22-.42,0-.14-.05-.26-.14-.34s-.24-.15-.45-.19l-.58-.12c-.34-.07-.62-.19-.82-.37-.21-.18-.31-.42-.31-.74,0-.25.07-.47.2-.65.13-.18.31-.32.54-.41s.47-.14.73-.14c.49,0,.87.12,1.13.36s.4.55.41.92h-.67c-.03-.21-.11-.38-.25-.51-.14-.14-.33-.21-.58-.21h-.07c-.23,0-.42.05-.56.16-.14.11-.21.24-.21.4,0,.15.05.27.14.35s.25.15.47.19l.62.13c.33.06.59.18.78.36s.29.43.29.75c0,.24-.06.45-.19.62-.13.18-.31.32-.54.42-.23.1-.49.15-.79.15-.5,0-.89-.12-1.17-.36Z"/>
        <path class="cls-2" d="M67.94,78.45c-.2-.1-.35-.24-.46-.42-.11-.18-.17-.38-.17-.6,0-.28.07-.51.21-.68s.31-.3.53-.38c.21-.08.44-.13.68-.15l1.14-.1v-.13c0-.2-.04-.37-.11-.51-.07-.14-.17-.24-.3-.32-.13-.07-.29-.11-.47-.11h-.06c-.23,0-.43.06-.59.17-.16.11-.26.27-.28.47h-.67c.02-.36.18-.65.47-.87.29-.22.66-.34,1.1-.34.33,0,.62.07.86.2.24.13.42.32.54.55.12.23.18.48.18.75v1.66c0,.4.01.69.04.87h-.63c-.03-.14-.04-.35-.04-.63-.08.2-.25.36-.48.5s-.51.21-.82.21c-.24,0-.46-.05-.66-.15ZM69.25,77.9c.17-.08.32-.2.44-.34.12-.14.17-.3.17-.46v-.44l-1.04.08c-.25.02-.46.09-.61.21-.16.12-.23.27-.23.46,0,.18.07.33.2.45.13.12.29.18.49.18h.07c.17,0,.34-.04.51-.13Z"/>
        <path class="cls-2" d="M72.27,78.31c-.14-.14-.21-.34-.21-.6v-2.56h-.89v-.58h.89v-1.28h.67v1.28h.96v.58h-.96v2.47c0,.12.02.2.07.25.05.05.13.07.25.07h.77v.59h-.92c-.27,0-.47-.07-.62-.21Z"/>
        <path class="cls-2" d="M77.04,78.31c-.14-.14-.21-.34-.21-.6v-2.56h-.89v-.58h.89v-1.28h.67v1.28h.96v.58h-.96v2.47c0,.12.02.2.07.25.05.05.13.07.25.07h.77v.59h-.93c-.27,0-.47-.07-.62-.21Z"/>
        <path class="cls-2" d="M79.39,72.98h.67v2.17c.13-.21.31-.38.53-.49.22-.12.48-.18.79-.18s.55.06.76.17c.21.12.37.28.48.49.11.21.16.46.16.74v2.63h-.67v-2.47c0-.21-.03-.39-.09-.54s-.15-.26-.28-.34c-.13-.08-.29-.12-.47-.12h-.07c-.2,0-.38.05-.55.15-.17.1-.31.25-.42.44s-.16.42-.16.68v2.19h-.67v-5.54Z"/>
        <path class="cls-2" d="M84.62,78.36c-.28-.16-.5-.39-.66-.7-.16-.31-.25-.69-.25-1.13s.08-.81.25-1.12c.17-.31.39-.54.67-.7s.57-.23.89-.23c.33,0,.62.07.87.22s.44.35.58.62c.13.27.2.57.2.91v.4h-2.79c.01.31.07.56.18.77.11.21.25.36.43.47s.35.15.54.15h.06c.23,0,.42-.06.59-.17s.27-.28.32-.5h.67c-.07.39-.26.69-.56.91-.3.22-.66.32-1.07.32-.34,0-.64-.08-.92-.23ZM86.22,75.32c-.17-.18-.4-.27-.66-.27h-.06c-.25,0-.48.08-.68.25-.2.17-.33.43-.4.79h2.09c-.02-.33-.11-.59-.28-.77Z"/>
        <path class="cls-2" d="M90.25,78.24c-.28-.24-.42-.55-.44-.93h.67c.03.24.12.42.29.54s.38.18.64.18h.07c.23,0,.42-.05.57-.16.15-.11.22-.25.22-.42,0-.14-.05-.26-.14-.34-.09-.09-.24-.15-.46-.19l-.58-.12c-.34-.07-.62-.19-.82-.37-.21-.18-.31-.42-.31-.74,0-.25.07-.47.2-.65.13-.18.31-.32.54-.41.22-.09.47-.14.73-.14.49,0,.87.12,1.13.36s.4.55.41.92h-.67c-.03-.21-.11-.38-.25-.51s-.33-.21-.58-.21h-.07c-.23,0-.42.05-.56.16-.14.11-.21.24-.21.4,0,.15.05.27.14.35.1.09.25.15.47.19l.62.13c.33.06.59.18.78.36s.29.43.29.75c0,.24-.06.45-.19.62-.13.18-.31.32-.54.42-.23.1-.49.15-.79.15-.5,0-.89-.12-1.17-.36Z"/>
        <path class="cls-2" d="M94.52,78.42c-.2-.12-.36-.29-.46-.5-.1-.21-.15-.46-.15-.74v-2.61h.67v2.45c0,.34.07.59.21.76s.35.25.64.25h.07c.18,0,.35-.05.51-.16s.29-.26.39-.46c.1-.2.15-.43.15-.7v-2.14h.67v3.95h-.67v-.75c-.09.25-.25.45-.47.6-.22.15-.49.23-.81.23-.29,0-.54-.06-.74-.18Z"/>
        <path class="cls-2" d="M98.43,74.56h.63v.88c.08-.29.23-.52.44-.68s.46-.24.73-.24h.36v.64h-.32c-.36,0-.65.12-.86.37-.21.25-.31.58-.31,1.01v1.98h-.67v-3.95Z"/>
        <path class="cls-2" d="M101.81,75.14h-.89v-.58h.89v-.79c0-.27.07-.47.2-.6.13-.13.34-.19.6-.19h1.07v.58h-.89c-.12,0-.2.02-.25.07s-.07.13-.07.25v.68h1v.58h-1v3.38h-.67v-3.38Z"/>
        <path class="cls-2" d="M106.68,78.33c-.28-.18-.49-.42-.64-.74-.15-.31-.22-.66-.22-1.05s.07-.74.22-1.05c.15-.31.36-.56.64-.74.28-.18.61-.27,1-.27.3,0,.56.06.79.17.23.11.42.27.56.48.14.21.22.45.25.72h-.67c-.04-.24-.14-.43-.3-.58-.16-.15-.36-.22-.59-.22h-.07c-.25,0-.47.07-.64.2-.18.13-.31.31-.39.54-.08.23-.13.47-.13.74,0,.42.1.77.3,1.06.2.28.49.43.86.43h.07c.23,0,.43-.08.59-.23s.26-.34.3-.57h.67c-.05.42-.21.75-.5,1-.29.25-.65.37-1.1.37-.39,0-.72-.09-1-.27Z"/>
        <path class="cls-2" d="M110.23,72.98h.67v5.54h-.67v-5.54Z"/>
        <path class="cls-2" d="M112.69,78.42c-.2-.12-.36-.29-.46-.5-.1-.21-.15-.46-.15-.74v-2.61h.67v2.45c0,.34.07.59.21.76s.35.25.64.25h.07c.18,0,.35-.05.51-.16s.29-.26.39-.46c.1-.2.15-.43.15-.7v-2.14h.67v3.95h-.67v-.75c-.09.25-.25.45-.47.6-.22.15-.49.23-.81.23-.29,0-.54-.06-.74-.18Z"/>
        <path class="cls-2" d="M117.8,78.41c-.25-.12-.42-.28-.53-.47v.58h-.67v-5.54h.67v2.16c.11-.19.27-.35.51-.47s.48-.19.75-.19c.33,0,.63.08.91.25s.48.4.64.71c.15.31.23.67.23,1.1s-.07.79-.22,1.09c-.15.31-.35.55-.61.71s-.56.25-.89.25c-.27,0-.53-.06-.77-.19ZM119.08,77.85c.17-.12.3-.29.4-.52.1-.22.14-.49.14-.79,0-.46-.1-.82-.31-1.09-.21-.27-.48-.4-.83-.4h-.06c-.22,0-.42.06-.6.18-.18.12-.31.29-.42.52s-.15.49-.15.79.05.56.15.79c.1.22.24.4.42.52s.38.18.6.18h.06c.23,0,.43-.06.6-.18Z"/>
      </g>
    </g>
  </g>
</svg>