<?xml version="1.0" encoding="UTF-8"?>
<svg id="Layer_2" data-name="Layer 2" xmlns="http://www.w3.org/2000/svg" xmlns:xlink="http://www.w3.org/1999/xlink" viewBox="0 0 437.56 489.04">
  <defs>
    <style>
      .cls-1, .cls-2 {
        fill: none;
      }

      .cls-3 {
        fill: #372b2a;
      }

      .cls-2 {
        stroke: #372b2a;
        stroke-miterlimit: 10;
        stroke-width: .2px;
      }

      .cls-4 {
        clip-path: url(#clippath-1);
      }

      .cls-5 {
        fill: #dfe9f2;
      }

      .cls-6 {
        clip-path: url(#clippath);
      }
    </style>
    <clipPath id="clippath">
      <path class="cls-1" d="M341.05,448.58c-.09,0-.17-.08-.17-.18v-.23h1.04v-1.14h0c2.18-.64,3.13-2.36,3.13-5.05,0-4.31-.97-5.51-4.13-5.51-2.04,0-4.85.74-6.3,1.81-1.17.86-1.12,2.34-.98,3.75.36,3.54.99,4.7,3.04,5.05v1.09h1.12v.23c0,.09-.07.17-.17.18l-3.24.57c-.22.04-.38.23-.38.45v26.54c0,.11.09.21.21.21h10.33c.11,0,.21-.09.21-.21v-26.54c0-.22-.16-.41-.38-.45l-3.32-.57Z"/>
    </clipPath>
    <clipPath id="clippath-1">
      <rect class="cls-1" x="210.84" width="149.76" height="489.04"/>
    </clipPath>
  </defs>
  <g id="Layer_1-2" data-name="Layer 1">
    <g>
      <rect class="cls-5" x="210.84" width="149.76" height="489.04"/>
      <g>
        <g>
          <path class="cls-2" d="M341.05,448.58c-.09,0-.17-.08-.17-.18v-.23h1.04v-1.14h0c2.18-.64,3.13-2.36,3.13-5.05,0-4.31-.97-5.51-4.13-5.51-2.04,0-4.85.74-6.3,1.81-1.17.86-1.12,2.34-.98,3.75.36,3.54.99,4.7,3.04,5.05v1.09h1.12v.23c0,.09-.07.17-.17.18l-3.24.57c-.22.04-.38.23-.38.45v26.54c0,.11.09.21.21.21h10.33c.11,0,.21-.09.21-.21v-26.54c0-.22-.16-.41-.38-.45l-3.32-.57Z"/>
          <g class="cls-6">
            <g>
              <path class="cls-3" d="M343.43,459.23h1.66v-1.06h-1.66c-.14,0-.26-.11-.26-.26h0c0-.14.11-.26.26-.26h1.95v-1.05h-3.24v4.16h3.24v-1.01h-1.95c-.14,0-.26-.11-.26-.26h0c0-.15.11-.27.26-.27ZM337.42,458.68c0,1.2-.83,2.18-2.17,2.18s-2.17-.98-2.17-2.18.81-2.18,2.17-2.18,2.17.98,2.17,2.18ZM335.25,457.72c-.6,0-.96.43-.96.96s.34.96.96.96.96-.43.96-.96-.36-.96-.96-.96ZM339.77,456.5c-1.36,0-2.17.98-2.17,2.18s.77,2.18,2.17,2.18,2.17-.98,2.17-2.18-.83-2.18-2.17-2.18ZM340.73,458.68c0,.53-.36.96-.96.96s-.96-.43-.96-.96.36-.96.96-.96.96.43.96.96ZM332.21,457.7c.35,0,.51.02.86.09v-1.14c-.26-.07-.57-.1-.98-.1h0c-1.28,0-2.18.96-2.18,2.14s.89,2.14,2.18,2.14h0c.37,0,.64-.03.98-.1v-1.14c-.34.07-.5.09-.86.09-.66,0-1.1-.44-1.1-.98s.39-.98,1.1-.98ZM346.97,459.23h1.66v-1.06h-1.66c-.14,0-.26-.11-.26-.26h0c0-.14.11-.26.26-.26h1.95v-1.05h-3.24v4.16h3.24v-1.01h-1.95c-.14,0-.26-.11-.26-.26h0c0-.15.11-.27.26-.27Z"/>
              <g>
                <path class="cls-3" d="M340.9,461.36v4.16h3.13v-1.12h-1.61c-.14,0-.26-.11-.26-.26v-2.78s-1.27,0-1.27,0Z"/>
                <path class="cls-3" d="M340.62,463.45c0,1.2-.83,2.18-2.17,2.18s-2.17-.98-2.17-2.18.81-2.18,2.17-2.18,2.17.98,2.17,2.18ZM338.45,462.49c-.6,0-.96.43-.96.96s.34.96.96.96.96-.43.96-.96-.36-.96-.96-.96Z"/>
                <path class="cls-3" d="M346.02,461.27c-1.36,0-2.17.98-2.17,2.18s.77,2.18,2.17,2.18,2.17-.98,2.17-2.18-.83-2.18-2.17-2.18ZM346.98,463.45c0,.53-.36.96-.96.96s-.96-.43-.96-.96.36-.96.96-.96.96.43.96.96Z"/>
                <path class="cls-3" d="M335.4,462.46c.35,0,.51.02.86.09v-1.14c-.26-.07-.57-.1-.98-.1h0c-1.28,0-2.18.96-2.18,2.14s.89,2.14,2.18,2.14h0c.37,0,.64-.03.98-.1v-1.14c-.34.07-.5.09-.86.09-.66,0-1.1-.44-1.1-.98s.39-.98,1.1-.98Z"/>
                <path class="cls-3" d="M358.79,463.99h1.66v-1.06h-1.66c-.14,0-.26-.11-.26-.26h0c0-.14.11-.26.26-.26h1.95v-1.05h-3.25v4.16h3.25v-1.01h-1.95c-.14,0-.26-.11-.26-.26h0c0-.15.11-.27.26-.27Z"/>
                <path class="cls-3" d="M355.75,463.54l-2.24-2.15h-.84v4.14h1.24v-2.15l2.24,2.15h.84v-4.14h-1.24v2.15Z"/>
                <path class="cls-3" d="M352.26,465.29v-2.36h-1.9v.99h.77c.14,0,.25.11.25.25h0c0,.13-.09.23-.22.25s-.27.03-.45.03c-.82,0-1.1-.44-1.1-.98s.37-.98,1.24-.98c.42,0,.84.05,1.23.15v-1.14c-.39-.1-.85-.16-1.34-.16h0c-1.46,0-2.33.96-2.33,2.14s.84,2.14,2.15,2.14h.16c.49,0,1.08-.12,1.53-.31Z"/>
              </g>
            </g>
          </g>
        </g>
        <g>
          <rect class="cls-3" x="340.32" y="474.45" width=".21" height=".71"/>
          <path class="cls-3" d="M339.88,474.44c-.23,0-.37.17-.37.37s.13.37.37.37.37-.17.37-.37-.14-.37-.37-.37ZM339.88,474.98c-.11,0-.16-.07-.16-.16s.06-.16.16-.16.16.07.16.16-.06.16-.16.16Z"/>
          <polygon class="cls-3" points="338.83 474.66 339.06 474.66 339.06 475.17 339.27 475.17 339.27 474.66 339.5 474.66 339.5 474.45 338.83 474.45 338.83 474.66"/>
          <polygon class="cls-3" points="341.81 474.66 342.04 474.66 342.04 475.17 342.25 475.17 342.25 474.66 342.48 474.66 342.48 474.45 341.81 474.45 341.81 474.66"/>
          <polygon class="cls-3" points="342.52 474.66 342.75 474.66 342.75 475.17 342.97 475.17 342.97 474.66 343.2 474.66 343.2 474.45 342.52 474.45 342.52 474.66"/>
          <path class="cls-3" d="M335.89,474.45h-.21,0s-.31.72-.31.72h.21l.05-.12h.3l.05.12h.21l-.31-.72h0ZM335.71,474.87l.07-.17.07.17h-.14Z"/>
          <path class="cls-3" d="M334.79,475.17h.56v-.17h-.34s-.04-.02-.04-.04h0s.02-.05.04-.05h.29v-.18h-.29s-.04-.02-.04-.04.02-.04.04-.04h.34v-.18h-.56v.72Z"/>
          <path class="cls-3" d="M338.01,475.17h.56v-.17h-.34s-.04-.02-.04-.04h0s.02-.05.04-.05h.29v-.18h-.29s-.04-.02-.04-.04.02-.04.04-.04h.34v-.18h-.56v.72Z"/>
          <path class="cls-3" d="M341.2,475.17h.56v-.17h-.34s-.04-.02-.04-.04h0s.02-.05.04-.05h.29v-.18h-.29s-.04-.02-.04-.04.02-.04.04-.04h.34v-.18h-.56v.72Z"/>
          <path class="cls-3" d="M343.23,475.17h.56v-.17h-.34s-.04-.02-.04-.04h0s.02-.05.04-.05h.29v-.18h-.29s-.04-.02-.04-.04.02-.04.04-.04h.34v-.18h-.56v.72Z"/>
          <path class="cls-3" d="M337.57,475.17c.22,0,.36-.16.36-.36s-.14-.36-.36-.36h-.34v.72h.34ZM337.57,474.63c.1,0,.16.08.16.18s-.06.18-.16.18h-.12v-.36h.12Z"/>
          <path class="cls-3" d="M336.87,474.46h-.21v.37c0,.12-.08.15-.15.15-.06,0-.15-.02-.15-.15v-.37h-.21v.37c0,.21.15.36.36.36s.36-.15.36-.36v-.37h0Z"/>
          <path class="cls-3" d="M340.61,474.45v.71h.54v-.19h-.28s-.04-.02-.04-.04v-.48s-.22,0-.22,0Z"/>
        </g>
      </g>
      <g class="cls-4">
        <g>
          <path class="cls-3" d="M191.89,214.51h23.56v-15.07h-23.56c-2.01,0-3.63-1.63-3.63-3.63h0c0-2.01,1.63-3.63,3.63-3.63h27.71v-14.96h-46.05v59.05h46.05v-14.36h-27.71c-2.01,0-3.63-1.63-3.63-3.63v-.13c0-2.01,1.63-3.63,3.63-3.63ZM106.59,206.75c0,17.08-11.72,30.93-30.82,30.93s-30.82-13.85-30.82-30.93,11.53-30.93,30.82-30.93,30.82,13.85,30.82,30.93ZM75.77,193.13c-8.5,0-13.57,6.1-13.57,13.62s4.8,13.62,13.57,13.62,13.57-6.1,13.57-13.62-5.16-13.62-13.57-13.62ZM139.96,175.82c-19.29,0-30.82,13.85-30.82,30.93s10.89,30.93,30.82,30.93,30.82-13.85,30.82-30.93-11.72-30.93-30.82-30.93ZM153.53,206.75c0,7.52-5.16,13.62-13.57,13.62s-13.57-6.1-13.57-13.62,5.08-13.62,13.57-13.62,13.57,6.1,13.57,13.62ZM32.55,192.8c5.02,0,7.28.3,12.21,1.23v-16.17c-3.75-.97-8.07-1.46-13.84-1.46h0c-18.18,0-30.92,13.59-30.92,30.34s12.62,30.34,30.92,30.34h0c5.24,0,9.14-.49,13.84-1.46v-16.16c-4.85.97-7.12,1.23-12.21,1.23-9.34,0-15.56-6.24-15.56-13.94,0-7.7,5.53-13.94,15.56-13.94ZM242.04,214.51h23.56v-15.07h-23.56c-2.01,0-3.63-1.63-3.63-3.63h0c0-2.01,1.63-3.63,3.63-3.63h27.71v-14.96h-46.05v59.05h46.05v-14.36h-27.71c-2.01,0-3.63-1.63-3.63-3.63v-.13c0-2.01,1.63-3.63,3.63-3.63Z"/>
          <g>
            <path class="cls-3" d="M155.91,244.88v59.07h44.48v-15.91h-22.86c-2.01,0-3.64-1.63-3.64-3.64v-39.52s-17.98,0-17.98,0Z"/>
            <path class="cls-3" d="M151.92,274.42c0,17.09-11.73,30.94-30.83,30.94s-30.83-13.85-30.83-30.94,11.53-30.94,30.83-30.94,30.83,13.85,30.83,30.94ZM121.09,260.79c-8.5,0-13.58,6.1-13.58,13.62s4.8,13.62,13.58,13.62,13.58-6.1,13.58-13.62-5.16-13.62-13.58-13.62Z"/>
            <path class="cls-3" d="M228.65,243.48c-19.3,0-30.83,13.85-30.83,30.94s10.9,30.94,30.83,30.94,30.83-13.85,30.83-30.94-11.73-30.94-30.83-30.94ZM242.23,274.42c0,7.52-5.16,13.62-13.58,13.62s-13.58-6.1-13.58-13.62,5.08-13.62,13.58-13.62,13.58,6.1,13.58,13.62Z"/>
            <path class="cls-3" d="M77.86,260.47c5.02,0,7.28.3,12.21,1.23v-16.18c-3.75-.97-8.07-1.46-13.84-1.46h0c-18.19,0-30.93,13.59-30.93,30.35s12.62,30.34,30.93,30.34h0c5.25,0,9.15-.49,13.84-1.46v-16.16c-4.85.97-7.12,1.23-12.21,1.23-9.34,0-15.57-6.24-15.57-13.95,0-7.7,5.53-13.95,15.57-13.95Z"/>
            <path class="cls-3" d="M409.84,282.19h23.56v-15.07h-23.56c-2.01,0-3.64-1.63-3.64-3.64h0c0-2.01,1.63-3.64,3.64-3.64h27.72v-14.96h-46.06v59.07h46.06v-14.36h-27.72c-2.01,0-3.64-1.63-3.64-3.64v-.13c0-2.01,1.63-3.64,3.64-3.64Z"/>
            <path class="cls-3" d="M366.64,275.77l-31.79-30.59h-11.91v58.8h17.59v-30.59l31.79,30.59h11.91v-58.8h-17.59v30.59Z"/>
            <path class="cls-3" d="M317.22,300.56v-33.49h-26.96v14.08h10.97c1.94,0,3.51,1.57,3.51,3.51h0c0,1.77-1.31,3.27-3.07,3.49-1.69.21-3.79.38-6.37.38-11.62,0-15.57-6.24-15.57-13.95s5.18-13.95,17.65-13.95c5.95,0,11.87.68,17.4,2.1v-16.18c-5.54-1.46-12.08-2.33-19.04-2.33h0c-20.74,0-33.02,13.59-33.02,30.35s11.93,30.34,30.45,30.34h2.25c6.96,0,15.26-1.64,21.79-4.37Z"/>
          </g>
        </g>
      </g>
      <g>
        <path class="cls-3" d="M252.21,467.22h2.38v.41h-1.94v1.17h1.69v.41h-1.69v1.48h-.44v-3.46Z"/>
        <path class="cls-3" d="M255.46,470.56c-.18-.11-.32-.26-.42-.46-.1-.19-.15-.42-.15-.67s.05-.47.15-.67c.1-.19.24-.35.42-.45s.38-.16.59-.16.42.05.6.16.32.26.42.45.15.42.15.67-.05.47-.15.67c-.1.19-.24.35-.42.46-.18.11-.38.16-.6.16s-.42-.05-.59-.16ZM256.45,470.26c.11-.07.2-.18.26-.32s.09-.31.09-.5-.03-.36-.09-.5c-.06-.14-.15-.25-.26-.32-.11-.07-.23-.11-.37-.11h-.04c-.14,0-.26.04-.37.11-.11.07-.2.18-.26.32-.06.14-.09.3-.09.5s.03.36.09.5.15.25.26.32c.11.07.23.11.37.11h.04c.14,0,.26-.04.37-.11Z"/>
        <path class="cls-3" d="M257.83,468.21h.39v.55c.05-.18.14-.33.27-.42s.29-.15.46-.15h.22v.4h-.2c-.23,0-.41.08-.54.23-.13.15-.19.36-.19.63v1.23h-.42v-2.47Z"/>
        <path class="cls-3" d="M259.66,468.21h.42v.36c.08-.12.18-.22.31-.3.13-.08.28-.11.45-.11.18,0,.35.04.48.12.14.08.24.2.32.36.09-.17.21-.29.35-.36s.31-.12.48-.12.34.04.47.11c.13.07.23.17.3.3.07.13.11.29.11.47v1.64h-.42v-1.54c0-.2-.04-.36-.13-.46s-.22-.16-.4-.16h-.03c-.12,0-.23.04-.33.1-.1.07-.18.17-.24.29-.06.13-.09.27-.09.43v1.33h-.42v-1.54c0-.2-.04-.36-.13-.46s-.21-.16-.39-.16h-.04c-.12,0-.23.04-.33.1-.1.07-.18.17-.24.29-.06.13-.09.27-.09.43v1.33h-.42v-2.47Z"/>
        <path class="cls-3" d="M264.44,470.61c-.13-.08-.22-.18-.29-.31-.06-.13-.1-.29-.1-.46v-1.63h.42v1.53c0,.21.04.37.13.47.09.11.22.16.4.16h.04c.11,0,.22-.03.32-.1s.18-.16.24-.29.09-.27.09-.44v-1.33h.42v2.47h-.42v-.47c-.06.15-.15.28-.29.38s-.31.14-.51.14c-.18,0-.33-.04-.46-.11Z"/>
        <path class="cls-3" d="M266.89,467.22h.42v3.46h-.42v-3.46Z"/>
        <path class="cls-3" d="M268.31,470.63c-.12-.06-.22-.15-.29-.26-.07-.11-.11-.24-.11-.38,0-.17.04-.32.13-.42.09-.11.2-.19.33-.24s.27-.08.42-.09l.71-.06v-.08c0-.12-.02-.23-.07-.32-.04-.08-.11-.15-.19-.2-.08-.05-.18-.07-.29-.07h-.03c-.15,0-.27.04-.37.1-.1.07-.16.17-.17.3h-.42c.01-.22.11-.41.29-.55.18-.14.41-.21.69-.21.21,0,.39.04.54.13.15.08.26.2.34.34.07.14.11.3.11.47v1.04c0,.25,0,.43.02.54h-.4c-.02-.09-.02-.22-.02-.4-.05.12-.15.23-.3.31-.15.09-.32.13-.51.13-.15,0-.29-.03-.41-.09ZM269.13,470.29c.11-.05.2-.12.27-.21.07-.09.11-.19.11-.29v-.28l-.65.05c-.16.01-.29.06-.38.13-.1.07-.15.17-.15.29s.04.21.12.28c.08.08.18.11.31.11h.04c.11,0,.21-.03.32-.08Z"/>
        <path class="cls-3" d="M271.01,470.54c-.09-.09-.13-.21-.13-.38v-1.6h-.55v-.36h.55v-.8h.42v.8h.6v.36h-.6v1.54c0,.07.01.12.04.15.03.03.08.04.15.04h.48v.37h-.58c-.17,0-.3-.04-.38-.13Z"/>
        <path class="cls-3" d="M272.87,470.58c-.17-.1-.31-.24-.41-.44-.1-.19-.15-.43-.15-.71s.05-.51.16-.7c.1-.19.24-.34.42-.43.17-.1.36-.15.56-.15.21,0,.39.05.55.14.16.09.28.22.36.39.08.17.13.36.13.57v.25h-1.74c0,.19.04.35.11.48.07.13.16.23.27.29.11.06.22.1.34.1h.04c.14,0,.26-.03.37-.1.1-.07.17-.17.2-.31h.42c-.05.24-.16.43-.35.57-.19.14-.41.2-.67.2-.21,0-.4-.05-.58-.15ZM273.87,468.68c-.11-.11-.25-.17-.41-.17h-.04c-.16,0-.3.05-.42.16-.13.1-.21.27-.25.49h1.3c0-.21-.07-.37-.18-.48Z"/>
        <path class="cls-3" d="M275.46,470.57c-.16-.1-.29-.25-.38-.44s-.14-.42-.14-.68.05-.49.15-.68c.1-.19.23-.34.4-.45.17-.1.36-.16.57-.16.16,0,.32.04.47.12s.25.17.32.29v-1.35h.42v3.46h-.42v-.36c-.07.12-.18.22-.33.29s-.32.12-.49.12c-.21,0-.4-.05-.56-.16ZM276.48,470.25c.11-.08.2-.18.26-.32.06-.14.1-.3.1-.49s-.03-.35-.1-.49c-.06-.14-.15-.25-.26-.32-.11-.08-.23-.11-.37-.11h-.03c-.14,0-.27.04-.37.11-.11.08-.19.18-.25.32-.06.14-.09.3-.09.49,0,.29.06.51.19.68s.3.25.51.25h.03c.14,0,.26-.04.37-.11Z"/>
        <path class="cls-3" d="M279.47,470.63c-.12-.06-.22-.15-.29-.26-.07-.11-.11-.24-.11-.38,0-.17.04-.32.13-.42.09-.11.2-.19.33-.24s.27-.08.42-.09l.71-.06v-.08c0-.12-.02-.23-.07-.32-.04-.08-.11-.15-.19-.2-.08-.05-.18-.07-.29-.07h-.03c-.15,0-.27.04-.37.1-.1.07-.16.17-.17.3h-.42c.01-.22.11-.41.29-.55.18-.14.41-.21.69-.21.21,0,.39.04.54.13.15.08.26.2.34.34.07.14.11.3.11.47v1.04c0,.25,0,.43.02.54h-.4c-.02-.09-.02-.22-.02-.4-.05.12-.15.23-.3.31-.15.09-.32.13-.51.13-.15,0-.29-.03-.41-.09ZM280.29,470.29c.11-.05.2-.12.27-.21.07-.09.11-.19.11-.29v-.28l-.65.05c-.16.01-.29.06-.38.13-.1.07-.15.17-.15.29s.04.21.12.28c.08.08.18.11.31.11h.04c.11,0,.21-.03.32-.08Z"/>
        <path class="cls-3" d="M281.83,468.21h.42v.37c.08-.13.19-.23.32-.31.14-.08.3-.11.49-.11.18,0,.34.04.47.11.13.07.23.17.3.3.07.13.11.29.11.47v1.64h-.42v-1.54c0-.13-.02-.25-.06-.34-.04-.09-.1-.16-.18-.21-.08-.05-.18-.07-.3-.07h-.04c-.13,0-.26.04-.36.1-.11.07-.19.17-.25.29-.06.13-.09.27-.09.43v1.33h-.42v-2.47Z"/>
        <path class="cls-3" d="M285.05,470.57c-.16-.1-.29-.25-.38-.44s-.14-.42-.14-.68.05-.49.15-.68c.1-.19.23-.34.4-.45.17-.1.36-.16.57-.16.16,0,.32.04.47.12s.25.17.32.29v-1.35h.42v3.46h-.42v-.36c-.07.12-.18.22-.33.29s-.32.12-.49.12c-.21,0-.4-.05-.56-.16ZM286.07,470.25c.11-.08.2-.18.26-.32.06-.14.1-.3.1-.49s-.03-.35-.1-.49c-.06-.14-.15-.25-.26-.32-.11-.08-.23-.11-.37-.11h-.03c-.14,0-.27.04-.37.11-.11.08-.19.18-.25.32-.06.14-.09.3-.09.49,0,.29.06.51.19.68s.3.25.51.25h.03c.14,0,.26-.04.37-.11Z"/>
        <path class="cls-3" d="M288.82,467.22h.42v1.36c.08-.13.19-.23.33-.31s.3-.11.49-.11.34.04.47.11c.13.07.23.17.3.31.07.13.1.29.1.46v1.64h-.42v-1.55c0-.13-.02-.24-.06-.34-.04-.09-.1-.16-.18-.21-.08-.05-.18-.07-.3-.07h-.04c-.12,0-.24.03-.34.1-.11.06-.19.16-.26.28-.07.12-.1.26-.1.42v1.37h-.42v-3.46Z"/>
        <path class="cls-3" d="M291.91,470.63c-.12-.06-.22-.15-.29-.26-.07-.11-.11-.24-.11-.38,0-.17.04-.32.13-.42.09-.11.2-.19.33-.24s.27-.08.42-.09l.71-.06v-.08c0-.12-.02-.23-.07-.32-.04-.08-.11-.15-.19-.2-.08-.05-.18-.07-.29-.07h-.03c-.15,0-.27.04-.37.1-.1.07-.16.17-.17.3h-.42c.01-.22.11-.41.29-.55.18-.14.41-.21.69-.21.21,0,.39.04.54.13.15.08.26.2.34.34s.11.3.11.47v1.04c0,.25,0,.43.02.54h-.4c-.02-.09-.02-.22-.02-.4-.05.12-.15.23-.3.31-.15.09-.32.13-.51.13-.15,0-.29-.03-.41-.09ZM292.73,470.29c.11-.05.2-.12.27-.21.07-.09.11-.19.11-.29v-.28l-.65.05c-.16.01-.29.06-.38.13-.1.07-.15.17-.15.29s.04.21.12.28c.08.08.18.11.31.11h.04c.11,0,.21-.03.32-.08Z"/>
        <path class="cls-3" d="M294.27,468.21h.42v.37c.08-.13.19-.23.32-.31.14-.08.3-.11.49-.11s.34.04.47.11c.13.07.23.17.3.3s.11.29.11.47v1.64h-.42v-1.54c0-.13-.02-.25-.06-.34-.04-.09-.1-.16-.18-.21-.08-.05-.18-.07-.3-.07h-.04c-.13,0-.26.04-.36.1-.11.07-.19.17-.25.29-.06.13-.09.27-.09.43v1.33h-.42v-2.47Z"/>
        <path class="cls-3" d="M297.49,470.57c-.16-.1-.29-.25-.38-.44-.09-.19-.14-.42-.14-.68s.05-.49.15-.68c.1-.19.23-.34.4-.45.17-.1.36-.16.57-.16.16,0,.32.04.47.12s.25.17.32.29v-1.35h.42v3.46h-.42v-.36c-.07.12-.18.22-.33.29-.16.08-.32.12-.49.12-.21,0-.4-.05-.56-.16ZM298.51,470.25c.11-.08.2-.18.26-.32.06-.14.1-.3.1-.49s-.03-.35-.1-.49c-.06-.14-.15-.25-.26-.32-.11-.08-.23-.11-.37-.11h-.03c-.14,0-.26.04-.37.11-.11.08-.19.18-.25.32-.06.14-.09.3-.09.49,0,.29.06.51.19.68s.3.25.51.25h.03c.14,0,.26-.04.37-.11Z"/>
        <path class="cls-3" d="M299.99,469h1.3v.37h-1.3v-.37Z"/>
        <path class="cls-3" d="M302.75,470.61c-.15-.08-.27-.18-.33-.29v.36h-.42v-3.46h.42v1.35c.07-.12.17-.22.32-.29s.3-.12.47-.12c.21,0,.4.05.57.16.17.1.3.25.4.45.1.19.14.42.14.68s-.05.49-.14.68c-.09.19-.22.34-.38.44s-.35.16-.56.16c-.17,0-.33-.04-.48-.12ZM303.55,470.25c.11-.08.19-.18.25-.32.06-.14.09-.3.09-.49,0-.29-.06-.51-.19-.68-.13-.17-.3-.25-.52-.25h-.03c-.14,0-.26.04-.37.11-.11.08-.2.18-.26.32-.06.14-.09.3-.09.49s.03.35.09.49.15.25.26.32c.11.08.23.11.37.11h.03c.14,0,.27-.04.37-.11Z"/>
        <path class="cls-3" d="M304.92,467.22h.42v3.46h-.42v-3.46Z"/>
        <path class="cls-3" d="M306.52,470.58c-.17-.1-.31-.24-.41-.44s-.15-.43-.15-.71.05-.51.16-.7.24-.34.42-.43c.17-.1.36-.15.56-.15.21,0,.39.05.55.14.16.09.28.22.36.39.08.17.13.36.13.57v.25h-1.74c0,.19.04.35.11.48.07.13.16.23.27.29s.22.1.34.1h.04c.14,0,.26-.03.37-.1.1-.07.17-.17.2-.31h.42c-.05.24-.16.43-.35.57-.19.14-.41.2-.67.2-.21,0-.4-.05-.58-.15ZM307.52,468.68c-.11-.11-.25-.17-.41-.17h-.04c-.16,0-.3.05-.42.16-.12.1-.21.27-.25.49h1.3c0-.21-.07-.37-.18-.48Z"/>
        <path class="cls-3" d="M308.74,468.21h.42v.37c.08-.13.19-.23.32-.31.14-.08.3-.11.49-.11s.34.04.47.11c.13.07.23.17.3.3.07.13.11.29.11.47v1.64h-.42v-1.54c0-.13-.02-.25-.06-.34-.04-.09-.1-.16-.18-.21-.08-.05-.18-.07-.3-.07h-.04c-.13,0-.26.04-.36.1-.11.07-.19.17-.25.29-.06.13-.09.27-.09.43v1.33h-.42v-2.47Z"/>
        <path class="cls-3" d="M311.96,470.57c-.16-.1-.29-.25-.38-.44-.09-.19-.14-.42-.14-.68s.05-.49.15-.68c.1-.19.23-.34.4-.45.17-.1.36-.16.57-.16.16,0,.32.04.47.12s.25.17.32.29v-1.35h.42v3.46h-.42v-.36c-.07.12-.18.22-.33.29s-.32.12-.49.12c-.21,0-.4-.05-.56-.16ZM312.97,470.25c.11-.08.2-.18.26-.32.06-.14.1-.3.1-.49s-.03-.35-.1-.49c-.06-.14-.15-.25-.26-.32-.11-.08-.23-.11-.37-.11h-.03c-.14,0-.26.04-.37.11-.11.08-.19.18-.25.32-.06.14-.09.3-.09.49,0,.29.06.51.19.68.13.17.3.25.51.25h.03c.14,0,.26-.04.37-.11Z"/>
        <path class="cls-3" d="M314.93,470.58c-.17-.1-.31-.24-.41-.44s-.15-.43-.15-.71.05-.51.16-.7.24-.34.42-.43c.17-.1.36-.15.56-.15.21,0,.39.05.55.14.16.09.28.22.36.39.08.17.13.36.13.57v.25h-1.74c0,.19.04.35.11.48.07.13.16.23.27.29.11.06.22.1.34.1h.04c.14,0,.26-.03.37-.1.1-.07.17-.17.2-.31h.42c-.05.24-.16.43-.35.57-.19.14-.41.2-.67.2-.21,0-.4-.05-.58-.15ZM315.93,468.68c-.11-.11-.25-.17-.41-.17h-.04c-.16,0-.3.05-.42.16-.12.1-.21.27-.25.49h1.3c0-.21-.07-.37-.18-.48Z"/>
        <path class="cls-3" d="M317.52,470.57c-.16-.1-.29-.25-.38-.44s-.14-.42-.14-.68.05-.49.15-.68c.1-.19.23-.34.4-.45.17-.1.36-.16.57-.16.16,0,.32.04.47.12s.25.17.32.29v-1.35h.42v3.46h-.42v-.36c-.07.12-.18.22-.33.29-.16.08-.32.12-.49.12-.21,0-.4-.05-.56-.16ZM318.54,470.25c.11-.08.2-.18.26-.32s.1-.3.1-.49-.03-.35-.1-.49c-.06-.14-.15-.25-.26-.32-.11-.08-.23-.11-.37-.11h-.03c-.14,0-.27.04-.37.11-.1.08-.19.18-.25.32-.06.14-.09.3-.09.49,0,.29.06.51.19.68s.3.25.51.25h.03c.14,0,.26-.04.37-.11Z"/>
        <path class="cls-3" d="M267.46,472.49h.47v.5h-.47v-.5ZM267.48,473.44h.42v2.47h-.42v-2.47Z"/>
        <path class="cls-3" d="M268.66,473.44h.42v.37c.08-.13.19-.23.32-.31.14-.08.3-.11.49-.11s.34.04.47.11c.13.07.23.17.3.3s.11.29.11.47v1.64h-.42v-1.54c0-.13-.02-.25-.06-.34-.04-.09-.1-.16-.18-.21-.08-.05-.18-.07-.3-.07h-.04c-.13,0-.26.04-.36.1-.11.07-.19.17-.25.29-.06.13-.09.27-.09.43v1.33h-.42v-2.47Z"/>
        <path class="cls-3" d="M272.8,475.73c-.17-.15-.27-.34-.27-.58h.42c.02.15.08.26.18.34.1.08.24.11.4.11h.04c.15,0,.26-.03.36-.1.09-.07.14-.15.14-.26,0-.09-.03-.16-.09-.21-.06-.05-.15-.09-.28-.12l-.36-.07c-.21-.04-.39-.12-.51-.23s-.19-.26-.19-.46c0-.16.04-.29.13-.41.08-.11.2-.2.34-.26s.29-.09.46-.09c.31,0,.54.08.71.23s.25.34.26.58h-.42c-.02-.13-.07-.24-.16-.32-.09-.09-.21-.13-.36-.13h-.04c-.14,0-.26.03-.35.1s-.13.15-.13.25c0,.09.03.17.09.22.06.05.16.09.29.12l.39.08c.2.04.37.11.49.22s.18.27.18.47c0,.15-.04.28-.12.39-.08.11-.19.2-.34.26s-.31.09-.5.09c-.31,0-.56-.08-.73-.23Z"/>
        <path class="cls-3" d="M275.11,473.44h.42v.36c.08-.12.18-.22.31-.3.13-.08.28-.11.45-.11.18,0,.35.04.48.12s.24.2.32.36c.09-.17.21-.29.35-.36s.31-.12.48-.12.34.04.47.11c.13.07.23.17.3.3s.11.29.11.47v1.64h-.42v-1.54c0-.2-.04-.36-.13-.46s-.22-.16-.4-.16h-.03c-.12,0-.23.04-.33.1-.1.07-.18.17-.24.29-.06.13-.09.27-.09.43v1.33h-.42v-1.54c0-.2-.04-.36-.13-.46s-.21-.16-.39-.16h-.04c-.12,0-.23.04-.33.1-.1.07-.18.17-.24.29-.06.13-.09.27-.09.43v1.33h-.42v-2.47Z"/>
        <path class="cls-3" d="M279.79,475.86c-.12-.06-.22-.15-.29-.26-.07-.11-.11-.24-.11-.38,0-.17.04-.32.13-.42.09-.11.2-.19.33-.24.13-.05.27-.08.42-.09l.71-.06v-.08c0-.12-.02-.23-.07-.32-.04-.08-.11-.15-.19-.2-.08-.05-.18-.07-.29-.07h-.03c-.15,0-.27.04-.37.1-.1.07-.16.17-.17.3h-.42c.01-.22.11-.41.29-.55s.41-.21.69-.21c.21,0,.39.04.54.13.15.08.26.2.34.34.07.14.11.3.11.47v1.04c0,.25,0,.43.02.54h-.4c-.02-.09-.02-.22-.02-.4-.05.12-.15.23-.3.31-.15.09-.32.13-.51.13-.15,0-.29-.03-.41-.09ZM280.61,475.53c.11-.05.2-.12.27-.21.07-.09.11-.19.11-.29v-.28l-.65.05c-.16.01-.29.06-.38.13s-.15.17-.15.29.04.21.12.28c.08.08.18.11.31.11h.04c.11,0,.21-.03.32-.08Z"/>
        <path class="cls-3" d="M282.14,472.45h.42v3.46h-.42v-3.46Z"/>
        <path class="cls-3" d="M283.32,472.45h.42v3.46h-.42v-3.46Z"/>
        <path class="cls-3" d="M286.46,475.84c-.15-.08-.27-.18-.33-.29v.36h-.42v-3.46h.42v1.35c.07-.12.17-.22.32-.29.15-.08.3-.12.47-.12.21,0,.4.05.57.16.17.1.3.25.4.45.1.19.14.42.14.68s-.05.49-.14.68-.22.34-.38.44c-.16.1-.35.16-.56.16-.17,0-.33-.04-.48-.12ZM287.26,475.49c.11-.08.19-.18.25-.32s.09-.3.09-.49c0-.29-.06-.51-.2-.68-.13-.17-.3-.25-.52-.25h-.03c-.14,0-.26.04-.37.11-.11.08-.2.18-.26.32-.06.14-.09.3-.09.49s.03.35.09.49.15.25.26.32c.11.08.23.11.37.11h.03c.14,0,.27-.04.37-.11Z"/>
        <path class="cls-3" d="M288.88,475.86c-.12-.06-.22-.15-.29-.26-.07-.11-.11-.24-.11-.38,0-.17.04-.32.13-.42.09-.11.2-.19.33-.24.13-.05.27-.08.42-.09l.71-.06v-.08c0-.12-.02-.23-.07-.32-.04-.08-.11-.15-.19-.2-.08-.05-.18-.07-.29-.07h-.03c-.14,0-.27.04-.37.1-.1.07-.16.17-.17.3h-.42c.01-.22.11-.41.29-.55s.41-.21.69-.21c.21,0,.39.04.54.13s.26.2.34.34.11.3.11.47v1.04c0,.25,0,.43.02.54h-.4c-.02-.09-.02-.22-.02-.4-.05.12-.15.23-.3.31-.15.09-.32.13-.51.13-.15,0-.29-.03-.41-.09ZM289.7,475.53c.11-.05.2-.12.27-.21.07-.09.11-.19.11-.29v-.28l-.65.05c-.16.01-.29.06-.38.13s-.15.17-.15.29.04.21.12.28c.08.08.18.11.31.11h.04c.1,0,.21-.03.32-.08Z"/>
        <path class="cls-3" d="M291.58,475.78c-.09-.09-.13-.21-.13-.38v-1.6h-.55v-.36h.55v-.8h.42v.8h.6v.36h-.6v1.54c0,.07.01.12.04.15.03.03.08.04.15.04h.48v.37h-.58c-.17,0-.3-.04-.39-.13Z"/>
        <path class="cls-3" d="M293.41,475.79c-.17-.11-.31-.27-.4-.46-.09-.19-.14-.41-.14-.66s.05-.46.14-.66.23-.35.4-.46c.17-.11.38-.17.63-.17.18,0,.35.04.49.1.14.07.26.17.35.3s.14.28.16.45h-.42c-.02-.15-.08-.27-.19-.36-.1-.09-.22-.14-.37-.14h-.04c-.16,0-.29.04-.4.13s-.19.2-.24.34-.08.3-.08.46c0,.26.06.48.19.66s.3.27.54.27h.04c.15,0,.27-.05.37-.14.1-.09.16-.21.19-.36h.42c-.03.26-.13.47-.31.62-.18.15-.41.23-.68.23-.24,0-.45-.06-.63-.17Z"/>
        <path class="cls-3" d="M295.63,472.45h.42v1.36c.08-.13.19-.23.33-.31s.3-.11.49-.11.34.04.47.11c.13.07.23.17.3.31s.1.29.1.46v1.64h-.42v-1.55c0-.13-.02-.24-.06-.34-.04-.09-.1-.16-.18-.21-.08-.05-.18-.07-.3-.07h-.04c-.12,0-.24.03-.34.1-.11.06-.19.16-.26.28s-.1.26-.1.42v1.37h-.42v-3.46Z"/>
        <path class="cls-3" d="M298.89,475.81c-.17-.1-.31-.24-.41-.44s-.15-.43-.15-.71.05-.51.16-.7.24-.34.42-.43c.17-.1.36-.15.56-.15.21,0,.39.05.55.14.16.09.28.22.36.39.08.17.13.36.13.57v.25h-1.74c0,.19.04.35.11.48.07.13.16.23.27.29.11.06.22.1.34.1h.04c.14,0,.26-.03.37-.1.1-.07.17-.17.2-.31h.42c-.05.24-.16.43-.35.57-.19.14-.41.2-.67.2-.21,0-.4-.05-.58-.15ZM299.89,473.91c-.11-.11-.25-.17-.42-.17h-.04c-.16,0-.3.05-.42.16-.12.1-.21.27-.25.49h1.3c-.01-.21-.07-.37-.18-.48Z"/>
        <path class="cls-3" d="M301.19,475.73c-.17-.15-.26-.34-.27-.58h.42c.02.15.08.26.18.34.1.08.24.11.4.11h.04c.15,0,.26-.03.36-.1.09-.07.14-.15.14-.26,0-.09-.03-.16-.09-.21-.06-.05-.15-.09-.28-.12l-.36-.07c-.21-.04-.39-.12-.51-.23s-.19-.26-.19-.46c0-.16.04-.29.13-.41.08-.11.2-.2.34-.26.14-.06.29-.09.46-.09.31,0,.54.08.71.23.16.15.25.34.26.58h-.42c-.02-.13-.07-.24-.16-.32-.09-.09-.21-.13-.36-.13h-.04c-.15,0-.26.03-.35.1-.09.07-.13.15-.13.25,0,.09.03.17.09.22.06.05.16.09.29.12l.39.08c.2.04.37.11.49.22s.18.27.18.47c0,.15-.04.28-.12.39-.08.11-.19.2-.34.26-.14.06-.31.09-.5.09-.31,0-.56-.08-.73-.23Z"/>
        <path class="cls-3" d="M303.45,475.35h.56v.56h-.56v-.56Z"/>
      </g>
    </g>
  </g>
</svg>