<?xml version="1.0" encoding="UTF-8"?>
<svg id="Layer_2" data-name="Layer 2" xmlns="http://www.w3.org/2000/svg" xmlns:xlink="http://www.w3.org/1999/xlink" viewBox="381.28 0 149.76 489.04">
  <defs>
    <style>
      .cls-1 {
        fill: none;
      }

      .cls-2 {
        fill: #372b2a;
      }

      .cls-3 {
        fill: #fa4803;
      }

      .cls-4 {
        fill: #ffc9ef;
      }

      .cls-5 {
        clip-path: url(#clippath);
      }
    </style>
    <clipPath id="clippath">
      <rect class="cls-1" x="381.43" width="149.76" height="489.04"/>
    </clipPath>
  </defs>
  <g id="Layer_1-2" data-name="Layer 1">
    <g>
      <rect class="cls-3" x="381.43" width="149.76" height="489.04"/>
      <g>
        <path class="cls-4" d="M403.23,467.07c-.06.2,0,.26.24.26.06,0,.07.02.06.08l-.02.05s-.03.05-.08.05h-1.14s-.05-.02-.04-.06l.02-.06c.02-.06.04-.06.09-.06.28,0,.37-.05.43-.26l.56-1.92c.06-.21,0-.26-.26-.26-.05,0-.08-.01-.06-.07l.02-.05s.03-.06.08-.06h1.15s.06.02.04.06l-.02.06s-.03.06-.09.06c-.32,0-.36.06-.42.26l-.55,1.92Z"/>
        <path class="cls-4" d="M404.88,466.33c.4-.51.82-.94,1.12-.94.18,0,.23.22.12.49-.16.4-.35.8-.5,1.21-.04.09,0,.12.05.12.1,0,.3-.23.38-.34.03-.04.04-.04.08-.02l.04.03s.02.04,0,.07c-.17.27-.49.6-.73.6-.22,0-.21-.31-.11-.53.16-.37.31-.74.46-1.12.04-.12.02-.18-.05-.18-.14,0-.74.59-.94.95-.06.1-.13.24-.18.38l-.14.38c-.02.05-.03.07-.1.07h-.18c-.06,0-.07-.03-.05-.08.21-.56.39-1.05.56-1.55.03-.08.02-.14-.05-.14-.08,0-.25.17-.39.36-.02.02-.04.02-.06,0l-.04-.03s-.03-.04,0-.06c.22-.35.52-.6.74-.6.2,0,.22.24.13.5l-.16.43h.02Z"/>
        <path class="cls-4" d="M407.83,465.61c.11-.1.22-.2.37-.2.14,0,.21.09.21.2,0,.12-.08.19-.18.19-.14,0-.16-.15-.24-.15-.04,0-.08.02-.11.06.01.06.02.13.02.18,0,.34-.22.76-.69.91-.23.07-.44.12-.44.24,0,.1.13.2.34.34.09.06.24.15.4.27.18.12.36.26.36.47,0,.3-.39.52-1.04.52-.57,0-.93-.2-.93-.48,0-.35.58-.55.84-.62-.23-.14-.33-.26-.33-.39,0-.16.19-.25.46-.39-.18-.08-.27-.27-.27-.44,0-.58.44-.94.8-.94.22,0,.34.09.43.22ZM407.24,467.86l-.34-.22c-.46.15-.64.32-.64.51,0,.23.21.36.64.36.38,0,.59-.11.59-.32,0-.12-.1-.22-.26-.33ZM407.59,465.83c0-.17-.06-.3-.19-.3-.26,0-.5.52-.5.85,0,.17.07.3.18.3.29,0,.5-.57.5-.85Z"/>
        <path class="cls-4" d="M408.74,467.42c-.02.06-.04.08-.1.08h-.18c-.05,0-.07-.03-.05-.09.18-.48.36-.98.52-1.48.06-.17.03-.21-.03-.21-.07,0-.24.16-.38.35-.02.03-.04.03-.06.01l-.04-.03s-.02-.04,0-.07c.24-.36.54-.6.74-.6.18,0,.24.22.14.49l-.14.34h.02c.26-.4.51-.83.84-.83.13,0,.23.08.23.23s-.1.24-.22.24c-.14,0-.14-.13-.24-.13-.2,0-.6.67-.8,1.09-.05.1-.08.18-.14.33l-.09.27Z"/>
        <path class="cls-4" d="M410.49,466.63c-.02.08-.03.15-.03.24,0,.2.07.37.28.37.15,0,.32-.11.5-.32.03-.04.05-.03.08-.01l.03.02s.02.04,0,.08c-.16.28-.49.55-.79.55-.38,0-.5-.28-.5-.54,0-.71.7-1.62,1.27-1.62.21,0,.36.12.36.33,0,.27-.25.7-1.19.91ZM410.53,466.45c.56-.1.82-.47.82-.71,0-.1-.04-.15-.13-.15-.22,0-.54.4-.7.86Z"/>
        <path class="cls-4" d="M413.68,464.79c.04-.13-.02-.17-.23-.17-.04,0-.05-.02-.04-.05l.02-.06s.02-.04.06-.04h.56s.03,0,.04.02l.02.02s0,.02,0,.04c-.22.62-.74,2.14-.85,2.54-.02.08,0,.12.04.12.09,0,.23-.12.39-.34.02-.03.04-.04.07-.01l.04.02s.02.04,0,.07c-.13.23-.46.6-.75.6-.1,0-.14-.07-.14-.18,0-.08.03-.21.11-.49h-.02c-.21.3-.58.67-.88.67-.26,0-.37-.13-.37-.44,0-.76.74-1.71,1.31-1.71.16,0,.27.06.35.19l.26-.79ZM412.13,466.97c0,.15.06.28.19.28.26,0,.68-.54.83-.89.06-.14.12-.31.12-.52,0-.17-.09-.3-.25-.3-.36,0-.9.9-.9,1.43Z"/>
        <path class="cls-4" d="M414.72,465.84c.03-.08,0-.12-.06-.12-.09,0-.28.21-.38.35-.02.03-.04.03-.06.01l-.04-.03s-.02-.04,0-.07c.22-.33.51-.6.76-.6.12,0,.17.1.17.23,0,.07,0,.15-.07.31-.07.21-.41.9-.5,1.16-.04.1.01.12.05.12.09,0,.3-.23.39-.35.02-.03.04-.02.06,0l.04.03s.02.04,0,.06c-.22.33-.51.6-.74.6-.13,0-.18-.12-.18-.23,0-.09.02-.16.08-.33.1-.28.43-.97.49-1.15ZM414.84,464.82c0-.14.12-.27.26-.27s.26.12.26.27-.12.26-.26.26-.26-.12-.26-.26Z"/>
        <path class="cls-4" d="M415.8,466.63c-.02.08-.03.15-.03.24,0,.2.07.37.28.37.15,0,.32-.11.5-.32.03-.04.05-.03.08-.01l.03.02s.02.04,0,.08c-.16.28-.49.55-.79.55-.38,0-.5-.28-.5-.54,0-.71.7-1.62,1.27-1.62.21,0,.36.12.36.33,0,.27-.25.7-1.19.91ZM415.84,466.45c.56-.1.82-.47.82-.71,0-.1-.04-.15-.13-.15-.22,0-.54.4-.7.86Z"/>
        <path class="cls-4" d="M417.91,466.33c.4-.51.82-.94,1.12-.94.18,0,.23.22.12.49-.16.4-.35.8-.5,1.21-.04.09,0,.12.05.12.1,0,.3-.23.38-.34.03-.04.04-.04.08-.02l.04.03s.02.04,0,.07c-.17.27-.49.6-.73.6-.22,0-.21-.31-.11-.53.16-.37.31-.74.46-1.12.04-.12.02-.18-.05-.18-.14,0-.74.59-.94.95-.06.1-.13.24-.18.38l-.14.38c-.02.05-.03.07-.1.07h-.18c-.06,0-.07-.03-.05-.08.21-.56.39-1.05.56-1.55.03-.08.02-.14-.05-.14-.08,0-.25.17-.39.36-.02.02-.04.02-.06,0l-.04-.03s-.03-.04,0-.06c.22-.35.52-.6.74-.6.2,0,.22.24.13.5l-.16.43h.02Z"/>
        <path class="cls-4" d="M420.46,465.43h.44s.06.02.04.07l-.04.09s-.03.05-.08.05h-.44l-.5,1.44s-.01.05-.01.06c0,.04.02.07.06.07.08,0,.28-.19.38-.34.02-.03.04-.03.06-.01l.04.03s.02.03,0,.06c-.14.25-.5.6-.74.6-.14,0-.18-.11-.18-.24,0-.1.03-.21.05-.28l.48-1.39h-.29s-.05-.02-.03-.06l.04-.09s.03-.05.08-.05h.28l.12-.34c.02-.06.03-.08.09-.1.09-.02.2-.08.25-.08.04,0,.06.02.04.09l-.15.44Z"/>
        <path class="cls-4" d="M420.66,467.21c0-.13.09-.23.22-.23.3,0,.08.42.34.42.17,0,.28-.15.28-.34,0-.4-.34-.69-.34-1.06,0-.31.22-.61.62-.61.24,0,.46.12.46.32,0,.12-.08.2-.19.2-.13,0-.17-.09-.2-.21-.02-.1-.06-.16-.14-.16-.13,0-.22.1-.22.29,0,.41.36.69.36,1.13,0,.34-.29.59-.69.59-.28,0-.48-.14-.48-.33Z"/>
        <path class="cls-4" d="M422.24,467.27c0-.16.12-.29.28-.29s.28.12.28.29c0,.16-.12.28-.28.28s-.28-.12-.28-.28ZM422.61,465.75c0-.16.12-.29.28-.29s.28.12.28.29-.12.28-.28.28-.28-.12-.28-.28Z"/>
        <path class="cls-4" d="M425.41,464.87h.43l1.05,2.63h-.35l-.96-2.42h.08l-.95,2.42h-.35l1.06-2.63ZM424.91,466.5h1.42v.31h-1.42v-.31Z"/>
        <path class="cls-4" d="M427.53,464.87h.34v2.32h1.55v.31h-1.89v-2.63Z"/>
        <path class="cls-4" d="M430.34,467.36c-.19-.12-.33-.28-.43-.48-.1-.2-.15-.43-.15-.69s.05-.49.15-.69c.1-.2.24-.37.43-.48.19-.12.4-.18.65-.18.19,0,.36.04.51.11.15.07.28.17.37.3.09.13.14.28.15.45h-.34c-.02-.16-.09-.29-.21-.4-.12-.1-.28-.15-.47-.15h-.04c-.18,0-.34.05-.47.14-.13.09-.23.22-.3.38-.07.16-.1.34-.1.53s.03.37.1.53c.07.16.17.28.3.38.13.09.29.14.47.14h.04c.13,0,.24-.02.34-.07.1-.05.18-.11.23-.2s.09-.18.1-.28h.34c-.01.17-.06.32-.15.45-.09.13-.22.23-.37.3-.15.07-.32.11-.51.11-.25,0-.46-.06-.65-.18Z"/>
        <path class="cls-4" d="M433.26,467.37c-.19-.11-.33-.27-.44-.47-.1-.2-.16-.44-.16-.72s.05-.52.16-.72c.11-.2.25-.36.44-.47.19-.11.4-.16.63-.16s.44.05.63.16c.19.11.33.27.44.47.1.2.16.44.16.72s-.05.51-.16.72c-.11.2-.25.36-.44.47-.19.11-.4.16-.63.16s-.45-.05-.63-.16ZM434.35,467.1c.13-.08.23-.2.31-.36s.11-.34.11-.56-.04-.4-.11-.56c-.08-.16-.18-.28-.31-.36s-.28-.13-.45-.13h-.04c-.17,0-.32.04-.45.13-.13.08-.23.2-.31.36-.07.16-.11.34-.11.56s.04.4.11.56c.07.16.18.28.31.36.13.08.28.13.45.13h.04c.17,0,.32-.04.45-.13Z"/>
        <path class="cls-4" d="M435.91,464.87h.34v1.16h1.39v-1.16h.34v2.63h-.34v-1.16h-1.39v1.16h-.34v-2.63Z"/>
        <path class="cls-4" d="M439.37,467.37c-.19-.11-.33-.27-.44-.47-.1-.2-.16-.44-.16-.72s.05-.52.16-.72c.11-.2.25-.36.44-.47.19-.11.4-.16.63-.16s.44.05.63.16c.19.11.33.27.44.47.1.2.16.44.16.72s-.05.51-.16.72c-.11.2-.25.36-.44.47-.19.11-.4.16-.63.16s-.45-.05-.63-.16ZM440.47,467.1c.13-.08.23-.2.31-.36s.11-.34.11-.56-.04-.4-.11-.56c-.08-.16-.18-.28-.31-.36s-.28-.13-.45-.13h-.04c-.17,0-.32.04-.45.13-.13.08-.23.2-.31.36-.07.16-.11.34-.11.56s.04.4.11.56c.07.16.18.28.31.36.13.08.28.13.45.13h.04c.17,0,.32-.04.45-.13Z"/>
        <path class="cls-4" d="M442.03,464.87h.34v2.32h1.55v.31h-1.89v-2.63Z"/>
        <path class="cls-4" d="M445.67,464.87h.93c.24,0,.45.05.63.16s.32.26.42.45c.1.2.15.43.15.71s-.05.5-.15.7-.24.35-.42.45c-.18.11-.39.16-.63.16h-.93v-2.63ZM447.05,467.08c.14-.08.24-.19.31-.34.07-.15.11-.33.11-.55,0-.33-.08-.58-.24-.75s-.38-.26-.67-.26h-.55v2.01h.55c.19,0,.36-.04.49-.12Z"/>
        <path class="cls-4" d="M448.61,464.87h1.89v.31h-1.55v.82h1.33v.31h-1.33v.89h1.59v.31h-1.93v-2.63Z"/>
        <path class="cls-4" d="M451.31,464.87h.47l1.36,2.3-.06.02v-2.32h.34v2.63h-.46l-1.36-2.3h.06s0,2.3,0,2.3h-.34v-2.63Z"/>
        <path class="cls-4" d="M455.1,464.87h.43l1.05,2.63h-.35l-.96-2.42h.08l-.95,2.42h-.35l1.06-2.63ZM454.6,466.5h1.42v.31h-1.42v-.31Z"/>
        <path class="cls-4" d="M457.57,465.18h-.95v-.31h2.23v.31h-.95v2.32h-.34v-2.32Z"/>
        <path class="cls-4" d="M459.15,467.08h.43v.42h-.43v-.42Z"/>
        <path class="cls-4" d="M460.23,467.78h.12c.08,0,.13-.02.17-.06.04-.04.06-.09.06-.17v-.06h-.22v-.42h.42v.5c0,.09-.02.17-.05.23-.03.06-.08.11-.14.14-.06.03-.14.05-.23.05h-.14v-.21Z"/>
        <path class="cls-4" d="M462.84,464.87h1.09c.16,0,.3.03.43.09.13.06.23.15.3.27.07.12.11.26.11.42s-.04.31-.11.43-.17.21-.3.27c-.13.06-.27.09-.43.09h-.75v1.05h-.34v-2.63ZM464.28,466.02c.1-.08.15-.2.15-.36s-.05-.28-.15-.36-.24-.12-.41-.12h-.69v.96h.69c.18,0,.32-.04.41-.12Z"/>
        <path class="cls-4" d="M466.06,464.87h.43l1.05,2.63h-.35l-.96-2.42h.08l-.95,2.42h-.35l1.06-2.63ZM465.56,466.5h1.42v.31h-1.42v-.31Z"/>
        <path class="cls-4" d="M468.18,464.87h1.11c.16,0,.3.03.42.09s.22.15.29.25c.07.11.1.23.1.36,0,.16-.04.3-.12.42-.08.12-.18.2-.3.24.14,0,.24.03.3.08.06.06.09.15.09.28v.9h-.34v-.84c0-.09-.02-.15-.05-.18-.03-.03-.09-.05-.18-.05h-.98v1.07h-.34v-2.63ZM469.51,466.06c.08-.04.14-.1.19-.17s.07-.16.07-.26c0-.14-.05-.26-.14-.33-.09-.08-.22-.12-.39-.12h-.72v.94h.72c.1,0,.19-.02.28-.06Z"/>
        <path class="cls-4" d="M470.99,464.87h1.81v.31h-1.47v.89h1.28v.31h-1.28v1.12h-.34v-2.63Z"/>
        <path class="cls-4" d="M473.92,467.42c-.15-.08-.26-.19-.33-.34s-.11-.32-.11-.52v-1.69h.34v1.65c0,.23.05.4.16.52.11.12.26.18.47.18h.04c.2,0,.36-.06.46-.18.11-.12.16-.3.16-.52v-1.65h.34v1.69c0,.3-.08.54-.25.71-.17.18-.41.26-.73.26-.22,0-.4-.04-.54-.12Z"/>
        <path class="cls-4" d="M476.38,464.87h.57l.87,2.45h-.08s.86-2.45.86-2.45h.56v2.63h-.34v-2.46h.04s-.86,2.46-.86,2.46h-.44l-.88-2.45h.04s0,2.45,0,2.45h-.34v-2.63Z"/>
        <path class="cls-4" d="M481.62,467.32c-.14-.12-.26-.27-.34-.47-.08-.2-.12-.42-.12-.67s.04-.47.12-.67c.08-.2.19-.35.34-.47.14-.12.31-.19.49-.22v.31c-.13.02-.24.08-.34.17s-.17.21-.22.36c-.05.15-.08.32-.08.51,0,.29.06.53.17.71s.26.3.46.33v.31c-.19-.03-.35-.1-.49-.22Z"/>
        <path class="cls-4" d="M482.89,464.87h1.81v.31h-1.47v.89h1.28v.31h-1.28v1.12h-.34v-2.63Z"/>
        <path class="cls-4" d="M485.41,464.87h1.11c.16,0,.3.03.42.09s.22.15.29.25c.07.11.1.23.1.36,0,.16-.04.3-.12.42-.08.12-.18.2-.3.24.14,0,.24.03.3.08.06.06.09.15.09.28v.9h-.34v-.84c0-.09-.02-.15-.05-.18-.03-.03-.09-.05-.18-.05h-.98v1.07h-.34v-2.63ZM486.75,466.06c.08-.04.14-.1.19-.17s.07-.16.07-.26c0-.14-.05-.26-.14-.33-.09-.08-.22-.12-.39-.12h-.72v.94h.72c.1,0,.19-.02.28-.06Z"/>
        <path class="cls-4" d="M488.96,464.87h.43l1.05,2.63h-.35l-.96-2.42h.08l-.95,2.42h-.35l1.06-2.63ZM488.45,466.5h1.42v.31h-1.42v-.31Z"/>
        <path class="cls-4" d="M491.44,467.37c-.19-.12-.33-.28-.43-.48-.1-.21-.15-.44-.15-.7s.05-.5.15-.7c.1-.2.25-.36.44-.48.19-.12.41-.17.67-.17.21,0,.39.04.55.11.15.08.27.18.36.32.09.13.14.29.15.46h-.34c-.02-.18-.09-.33-.22-.43s-.29-.15-.49-.15h-.04c-.18,0-.34.04-.47.12-.14.08-.24.2-.32.36-.08.16-.11.35-.11.56s.04.41.11.56c.08.16.18.28.32.36.14.08.29.12.48.12h.04c.15,0,.28-.03.39-.08.12-.06.2-.13.27-.24.06-.1.09-.21.09-.34v-.09h-.77v-.3h.78c.1,0,.17.03.22.08.05.05.07.12.07.22v1.03h-.3v-.31c-.04.05-.1.11-.17.16s-.16.1-.27.13c-.11.03-.23.05-.36.05-.25,0-.47-.06-.65-.17Z"/>
        <path class="cls-4" d="M494.03,464.87h1.11c.16,0,.3.03.42.09s.22.15.29.25c.07.11.1.23.1.36,0,.16-.04.3-.12.42-.08.12-.18.2-.3.24.14,0,.24.03.3.08.06.06.09.15.09.28v.9h-.34v-.84c0-.09-.02-.15-.05-.18-.03-.03-.09-.05-.18-.05h-.98v1.07h-.34v-2.63ZM495.36,466.06c.08-.04.14-.1.19-.17s.07-.16.07-.26c0-.14-.05-.26-.14-.33-.09-.08-.22-.12-.39-.12h-.72v.94h.72c.1,0,.19-.02.28-.06Z"/>
        <path class="cls-4" d="M497.58,464.87h.43l1.05,2.63h-.35l-.96-2.42h.08l-.95,2.42h-.35l1.06-2.63ZM497.07,466.5h1.42v.31h-1.42v-.31Z"/>
        <path class="cls-4" d="M499.69,464.87h.47l1.36,2.3-.06.02v-2.32h.34v2.63h-.46l-1.36-2.3h.06s0,2.3,0,2.3h-.34v-2.63Z"/>
        <path class="cls-4" d="M503.16,467.36c-.19-.12-.33-.28-.43-.48-.1-.2-.15-.43-.15-.69s.05-.49.15-.69c.1-.2.24-.37.43-.48.19-.12.4-.18.65-.18.19,0,.36.04.51.11.15.07.28.17.37.3.09.13.14.28.15.45h-.34c-.02-.16-.09-.29-.21-.4-.12-.1-.28-.15-.47-.15h-.04c-.18,0-.34.05-.47.14-.13.09-.23.22-.3.38-.07.16-.1.34-.1.53s.03.37.1.53c.07.16.17.28.3.38.13.09.29.14.47.14h.04c.13,0,.24-.02.34-.07.1-.05.18-.11.23-.2s.09-.18.1-.28h.34c-.01.17-.06.32-.15.45-.09.13-.22.23-.37.3-.15.07-.32.11-.51.11-.25,0-.46-.06-.65-.18Z"/>
        <path class="cls-4" d="M505.64,464.87h1.89v.31h-1.55v.82h1.33v.31h-1.33v.89h1.59v.31h-1.93v-2.63Z"/>
        <path class="cls-4" d="M508.66,465.05c.14.12.26.27.34.47.08.2.12.42.12.67s-.04.47-.12.67c-.08.2-.19.35-.34.47-.14.12-.31.19-.49.22v-.31c.13-.02.24-.08.34-.17.09-.09.17-.21.22-.36.05-.15.08-.32.08-.51,0-.29-.06-.53-.17-.71s-.26-.3-.46-.33v-.31c.19.03.35.1.49.22Z"/>
        <path class="cls-4" d="M509.63,467.78h.12c.08,0,.13-.02.17-.06.04-.04.06-.09.06-.17v-.06h-.22v-.42h.42v.5c0,.09-.02.17-.05.23-.03.06-.08.11-.14.14-.06.03-.14.05-.23.05h-.14v-.21Z"/>
        <path class="cls-4" d="M404.21,469.37h.34v2.32h1.55v.31h-1.89v-2.63Z"/>
        <path class="cls-4" d="M406.78,469.37h.34v2.63h-.34v-2.63Z"/>
        <path class="cls-4" d="M408.07,469.37h.57l.87,2.45h-.08s.86-2.45.86-2.45h.56v2.63h-.34v-2.46h.04s-.86,2.46-.86,2.46h-.44l-.88-2.45h.04s0,2.45,0,2.45h-.34v-2.63Z"/>
        <path class="cls-4" d="M412.24,471.87c-.19-.11-.33-.27-.44-.47-.1-.2-.16-.44-.16-.72s.05-.52.16-.72c.11-.2.25-.36.44-.47.19-.11.4-.16.63-.16s.44.05.63.16c.19.11.33.27.44.47.1.2.16.44.16.72s-.05.51-.16.72c-.11.2-.25.36-.44.47-.19.11-.4.16-.63.16s-.45-.05-.63-.16ZM413.34,471.6c.13-.08.23-.2.31-.36s.11-.34.11-.56-.04-.4-.11-.56c-.08-.16-.18-.28-.31-.36s-.28-.13-.45-.13h-.04c-.17,0-.32.04-.45.13-.13.08-.23.2-.31.36-.07.16-.11.34-.11.56s.04.4.11.56c.07.16.18.28.31.36.13.08.28.13.45.13h.04c.17,0,.32-.04.45-.13Z"/>
        <path class="cls-4" d="M414.9,469.37h.47l1.36,2.3-.06.02v-2.32h.34v2.63h-.46l-1.36-2.3h.06s0,2.3,0,2.3h-.34v-2.63Z"/>
        <path class="cls-4" d="M417.96,469.37h1.89v.31h-1.55v.82h1.33v.31h-1.33v.89h1.59v.31h-1.93v-2.63Z"/>
        <path class="cls-4" d="M420.66,469.37h.47l1.36,2.3-.06.02v-2.32h.34v2.63h-.46l-1.36-2.3h.06s0,2.3,0,2.3h-.34v-2.63Z"/>
        <path class="cls-4" d="M423.71,469.37h1.89v.31h-1.55v.82h1.33v.31h-1.33v.89h1.59v.31h-1.93v-2.63Z"/>
        <path class="cls-4" d="M426.19,472.28h.12c.08,0,.13-.02.17-.06.04-.04.06-.09.06-.17v-.06h-.22v-.42h.42v.5c0,.09-.02.17-.05.23-.03.06-.08.11-.14.14-.06.03-.14.05-.23.05h-.14v-.21Z"/>
        <path class="cls-4" d="M428.8,469.37h.34v2.32h1.55v.31h-1.89v-2.63Z"/>
        <path class="cls-4" d="M431.37,469.37h.34v2.63h-.34v-2.63Z"/>
        <path class="cls-4" d="M432.66,469.37h.47l1.36,2.3-.06.02v-2.32h.34v2.63h-.46l-1.36-2.3h.06s0,2.3,0,2.3h-.34v-2.63Z"/>
        <path class="cls-4" d="M436.45,469.37h.43l1.05,2.63h-.35l-.96-2.42h.08l-.95,2.42h-.35l1.06-2.63ZM435.95,471h1.42v.31h-1.42v-.31Z"/>
        <path class="cls-4" d="M438.57,469.37h.34v2.32h1.55v.31h-1.89v-2.63Z"/>
        <path class="cls-4" d="M441.4,471.87c-.19-.11-.33-.27-.44-.47-.1-.2-.16-.44-.16-.72s.05-.52.16-.72c.11-.2.25-.36.44-.47.19-.11.4-.16.63-.16s.44.05.63.16c.19.11.33.27.44.47.1.2.16.44.16.72s-.05.51-.16.72c-.11.2-.25.36-.44.47-.19.11-.4.16-.63.16s-.45-.05-.63-.16ZM442.5,471.6c.13-.08.23-.2.31-.36s.11-.34.11-.56-.04-.4-.11-.56c-.08-.16-.18-.28-.31-.36s-.28-.13-.45-.13h-.04c-.17,0-.32.04-.45.13-.13.08-.23.2-.31.36-.07.16-.11.34-.11.56s.04.4.11.56c.07.16.18.28.31.36.13.08.28.13.45.13h.04c.17,0,.32-.04.45-.13Z"/>
        <path class="cls-4" d="M444.5,471.87c-.19-.11-.33-.27-.44-.47-.1-.2-.16-.44-.16-.72s.05-.52.16-.72c.11-.2.25-.36.44-.47.19-.11.4-.16.63-.16s.44.05.63.16c.19.11.33.27.44.47.1.2.16.44.16.72s-.05.51-.16.72c-.11.2-.25.36-.44.47-.19.11-.4.16-.63.16s-.45-.05-.63-.16ZM445.6,471.6c.13-.08.23-.2.31-.36s.11-.34.11-.56-.04-.4-.11-.56c-.08-.16-.18-.28-.31-.36s-.28-.13-.45-.13h-.04c-.17,0-.32.04-.45.13-.13.08-.23.2-.31.36-.07.16-.11.34-.11.56s.04.4.11.56c.07.16.18.28.31.36.13.08.28.13.45.13h.04c.17,0,.32-.04.45-.13Z"/>
        <path class="cls-4" d="M447.16,469.37h.34v2.32h1.55v.31h-1.89v-2.63Z"/>
        <path class="cls-4" d="M449.51,472.28h.12c.08,0,.13-.02.17-.06.04-.04.06-.09.06-.17v-.06h-.22v-.42h.42v.5c0,.09-.02.17-.05.23-.03.06-.08.11-.14.14-.06.03-.14.05-.23.05h-.14v-.21Z"/>
        <path class="cls-4" d="M452.54,471.87c-.19-.12-.33-.28-.43-.48-.1-.21-.15-.44-.15-.7s.05-.5.15-.7c.1-.2.25-.36.44-.48.19-.12.41-.17.67-.17.21,0,.39.04.55.11.15.08.27.18.36.32.09.13.14.29.15.46h-.34c-.02-.18-.09-.33-.22-.43s-.29-.15-.49-.15h-.04c-.18,0-.34.04-.47.12-.14.08-.24.2-.32.36-.08.16-.11.35-.11.56s.04.41.11.56c.08.16.18.28.32.36.14.08.29.12.48.12h.04c.15,0,.28-.03.39-.08.12-.06.2-.13.27-.24.06-.1.09-.21.09-.34v-.09h-.77v-.3h.78c.1,0,.17.03.22.08.05.05.07.12.07.22v1.03h-.3v-.31c-.04.05-.1.11-.17.16s-.16.1-.27.13c-.11.03-.23.05-.36.05-.25,0-.47-.06-.65-.17Z"/>
        <path class="cls-4" d="M455.14,469.37h1.89v.31h-1.55v.82h1.33v.31h-1.33v.89h1.59v.31h-1.93v-2.63Z"/>
        <path class="cls-4" d="M457.84,469.37h1.11c.16,0,.3.03.42.09s.22.15.29.25c.07.11.1.23.1.36,0,.16-.04.3-.12.42-.08.12-.18.2-.3.24.14,0,.24.03.3.08.06.06.09.15.09.28v.9h-.34v-.84c0-.09-.02-.15-.05-.18-.03-.03-.09-.05-.18-.05h-.98v1.07h-.34v-2.63ZM459.17,470.56c.08-.04.14-.1.19-.17s.07-.16.07-.26c0-.14-.05-.26-.14-.33-.09-.08-.22-.12-.39-.12h-.72v.94h.72c.1,0,.19-.02.28-.06Z"/>
        <path class="cls-4" d="M461.38,469.37h.43l1.05,2.63h-.35l-.96-2.42h.08l-.95,2.42h-.35l1.06-2.63ZM460.88,471h1.42v.31h-1.42v-.31Z"/>
        <path class="cls-4" d="M463.5,469.37h.47l1.36,2.3-.06.02v-2.32h.34v2.63h-.46l-1.36-2.3h.06s0,2.3,0,2.3h-.34v-2.63Z"/>
        <path class="cls-4" d="M466.55,469.37h.34v2.63h-.34v-2.63Z"/>
        <path class="cls-4" d="M468.29,471.87c-.19-.11-.33-.27-.44-.47-.1-.2-.16-.44-.16-.72s.05-.52.16-.72c.11-.2.25-.36.44-.47.19-.11.4-.16.63-.16s.44.05.63.16c.19.11.33.27.44.47.1.2.16.44.16.72s-.05.51-.16.72c-.11.2-.25.36-.44.47-.19.11-.4.16-.63.16s-.45-.05-.63-.16ZM469.39,471.6c.13-.08.23-.2.31-.36s.11-.34.11-.56-.04-.4-.11-.56c-.08-.16-.18-.28-.31-.36s-.28-.13-.45-.13h-.04c-.17,0-.32.04-.45.13-.13.08-.23.2-.31.36-.07.16-.11.34-.11.56s.04.4.11.56c.07.16.18.28.31.36.13.08.28.13.45.13h.04c.17,0,.32-.04.45-.13Z"/>
        <path class="cls-4" d="M470.95,469.37h.34v2.32h1.55v.31h-1.89v-2.63Z"/>
        <path class="cls-4" d="M473.29,472.28h.12c.08,0,.13-.02.17-.06.04-.04.06-.09.06-.17v-.06h-.22v-.42h.42v.5c0,.09-.02.17-.05.23-.03.06-.08.11-.14.14-.06.03-.14.05-.23.05h-.14v-.21Z"/>
        <path class="cls-4" d="M476.32,471.86c-.19-.12-.33-.28-.43-.48-.1-.2-.15-.43-.15-.69s.05-.49.15-.69c.1-.2.24-.37.43-.48.19-.12.4-.18.65-.18.19,0,.36.04.51.11.15.07.28.17.37.3.09.13.14.28.15.45h-.34c-.02-.16-.09-.29-.21-.4-.12-.1-.28-.15-.47-.15h-.04c-.18,0-.34.05-.47.14-.13.09-.23.22-.3.38-.07.16-.1.34-.1.53s.03.37.1.53c.07.16.17.28.3.38.13.09.29.14.47.14h.04c.13,0,.24-.02.34-.07.1-.05.18-.11.23-.2s.09-.18.1-.28h.34c-.01.17-.06.32-.15.45-.09.13-.22.23-.37.3-.15.07-.32.11-.51.11-.25,0-.46-.06-.65-.18Z"/>
        <path class="cls-4" d="M478.79,469.37h.34v2.63h-.34v-2.63Z"/>
        <path class="cls-4" d="M480.75,469.68h-.95v-.31h2.23v.31h-.95v2.32h-.34v-2.32Z"/>
        <path class="cls-4" d="M482.7,469.37h1.11c.16,0,.3.03.42.09s.22.15.29.25c.07.11.1.23.1.36,0,.16-.04.3-.12.42-.08.12-.18.2-.3.24.14,0,.24.03.3.08.06.06.09.15.09.28v.9h-.34v-.84c0-.09-.02-.15-.05-.18-.03-.03-.09-.05-.18-.05h-.98v1.07h-.34v-2.63ZM484.04,470.56c.08-.04.14-.1.19-.17s.07-.16.07-.26c0-.14-.05-.26-.14-.33-.09-.08-.22-.12-.39-.12h-.72v.94h.72c.1,0,.19-.02.28-.06Z"/>
        <path class="cls-4" d="M486.25,469.37h.43l1.05,2.63h-.35l-.96-2.42h.08l-.95,2.42h-.35l1.06-2.63ZM485.75,471h1.42v.31h-1.42v-.31Z"/>
        <path class="cls-4" d="M488.36,469.37h.34v2.32h1.55v.31h-1.89v-2.63Z"/>
        <path class="cls-4" d="M490.71,472.28h.12c.08,0,.13-.02.17-.06.04-.04.06-.09.06-.17v-.06h-.22v-.42h.42v.5c0,.09-.02.17-.05.23-.03.06-.08.11-.14.14-.06.03-.14.05-.23.05h-.14v-.21Z"/>
        <path class="cls-4" d="M493.32,469.37h1.13c.14,0,.26.03.38.08.11.06.2.14.27.24.06.1.1.23.1.37s-.04.27-.12.38-.18.18-.31.23c.14.03.26.09.35.2s.14.25.14.42c0,.14-.03.27-.1.38-.07.11-.16.19-.28.25-.12.06-.25.09-.38.09h-1.16v-2.63ZM494.73,470.4c.08-.07.12-.18.12-.31s-.04-.23-.12-.31c-.08-.07-.19-.11-.33-.11h-.75v.83h.75c.14,0,.24-.04.33-.11ZM494.78,471.58c.09-.08.14-.18.14-.32s-.05-.24-.14-.32c-.09-.08-.21-.12-.36-.12h-.76v.87h.76c.15,0,.27-.04.36-.12Z"/>
        <path class="cls-4" d="M496.06,469.37h1.89v.31h-1.55v.82h1.33v.31h-1.33v.89h1.59v.31h-1.93v-2.63Z"/>
        <path class="cls-4" d="M498.77,469.37h.47l1.36,2.3-.06.02v-2.32h.34v2.63h-.46l-1.36-2.3h.06s0,2.3,0,2.3h-.34v-2.63Z"/>
        <path class="cls-4" d="M501.62,471.69l1.56-2.01h-1.52v-.31h1.91v.31l-1.57,2.01h1.6v.31h-1.99v-.32Z"/>
        <path class="cls-4" d="M504.99,470.91l-.95-1.54h.39l.73,1.21.73-1.21h.38l-.95,1.54v1.09h-.34v-1.09Z"/>
        <path class="cls-4" d="M506.91,469.37h.34v2.32h1.55v.31h-1.89v-2.63Z"/>
        <path class="cls-4" d="M430.16,473.87h1.13c.14,0,.26.03.38.08.11.06.2.14.27.24.06.1.1.23.1.37s-.04.27-.12.38-.18.18-.31.23c.14.03.26.09.35.2s.14.25.14.42c0,.14-.03.27-.1.38-.07.11-.16.19-.28.25-.12.06-.25.09-.38.09h-1.16v-2.63ZM431.57,474.9c.08-.07.12-.18.12-.31s-.04-.23-.12-.31c-.08-.07-.19-.11-.33-.11h-.75v.83h.75c.14,0,.24-.04.33-.11ZM431.62,476.08c.09-.08.14-.18.14-.32s-.05-.24-.14-.32c-.09-.08-.21-.12-.36-.12h-.76v.87h.76c.15,0,.27-.04.36-.12Z"/>
        <path class="cls-4" d="M432.9,473.87h1.89v.31h-1.55v.82h1.33v.31h-1.33v.89h1.59v.31h-1.93v-2.63Z"/>
        <path class="cls-4" d="M435.6,473.87h.47l1.36,2.3-.06.02v-2.32h.34v2.63h-.46l-1.36-2.3h.06s0,2.3,0,2.3h-.34v-2.63Z"/>
        <path class="cls-4" d="M438.46,476.19l1.56-2.01h-1.52v-.31h1.91v.31l-1.57,2.01h1.6v.31h-1.99v-.32Z"/>
        <path class="cls-4" d="M441.6,476.37c-.19-.11-.33-.27-.44-.47-.1-.2-.16-.44-.16-.72s.05-.52.16-.72c.11-.2.25-.36.44-.47.19-.11.4-.16.63-.16s.44.05.63.16c.19.11.33.27.44.47.1.2.16.44.16.72s-.05.51-.16.72c-.11.2-.25.36-.44.47-.19.11-.4.16-.63.16s-.45-.05-.63-.16ZM442.69,476.1c.13-.08.23-.2.31-.36s.11-.34.11-.56-.04-.4-.11-.56c-.08-.16-.18-.28-.31-.36s-.28-.13-.45-.13h-.04c-.17,0-.32.04-.45.13-.13.08-.23.2-.31.36-.07.16-.11.34-.11.56s.04.4.11.56c.07.16.18.28.31.36.13.08.28.13.45.13h.04c.17,0,.32-.04.45-.13Z"/>
        <path class="cls-4" d="M444.93,473.87h.43l1.05,2.63h-.35l-.96-2.42h.08l-.95,2.42h-.35l1.06-2.63ZM444.42,475.5h1.42v.31h-1.42v-.31Z"/>
        <path class="cls-4" d="M447.4,474.18h-.95v-.31h2.23v.31h-.95v2.32h-.34v-2.32Z"/>
        <path class="cls-4" d="M449.35,473.87h1.89v.31h-1.55v.82h1.33v.31h-1.33v.89h1.59v.31h-1.93v-2.63Z"/>
        <path class="cls-4" d="M451.83,476.78h.12c.08,0,.13-.02.17-.06.04-.04.06-.09.06-.17v-.06h-.22v-.42h.42v.5c0,.09-.02.17-.05.23-.03.06-.08.11-.14.14-.06.03-.14.05-.23.05h-.14v-.21Z"/>
        <path class="cls-4" d="M454.86,476.36c-.19-.12-.33-.28-.43-.48-.1-.2-.15-.43-.15-.69s.05-.49.15-.69c.1-.2.24-.37.43-.48.19-.12.4-.18.65-.18.19,0,.36.04.51.11.15.07.28.17.37.3.09.13.14.28.15.45h-.34c-.02-.16-.09-.29-.21-.4-.12-.1-.28-.15-.47-.15h-.04c-.18,0-.34.05-.47.14-.13.09-.23.22-.3.38-.07.16-.1.34-.1.53s.03.37.1.53c.07.16.17.28.3.38.13.09.29.14.47.14h.04c.13,0,.24-.02.34-.07.1-.05.18-.11.23-.2s.09-.18.1-.28h.34c-.01.17-.06.32-.15.45-.09.13-.22.23-.37.3-.15.07-.32.11-.51.11-.25,0-.46-.06-.65-.18Z"/>
        <path class="cls-4" d="M457.34,473.87h.34v2.63h-.34v-2.63Z"/>
        <path class="cls-4" d="M459.29,474.18h-.95v-.31h2.23v.31h-.95v2.32h-.34v-2.32Z"/>
        <path class="cls-4" d="M461.25,473.87h1.11c.16,0,.3.03.42.09s.22.15.29.25c.07.11.1.23.1.36,0,.16-.04.3-.12.42-.08.12-.18.2-.3.24.14,0,.24.03.3.08.06.06.09.15.09.28v.9h-.34v-.84c0-.09-.02-.15-.05-.18-.03-.03-.09-.05-.18-.05h-.98v1.07h-.34v-2.63ZM462.58,475.06c.08-.04.14-.1.19-.17s.07-.16.07-.26c0-.14-.05-.26-.14-.33-.09-.08-.22-.12-.39-.12h-.72v.94h.72c.1,0,.19-.02.28-.06Z"/>
        <path class="cls-4" d="M464.5,476.37c-.19-.11-.33-.27-.44-.47-.1-.2-.16-.44-.16-.72s.05-.52.16-.72c.11-.2.25-.36.44-.47.19-.11.4-.16.63-.16s.44.05.63.16c.19.11.33.27.44.47.1.2.16.44.16.72s-.05.51-.16.72c-.11.2-.25.36-.44.47-.19.11-.4.16-.63.16s-.45-.05-.63-.16ZM465.59,476.1c.13-.08.23-.2.31-.36s.11-.34.11-.56-.04-.4-.11-.56c-.08-.16-.18-.28-.31-.36s-.28-.13-.45-.13h-.04c-.17,0-.32.04-.45.13-.13.08-.23.2-.31.36-.07.16-.11.34-.11.56s.04.4.11.56c.07.16.18.28.31.36.13.08.28.13.45.13h.04c.17,0,.32-.04.45-.13Z"/>
        <path class="cls-4" d="M467.15,473.87h.47l1.36,2.3-.06.02v-2.32h.34v2.63h-.46l-1.36-2.3h.06s0,2.3,0,2.3h-.34v-2.63Z"/>
        <path class="cls-4" d="M470.21,473.87h1.89v.31h-1.55v.82h1.33v.31h-1.33v.89h1.59v.31h-1.93v-2.63Z"/>
        <path class="cls-4" d="M472.91,473.87h.34v2.32h1.55v.31h-1.89v-2.63Z"/>
        <path class="cls-4" d="M475.47,473.87h.34v2.32h1.55v.31h-1.89v-2.63Z"/>
        <path class="cls-4" d="M478.31,476.37c-.19-.11-.33-.27-.44-.47-.1-.2-.16-.44-.16-.72s.05-.52.16-.72c.11-.2.25-.36.44-.47.19-.11.4-.16.63-.16s.44.05.63.16c.19.11.33.27.44.47.1.2.16.44.16.72s-.05.51-.16.72c-.11.2-.25.36-.44.47-.19.11-.4.16-.63.16s-.45-.05-.63-.16ZM479.41,476.1c.13-.08.23-.2.31-.36s.11-.34.11-.56-.04-.4-.11-.56c-.08-.16-.18-.28-.31-.36s-.28-.13-.45-.13h-.04c-.17,0-.32.04-.45.13-.13.08-.23.2-.31.36-.07.16-.11.34-.11.56s.04.4.11.56c.07.16.18.28.31.36.13.08.28.13.45.13h.04c.17,0,.32-.04.45-.13Z"/>
        <path class="cls-4" d="M480.97,473.87h.34v2.32h1.55v.31h-1.89v-2.63Z"/>
      </g>
      <g>
        <path class="cls-4" d="M411.3,19.28h-.95v-.31h2.23v.31h-.95v2.32h-.34v-2.32Z"/>
        <path class="cls-4" d="M413.66,21.52c-.15-.08-.26-.19-.33-.34s-.11-.32-.11-.52v-1.69h.34v1.65c0,.23.05.4.16.52.11.12.26.18.47.18h.04c.2,0,.36-.06.46-.18.11-.12.16-.3.16-.52v-1.65h.34v1.69c0,.3-.08.54-.25.71-.17.18-.41.26-.73.26-.22,0-.4-.04-.54-.12Z"/>
        <path class="cls-4" d="M416.12,18.98h1.11c.16,0,.3.03.42.09s.22.15.29.25c.07.11.1.23.1.36,0,.16-.04.3-.12.42-.08.12-.18.2-.3.24.14,0,.24.03.3.08.06.06.09.15.09.28v.9h-.34v-.84c0-.09-.02-.15-.05-.18-.03-.03-.09-.05-.18-.05h-.98v1.07h-.34v-2.63ZM417.46,20.17c.08-.04.14-.1.19-.17s.07-.16.07-.26c0-.14-.05-.26-.14-.33-.09-.08-.22-.12-.39-.12h-.72v.94h.72c.1,0,.19-.02.28-.06Z"/>
        <path class="cls-4" d="M418.93,18.98h.57l.87,2.45h-.08s.86-2.45.86-2.45h.56v2.63h-.34v-2.46h.04s-.86,2.46-.86,2.46h-.44l-.88-2.45h.04s0,2.45,0,2.45h-.34v-2.63Z"/>
        <path class="cls-4" d="M422.66,18.98h1.89v.31h-1.55v.82h1.33v.31h-1.33v.89h1.59v.31h-1.93v-2.63Z"/>
        <path class="cls-4" d="M425.37,18.98h1.11c.16,0,.3.03.42.09s.22.15.29.25c.07.11.1.23.1.36,0,.16-.04.3-.12.42-.08.12-.18.2-.3.24.14,0,.24.03.3.08.06.06.09.15.09.28v.9h-.34v-.84c0-.09-.02-.15-.05-.18-.03-.03-.09-.05-.18-.05h-.98v1.07h-.34v-2.63ZM426.7,20.17c.08-.04.14-.1.19-.17s.07-.16.07-.26c0-.14-.05-.26-.14-.33-.09-.08-.22-.12-.39-.12h-.72v.94h.72c.1,0,.19-.02.28-.06Z"/>
        <path class="cls-4" d="M428.18,18.98h.34v2.63h-.34v-2.63Z"/>
        <path class="cls-4" d="M429.89,21.47c-.19-.12-.33-.28-.43-.48-.1-.2-.15-.43-.15-.69s.05-.49.15-.69c.1-.2.24-.37.43-.48.19-.12.4-.18.65-.18.19,0,.36.04.51.11.15.07.28.17.37.3.09.13.14.28.15.45h-.34c-.02-.16-.09-.29-.21-.4-.12-.1-.28-.15-.47-.15h-.04c-.18,0-.34.05-.47.14-.13.09-.23.22-.3.38-.07.16-.1.34-.1.53s.03.37.1.53c.07.16.17.28.3.38.13.09.29.14.47.14h.04c.13,0,.24-.02.34-.07.1-.05.18-.11.23-.2s.09-.18.1-.28h.34c-.01.17-.06.32-.15.45-.09.13-.22.23-.37.3-.15.07-.32.11-.51.11-.25,0-.46-.06-.65-.18Z"/>
        <path class="cls-4" d="M433.55,18.98h.34v2.32h1.55v.31h-1.89v-2.63Z"/>
        <path class="cls-4" d="M436.11,18.98h1.89v.31h-1.55v.82h1.33v.31h-1.33v.89h1.59v.31h-1.93v-2.63Z"/>
        <path class="cls-4" d="M439.55,18.98h.43l1.05,2.63h-.35l-.96-2.42h.08l-.95,2.42h-.35l1.06-2.63ZM439.05,20.61h1.42v.31h-1.42v-.31Z"/>
        <path class="cls-4" d="M441.66,18.98h1.81v.31h-1.47v.89h1.28v.31h-1.28v1.12h-.34v-2.63Z"/>
        <path class="cls-4" d="M451.21,18.98h.57l.87,2.45h-.08s.86-2.45.86-2.45h.56v2.63h-.34v-2.46h.04s-.86,2.46-.86,2.46h-.44l-.88-2.45h.04s0,2.45,0,2.45h-.34v-2.63Z"/>
        <path class="cls-4" d="M455.68,18.98h.43l1.05,2.63h-.35l-.96-2.42h.08l-.95,2.42h-.35l1.06-2.63ZM455.18,20.61h1.42v.31h-1.42v-.31Z"/>
        <path class="cls-4" d="M458.16,21.47c-.19-.12-.33-.28-.43-.48-.1-.21-.15-.44-.15-.7s.05-.5.15-.7c.1-.2.25-.36.44-.48.19-.12.41-.17.67-.17.21,0,.39.04.55.11.15.08.27.18.36.32.09.13.14.29.15.46h-.34c-.02-.18-.09-.33-.22-.43s-.29-.15-.49-.15h-.04c-.18,0-.34.04-.47.12-.14.08-.24.2-.32.36-.08.16-.11.35-.11.56s.04.41.11.56c.08.16.18.28.32.36.14.08.29.12.48.12h.04c.15,0,.28-.03.39-.08.12-.06.2-.13.27-.24.06-.1.09-.21.09-.34v-.09h-.77v-.3h.78c.1,0,.17.03.22.08.05.05.07.12.07.22v1.03h-.3v-.31c-.04.05-.1.11-.17.16s-.16.1-.27.13c-.11.03-.23.05-.36.05-.25,0-.47-.06-.65-.17Z"/>
        <path class="cls-4" d="M460.75,18.98h.47l1.36,2.3-.06.02v-2.32h.34v2.63h-.46l-1.36-2.3h.06s0,2.3,0,2.3h-.34v-2.63Z"/>
        <path class="cls-4" d="M464.25,21.48c-.19-.11-.33-.27-.44-.47-.1-.2-.16-.44-.16-.72s.05-.52.16-.72c.11-.2.25-.36.44-.47.19-.11.4-.16.63-.16s.44.05.63.16c.19.11.33.27.44.47.1.2.16.44.16.72s-.05.51-.16.72c-.11.2-.25.36-.44.47-.19.11-.4.16-.63.16s-.45-.05-.63-.16ZM465.34,21.21c.13-.08.23-.2.31-.36s.11-.34.11-.56-.04-.4-.11-.56c-.08-.16-.18-.28-.31-.36s-.28-.13-.45-.13h-.04c-.17,0-.32.04-.45.13-.13.08-.23.2-.31.36-.07.16-.11.34-.11.56s.04.4.11.56c.07.16.18.28.31.36.13.08.28.13.45.13h.04c.17,0,.32-.04.45-.13Z"/>
        <path class="cls-4" d="M466.9,18.98h.34v2.32h1.55v.31h-1.89v-2.63Z"/>
        <path class="cls-4" d="M469.47,18.98h.34v2.63h-.34v-2.63Z"/>
        <path class="cls-4" d="M471.5,18.98h.43l1.05,2.63h-.35l-.96-2.42h.08l-.95,2.42h-.35l1.06-2.63ZM470.99,20.61h1.42v.31h-1.42v-.31Z"/>
        <path class="cls-4" d="M481.07,21.47c-.19-.12-.33-.28-.43-.48-.1-.2-.15-.43-.15-.69s.05-.49.15-.69c.1-.2.24-.37.43-.48.19-.12.4-.18.65-.18.19,0,.36.04.51.11.15.07.28.17.37.3.09.13.14.28.15.45h-.34c-.02-.16-.09-.29-.21-.4-.12-.1-.28-.15-.47-.15h-.04c-.18,0-.34.05-.47.14-.13.09-.23.22-.3.38-.07.16-.1.34-.1.53s.03.37.1.53c.07.16.17.28.3.38.13.09.29.14.47.14h.04c.13,0,.24-.02.34-.07.1-.05.18-.11.23-.2s.09-.18.1-.28h.34c-.01.17-.06.32-.15.45-.09.13-.22.23-.37.3-.15.07-.32.11-.51.11-.25,0-.46-.06-.65-.18Z"/>
        <path class="cls-4" d="M484.25,18.98h.43l1.05,2.63h-.35l-.96-2.42h.08l-.95,2.42h-.35l1.06-2.63ZM483.75,20.61h1.42v.31h-1.42v-.31Z"/>
        <path class="cls-4" d="M486.62,21.54c-.15-.07-.27-.17-.35-.3-.08-.13-.13-.29-.13-.48h.34c0,.18.06.32.19.42s.3.15.51.15h.04c.18,0,.32-.04.42-.12.1-.08.15-.18.15-.3,0-.11-.04-.2-.11-.27-.07-.07-.18-.12-.33-.15l-.42-.09c-.21-.04-.38-.13-.49-.24-.11-.12-.17-.28-.17-.48,0-.14.04-.26.12-.38.08-.11.19-.21.33-.27.14-.07.3-.1.49-.1s.36.03.5.1.25.16.33.29c.08.12.12.27.13.43h-.34c-.01-.16-.07-.28-.18-.37-.11-.09-.25-.14-.42-.14h-.04c-.11,0-.21.02-.3.06-.09.04-.15.09-.2.16-.05.07-.07.14-.07.22,0,.1.03.19.1.25.07.07.16.11.29.14l.42.08c.23.04.4.13.52.25s.18.29.18.49c0,.15-.04.29-.12.4-.08.11-.19.2-.33.26-.14.06-.31.09-.5.09-.21,0-.39-.03-.54-.1Z"/>
        <path class="cls-4" d="M488.94,18.98h.34v1.16h1.39v-1.16h.34v2.63h-.34v-1.16h-1.39v1.16h-.34v-2.63Z"/>
        <path class="cls-4" d="M491.95,18.98h.57l.87,2.45h-.08s.86-2.45.86-2.45h.56v2.63h-.34v-2.46h.04s-.86,2.46-.86,2.46h-.44l-.88-2.45h.04s0,2.45,0,2.45h-.34v-2.63Z"/>
        <path class="cls-4" d="M495.68,18.98h1.89v.31h-1.55v.82h1.33v.31h-1.33v.89h1.59v.31h-1.93v-2.63Z"/>
        <path class="cls-4" d="M498.39,18.98h1.11c.16,0,.3.03.42.09s.22.15.29.25c.07.11.1.23.1.36,0,.16-.04.3-.12.42-.08.12-.18.2-.3.24.14,0,.24.03.3.08.06.06.09.15.09.28v.9h-.34v-.84c0-.09-.02-.15-.05-.18-.03-.03-.09-.05-.18-.05h-.98v1.07h-.34v-2.63ZM499.72,20.17c.08-.04.14-.1.19-.17s.07-.16.07-.26c0-.14-.05-.26-.14-.33-.09-.08-.22-.12-.39-.12h-.72v.94h.72c.1,0,.19-.02.28-.06Z"/>
        <path class="cls-4" d="M501.93,18.98h.43l1.05,2.63h-.35l-.96-2.42h.08l-.95,2.42h-.35l1.06-2.63ZM501.43,20.61h1.42v.31h-1.42v-.31Z"/>
        <path class="cls-4" d="M504.05,18.98h.47l1.36,2.3-.06.02v-2.32h.34v2.63h-.46l-1.36-2.3h.06s0,2.3,0,2.3h-.34v-2.63Z"/>
      </g>
      <g>
        <path class="cls-4" d="M400.53,37.73h-1.99v-.65h4.7v.65h-1.99v4.89h-.71v-4.89Z"/>
        <path class="cls-4" d="M403.82,42.51c-.2-.12-.36-.29-.46-.5-.1-.21-.15-.46-.15-.74v-2.61h.67v2.45c0,.34.07.59.21.76s.35.25.64.25h.07c.18,0,.35-.05.51-.16s.29-.26.39-.46.15-.43.15-.7v-2.14h.67v3.95h-.67v-.75c-.09.25-.25.45-.47.6-.22.15-.49.23-.81.23-.29,0-.54-.06-.74-.18Z"/>
        <path class="cls-4" d="M407.74,38.66h.63v.88c.08-.29.23-.52.44-.68.21-.16.46-.24.73-.24h.36v.64h-.32c-.36,0-.65.12-.86.37s-.31.58-.31,1.01v1.98h-.67v-3.95Z"/>
        <path class="cls-4" d="M410.66,38.66h.67v.58c.13-.19.29-.35.5-.47.21-.12.45-.18.72-.18.3,0,.55.06.77.19.22.13.39.32.51.57.14-.26.33-.46.57-.58.23-.12.49-.19.77-.19s.54.06.75.17c.21.11.37.28.48.49.11.21.17.46.17.75v2.62h-.67v-2.47c0-.33-.07-.58-.21-.74-.14-.17-.35-.25-.63-.25h-.06c-.19,0-.37.06-.53.17-.16.11-.29.27-.38.47-.1.2-.14.43-.14.69v2.13h-.67v-2.47c0-.33-.07-.58-.2-.74-.13-.17-.34-.25-.63-.25h-.06c-.19,0-.37.06-.53.17-.16.11-.29.27-.38.47s-.14.43-.14.69v2.13h-.67v-3.95Z"/>
        <path class="cls-4" d="M418.42,42.46c-.28-.16-.5-.39-.66-.7-.16-.31-.25-.69-.25-1.13s.08-.81.25-1.12.39-.54.67-.7c.28-.16.57-.23.89-.23.33,0,.62.07.87.22s.44.35.58.62c.13.27.2.57.2.91v.4h-2.79c.01.31.07.56.18.77.11.21.25.36.43.47.17.1.35.15.54.15h.06c.23,0,.42-.06.59-.17.16-.11.27-.28.32-.5h.67c-.07.39-.26.69-.56.91s-.65.32-1.07.32c-.34,0-.64-.08-.92-.23ZM420.02,39.42c-.17-.18-.4-.27-.66-.27h-.06c-.25,0-.48.08-.68.25s-.33.43-.4.79h2.09c-.02-.33-.11-.59-.28-.77Z"/>
        <path class="cls-4" d="M421.98,38.66h.63v.88c.08-.29.23-.52.44-.68s.46-.24.73-.24h.36v.64h-.32c-.36,0-.65.12-.86.37-.21.25-.31.58-.31,1.01v1.98h-.67v-3.95Z"/>
        <path class="cls-4" d="M424.86,37.14h.75v.81h-.75v-.81ZM424.9,38.66h.67v3.95h-.67v-3.95Z"/>
        <path class="cls-4" d="M427.41,42.43c-.28-.18-.49-.42-.64-.74-.15-.31-.22-.66-.22-1.05s.07-.74.22-1.05c.15-.31.36-.56.64-.74.28-.18.61-.27,1-.27.3,0,.56.06.79.17.23.11.42.27.56.48.14.21.22.45.25.72h-.67c-.04-.24-.14-.43-.3-.58s-.36-.22-.59-.22h-.07c-.25,0-.47.07-.64.2-.18.13-.31.31-.39.54-.08.23-.13.47-.13.74,0,.42.1.77.3,1.06.2.28.49.43.86.43h.07c.23,0,.43-.08.59-.23s.26-.34.3-.57h.67c-.05.42-.21.75-.5,1-.29.25-.65.37-1.1.37-.39,0-.72-.09-1-.27Z"/>
        <path class="cls-4" d="M433.02,37.08h.71v4.89h3.27v.65h-3.98v-5.54Z"/>
        <path class="cls-4" d="M438.36,42.46c-.28-.16-.5-.39-.66-.7-.16-.31-.25-.69-.25-1.13s.08-.81.25-1.12.39-.54.67-.7c.28-.16.57-.23.89-.23.33,0,.62.07.87.22s.44.35.58.62c.13.27.2.57.2.91v.4h-2.79c.01.31.07.56.18.77.11.21.25.36.43.47.17.1.35.15.54.15h.06c.23,0,.42-.06.59-.17.16-.11.27-.28.32-.5h.67c-.07.39-.26.69-.56.91s-.65.32-1.07.32c-.34,0-.64-.08-.92-.23ZM439.96,39.42c-.17-.18-.4-.27-.66-.27h-.06c-.25,0-.48.08-.68.25-.2.17-.33.43-.4.79h2.09c-.02-.33-.11-.59-.28-.77Z"/>
        <path class="cls-4" d="M442.31,42.54c-.2-.1-.35-.24-.46-.42-.11-.18-.17-.38-.17-.6,0-.28.07-.51.21-.68s.31-.3.53-.38c.21-.08.44-.13.68-.15l1.14-.1v-.13c0-.2-.04-.37-.11-.51-.07-.14-.17-.24-.3-.32-.13-.07-.29-.11-.47-.11h-.06c-.23,0-.43.06-.59.17-.16.11-.26.27-.28.47h-.67c.02-.36.18-.65.47-.87.29-.22.66-.34,1.1-.34.33,0,.62.07.86.2.24.13.42.32.54.55.12.23.18.48.18.75v1.66c0,.4.01.69.04.87h-.63c-.03-.14-.04-.35-.04-.63-.08.2-.25.36-.48.5s-.51.21-.82.21c-.24,0-.46-.05-.66-.15ZM443.62,42c.17-.08.32-.2.43-.34.12-.14.17-.3.17-.46v-.44l-1.04.08c-.25.02-.46.09-.61.21-.16.12-.23.27-.23.46,0,.18.07.33.2.45s.3.18.49.18h.07c.17,0,.34-.04.51-.13Z"/>
        <path class="cls-4" d="M446.47,39.24h-.89v-.58h.89v-.79c0-.27.07-.47.2-.6.13-.13.34-.19.6-.19h1.07v.58h-.89c-.12,0-.2.02-.25.07s-.07.13-.07.25v.68h1v.58h-1v3.38h-.67v-3.38Z"/>
        <path class="cls-4" d="M451.11,42.54c-.19-.1-.35-.24-.46-.42-.11-.18-.17-.38-.17-.6,0-.28.07-.51.21-.68s.31-.3.53-.38c.21-.08.44-.13.68-.15l1.14-.1v-.13c0-.2-.04-.37-.11-.51-.07-.14-.17-.24-.3-.32-.13-.07-.29-.11-.47-.11h-.06c-.23,0-.43.06-.59.17-.16.11-.26.27-.28.47h-.67c.02-.36.18-.65.47-.87.29-.22.66-.34,1.1-.34.33,0,.62.07.86.2.24.13.42.32.54.55.12.23.18.48.18.75v1.66c0,.4.01.69.04.87h-.63c-.03-.14-.04-.35-.04-.63-.08.2-.25.36-.48.5-.24.14-.51.21-.82.21-.24,0-.46-.05-.66-.15ZM452.42,42c.17-.08.32-.2.44-.34.12-.14.17-.3.17-.46v-.44l-1.04.08c-.25.02-.46.09-.61.21-.16.12-.23.27-.23.46,0,.18.07.33.2.45s.29.18.49.18h.07c.17,0,.34-.04.51-.13Z"/>
        <path class="cls-4" d="M454.88,38.66h.67v.59c.13-.21.3-.37.52-.49.22-.12.48-.18.79-.18.29,0,.54.06.75.17.21.11.37.28.49.49.11.21.17.46.17.75v2.62h-.67v-2.47c0-.22-.03-.4-.09-.55-.06-.15-.15-.26-.28-.34s-.28-.12-.47-.12h-.06c-.22,0-.41.06-.58.17-.17.11-.31.27-.4.47s-.15.43-.15.69v2.13h-.67v-3.95Z"/>
        <path class="cls-4" d="M460.04,42.45c-.26-.17-.46-.4-.61-.71s-.22-.67-.22-1.09.08-.79.23-1.1c.16-.31.37-.55.64-.71s.57-.25.91-.25c.26,0,.51.06.75.19.23.12.4.28.51.47v-2.16h.67v5.54h-.67v-.58c-.11.19-.28.35-.53.47-.25.12-.51.19-.78.19-.34,0-.64-.08-.89-.25ZM461.67,41.94c.18-.12.32-.29.42-.52.1-.22.15-.49.15-.79s-.05-.56-.15-.79c-.1-.22-.24-.4-.42-.52-.18-.12-.38-.18-.6-.18h-.06c-.23,0-.42.06-.59.18-.17.12-.3.29-.4.52s-.14.49-.14.79c0,.46.1.82.31,1.09.21.27.48.4.82.4h.06c.22,0,.42-.06.6-.18Z"/>
        <path class="cls-4" d="M466.19,37.08h1.19l1.83,5.15-.17-.02,1.8-5.13h1.18v5.54h-.71v-5.19l.08.02-1.81,5.16h-.93l-1.85-5.16h.09s0,5.16,0,5.16h-.71v-5.54Z"/>
        <path class="cls-4" d="M473.75,42.54c-.2-.1-.35-.24-.46-.42-.11-.18-.17-.38-.17-.6,0-.28.07-.51.21-.68s.31-.3.53-.38c.21-.08.44-.13.68-.15l1.14-.1v-.13c0-.2-.04-.37-.11-.51-.07-.14-.17-.24-.3-.32-.13-.07-.29-.11-.47-.11h-.06c-.23,0-.43.06-.59.17-.16.11-.26.27-.28.47h-.67c.02-.36.18-.65.47-.87.29-.22.66-.34,1.1-.34.33,0,.62.07.86.2.24.13.42.32.54.55.12.23.18.48.18.75v1.66c0,.4.01.69.04.87h-.63c-.03-.14-.04-.35-.04-.63-.08.2-.25.36-.48.5s-.51.21-.82.21c-.24,0-.46-.05-.66-.15ZM475.06,42c.17-.08.32-.2.44-.34.12-.14.17-.3.17-.46v-.44l-1.04.08c-.25.02-.46.09-.61.21-.16.12-.23.27-.23.46,0,.18.07.33.2.45.13.12.29.18.49.18h.07c.17,0,.34-.04.51-.13Z"/>
        <path class="cls-4" d="M478.08,44.2c-.27-.1-.47-.25-.62-.43-.15-.18-.23-.39-.26-.63h.67c.04.21.16.36.36.47.2.11.45.17.75.17h.08c.36,0,.65-.1.87-.31.22-.21.33-.52.33-.94v-.58c-.12.2-.28.35-.49.47s-.46.18-.74.18c-.32,0-.61-.08-.88-.23s-.47-.38-.63-.68c-.16-.3-.23-.67-.23-1.1s.08-.8.23-1.11c.16-.31.37-.54.63-.69s.56-.23.88-.23c.29,0,.54.06.76.19s.37.28.47.47v-.58h.67v3.95c0,.33-.08.63-.23.9-.15.27-.37.47-.66.62-.29.15-.63.22-1.02.22-.36,0-.67-.05-.94-.15ZM479.69,41.87c.17-.12.31-.28.42-.5.1-.22.15-.47.15-.76s-.05-.55-.15-.77-.23-.39-.4-.51c-.17-.12-.35-.18-.55-.18h-.07c-.21,0-.4.05-.57.16-.17.11-.3.27-.4.49s-.15.49-.15.81c0,.47.1.83.3,1.07.2.24.47.36.79.36h.06c.21,0,.4-.06.57-.17Z"/>
        <path class="cls-4" d="M482.14,38.66h.67v.59c.13-.21.3-.37.52-.49.22-.12.48-.18.79-.18.29,0,.54.06.75.17.21.11.37.28.49.49.11.21.17.46.17.75v2.62h-.67v-2.47c0-.22-.03-.4-.09-.55-.06-.15-.15-.26-.28-.34s-.28-.12-.47-.12h-.06c-.22,0-.41.06-.58.17-.17.11-.31.27-.4.47s-.15.43-.15.69v2.13h-.67v-3.95Z"/>
        <path class="cls-4" d="M487.37,42.43c-.28-.17-.51-.42-.67-.73-.16-.31-.25-.67-.25-1.07s.08-.76.25-1.07c.16-.31.39-.55.67-.73.28-.17.6-.26.95-.26s.67.09.96.26c.28.17.51.42.67.73.16.31.25.67.25,1.07s-.08.76-.25,1.07c-.16.31-.39.55-.67.73s-.6.26-.96.26-.66-.09-.95-.26ZM488.96,41.95c.18-.12.31-.29.42-.51.1-.22.15-.49.15-.79s-.05-.57-.15-.79c-.1-.22-.24-.4-.42-.51-.18-.12-.38-.18-.6-.18h-.07c-.22,0-.42.06-.6.18-.18.12-.31.29-.42.51-.1.22-.15.49-.15.79s.05.57.15.79c.1.22.24.4.42.51.18.12.38.18.6.18h.07c.22,0,.42-.06.6-.18Z"/>
        <path class="cls-4" d="M491.17,37.08h.67v5.54h-.67v-5.54Z"/>
        <path class="cls-4" d="M493.01,37.14h.75v.81h-.75v-.81ZM493.05,38.66h.67v3.95h-.67v-3.95Z"/>
        <path class="cls-4" d="M495.33,42.54c-.19-.1-.35-.24-.46-.42-.11-.18-.17-.38-.17-.6,0-.28.07-.51.21-.68.14-.17.31-.3.53-.38.21-.08.44-.13.68-.15l1.14-.1v-.13c0-.2-.04-.37-.11-.51-.07-.14-.17-.24-.3-.32-.13-.07-.29-.11-.47-.11h-.06c-.23,0-.43.06-.59.17-.16.11-.26.27-.28.47h-.67c.02-.36.18-.65.47-.87.29-.22.66-.34,1.1-.34.33,0,.62.07.86.2.24.13.42.32.54.55.12.23.18.48.18.75v1.66c0,.4.01.69.04.87h-.63c-.03-.14-.04-.35-.04-.63-.08.2-.25.36-.48.5s-.51.21-.82.21c-.24,0-.46-.05-.66-.15ZM496.64,42c.17-.08.32-.2.43-.34.12-.14.17-.3.17-.46v-.44l-1.04.08c-.25.02-.46.09-.61.21-.16.12-.23.27-.23.46,0,.18.07.33.2.45s.3.18.49.18h.07c.17,0,.34-.04.51-.13Z"/>
        <path class="cls-4" d="M501.72,42.43c-.28-.17-.51-.42-.67-.73-.16-.31-.25-.67-.25-1.07s.08-.76.25-1.07c.16-.31.39-.55.67-.73.29-.17.6-.26.95-.26s.67.09.96.26c.28.17.51.42.67.73.16.31.25.67.25,1.07s-.08.76-.25,1.07c-.16.31-.39.55-.67.73-.29.17-.6.26-.96.26s-.66-.09-.95-.26ZM503.3,41.95c.18-.12.31-.29.42-.51.1-.22.15-.49.15-.79s-.05-.57-.15-.79c-.1-.22-.24-.4-.42-.51-.18-.12-.38-.18-.6-.18h-.07c-.22,0-.42.06-.6.18-.18.12-.31.29-.42.51-.1.22-.15.49-.15.79s.05.57.15.79c.1.22.24.4.42.51.18.12.38.18.6.18h.07c.22,0,.42-.06.6-.18Z"/>
        <path class="cls-4" d="M505.51,38.66h.67v.58c.11-.19.28-.35.53-.47.25-.12.51-.19.77-.19.34,0,.64.08.89.25s.46.4.61.71c.15.31.22.67.22,1.1s-.08.79-.23,1.09c-.15.31-.37.55-.64.71s-.57.25-.91.25c-.27,0-.52-.06-.75-.19-.23-.12-.4-.28-.51-.47v2.16h-.67v-5.54ZM508,41.94c.17-.12.3-.29.4-.52.1-.22.14-.49.14-.79,0-.46-.1-.82-.31-1.09-.21-.27-.48-.4-.83-.4h-.06c-.22,0-.42.06-.6.18-.18.12-.31.29-.42.52s-.15.49-.15.79.05.56.15.79c.1.22.24.4.42.52s.38.18.6.18h.06c.23,0,.43-.06.6-.18Z"/>
        <path class="cls-4" d="M510.86,42.46c-.28-.16-.5-.39-.66-.7-.16-.31-.25-.69-.25-1.13s.08-.81.25-1.12c.17-.31.39-.54.67-.7s.57-.23.89-.23c.33,0,.62.07.87.22.25.15.44.35.58.62.13.27.2.57.2.91v.4h-2.79c.01.31.07.56.18.77.11.21.25.36.43.47s.35.15.54.15h.06c.23,0,.42-.06.58-.17.16-.11.27-.28.32-.5h.67c-.07.39-.26.69-.56.91-.3.22-.66.32-1.07.32-.34,0-.64-.08-.92-.23ZM512.46,39.42c-.17-.18-.4-.27-.66-.27h-.06c-.25,0-.48.08-.68.25-.2.17-.33.43-.4.79h2.09c-.02-.33-.11-.59-.28-.77Z"/>
        <path class="cls-4" d="M514.42,38.66h.67v.59c.13-.21.3-.37.52-.49.22-.12.48-.18.79-.18s.54.06.75.17c.21.11.37.28.49.49.11.21.17.46.17.75v2.62h-.67v-2.47c0-.22-.03-.4-.09-.55s-.15-.26-.28-.34-.28-.12-.47-.12h-.06c-.22,0-.41.06-.58.17-.17.11-.31.27-.4.47-.1.2-.15.43-.15.69v2.13h-.67v-3.95Z"/>
        <path class="cls-4" d="M412.25,52.58c-.27-.1-.47-.25-.62-.43-.15-.18-.23-.39-.26-.63h.67c.04.21.16.36.36.47.2.11.45.17.75.17h.08c.36,0,.65-.1.87-.31.22-.21.33-.52.33-.94v-.58c-.12.2-.28.35-.49.47-.21.12-.46.18-.74.18-.32,0-.61-.08-.88-.23-.26-.15-.47-.38-.63-.68-.16-.3-.23-.67-.23-1.1s.08-.8.23-1.11c.16-.31.36-.54.63-.69.26-.16.56-.23.88-.23.29,0,.54.06.76.19s.37.28.47.47v-.58h.67v3.95c0,.33-.08.63-.23.9-.15.27-.37.47-.66.62-.29.15-.63.22-1.02.22-.36,0-.67-.05-.94-.15ZM413.85,50.26c.17-.12.31-.28.42-.5.1-.22.15-.47.15-.76s-.05-.55-.15-.77-.23-.39-.4-.51c-.17-.12-.35-.18-.55-.18h-.07c-.21,0-.4.05-.57.16-.17.11-.3.27-.4.49s-.15.49-.15.81c0,.47.1.83.3,1.07.2.24.47.36.79.36h.06c.21,0,.4-.06.57-.17Z"/>
        <path class="cls-4" d="M416.3,47.04h.63v.88c.08-.29.23-.52.44-.68.21-.16.46-.24.73-.24h.36v.64h-.32c-.36,0-.65.12-.86.37-.21.25-.31.58-.31,1.01v1.98h-.67v-3.95Z"/>
        <path class="cls-4" d="M419.75,50.84c-.28-.16-.5-.39-.66-.7-.16-.31-.25-.69-.25-1.13s.08-.81.25-1.12c.17-.31.39-.54.67-.7.28-.16.57-.23.89-.23.33,0,.62.07.87.22.25.15.44.35.58.62.13.27.2.57.2.91v.4h-2.79c.01.31.07.56.18.77.11.21.25.36.43.47.17.1.35.15.54.15h.06c.23,0,.42-.06.58-.17.16-.11.27-.28.32-.5h.67c-.07.39-.26.69-.56.91s-.65.32-1.07.32c-.34,0-.64-.08-.92-.23ZM421.35,47.8c-.17-.18-.4-.27-.66-.27h-.06c-.25,0-.48.08-.68.25-.2.17-.33.43-.4.79h2.09c-.02-.33-.11-.59-.28-.77Z"/>
        <path class="cls-4" d="M423.97,50.84c-.28-.16-.5-.39-.66-.7-.16-.31-.25-.69-.25-1.13s.08-.81.25-1.12c.17-.31.39-.54.67-.7.28-.16.57-.23.89-.23.33,0,.62.07.87.22.25.15.44.35.58.62.13.27.2.57.2.91v.4h-2.79c.01.31.07.56.18.77.11.21.25.36.43.47.17.1.35.15.54.15h.06c.23,0,.42-.06.58-.17.16-.11.27-.28.32-.5h.67c-.07.39-.26.69-.56.91s-.65.32-1.07.32c-.34,0-.64-.08-.92-.23ZM425.57,47.8c-.17-.18-.4-.27-.66-.27h-.06c-.25,0-.48.08-.68.25-.2.17-.33.43-.4.79h2.09c-.02-.33-.11-.59-.28-.77Z"/>
        <path class="cls-4" d="M427.52,47.04h.67v.59c.13-.21.3-.37.52-.49.22-.12.48-.18.79-.18s.54.06.75.17c.21.11.37.28.49.49.11.21.17.46.17.75v2.62h-.67v-2.47c0-.22-.03-.4-.09-.55s-.15-.26-.28-.34-.28-.12-.47-.12h-.06c-.22,0-.41.06-.58.17-.17.11-.31.27-.4.47-.1.2-.15.43-.15.69v2.13h-.67v-3.95Z"/>
        <path class="cls-4" d="M431.75,51.59h.26c.16,0,.28-.04.36-.12s.12-.2.12-.36v-.12h-.46v-.89h.89v1.05c0,.19-.04.35-.11.48s-.17.23-.3.3c-.13.07-.29.1-.47.1h-.28v-.45Z"/>
        <path class="cls-4" d="M436.64,50.81c-.28-.18-.49-.42-.64-.74-.15-.31-.22-.66-.22-1.05s.07-.74.22-1.05c.15-.31.36-.56.64-.74.28-.18.61-.27,1-.27.3,0,.56.06.79.17.23.11.42.27.56.48.14.21.22.45.25.72h-.67c-.04-.24-.14-.43-.3-.58-.16-.15-.36-.22-.59-.22h-.07c-.25,0-.47.07-.64.2-.18.13-.31.31-.39.54-.08.23-.13.47-.13.74,0,.42.1.77.3,1.06.2.28.49.43.86.43h.07c.23,0,.43-.08.58-.23s.26-.34.3-.57h.67c-.05.42-.21.75-.5,1-.29.25-.65.37-1.1.37-.39,0-.73-.09-1-.27Z"/>
        <path class="cls-4" d="M440.15,45.53h.75v.81h-.75v-.81ZM440.19,47.04h.67v3.95h-.67v-3.95Z"/>
        <path class="cls-4" d="M442.69,50.79c-.14-.14-.21-.34-.21-.6v-2.56h-.89v-.58h.89v-1.28h.67v1.28h.96v.58h-.96v2.47c0,.12.02.2.07.25.05.05.13.07.25.07h.77v.59h-.93c-.27,0-.47-.07-.62-.21Z"/>
        <path class="cls-4" d="M445.04,47.04h.63v.88c.08-.29.23-.52.44-.68.21-.16.46-.24.73-.24h.36v.64h-.32c-.36,0-.65.12-.86.37s-.31.58-.31,1.01v1.98h-.67v-3.95Z"/>
        <path class="cls-4" d="M448.54,50.9c-.2-.12-.36-.29-.46-.5-.1-.21-.15-.46-.15-.74v-2.61h.67v2.45c0,.34.07.59.21.76s.35.25.64.25h.07c.18,0,.35-.05.51-.16s.29-.26.39-.46.15-.43.15-.7v-2.14h.67v3.95h-.67v-.75c-.09.25-.25.45-.47.6-.22.15-.49.23-.81.23-.29,0-.54-.06-.74-.18Z"/>
        <path class="cls-4" d="M452.57,50.72c-.28-.24-.42-.55-.43-.93h.67c.03.24.12.42.29.54.17.12.38.18.64.18h.07c.23,0,.42-.05.57-.16.15-.11.22-.25.22-.42,0-.14-.05-.26-.14-.34s-.24-.15-.45-.19l-.58-.12c-.34-.07-.62-.19-.82-.37-.21-.18-.31-.42-.31-.74,0-.25.07-.47.2-.65.13-.18.31-.32.54-.41.22-.09.47-.14.73-.14.49,0,.87.12,1.13.36.26.24.4.55.41.92h-.67c-.03-.21-.11-.38-.25-.51s-.33-.21-.58-.21h-.07c-.23,0-.42.05-.56.16-.14.11-.21.24-.21.4,0,.15.05.27.14.35.09.09.25.15.47.19l.62.13c.33.06.59.18.78.36s.29.43.29.75c0,.24-.06.45-.19.62-.13.18-.31.32-.54.42-.23.1-.49.15-.79.15-.5,0-.89-.12-1.17-.36Z"/>
        <path class="cls-4" d="M455.67,47.04h.72l1.47,3.24-.25,1-1.94-4.25ZM455.89,51.79h.79c.14,0,.25-.03.32-.09.07-.06.14-.17.21-.34l1.71-4.32h.7l-1.87,4.66c-.11.26-.23.44-.37.53-.14.1-.34.15-.58.15h-.9v-.59Z"/>
        <path class="cls-4" d="M462.54,50.93c-.2-.1-.35-.24-.46-.42-.11-.18-.17-.38-.17-.6,0-.28.07-.51.21-.68s.31-.3.53-.38c.21-.08.44-.13.68-.15l1.14-.1v-.13c0-.2-.04-.37-.11-.51-.07-.14-.17-.24-.3-.32-.13-.07-.29-.11-.47-.11h-.06c-.23,0-.43.06-.59.17-.16.11-.26.27-.28.47h-.67c.02-.36.18-.65.47-.87.29-.22.66-.34,1.1-.34.33,0,.62.07.86.2.24.13.42.32.54.55.12.23.18.48.18.75v1.66c0,.4.01.69.04.87h-.63c-.03-.14-.04-.35-.04-.63-.08.2-.25.36-.48.5s-.51.21-.82.21c-.24,0-.46-.05-.66-.15ZM463.85,50.38c.17-.08.32-.2.44-.34.12-.14.17-.3.17-.46v-.44l-1.04.08c-.25.02-.46.09-.61.21-.16.12-.23.27-.23.46,0,.18.07.33.2.45.13.12.29.18.49.18h.07c.17,0,.34-.04.51-.13Z"/>
        <path class="cls-4" d="M466.31,47.04h.67v.59c.13-.21.3-.37.52-.49.22-.12.48-.18.79-.18.29,0,.54.06.75.17.21.11.37.28.49.49.11.21.17.46.17.75v2.62h-.67v-2.47c0-.22-.03-.4-.09-.55s-.15-.26-.28-.34c-.13-.08-.28-.12-.47-.12h-.06c-.22,0-.41.06-.58.17-.17.11-.31.27-.4.47-.1.2-.15.43-.15.69v2.13h-.67v-3.95Z"/>
        <path class="cls-4" d="M471.47,50.83c-.26-.17-.46-.4-.61-.71-.15-.31-.22-.67-.22-1.09s.08-.79.23-1.1c.16-.31.37-.55.64-.71.27-.17.57-.25.91-.25.26,0,.51.06.75.19.23.12.4.28.51.47v-2.16h.67v5.54h-.67v-.58c-.11.19-.28.35-.53.47-.25.12-.51.19-.78.19-.34,0-.64-.08-.89-.25ZM473.1,50.33c.18-.12.32-.29.42-.52.1-.22.15-.49.15-.79s-.05-.56-.15-.79c-.1-.22-.24-.4-.42-.52-.18-.12-.38-.18-.6-.18h-.06c-.23,0-.42.06-.59.18-.17.12-.3.29-.4.52-.1.22-.14.49-.14.79,0,.46.1.82.31,1.09.21.27.48.4.82.4h.06c.22,0,.42-.06.6-.18Z"/>
        <path class="cls-4" d="M477.97,50.79c-.14-.14-.21-.34-.21-.6v-2.56h-.89v-.58h.89v-1.28h.67v1.28h.96v.58h-.96v2.47c0,.12.02.2.07.25.05.05.13.07.25.07h.77v.59h-.93c-.27,0-.47-.07-.62-.21Z"/>
        <path class="cls-4" d="M480.32,47.04h.63v.88c.08-.29.23-.52.44-.68.21-.16.46-.24.73-.24h.36v.64h-.32c-.36,0-.65.12-.86.37-.21.25-.31.58-.31,1.01v1.98h-.67v-3.95Z"/>
        <path class="cls-4" d="M483.77,50.82c-.28-.17-.51-.42-.67-.73-.16-.31-.25-.67-.25-1.07s.08-.76.25-1.07c.16-.31.39-.55.67-.73.29-.17.6-.26.95-.26s.67.09.96.26c.28.17.51.42.67.73.16.31.25.67.25,1.07s-.08.76-.25,1.07c-.16.31-.39.55-.67.73-.29.17-.6.26-.96.26s-.66-.09-.95-.26ZM485.36,50.33c.18-.12.31-.29.42-.51.1-.22.15-.49.15-.79s-.05-.57-.15-.79c-.1-.22-.24-.4-.42-.51-.18-.12-.38-.18-.6-.18h-.07c-.22,0-.42.06-.6.18-.18.12-.31.29-.42.51-.1.22-.15.49-.15.79s.05.57.15.79c.1.22.24.4.42.51.18.12.38.18.6.18h.07c.22,0,.42-.06.6-.18Z"/>
        <path class="cls-4" d="M487.57,47.04h.67v.58c.11-.19.28-.35.53-.47.25-.12.51-.19.77-.19.34,0,.64.08.89.25s.46.4.61.71.22.67.22,1.1-.08.79-.23,1.09c-.15.31-.37.55-.64.71s-.57.25-.91.25c-.27,0-.52-.06-.75-.19-.23-.12-.4-.28-.51-.47v2.16h-.67v-5.54ZM490.05,50.33c.17-.12.3-.29.4-.52.1-.22.14-.49.14-.79,0-.46-.1-.82-.31-1.09-.21-.27-.48-.4-.83-.4h-.06c-.22,0-.42.06-.6.18-.18.12-.31.29-.42.52-.1.22-.15.49-.15.79s.05.56.15.79c.1.22.24.4.42.52.18.12.38.18.6.18h.06c.23,0,.43-.06.6-.18Z"/>
        <path class="cls-4" d="M492.21,45.53h.75v.81h-.75v-.81ZM492.25,47.04h.67v3.95h-.67v-3.95Z"/>
        <path class="cls-4" d="M494.75,50.81c-.28-.18-.49-.42-.64-.74-.15-.31-.22-.66-.22-1.05s.07-.74.22-1.05c.15-.31.36-.56.64-.74.28-.18.61-.27,1-.27.29,0,.56.06.79.17.23.11.42.27.56.48.14.21.22.45.25.72h-.67c-.04-.24-.14-.43-.3-.58s-.36-.22-.59-.22h-.07c-.25,0-.47.07-.64.2-.18.13-.31.31-.39.54-.08.23-.13.47-.13.74,0,.42.1.77.3,1.06.2.28.49.43.86.43h.07c.23,0,.43-.08.58-.23s.26-.34.3-.57h.67c-.05.42-.21.75-.5,1-.29.25-.65.37-1.1.37-.39,0-.73-.09-1-.27Z"/>
        <path class="cls-4" d="M498.7,50.93c-.19-.1-.35-.24-.46-.42-.11-.18-.17-.38-.17-.6,0-.28.07-.51.21-.68s.31-.3.53-.38c.21-.08.44-.13.68-.15l1.14-.1v-.13c0-.2-.04-.37-.11-.51-.07-.14-.17-.24-.3-.32-.13-.07-.29-.11-.47-.11h-.06c-.23,0-.43.06-.59.17-.16.11-.26.27-.28.47h-.67c.02-.36.18-.65.47-.87.29-.22.66-.34,1.1-.34.33,0,.62.07.86.2.24.13.42.32.54.55.12.23.18.48.18.75v1.66c0,.4.01.69.04.87h-.63c-.03-.14-.04-.35-.04-.63-.08.2-.25.36-.48.5-.24.14-.51.21-.82.21-.24,0-.46-.05-.66-.15ZM500.01,50.38c.17-.08.32-.2.44-.34.12-.14.17-.3.17-.46v-.44l-1.04.08c-.25.02-.46.09-.61.21-.16.12-.23.27-.23.46,0,.18.07.33.2.45s.29.18.49.18h.07c.17,0,.34-.04.51-.13Z"/>
        <path class="cls-4" d="M502.47,45.46h.67v5.54h-.67v-5.54Z"/>
        <path class="cls-4" d="M504.28,50.11h.9v.89h-.9v-.89Z"/>
        <path class="cls-4" d="M403.45,59.09c-.39-.25-.69-.59-.9-1.02-.21-.43-.31-.92-.31-1.46s.1-1.03.31-1.46c.21-.43.51-.77.9-1.02.39-.25.85-.37,1.37-.37.4,0,.76.08,1.08.23.32.15.58.36.78.64.2.27.3.59.32.94h-.71c-.04-.34-.19-.62-.44-.83-.26-.21-.59-.32-.99-.32h-.08c-.39,0-.72.1-.99.29-.28.19-.49.46-.63.79-.14.33-.21.71-.21,1.12s.07.78.21,1.12c.14.33.35.6.63.79.28.19.61.29.99.29h.08c.27,0,.51-.05.72-.15.21-.1.37-.24.49-.41.12-.17.19-.37.22-.59h.71c-.02.35-.13.67-.32.94-.2.27-.45.49-.78.64s-.68.23-1.08.23c-.52,0-.98-.12-1.37-.37Z"/>
        <path class="cls-4" d="M408.38,59.31c-.2-.1-.35-.24-.46-.42-.11-.18-.17-.38-.17-.6,0-.28.07-.51.21-.68.14-.17.31-.3.53-.38.21-.08.44-.13.68-.15l1.14-.1v-.13c0-.2-.04-.37-.11-.51-.07-.14-.17-.24-.3-.32-.13-.07-.29-.11-.47-.11h-.06c-.23,0-.43.06-.59.17-.16.11-.26.27-.28.47h-.67c.02-.36.18-.65.47-.87.29-.22.66-.34,1.1-.34.33,0,.62.07.86.2.24.13.42.32.54.55.12.23.18.48.18.75v1.66c0,.4.01.69.04.87h-.63c-.03-.14-.04-.35-.04-.63-.08.2-.25.36-.48.5s-.51.21-.82.21c-.24,0-.46-.05-.66-.15ZM409.69,58.76c.17-.08.32-.2.44-.34.12-.14.17-.3.17-.46v-.44l-1.04.08c-.25.02-.46.09-.61.21-.16.12-.23.27-.23.46,0,.18.07.33.2.45s.29.18.49.18h.07c.17,0,.34-.04.51-.13Z"/>
        <path class="cls-4" d="M412.27,59.1c-.28-.24-.42-.55-.43-.93h.67c.03.24.12.42.29.54s.38.18.64.18h.07c.23,0,.42-.05.57-.16.15-.11.22-.25.22-.42,0-.14-.05-.26-.14-.34-.09-.09-.24-.15-.45-.19l-.58-.12c-.34-.07-.62-.19-.82-.37-.21-.18-.31-.42-.31-.74,0-.25.07-.47.2-.65.13-.18.31-.32.54-.41.22-.09.47-.14.73-.14.49,0,.87.12,1.13.36s.4.55.41.92h-.67c-.03-.21-.11-.38-.25-.51-.14-.14-.33-.21-.58-.21h-.07c-.23,0-.42.05-.56.16-.14.11-.21.24-.21.4,0,.15.05.27.14.35.1.09.25.15.47.19l.62.13c.33.06.59.18.78.36.19.18.29.43.29.75,0,.24-.06.45-.19.62-.13.18-.31.32-.54.42-.23.1-.49.15-.79.15-.5,0-.89-.12-1.17-.36Z"/>
        <path class="cls-4" d="M415.97,53.85h.67v2.17c.13-.21.31-.38.53-.49.22-.12.48-.18.79-.18s.55.06.76.17c.21.12.37.28.48.49.11.21.16.46.16.74v2.63h-.67v-2.47c0-.21-.03-.39-.09-.54s-.15-.26-.28-.34-.28-.12-.47-.12h-.07c-.2,0-.38.05-.55.15-.17.1-.31.25-.42.44s-.16.42-.16.68v2.19h-.67v-5.54Z"/>
        <path class="cls-4" d="M420.54,55.43h.67v.58c.13-.19.29-.35.5-.47.21-.12.45-.18.72-.18.3,0,.55.06.77.19.22.13.39.32.51.57.14-.26.33-.46.57-.58.23-.12.49-.19.77-.19s.54.06.75.17c.21.11.37.28.48.49.11.21.17.46.17.75v2.62h-.67v-2.47c0-.33-.07-.58-.21-.74-.14-.17-.35-.25-.63-.25h-.06c-.19,0-.37.06-.53.17-.16.11-.29.27-.38.47s-.14.43-.14.69v2.13h-.67v-2.47c0-.33-.07-.58-.2-.74-.13-.17-.34-.25-.63-.25h-.06c-.19,0-.37.06-.53.17-.16.11-.29.27-.38.47-.09.2-.14.43-.14.69v2.13h-.67v-3.95Z"/>
        <path class="cls-4" d="M428.3,59.23c-.28-.16-.5-.39-.66-.7-.16-.31-.25-.69-.25-1.13s.08-.81.25-1.12c.17-.31.39-.54.67-.7s.57-.23.89-.23c.33,0,.62.07.87.22.25.15.44.35.58.62.13.27.2.57.2.91v.4h-2.79c.01.31.07.56.18.77.11.21.25.36.43.47s.35.15.54.15h.06c.23,0,.42-.06.58-.17s.27-.28.32-.5h.67c-.07.39-.26.69-.56.91s-.66.32-1.07.32c-.34,0-.64-.08-.92-.23ZM429.9,56.19c-.17-.18-.4-.27-.66-.27h-.06c-.25,0-.48.08-.68.25-.2.17-.33.43-.4.79h2.09c-.02-.33-.11-.59-.28-.77Z"/>
        <path class="cls-4" d="M431.85,55.43h.63v.88c.08-.29.23-.52.44-.68.21-.16.46-.24.73-.24h.36v.64h-.32c-.36,0-.65.12-.86.37-.21.25-.31.58-.31,1.01v1.98h-.67v-3.95Z"/>
        <path class="cls-4" d="M435.09,59.31c-.2-.1-.35-.24-.46-.42-.11-.18-.17-.38-.17-.6,0-.28.07-.51.21-.68s.31-.3.53-.38c.21-.08.44-.13.68-.15l1.14-.1v-.13c0-.2-.04-.37-.11-.51-.07-.14-.17-.24-.3-.32-.13-.07-.29-.11-.47-.11h-.06c-.23,0-.43.06-.59.17-.16.11-.26.27-.28.47h-.67c.02-.36.18-.65.47-.87.29-.22.66-.34,1.1-.34.33,0,.62.07.86.2.24.13.42.32.54.55.12.23.18.48.18.75v1.66c0,.4.01.69.04.87h-.63c-.03-.14-.04-.35-.04-.63-.08.2-.25.36-.48.5s-.51.21-.82.21c-.24,0-.46-.05-.66-.15ZM436.4,58.76c.17-.08.32-.2.44-.34.12-.14.17-.3.17-.46v-.44l-1.04.08c-.25.02-.46.09-.61.21-.16.12-.23.27-.23.46,0,.18.07.33.2.45.13.12.29.18.49.18h.07c.17,0,.34-.04.51-.13Z"/>
        <path class="cls-4" d="M438.86,55.43h.67v.59c.13-.21.3-.37.52-.49.22-.12.48-.18.79-.18.29,0,.54.06.75.17.21.11.37.28.49.49.11.21.17.46.17.75v2.62h-.67v-2.47c0-.22-.03-.4-.09-.55s-.15-.26-.28-.34c-.13-.08-.28-.12-.47-.12h-.06c-.22,0-.41.06-.58.17-.17.11-.31.27-.4.47-.1.2-.15.43-.15.69v2.13h-.67v-3.95Z"/>
        <path class="cls-4" d="M445.99,59.19c-.28-.18-.49-.42-.64-.74-.15-.31-.22-.66-.22-1.05s.07-.74.22-1.05c.15-.31.36-.56.64-.74.28-.18.61-.27,1-.27.3,0,.56.06.79.17.23.11.42.27.56.48.14.21.22.45.25.72h-.67c-.04-.24-.14-.43-.3-.58-.16-.15-.36-.22-.59-.22h-.07c-.25,0-.47.07-.64.2-.18.13-.31.31-.39.54-.08.23-.13.47-.13.74,0,.42.1.77.3,1.06.2.28.49.43.86.43h.07c.23,0,.43-.08.58-.23s.26-.34.3-.57h.67c-.05.42-.21.75-.5,1s-.65.37-1.1.37c-.39,0-.73-.09-1-.27Z"/>
        <path class="cls-4" d="M449.94,59.31c-.2-.1-.35-.24-.46-.42-.11-.18-.17-.38-.17-.6,0-.28.07-.51.21-.68s.31-.3.53-.38c.21-.08.44-.13.68-.15l1.14-.1v-.13c0-.2-.04-.37-.11-.51-.07-.14-.17-.24-.3-.32-.13-.07-.29-.11-.47-.11h-.06c-.23,0-.43.06-.59.17-.16.11-.26.27-.28.47h-.67c.02-.36.18-.65.47-.87.29-.22.66-.34,1.1-.34.33,0,.62.07.86.2.24.13.42.32.54.55.12.23.18.48.18.75v1.66c0,.4.01.69.04.87h-.63c-.03-.14-.04-.35-.04-.63-.08.2-.25.36-.48.5s-.51.21-.82.21c-.24,0-.46-.05-.66-.15ZM451.25,58.76c.17-.08.32-.2.43-.34.12-.14.17-.3.17-.46v-.44l-1.04.08c-.25.02-.46.09-.61.21-.16.12-.23.27-.23.46,0,.18.07.33.2.45s.3.18.49.18h.07c.17,0,.34-.04.51-.13Z"/>
        <path class="cls-4" d="M453.71,55.43h.63v.88c.08-.29.23-.52.44-.68s.46-.24.73-.24h.36v.64h-.32c-.36,0-.65.12-.86.37-.21.25-.31.58-.31,1.01v1.98h-.67v-3.95Z"/>
        <path class="cls-4" d="M456.64,55.43h.63v.88c.08-.29.23-.52.44-.68s.46-.24.73-.24h.36v.64h-.32c-.36,0-.65.12-.86.37-.21.25-.31.58-.31,1.01v1.98h-.67v-3.95Z"/>
        <path class="cls-4" d="M459.52,53.91h.75v.81h-.75v-.81ZM459.56,55.43h.67v3.95h-.67v-3.95Z"/>
        <path class="cls-4" d="M462.11,59.23c-.28-.16-.5-.39-.66-.7-.16-.31-.25-.69-.25-1.13s.08-.81.25-1.12c.17-.31.39-.54.67-.7s.57-.23.89-.23c.33,0,.62.07.87.22s.44.35.58.62c.13.27.2.57.2.91v.4h-2.79c.01.31.07.56.18.77.11.21.25.36.43.47.17.1.35.15.54.15h.06c.23,0,.42-.06.58-.17.16-.11.27-.28.32-.5h.67c-.07.39-.26.69-.56.91s-.65.32-1.07.32c-.34,0-.64-.08-.92-.23ZM463.71,56.19c-.17-.18-.4-.27-.66-.27h-.06c-.25,0-.48.08-.68.25s-.33.43-.4.79h2.09c-.02-.33-.11-.59-.28-.77Z"/>
        <path class="cls-4" d="M465.79,59.1c-.28-.24-.42-.55-.43-.93h.67c.03.24.12.42.29.54s.38.18.64.18h.07c.23,0,.42-.05.57-.16.15-.11.22-.25.22-.42,0-.14-.05-.26-.14-.34-.09-.09-.24-.15-.45-.19l-.58-.12c-.34-.07-.62-.19-.82-.37-.21-.18-.31-.42-.31-.74,0-.25.07-.47.2-.65.13-.18.31-.32.54-.41.22-.09.47-.14.73-.14.49,0,.87.12,1.13.36s.4.55.41.92h-.67c-.03-.21-.11-.38-.25-.51-.14-.14-.33-.21-.58-.21h-.07c-.23,0-.42.05-.56.16-.14.11-.21.24-.21.4,0,.15.05.27.14.35.1.09.25.15.47.19l.62.13c.33.06.59.18.78.36.19.18.29.43.29.75,0,.24-.06.45-.19.62-.13.18-.31.32-.54.42-.23.1-.49.15-.79.15-.5,0-.89-.12-1.17-.36Z"/>
        <path class="cls-4" d="M471.91,59.17c-.14-.14-.21-.34-.21-.6v-2.56h-.89v-.58h.89v-1.28h.67v1.28h.96v.58h-.96v2.47c0,.12.02.2.07.25.05.05.13.07.25.07h.77v.59h-.93c-.27,0-.47-.07-.62-.21Z"/>
        <path class="cls-4" d="M474.26,53.85h.67v2.17c.13-.21.31-.38.53-.49.22-.12.48-.18.79-.18s.55.06.76.17c.21.12.37.28.48.49.11.21.16.46.16.74v2.63h-.67v-2.47c0-.21-.03-.39-.09-.54s-.15-.26-.28-.34-.28-.12-.47-.12h-.07c-.2,0-.38.05-.55.15-.17.1-.31.25-.42.44s-.16.42-.16.68v2.19h-.67v-5.54Z"/>
        <path class="cls-4" d="M479.22,59.31c-.2-.1-.35-.24-.46-.42-.11-.18-.17-.38-.17-.6,0-.28.07-.51.21-.68s.31-.3.53-.38c.21-.08.44-.13.68-.15l1.14-.1v-.13c0-.2-.04-.37-.11-.51-.07-.14-.17-.24-.3-.32-.13-.07-.29-.11-.47-.11h-.06c-.23,0-.43.06-.59.17-.16.11-.26.27-.28.47h-.67c.02-.36.18-.65.47-.87.29-.22.66-.34,1.1-.34.33,0,.62.07.86.2.24.13.42.32.54.55.12.23.18.48.18.75v1.66c0,.4.01.69.04.87h-.63c-.03-.14-.04-.35-.04-.63-.08.2-.25.36-.48.5s-.51.21-.82.21c-.24,0-.46-.05-.66-.15ZM480.53,58.76c.17-.08.32-.2.44-.34.12-.14.17-.3.17-.46v-.44l-1.04.08c-.25.02-.46.09-.61.21-.16.12-.23.27-.23.46,0,.18.07.33.2.45s.3.18.49.18h.07c.17,0,.34-.04.51-.13Z"/>
        <path class="cls-4" d="M483.55,59.17c-.14-.14-.21-.34-.21-.6v-2.56h-.89v-.58h.89v-1.28h.67v1.28h.96v.58h-.96v2.47c0,.12.02.2.07.25.05.05.13.07.25.07h.77v.59h-.93c-.27,0-.47-.07-.62-.21Z"/>
        <path class="cls-4" d="M487.4,55.43h.7l1.01,3.48h-.13l.94-3.48h.74l.97,3.48h-.12l.97-3.48h.7l-1.23,3.95h-.78l-.93-3.37h.1l-.93,3.37h-.78l-1.24-3.95Z"/>
        <path class="cls-4" d="M494.28,59.31c-.2-.1-.35-.24-.46-.42-.11-.18-.17-.38-.17-.6,0-.28.07-.51.21-.68s.31-.3.53-.38c.21-.08.44-.13.68-.15l1.14-.1v-.13c0-.2-.04-.37-.11-.51-.07-.14-.17-.24-.3-.32-.13-.07-.29-.11-.47-.11h-.06c-.23,0-.43.06-.59.17-.16.11-.26.27-.28.47h-.67c.02-.36.18-.65.47-.87.29-.22.66-.34,1.1-.34.33,0,.62.07.86.2.24.13.42.32.54.55.12.23.18.48.18.75v1.66c0,.4.01.69.04.87h-.63c-.03-.14-.04-.35-.04-.63-.08.2-.25.36-.48.5s-.51.21-.82.21c-.24,0-.46-.05-.66-.15ZM495.59,58.76c.17-.08.32-.2.43-.34.12-.14.17-.3.17-.46v-.44l-1.04.08c-.25.02-.46.09-.61.21-.16.12-.23.27-.23.46,0,.18.07.33.2.45s.3.18.49.18h.07c.17,0,.34-.04.51-.13Z"/>
        <path class="cls-4" d="M498.05,55.43h.63v.88c.08-.29.23-.52.44-.68.21-.16.46-.24.73-.24h.36v.64h-.32c-.36,0-.65.12-.86.37-.21.25-.31.58-.31,1.01v1.98h-.67v-3.95Z"/>
        <path class="cls-4" d="M500.97,55.43h.67v.58c.13-.19.29-.35.5-.47.21-.12.45-.18.72-.18.3,0,.55.06.77.19.22.13.39.32.51.57.14-.26.33-.46.57-.58.23-.12.49-.19.77-.19s.54.06.75.17c.21.11.37.28.48.49.11.21.17.46.17.75v2.62h-.67v-2.47c0-.33-.07-.58-.21-.74-.14-.17-.35-.25-.63-.25h-.06c-.19,0-.37.06-.53.17-.16.11-.29.27-.38.47-.1.2-.14.43-.14.69v2.13h-.67v-2.47c0-.33-.07-.58-.2-.74-.13-.17-.34-.25-.63-.25h-.06c-.19,0-.37.06-.53.17-.16.11-.29.27-.38.47s-.14.43-.14.69v2.13h-.67v-3.95Z"/>
        <path class="cls-4" d="M508.64,59.17c-.14-.14-.21-.34-.21-.6v-2.56h-.89v-.58h.89v-1.28h.67v1.28h.96v.58h-.96v2.47c0,.12.02.2.07.25.05.05.13.07.25.07h.77v.59h-.93c-.27,0-.47-.07-.62-.21Z"/>
        <path class="cls-4" d="M510.99,53.85h.67v2.17c.13-.21.31-.38.53-.49.22-.12.48-.18.79-.18s.55.06.76.17c.21.12.37.28.48.49.11.21.16.46.16.74v2.63h-.67v-2.47c0-.21-.03-.39-.09-.54-.06-.15-.15-.26-.28-.34s-.28-.12-.47-.12h-.07c-.19,0-.38.05-.55.15-.17.1-.31.25-.42.44-.11.19-.16.42-.16.68v2.19h-.67v-5.54Z"/>
        <path class="cls-4" d="M398.06,67.58c-.28-.17-.51-.42-.67-.73-.16-.31-.25-.67-.25-1.07s.08-.76.25-1.07c.16-.31.39-.55.67-.73.28-.17.6-.26.95-.26s.67.09.96.26c.28.17.51.42.67.73.16.31.25.67.25,1.07s-.08.76-.25,1.07c-.16.31-.39.55-.67.73s-.6.26-.96.26-.66-.09-.95-.26ZM399.65,67.1c.18-.12.31-.29.42-.51.1-.22.15-.49.15-.79s-.05-.57-.15-.79c-.1-.22-.24-.4-.42-.51-.18-.12-.38-.18-.6-.18h-.07c-.22,0-.42.06-.6.18-.18.12-.31.29-.42.51-.1.22-.15.49-.15.79s.05.57.15.79c.1.22.24.4.42.51.18.12.38.18.6.18h.07c.22,0,.42-.06.6-.18Z"/>
        <path class="cls-4" d="M402.43,67.66c-.2-.12-.36-.29-.46-.5-.1-.21-.15-.46-.15-.74v-2.61h.67v2.45c0,.34.07.59.21.76s.35.25.64.25h.07c.18,0,.35-.05.51-.16s.29-.26.39-.46c.1-.2.15-.43.15-.7v-2.14h.67v3.95h-.67v-.75c-.09.25-.25.45-.47.6-.22.15-.49.23-.81.23-.29,0-.54-.06-.74-.18Z"/>
        <path class="cls-4" d="M406.96,67.55c-.14-.14-.21-.34-.21-.6v-2.56h-.89v-.58h.89v-1.28h.67v1.28h.96v.58h-.96v2.47c0,.12.02.2.07.25.05.05.13.07.25.07h.77v.59h-.93c-.27,0-.47-.07-.62-.21Z"/>
        <path class="cls-4" d="M408.86,63.81h.7l1.01,3.48h-.13l.94-3.48h.74l.97,3.48h-.12l.97-3.48h.7l-1.23,3.95h-.78l-.93-3.37h.1l-.93,3.37h-.78l-1.24-3.95Z"/>
        <path class="cls-4" d="M415.73,67.69c-.19-.1-.35-.24-.46-.42-.11-.18-.17-.38-.17-.6,0-.28.07-.51.21-.68.14-.17.31-.3.53-.38.21-.08.44-.13.68-.15l1.14-.1v-.13c0-.2-.04-.37-.11-.51-.07-.14-.17-.24-.3-.32-.13-.07-.29-.11-.47-.11h-.06c-.23,0-.43.06-.59.17-.16.11-.26.27-.28.47h-.67c.02-.36.18-.65.47-.87.29-.22.66-.34,1.1-.34.33,0,.62.07.86.2.24.13.42.32.54.55.12.23.18.48.18.75v1.66c0,.4.01.69.04.87h-.63c-.03-.14-.04-.35-.04-.63-.08.2-.25.36-.48.5s-.51.21-.82.21c-.24,0-.46-.05-.66-.15ZM417.05,67.15c.17-.08.32-.2.43-.34.12-.14.17-.3.17-.46v-.44l-1.04.08c-.25.02-.46.09-.61.21-.16.12-.23.27-.23.46,0,.18.07.33.2.45s.3.18.49.18h.07c.17,0,.34-.04.51-.13Z"/>
        <path class="cls-4" d="M419.51,63.81h.63v.88c.08-.29.23-.52.44-.68.21-.16.46-.24.73-.24h.36v.64h-.32c-.36,0-.65.12-.86.37-.21.25-.31.58-.31,1.01v1.98h-.67v-3.95Z"/>
        <path class="cls-4" d="M422.89,67.59c-.26-.17-.46-.4-.61-.71-.15-.31-.22-.67-.22-1.09s.08-.79.23-1.1c.16-.31.37-.55.64-.71.27-.17.57-.25.91-.25.26,0,.51.06.75.19.23.12.4.28.51.47v-2.16h.67v5.54h-.67v-.58c-.11.19-.28.35-.53.47-.25.12-.51.19-.78.19-.34,0-.64-.08-.89-.25ZM424.52,67.09c.18-.12.32-.29.42-.52.1-.22.15-.49.15-.79s-.05-.56-.15-.79c-.1-.22-.24-.4-.42-.52-.18-.12-.38-.18-.6-.18h-.06c-.23,0-.42.06-.59.18-.17.12-.3.29-.4.52-.1.22-.14.49-.14.79,0,.46.1.82.31,1.09.21.27.48.4.82.4h.06c.22,0,.42-.06.6-.18Z"/>
        <path class="cls-4" d="M426.64,68.36h.26c.16,0,.28-.04.36-.12s.12-.2.12-.36v-.12h-.46v-.89h.89v1.05c0,.19-.04.35-.11.48s-.17.23-.3.3c-.13.07-.29.1-.47.1h-.28v-.45Z"/>
        <path class="cls-4" d="M431.3,67.69c-.2-.1-.35-.24-.46-.42-.11-.18-.17-.38-.17-.6,0-.28.07-.51.21-.68s.31-.3.53-.38c.21-.08.44-.13.68-.15l1.14-.1v-.13c0-.2-.04-.37-.11-.51-.07-.14-.17-.24-.3-.32-.13-.07-.29-.11-.47-.11h-.06c-.23,0-.43.06-.59.17-.16.11-.26.27-.28.47h-.67c.02-.36.18-.65.47-.87.29-.22.66-.34,1.1-.34.33,0,.62.07.86.2.24.13.42.32.54.55.12.23.18.48.18.75v1.66c0,.4.01.69.04.87h-.63c-.03-.14-.04-.35-.04-.63-.08.2-.25.36-.48.5s-.51.21-.82.21c-.24,0-.46-.05-.66-.15ZM432.62,67.15c.17-.08.32-.2.44-.34.12-.14.17-.3.17-.46v-.44l-1.04.08c-.25.02-.46.09-.61.21-.16.12-.23.27-.23.46,0,.18.07.33.2.45s.3.18.49.18h.07c.17,0,.34-.04.51-.13Z"/>
        <path class="cls-4" d="M435.04,62.29h.75v.81h-.75v-.81ZM435.08,63.81h.67v3.95h-.67v-3.95Z"/>
        <path class="cls-4" d="M436.96,63.81h.63v.88c.08-.29.23-.52.44-.68.21-.16.46-.24.73-.24h.36v.64h-.32c-.36,0-.65.12-.86.37s-.31.58-.31,1.01v1.98h-.67v-3.95Z"/>
        <path class="cls-4" d="M439.35,63.81h.72l1.47,3.24-.25,1-1.94-4.25ZM439.57,68.56h.79c.14,0,.25-.03.32-.09.07-.06.14-.17.21-.34l1.71-4.32h.7l-1.87,4.66c-.11.26-.23.44-.37.53-.14.1-.34.15-.59.15h-.9v-.59Z"/>
        <path class="cls-4" d="M443.32,68.36h.26c.16,0,.28-.04.36-.12s.12-.2.12-.36v-.12h-.46v-.89h.89v1.05c0,.19-.04.35-.11.48-.07.13-.17.23-.3.3-.13.07-.29.1-.47.1h-.29v-.45Z"/>
        <path class="cls-4" d="M447.59,63.81h.63v.88c.08-.29.23-.52.44-.68.21-.16.46-.24.73-.24h.36v.64h-.32c-.36,0-.65.12-.86.37-.21.25-.31.58-.31,1.01v1.98h-.67v-3.95Z"/>
        <path class="cls-4" d="M450.83,67.69c-.2-.1-.35-.24-.46-.42-.11-.18-.17-.38-.17-.6,0-.28.07-.51.21-.68s.31-.3.53-.38c.21-.08.44-.13.68-.15l1.14-.1v-.13c0-.2-.04-.37-.11-.51-.07-.14-.17-.24-.3-.32-.13-.07-.29-.11-.47-.11h-.06c-.23,0-.43.06-.59.17-.16.11-.26.27-.28.47h-.67c.02-.36.18-.65.47-.87.29-.22.66-.34,1.1-.34.33,0,.62.07.86.2.24.13.42.32.54.55.12.23.18.48.18.75v1.66c0,.4.01.69.04.87h-.63c-.03-.14-.04-.35-.04-.63-.08.2-.25.36-.48.5s-.51.21-.82.21c-.24,0-.46-.05-.66-.15ZM452.14,67.15c.17-.08.32-.2.43-.34.12-.14.17-.3.17-.46v-.44l-1.04.08c-.25.02-.46.09-.61.21-.16.12-.23.27-.23.46,0,.18.07.33.2.45s.3.18.49.18h.07c.17,0,.34-.04.51-.13Z"/>
        <path class="cls-4" d="M455.19,67.59c-.26-.17-.46-.4-.61-.71s-.22-.67-.22-1.09.08-.79.23-1.1c.16-.31.37-.55.64-.71.27-.17.57-.25.91-.25.26,0,.51.06.75.19.23.12.4.28.51.47v-2.16h.67v5.54h-.67v-.58c-.11.19-.28.35-.53.47-.25.12-.51.19-.78.19-.34,0-.64-.08-.89-.25ZM456.83,67.09c.18-.12.32-.29.42-.52.1-.22.15-.49.15-.79s-.05-.56-.15-.79c-.1-.22-.24-.4-.42-.52-.18-.12-.38-.18-.6-.18h-.06c-.23,0-.42.06-.59.18-.17.12-.3.29-.4.52-.1.22-.14.49-.14.79,0,.46.1.82.31,1.09.21.27.48.4.82.4h.06c.22,0,.42-.06.6-.18Z"/>
        <path class="cls-4" d="M459.24,62.29h.75v.81h-.75v-.81ZM459.28,63.81h.67v3.95h-.67v-3.95Z"/>
        <path class="cls-4" d="M461.56,67.69c-.2-.1-.35-.24-.46-.42-.11-.18-.17-.38-.17-.6,0-.28.07-.51.21-.68s.31-.3.53-.38c.21-.08.44-.13.68-.15l1.14-.1v-.13c0-.2-.04-.37-.11-.51-.07-.14-.17-.24-.3-.32-.13-.07-.29-.11-.47-.11h-.06c-.23,0-.43.06-.59.17-.16.11-.26.27-.28.47h-.67c.02-.36.18-.65.47-.87.29-.22.66-.34,1.1-.34.33,0,.62.07.86.2.24.13.42.32.54.55.12.23.18.48.18.75v1.66c0,.4.01.69.04.87h-.63c-.03-.14-.04-.35-.04-.63-.08.2-.25.36-.48.5s-.51.21-.82.21c-.24,0-.46-.05-.66-.15ZM462.87,67.15c.17-.08.32-.2.44-.34.12-.14.17-.3.17-.46v-.44l-1.04.08c-.25.02-.46.09-.61.21-.16.12-.23.27-.23.46,0,.18.07.33.2.45.13.12.29.18.49.18h.07c.17,0,.34-.04.51-.13Z"/>
        <path class="cls-4" d="M465.33,63.81h.67v.59c.13-.21.3-.37.52-.49.22-.12.48-.18.79-.18s.54.06.75.17c.21.11.37.28.49.49.11.21.17.46.17.75v2.62h-.67v-2.47c0-.22-.03-.4-.09-.55s-.15-.26-.28-.34-.28-.12-.47-.12h-.06c-.22,0-.41.06-.58.17-.17.11-.31.27-.4.47-.1.2-.15.43-.15.69v2.13h-.67v-3.95Z"/>
        <path class="cls-4" d="M470.47,67.55c-.14-.14-.21-.34-.21-.6v-2.56h-.89v-.58h.89v-1.28h.67v1.28h.96v.58h-.96v2.47c0,.12.02.2.07.25.05.05.13.07.25.07h.77v.59h-.93c-.27,0-.47-.07-.62-.21Z"/>
        <path class="cls-4" d="M475.16,67.69c-.2-.1-.35-.24-.46-.42-.11-.18-.17-.38-.17-.6,0-.28.07-.51.21-.68s.31-.3.53-.38c.21-.08.44-.13.68-.15l1.14-.1v-.13c0-.2-.04-.37-.11-.51-.07-.14-.17-.24-.3-.32-.13-.07-.29-.11-.47-.11h-.06c-.23,0-.43.06-.59.17-.16.11-.26.27-.28.47h-.67c.02-.36.18-.65.47-.87.29-.22.66-.34,1.1-.34.33,0,.62.07.86.2.24.13.42.32.54.55.12.23.18.48.18.75v1.66c0,.4.01.69.04.87h-.63c-.03-.14-.04-.35-.04-.63-.08.2-.25.36-.48.5s-.51.21-.82.21c-.24,0-.46-.05-.66-.15ZM476.47,67.15c.17-.08.32-.2.44-.34.12-.14.17-.3.17-.46v-.44l-1.04.08c-.25.02-.46.09-.61.21-.16.12-.23.27-.23.46,0,.18.07.33.2.45s.3.18.49.18h.07c.17,0,.34-.04.51-.13Z"/>
        <path class="cls-4" d="M478.93,63.81h.67v.59c.13-.21.3-.37.52-.49.22-.12.48-.18.79-.18s.54.06.75.17c.21.11.37.28.49.49.11.21.17.46.17.75v2.62h-.67v-2.47c0-.22-.03-.4-.09-.55s-.15-.26-.28-.34-.28-.12-.47-.12h-.06c-.22,0-.41.06-.58.17-.17.11-.31.27-.4.47-.1.2-.15.43-.15.69v2.13h-.67v-3.95Z"/>
        <path class="cls-4" d="M484.09,67.59c-.26-.17-.46-.4-.61-.71-.15-.31-.22-.67-.22-1.09s.08-.79.23-1.1c.16-.31.37-.55.64-.71.27-.17.57-.25.91-.25.26,0,.51.06.75.19.23.12.4.28.51.47v-2.16h.67v5.54h-.67v-.58c-.11.19-.28.35-.53.47-.25.12-.51.19-.78.19-.34,0-.63-.08-.89-.25ZM485.72,67.09c.18-.12.32-.29.42-.52.1-.22.15-.49.15-.79s-.05-.56-.15-.79-.24-.4-.42-.52c-.18-.12-.38-.18-.6-.18h-.06c-.23,0-.42.06-.59.18-.17.12-.3.29-.4.52-.09.22-.14.49-.14.79,0,.46.1.82.31,1.09.21.27.48.4.82.4h.06c.22,0,.42-.06.6-.18Z"/>
        <path class="cls-4" d="M490.71,67.59c-.26-.17-.46-.4-.61-.71-.15-.31-.22-.67-.22-1.09s.08-.79.23-1.1c.16-.31.37-.55.64-.71.27-.17.57-.25.91-.25.26,0,.51.06.75.19.23.12.4.28.51.47v-2.16h.67v5.54h-.67v-.58c-.11.19-.28.35-.53.47-.25.12-.51.19-.78.19-.34,0-.64-.08-.89-.25ZM492.35,67.09c.18-.12.32-.29.42-.52.1-.22.15-.49.15-.79s-.05-.56-.15-.79c-.1-.22-.24-.4-.42-.52-.18-.12-.38-.18-.6-.18h-.06c-.23,0-.42.06-.59.18-.17.12-.3.29-.4.52-.1.22-.14.49-.14.79,0,.46.1.82.31,1.09.21.27.48.4.82.4h.06c.22,0,.42-.06.6-.18Z"/>
        <path class="cls-4" d="M494.76,62.29h.75v.81h-.75v-.81ZM494.8,63.81h.67v3.95h-.67v-3.95Z"/>
        <path class="cls-4" d="M497.13,64.39h-.89v-.58h.89v-.79c0-.27.07-.47.2-.6.13-.13.34-.19.6-.19h1.07v.58h-.89c-.12,0-.2.02-.25.07s-.07.13-.07.25v.68h1.98v-.79c0-.27.07-.47.2-.6.13-.13.34-.19.6-.19h1.07v.58h-.89c-.12,0-.2.02-.25.07-.05.04-.07.13-.07.25v.68h1v.58h-1v3.38h-.67v-3.38h-1.98v3.38h-.67v-3.38Z"/>
        <path class="cls-4" d="M502.82,67.66c-.2-.12-.36-.29-.46-.5-.1-.21-.15-.46-.15-.74v-2.61h.67v2.45c0,.34.07.59.21.76s.35.25.64.25h.07c.18,0,.35-.05.51-.16s.29-.26.39-.46c.1-.2.15-.43.15-.7v-2.14h.67v3.95h-.67v-.75c-.09.25-.25.45-.47.6-.22.15-.49.23-.81.23-.29,0-.54-.06-.74-.18Z"/>
        <path class="cls-4" d="M506.85,67.48c-.28-.24-.42-.55-.44-.93h.67c.03.24.12.42.29.54s.38.18.64.18h.07c.23,0,.42-.05.57-.16.15-.11.22-.25.22-.42,0-.14-.05-.26-.14-.34-.09-.09-.24-.15-.46-.19l-.58-.12c-.34-.07-.62-.19-.82-.37-.21-.18-.31-.42-.31-.74,0-.25.07-.47.2-.65.13-.18.31-.32.54-.41.22-.09.47-.14.73-.14.49,0,.87.12,1.13.36s.4.55.41.92h-.67c-.03-.21-.11-.38-.25-.51s-.33-.21-.58-.21h-.07c-.23,0-.42.05-.56.16-.14.11-.21.24-.21.4,0,.15.05.27.14.35.1.09.25.15.47.19l.62.13c.33.06.59.18.78.36s.29.43.29.75c0,.24-.06.45-.19.62-.13.18-.31.32-.54.42-.23.1-.49.15-.79.15-.5,0-.89-.12-1.17-.36Z"/>
        <path class="cls-4" d="M510.51,62.29h.75v.81h-.75v-.81ZM510.55,63.81h.67v3.95h-.67v-3.95Z"/>
        <path class="cls-4" d="M511.96,63.81h.7l1.28,3.53h-.16l1.27-3.53h.69l-1.48,3.95h-.82l-1.48-3.95Z"/>
        <path class="cls-4" d="M517.06,67.61c-.28-.16-.5-.39-.66-.7-.16-.31-.25-.69-.25-1.13s.08-.81.25-1.12c.17-.31.39-.54.67-.7s.57-.23.89-.23c.33,0,.62.07.87.22s.44.35.58.62c.13.27.2.57.2.91v.4h-2.79c.01.31.07.56.18.77.11.21.25.36.43.47s.35.15.54.15h.06c.23,0,.42-.06.59-.17s.27-.28.32-.5h.67c-.07.39-.26.69-.56.91-.3.22-.66.32-1.07.32-.34,0-.64-.08-.92-.23ZM518.66,64.57c-.17-.18-.4-.27-.66-.27h-.06c-.25,0-.48.08-.68.25-.2.17-.33.43-.4.79h2.09c-.02-.33-.11-.59-.28-.77Z"/>
        <path class="cls-4" d="M406.18,70.61h.67v5.54h-.67v-5.54Z"/>
        <path class="cls-4" d="M408.02,70.68h.75v.81h-.75v-.81ZM408.06,72.19h.67v3.95h-.67v-3.95Z"/>
        <path class="cls-4" d="M409.95,70.61h.67v3.4l1.86-1.82h.89l-1.65,1.57,1.72,2.38h-.83l-1.38-1.92-.62.61v1.31h-.67v-5.54Z"/>
        <path class="cls-4" d="M414.6,75.99c-.28-.16-.5-.39-.66-.7-.16-.31-.25-.69-.25-1.13s.08-.81.25-1.12.39-.54.67-.7c.28-.16.57-.23.89-.23.33,0,.62.07.87.22s.44.35.58.62c.13.27.2.57.2.91v.4h-2.79c.01.31.07.56.18.77.11.21.25.36.43.47.17.1.35.15.54.15h.06c.23,0,.42-.06.59-.17.16-.11.27-.28.32-.5h.67c-.07.39-.26.69-.56.91s-.65.32-1.07.32c-.34,0-.64-.08-.92-.23ZM416.2,72.95c-.17-.18-.4-.27-.66-.27h-.06c-.25,0-.48.08-.68.25s-.33.43-.4.79h2.09c-.02-.33-.11-.59-.28-.77Z"/>
        <path class="cls-4" d="M420.1,70.61h.67v2.17c.13-.21.31-.38.53-.49.22-.12.48-.18.79-.18s.55.06.76.17c.21.12.37.28.48.49.11.21.16.46.16.74v2.63h-.67v-2.47c0-.21-.03-.39-.09-.54s-.15-.26-.28-.34c-.13-.08-.28-.12-.47-.12h-.07c-.19,0-.38.05-.55.15-.17.1-.31.25-.42.44s-.16.42-.16.68v2.19h-.67v-5.54Z"/>
        <path class="cls-4" d="M425.33,75.99c-.28-.16-.5-.39-.66-.7-.16-.31-.25-.69-.25-1.13s.08-.81.25-1.12c.17-.31.39-.54.67-.7s.57-.23.89-.23c.33,0,.62.07.87.22s.44.35.58.62c.13.27.2.57.2.91v.4h-2.79c.01.31.07.56.18.77.11.21.25.36.43.47.17.1.35.15.54.15h.06c.23,0,.42-.06.58-.17.16-.11.27-.28.32-.5h.67c-.07.39-.26.69-.56.91s-.65.32-1.07.32c-.34,0-.64-.08-.92-.23ZM426.93,72.95c-.17-.18-.4-.27-.66-.27h-.06c-.25,0-.48.08-.68.25s-.33.43-.4.79h2.09c-.02-.33-.11-.59-.28-.77Z"/>
        <path class="cls-4" d="M429.28,76.08c-.2-.1-.35-.24-.46-.42-.11-.18-.17-.38-.17-.6,0-.28.07-.51.21-.68s.31-.3.53-.38c.21-.08.44-.13.68-.15l1.14-.1v-.13c0-.2-.04-.37-.11-.51-.07-.14-.17-.24-.3-.32-.13-.07-.29-.11-.47-.11h-.06c-.23,0-.43.06-.59.17-.16.11-.26.27-.28.47h-.67c.02-.36.18-.65.47-.87.29-.22.66-.34,1.1-.34.33,0,.62.07.86.2.24.13.42.32.54.55.12.23.18.48.18.75v1.66c0,.4.01.69.04.87h-.63c-.03-.14-.04-.35-.04-.63-.08.2-.25.36-.48.5s-.51.21-.82.21c-.24,0-.46-.05-.66-.15ZM430.59,75.53c.17-.08.32-.2.44-.34.12-.14.17-.3.17-.46v-.44l-1.04.08c-.25.02-.46.09-.61.21-.16.12-.23.27-.23.46,0,.18.07.33.2.45s.3.18.49.18h.07c.17,0,.34-.04.51-.13Z"/>
        <path class="cls-4" d="M433.61,75.94c-.14-.14-.21-.34-.21-.6v-2.56h-.89v-.58h.89v-1.28h.67v1.28h.96v.58h-.96v2.47c0,.12.02.2.07.25.05.05.13.07.25.07h.77v.59h-.93c-.27,0-.47-.07-.62-.21Z"/>
        <path class="cls-4" d="M437.91,72.19h.63v.88c.08-.29.23-.52.44-.68.21-.16.46-.24.73-.24h.36v.64h-.32c-.36,0-.65.12-.86.37-.21.25-.31.58-.31,1.01v1.98h-.67v-3.95Z"/>
        <path class="cls-4" d="M440.79,70.68h.75v.81h-.75v-.81ZM440.83,72.19h.67v3.95h-.67v-3.95Z"/>
        <path class="cls-4" d="M442.84,75.87c-.28-.24-.42-.55-.44-.93h.67c.03.24.12.42.29.54s.38.18.64.18h.07c.23,0,.42-.05.57-.16.15-.11.22-.25.22-.42,0-.14-.05-.26-.14-.34s-.24-.15-.45-.19l-.58-.12c-.34-.07-.62-.19-.82-.37-.21-.18-.31-.42-.31-.74,0-.25.07-.47.2-.65.13-.18.31-.32.54-.41s.47-.14.73-.14c.49,0,.87.12,1.13.36s.4.55.41.92h-.67c-.03-.21-.11-.38-.25-.51-.14-.14-.33-.21-.58-.21h-.07c-.23,0-.42.05-.56.16-.14.11-.21.24-.21.4,0,.15.05.27.14.35s.25.15.47.19l.62.13c.33.06.59.18.78.36s.29.43.29.75c0,.24-.06.45-.19.62-.13.18-.31.32-.54.42-.23.1-.49.15-.79.15-.5,0-.89-.12-1.17-.36Z"/>
        <path class="cls-4" d="M446.5,70.68h.75v.81h-.75v-.81ZM446.54,72.19h.67v3.95h-.67v-3.95Z"/>
        <path class="cls-4" d="M448.42,72.19h.67v.59c.13-.21.3-.37.52-.49.22-.12.48-.18.79-.18.29,0,.54.06.75.17.21.11.37.28.49.49.11.21.17.46.17.75v2.62h-.67v-2.47c0-.22-.03-.4-.09-.55-.06-.15-.15-.26-.28-.34s-.28-.12-.47-.12h-.06c-.22,0-.41.06-.58.17-.17.11-.31.27-.4.47s-.15.43-.15.69v2.13h-.67v-3.95Z"/>
        <path class="cls-4" d="M453.55,77.73c-.27-.1-.47-.25-.62-.43-.15-.18-.23-.39-.26-.63h.67c.04.21.16.36.36.47.2.11.45.17.75.17h.08c.36,0,.65-.1.87-.31.22-.21.33-.52.33-.94v-.58c-.12.2-.28.35-.49.47s-.46.18-.74.18c-.32,0-.61-.08-.88-.23s-.47-.38-.63-.68c-.16-.3-.23-.67-.23-1.1s.08-.8.23-1.11c.16-.31.37-.54.63-.69s.56-.23.88-.23c.29,0,.54.06.76.19s.37.28.47.47v-.58h.67v3.95c0,.33-.08.63-.23.9-.15.27-.37.47-.66.62-.29.15-.63.22-1.02.22-.36,0-.67-.05-.94-.15ZM455.15,75.4c.17-.12.31-.28.42-.5.1-.22.15-.47.15-.76s-.05-.55-.15-.77-.23-.39-.4-.51c-.17-.12-.35-.18-.55-.18h-.07c-.21,0-.4.05-.57.16-.17.11-.3.27-.4.49s-.15.49-.15.81c0,.47.1.83.3,1.07.2.24.47.36.79.36h.06c.21,0,.4-.06.57-.17Z"/>
        <path class="cls-4" d="M459.95,72.77h-.89v-.58h.89v-.79c0-.27.07-.47.2-.6.13-.13.34-.19.6-.19h1.07v.58h-.89c-.12,0-.2.02-.25.07-.05.04-.07.13-.07.25v.68h1v.58h-1v3.38h-.67v-3.38Z"/>
        <path class="cls-4" d="M462.41,72.19h.63v.88c.08-.29.23-.52.44-.68s.46-.24.73-.24h.36v.64h-.32c-.36,0-.65.12-.86.37-.21.25-.31.58-.31,1.01v1.98h-.67v-3.95Z"/>
        <path class="cls-4" d="M465.86,75.97c-.29-.17-.51-.42-.67-.73-.16-.31-.25-.67-.25-1.07s.08-.76.25-1.07c.16-.31.39-.55.67-.73.28-.17.6-.26.95-.26s.67.09.96.26c.29.17.51.42.67.73.16.31.25.67.25,1.07s-.08.76-.25,1.07c-.16.31-.39.55-.67.73-.28.17-.6.26-.96.26s-.66-.09-.95-.26ZM467.44,75.48c.18-.12.32-.29.42-.51.1-.22.15-.49.15-.79s-.05-.57-.15-.79c-.1-.22-.24-.4-.42-.51-.18-.12-.38-.18-.6-.18h-.07c-.22,0-.42.06-.6.18-.18.12-.32.29-.42.51-.1.22-.15.49-.15.79s.05.57.15.79c.1.22.24.4.42.51.18.12.38.18.6.18h.07c.22,0,.42-.06.6-.18Z"/>
        <path class="cls-4" d="M469.66,72.19h.67v.58c.13-.19.29-.35.5-.47.21-.12.45-.18.72-.18.29,0,.55.06.77.19.22.13.39.32.51.57.14-.26.33-.46.57-.58.23-.12.49-.19.77-.19s.54.06.75.17c.21.11.37.28.48.49.11.21.17.46.17.75v2.62h-.67v-2.47c0-.33-.07-.58-.21-.74-.14-.17-.35-.25-.63-.25h-.06c-.2,0-.37.06-.53.17-.16.11-.29.27-.38.47-.1.2-.14.43-.14.69v2.13h-.67v-2.47c0-.33-.07-.58-.2-.74-.13-.17-.34-.25-.63-.25h-.06c-.19,0-.37.06-.53.17-.16.11-.29.27-.38.47s-.14.43-.14.69v2.13h-.67v-3.95Z"/>
        <path class="cls-4" d="M479.17,75.94c-.14-.14-.21-.34-.21-.6v-2.56h-.89v-.58h.89v-1.28h.67v1.28h.96v.58h-.96v2.47c0,.12.02.2.07.25.05.05.13.07.25.07h.77v.59h-.93c-.27,0-.47-.07-.62-.21Z"/>
        <path class="cls-4" d="M481.52,70.61h.67v2.17c.13-.21.31-.38.53-.49.22-.12.48-.18.79-.18s.55.06.76.17c.21.12.37.28.48.49.11.21.16.46.16.74v2.63h-.67v-2.47c0-.21-.03-.39-.09-.54s-.15-.26-.28-.34-.28-.12-.47-.12h-.07c-.2,0-.38.05-.55.15-.17.1-.31.25-.42.44s-.16.42-.16.68v2.19h-.67v-5.54Z"/>
        <path class="cls-4" d="M486.75,75.99c-.28-.16-.5-.39-.66-.7-.16-.31-.25-.69-.25-1.13s.08-.81.25-1.12c.17-.31.39-.54.67-.7.28-.16.57-.23.89-.23.33,0,.62.07.87.22.25.15.44.35.58.62.13.27.2.57.2.91v.4h-2.79c.01.31.07.56.18.77.11.21.25.36.43.47.17.1.35.15.54.15h.06c.23,0,.42-.06.58-.17.16-.11.27-.28.32-.5h.67c-.07.39-.26.69-.56.91s-.65.32-1.07.32c-.34,0-.64-.08-.92-.23ZM488.35,72.95c-.17-.18-.4-.27-.66-.27h-.06c-.25,0-.48.08-.68.25-.2.17-.33.43-.4.79h2.09c-.02-.33-.11-.59-.28-.77Z"/>
        <path class="cls-4" d="M493.45,76.04c-.25-.12-.42-.28-.53-.47v.58h-.67v-5.54h.67v2.16c.11-.19.27-.35.51-.47.23-.12.48-.19.75-.19.33,0,.63.08.91.25s.48.4.64.71.23.67.23,1.1-.07.79-.22,1.09-.35.55-.61.71-.56.25-.89.25c-.27,0-.53-.06-.77-.19ZM494.73,75.48c.17-.12.3-.29.4-.52.1-.22.14-.49.14-.79,0-.46-.1-.82-.31-1.09-.21-.27-.48-.4-.83-.4h-.06c-.22,0-.42.06-.6.18-.18.12-.31.29-.42.52-.1.22-.15.49-.15.79s.05.56.15.79c.1.22.24.4.42.52s.38.18.6.18h.06c.23,0,.43-.06.6-.18Z"/>
        <path class="cls-4" d="M497.6,75.97c-.28-.17-.51-.42-.67-.73-.16-.31-.25-.67-.25-1.07s.08-.76.25-1.07c.16-.31.39-.55.67-.73.28-.17.6-.26.95-.26s.67.09.96.26c.28.17.51.42.67.73.16.31.25.67.25,1.07s-.08.76-.25,1.07c-.16.31-.39.55-.67.73s-.6.26-.96.26-.66-.09-.95-.26ZM499.19,75.48c.18-.12.31-.29.42-.51.1-.22.15-.49.15-.79s-.05-.57-.15-.79c-.1-.22-.24-.4-.42-.51-.18-.12-.38-.18-.6-.18h-.07c-.22,0-.42.06-.6.18-.18.12-.31.29-.42.51-.1.22-.15.49-.15.79s.05.57.15.79c.1.22.24.4.42.51.18.12.38.18.6.18h.07c.22,0,.42-.06.6-.18Z"/>
        <path class="cls-4" d="M501.99,75.98c-.26-.17-.46-.4-.61-.71s-.22-.67-.22-1.09.08-.79.23-1.1c.16-.31.37-.55.64-.71.27-.17.57-.25.91-.25.26,0,.51.06.75.19s.4.28.51.47v-2.16h.67v5.54h-.67v-.58c-.11.19-.28.35-.53.47-.25.12-.51.19-.78.19-.34,0-.64-.08-.89-.25ZM503.62,75.48c.18-.12.32-.29.42-.52.1-.22.15-.49.15-.79s-.05-.56-.15-.79c-.1-.22-.24-.4-.42-.52-.18-.12-.38-.18-.6-.18h-.06c-.23,0-.42.06-.59.18-.17.12-.3.29-.4.52-.09.22-.14.49-.14.79,0,.46.1.82.31,1.09.21.27.48.4.82.4h.06c.22,0,.42-.06.6-.18Z"/>
        <path class="cls-4" d="M505.55,72.19h.72l1.47,3.24-.25,1-1.94-4.25ZM505.76,76.94h.79c.14,0,.25-.03.32-.09.07-.06.14-.17.21-.34l1.71-4.32h.7l-1.87,4.66c-.11.26-.23.44-.37.53-.14.1-.34.15-.59.15h-.9v-.59Z"/>
        <path class="cls-4" d="M509.78,75.25h.9v.89h-.9v-.89Z"/>
      </g>
      <g class="cls-5">
        <rect class="cls-2" y="154.14" width="381.43" height="192.83"/>
      </g>
    </g>
  </g>
</svg>