<?xml version="1.0" encoding="UTF-8"?>
<svg id="Layer_2" data-name="Layer 2" xmlns="http://www.w3.org/2000/svg" viewBox="0 0 150.64 154.2">
  <defs>
    <style>
      .cls-1 {
        fill: #fa4803;
      }

      .cls-2 {
        fill: #ffc9ef;
      }

      .cls-3 {
        stroke-width: 1.63px;
      }

      .cls-3, .cls-4, .cls-5, .cls-6, .cls-7, .cls-8, .cls-9 {
        stroke: #000;
      }

      .cls-3, .cls-4, .cls-5, .cls-6, .cls-7, .cls-8, .cls-9, .cls-10 {
        fill: none;
        stroke-miterlimit: 10;
      }

      .cls-4 {
        stroke-width: 1.36px;
      }

      .cls-11 {
        fill: #fff;
      }

      .cls-5 {
        stroke-width: .41px;
      }

      .cls-6 {
        stroke-width: .44px;
      }

      .cls-7 {
        stroke-width: .44px;
      }

      .cls-8 {
        stroke-width: .47px;
      }

      .cls-9 {
        stroke-width: .82px;
      }

      .cls-10 {
        stroke: #ffc9ef;
        stroke-width: .15px;
      }
    </style>
  </defs>
  <g id="Layer_1-2" data-name="Layer 1">
    <g>
      <rect class="cls-1" y="0" width="150.64" height="154.2" transform="translate(150.64 154.2) rotate(180)"/>
      <g>
        <rect class="cls-11" x="18.68" y="95.92" width="111.01" height="32.07"/>
        <g>
          <line class="cls-9" x1="37.26" y1="98.41" x2="37.26" y2="119.82"/>
          <line class="cls-5" x1="38.94" y1="98.41" x2="38.94" y2="119.82"/>
          <line class="cls-5" x1="40.92" y1="98.41" x2="40.92" y2="119.82"/>
          <line class="cls-6" x1="35.78" y1="98.41" x2="35.78" y2="123.5"/>
          <line class="cls-6" x1="34.69" y1="98.41" x2="34.69" y2="123.5"/>
          <line class="cls-6" x1="113.07" y1="98.41" x2="113.07" y2="123.5"/>
          <line class="cls-6" x1="111.98" y1="98.41" x2="111.98" y2="123.5"/>
          <line class="cls-5" x1="43.88" y1="98.41" x2="43.88" y2="119.82"/>
          <line class="cls-5" x1="46.28" y1="98.41" x2="46.28" y2="119.82"/>
          <line class="cls-9" x1="48.93" y1="98.41" x2="48.93" y2="119.82"/>
          <line class="cls-5" x1="50.47" y1="98.41" x2="50.47" y2="119.82"/>
          <line class="cls-4" x1="53.43" y1="98.41" x2="53.43" y2="119.82"/>
          <line class="cls-9" x1="55.53" y1="98.41" x2="55.53" y2="119.82"/>
          <line class="cls-5" x1="57.26" y1="98.41" x2="57.26" y2="119.82"/>
          <line class="cls-9" x1="58.61" y1="98.41" x2="58.61" y2="119.82"/>
          <line class="cls-5" x1="61.26" y1="98.41" x2="61.26" y2="119.82"/>
          <line class="cls-5" x1="63.79" y1="98.41" x2="63.79" y2="119.82"/>
          <line class="cls-9" x1="66.44" y1="98.41" x2="66.44" y2="119.82"/>
          <line class="cls-5" x1="67.86" y1="98.41" x2="67.86" y2="119.82"/>
          <line class="cls-9" x1="70.58" y1="98.41" x2="70.58" y2="119.82"/>
          <line class="cls-9" x1="72.39" y1="98.36" x2="72.39" y2="119.77"/>
          <line class="cls-8" x1="74.47" y1="98.36" x2="74.47" y2="123.5"/>
          <line class="cls-7" x1="75.7" y1="98.36" x2="75.7" y2="123.5"/>
          <line class="cls-5" x1="76.93" y1="98.36" x2="76.93" y2="119.77"/>
          <line class="cls-4" x1="79.27" y1="98.36" x2="79.27" y2="119.77"/>
          <line class="cls-9" x1="82.17" y1="98.36" x2="82.17" y2="119.77"/>
          <line class="cls-9" x1="83.89" y1="98.36" x2="83.89" y2="119.77"/>
          <line class="cls-4" x1="86.67" y1="98.36" x2="86.67" y2="119.77"/>
          <line class="cls-5" x1="88.87" y1="98.36" x2="88.87" y2="119.77"/>
          <line class="cls-4" x1="90.92" y1="98.36" x2="90.92" y2="119.77"/>
          <line class="cls-5" x1="92.53" y1="98.36" x2="92.53" y2="119.77"/>
          <line class="cls-9" x1="94.75" y1="98.36" x2="94.75" y2="119.77"/>
          <line class="cls-5" x1="97.03" y1="98.36" x2="97.03" y2="119.77"/>
          <line class="cls-3" x1="99.62" y1="98.36" x2="99.62" y2="119.77"/>
          <line class="cls-5" x1="102.27" y1="98.36" x2="102.27" y2="119.77"/>
          <line class="cls-9" x1="103.81" y1="98.36" x2="103.81" y2="119.77"/>
          <line class="cls-4" x1="107.08" y1="98.36" x2="107.08" y2="119.77"/>
          <line class="cls-5" x1="108.87" y1="98.36" x2="108.87" y2="119.77"/>
          <line class="cls-9" x1="110.41" y1="98.36" x2="110.41" y2="119.77"/>
        </g>
        <g>
          <path d="M28.45,123.98h.53c0,.44.31.73.74.73s.71-.24.71-.59c0-.4-.37-.6-.83-.6h-.18v-.44h.2c.41,0,.66-.26.66-.56s-.23-.5-.56-.5c-.4,0-.68.24-.7.69h-.53c.03-.75.58-1.13,1.23-1.13s1.1.36,1.1.9c0,.37-.25.7-.61.8.44.07.77.4.77.85,0,.61-.49,1.04-1.25,1.04-.69,0-1.27-.42-1.26-1.19Z"/>
          <path d="M38.28,123.98h.53c0,.44.31.73.74.73s.71-.24.71-.59c0-.4-.37-.6-.83-.6h-.18v-.44h.2c.41,0,.66-.26.66-.56s-.23-.5-.56-.5c-.4,0-.68.24-.7.69h-.53c.03-.75.58-1.13,1.23-1.13s1.1.36,1.1.9c0,.37-.25.7-.61.8.44.07.77.4.77.85,0,.61-.49,1.04-1.25,1.04-.69,0-1.27-.42-1.26-1.19Z"/>
          <path d="M44.88,124.27h-1.72v-.37l1.53-2.27h.73v2.19h.59v.45h-.59v.83h-.54v-.83ZM44.88,123.83v-1.76s-.38.61-.38.61l-.79,1.15h1.16Z"/>
          <path d="M50.94,123.96c0,.71-.5,1.21-1.25,1.21-.81,0-1.31-.63-1.31-1.66,0-1.11.55-1.92,1.43-1.92.7,0,1.03.49,1.08.91h-.54c-.05-.29-.25-.46-.56-.46-.5,0-.8.5-.84,1.25.19-.29.49-.44.87-.44.62,0,1.13.42,1.13,1.13ZM49.69,124.72c.41,0,.7-.31.7-.74s-.28-.71-.69-.71c-.36,0-.63.2-.77.51.06.57.33.93.75.93Z"/>
          <path d="M55.37,122.62c0-.36-.23-.6-.63-.6-.42,0-.72.27-.74.73h-.53c.04-.75.56-1.18,1.28-1.18s1.17.41,1.17,1.02c0,.66-.46,1.24-1.67,2.06h1.67v.45h-2.45v-.38c1.37-1.02,1.9-1.62,1.9-2.11Z"/>
          <path d="M58.58,124.66h1.16v-1.7l.02-.71-.56.46-.62.5v-.62l1.3-.95h.38v3.02h.77v.45h-2.45v-.45Z"/>
          <path d="M63.61,123.98h.53c0,.44.31.73.74.73s.71-.24.71-.59c0-.4-.37-.6-.83-.6h-.18v-.44h.2c.41,0,.66-.26.66-.56s-.23-.5-.56-.5c-.4,0-.68.24-.7.69h-.53c.03-.75.58-1.13,1.23-1.13s1.1.36,1.1.9c0,.37-.25.7-.61.8.44.07.77.4.77.85,0,.61-.49,1.04-1.25,1.04-.69,0-1.27-.42-1.26-1.19Z"/>
          <path d="M68.56,123.37c0-1.1.49-1.79,1.34-1.79s1.34.69,1.34,1.79-.49,1.79-1.34,1.79-1.34-.71-1.34-1.79ZM69.9,124.72c.53,0,.79-.5.79-1.35s-.26-1.35-.79-1.35-.79.49-.79,1.35.27,1.35.79,1.35Z"/>
          <path d="M79.88,123.37c0-1.1.49-1.79,1.34-1.79s1.34.69,1.34,1.79-.49,1.79-1.34,1.79-1.34-.71-1.34-1.79ZM81.22,124.72c.53,0,.79-.5.79-1.35s-.26-1.35-.79-1.35-.79.49-.79,1.35.27,1.35.79,1.35Z"/>
          <path d="M84.94,123.37c0-1.1.49-1.79,1.34-1.79s1.34.69,1.34,1.79-.49,1.79-1.34,1.79-1.34-.71-1.34-1.79ZM86.28,124.72c.53,0,.79-.5.79-1.35s-.26-1.35-.79-1.35-.79.49-.79,1.35.27,1.35.79,1.35Z"/>
          <path d="M90.05,122.78c0-.71.5-1.21,1.25-1.21.8,0,1.31.63,1.31,1.67,0,1.11-.55,1.92-1.43,1.92-.7,0-1.03-.49-1.08-.91h.54c.05.29.25.46.56.46.5,0,.8-.5.84-1.25-.19.29-.49.44-.87.44-.62,0-1.13-.42-1.13-1.13ZM91.29,123.47c.36,0,.63-.2.77-.51-.06-.57-.33-.93-.75-.93s-.7.31-.7.74.28.71.69.71Z"/>
          <path d="M97.7,123.96c0,.71-.5,1.21-1.25,1.21-.81,0-1.31-.63-1.31-1.66,0-1.11.55-1.92,1.43-1.92.7,0,1.03.49,1.08.91h-.54c-.05-.29-.25-.46-.56-.46-.5,0-.8.5-.84,1.25.19-.29.49-.44.87-.44.62,0,1.13.42,1.13,1.13ZM96.45,124.72c.41,0,.7-.31.7-.74s-.28-.71-.69-.71c-.36,0-.63.2-.77.51.06.57.33.93.75.93Z"/>
          <path d="M100.14,123.37c0-1.1.49-1.79,1.34-1.79s1.34.69,1.34,1.79-.49,1.79-1.34,1.79-1.34-.71-1.34-1.79ZM101.47,124.72c.53,0,.79-.5.79-1.35s-.26-1.35-.79-1.35-.79.49-.79,1.35.27,1.35.79,1.35Z"/>
          <path d="M105.31,123.98h.53c0,.44.31.73.74.73s.71-.24.71-.59c0-.4-.37-.6-.83-.6h-.18v-.44h.2c.41,0,.66-.26.66-.56s-.23-.5-.56-.5c-.4,0-.68.24-.7.69h-.53c.03-.75.58-1.13,1.23-1.13s1.1.36,1.1.9c0,.37-.25.7-.61.8.44.07.77.4.77.85,0,.61-.49,1.04-1.25,1.04-.69,0-1.27-.42-1.26-1.19Z"/>
          <path d="M115.17,124.28l1.97-.72-1.97-.71v-.47l2.56.96v.44l-2.56.97v-.47Z"/>
        </g>
      </g>
      <g>
        <path class="cls-2" d="M22.75,43.44c-.15-.1-.26-.25-.34-.44-.08-.19-.12-.42-.12-.68s.05-.52.14-.74c.1-.22.23-.39.39-.51.17-.12.35-.18.55-.18.15,0,.28.03.4.08.12.05.21.13.29.23.07.1.12.22.15.36h-.33c-.03-.11-.09-.2-.17-.27-.08-.07-.19-.1-.31-.1h-.04c-.15,0-.28.05-.4.15-.12.1-.21.24-.28.43-.07.18-.1.39-.11.63l-.03-.03c.05-.17.15-.3.29-.39s.3-.14.47-.14c.16,0,.3.04.43.11s.23.17.3.3c.07.13.11.28.11.45,0,.18-.04.34-.12.47-.08.14-.19.24-.32.32-.14.08-.29.11-.46.11-.2,0-.37-.05-.51-.15ZM23.56,43.22c.08-.05.15-.12.2-.21s.07-.19.07-.3-.02-.21-.07-.3-.11-.16-.2-.21c-.08-.05-.18-.08-.28-.08h-.04c-.1,0-.19.03-.28.08-.09.05-.16.12-.21.21s-.08.19-.08.3.03.21.08.3c.05.09.12.16.21.21.09.05.18.08.28.08h.04c.1,0,.19-.03.28-.08Z"/>
        <path class="cls-2" d="M25.31,43.5c-.12-.06-.22-.14-.29-.25s-.1-.23-.1-.36c0-.1.02-.19.06-.28.04-.08.09-.15.16-.21.07-.06.14-.1.23-.14-.14-.04-.25-.11-.35-.23s-.15-.26-.15-.41c0-.15.04-.27.11-.39.07-.11.17-.2.31-.26s.28-.09.45-.09.32.03.45.09c.13.06.23.15.31.26.07.11.11.24.11.39,0,.1-.02.2-.07.29s-.11.17-.18.23c-.08.06-.16.1-.24.13.13.05.23.13.32.24.08.11.13.24.13.39,0,.13-.03.25-.1.36s-.16.19-.29.25c-.12.06-.26.09-.42.09s-.3-.03-.42-.09ZM26.01,42.05c.08-.04.14-.1.19-.17s.07-.15.07-.24c0-.13-.05-.25-.15-.33-.1-.09-.22-.13-.37-.13h-.04c-.15,0-.27.04-.37.13-.1.09-.14.2-.14.33,0,.09.02.17.07.24.05.07.11.13.19.17.08.04.17.06.26.06h.04c.1,0,.18-.02.26-.06ZM26.09,43.17c.09-.08.13-.19.13-.31,0-.08-.02-.16-.06-.23-.04-.07-.1-.12-.17-.16s-.15-.06-.24-.06h-.04c-.09,0-.17.02-.24.06s-.13.09-.17.16c-.04.07-.06.14-.06.23,0,.13.04.23.13.31.09.08.2.12.33.12h.04c.14,0,.25-.04.33-.12Z"/>
        <path class="cls-2" d="M27.42,40.92h1.13c.14,0,.26.03.38.08.11.06.2.14.27.24.06.1.1.23.1.37s-.04.27-.12.38-.18.18-.31.23c.14.03.26.09.35.2s.14.25.14.42c0,.14-.03.27-.1.38-.07.11-.16.19-.28.25-.12.06-.25.09-.38.09h-1.16v-2.63ZM28.83,41.95c.08-.07.12-.18.12-.31s-.04-.23-.12-.31c-.08-.07-.19-.11-.33-.11h-.75v.83h.75c.14,0,.24-.04.33-.11ZM28.87,43.13c.09-.08.14-.18.14-.32s-.05-.24-.14-.32c-.09-.08-.21-.12-.36-.12h-.76v.87h.76c.15,0,.27-.04.36-.12Z"/>
        <path class="cls-2" d="M31.79,43.42c-.19-.11-.33-.27-.44-.47-.1-.2-.16-.44-.16-.72s.05-.52.16-.72c.11-.2.25-.36.44-.47.19-.11.4-.16.63-.16s.44.05.63.16c.19.11.33.27.44.47.1.2.16.44.16.72s-.05.51-.16.72c-.11.2-.25.36-.44.47-.19.11-.4.16-.63.16s-.45-.05-.63-.16ZM32.89,43.15c.13-.08.23-.2.31-.36s.11-.34.11-.56-.04-.4-.11-.56c-.08-.16-.18-.28-.31-.36s-.28-.13-.45-.13h-.04c-.17,0-.32.04-.45.13-.13.08-.23.2-.31.36-.07.16-.11.34-.11.56s.04.4.11.56c.07.16.18.28.31.36.13.08.28.13.45.13h.04c.17,0,.32-.04.45-.13Z"/>
        <path class="cls-2" d="M34.45,40.92h.57l.87,2.45h-.08s.86-2.45.86-2.45h.56v2.63h-.34v-2.46h.04s-.86,2.46-.86,2.46h-.44l-.88-2.45h.04s0,2.45,0,2.45h-.34v-2.63Z"/>
        <path class="cls-2" d="M38.18,40.92h.57l.87,2.45h-.08s.86-2.45.86-2.45h.56v2.63h-.34v-2.46h.04s-.86,2.46-.86,2.46h-.44l-.88-2.45h.04s0,2.45,0,2.45h-.34v-2.63Z"/>
        <path class="cls-2" d="M42.64,40.92h.43l1.05,2.63h-.35l-.96-2.42h.08l-.95,2.42h-.35l1.06-2.63ZM42.14,42.55h1.42v.31h-1.42v-.31Z"/>
        <path class="cls-2" d="M44.76,40.92h.47l1.36,2.3-.06.02v-2.32h.34v2.63h-.46l-1.36-2.3h.06s0,2.3,0,2.3h-.34v-2.63Z"/>
        <path class="cls-2" d="M47.81,40.92h1.89v.31h-1.55v.82h1.33v.31h-1.33v.89h1.59v.31h-1.93v-2.63Z"/>
        <path class="cls-2" d="M51.14,42.46l-.95-1.54h.39l.73,1.21.73-1.21h.38l-.95,1.54v1.09h-.34v-1.09Z"/>
        <path class="cls-2" d="M22.43,44.9h1.11c.16,0,.3.03.42.09s.22.15.29.25c.07.11.1.23.1.36,0,.16-.04.3-.12.42-.08.12-.18.2-.3.24.14,0,.24.03.3.08.06.06.09.15.09.28v.9h-.34v-.84c0-.09-.02-.15-.05-.18-.03-.03-.09-.05-.18-.05h-.98v1.07h-.34v-2.63ZM23.77,46.09c.08-.04.14-.1.19-.17s.07-.16.07-.26c0-.14-.05-.26-.14-.33-.09-.08-.22-.12-.39-.12h-.72v.94h.72c.1,0,.19-.02.28-.06Z"/>
        <path class="cls-2" d="M25.68,47.41c-.19-.11-.33-.27-.44-.47-.1-.2-.16-.44-.16-.72s.05-.52.16-.72c.11-.2.25-.36.44-.47.19-.11.4-.16.63-.16s.44.05.63.16c.19.11.33.27.44.47.1.2.16.44.16.72s-.05.51-.16.72c-.11.2-.25.36-.44.47-.19.11-.4.16-.63.16s-.45-.05-.63-.16ZM26.78,47.14c.13-.08.23-.2.31-.36s.11-.34.11-.56-.04-.4-.11-.56c-.08-.16-.18-.28-.31-.36s-.28-.13-.45-.13h-.04c-.17,0-.32.04-.45.13-.13.08-.23.2-.31.36-.07.16-.11.34-.11.56s.04.4.11.56c.07.16.18.28.31.36.13.08.28.13.45.13h.04c.17,0,.32-.04.45-.13Z"/>
        <path class="cls-2" d="M29.01,44.9h.43l1.05,2.63h-.35l-.96-2.42h.08l-.95,2.42h-.35l1.06-2.63ZM28.51,46.53h1.42v.31h-1.42v-.31Z"/>
        <path class="cls-2" d="M31.13,44.9h.93c.24,0,.45.05.63.16s.32.26.42.45c.1.2.15.43.15.71s-.05.5-.15.7-.24.35-.42.45c-.18.11-.39.16-.63.16h-.93v-2.63ZM32.51,47.11c.14-.08.24-.19.31-.34.07-.15.11-.33.11-.55,0-.33-.08-.58-.24-.75s-.38-.26-.67-.26h-.55v2.01h.55c.19,0,.36-.04.49-.12Z"/>
        <path class="cls-2" d="M33.75,47.81h.12c.08,0,.13-.02.17-.06.04-.04.06-.09.06-.17v-.06h-.22v-.42h.42v.5c0,.09-.02.17-.05.23-.03.06-.08.11-.14.14-.06.03-.14.05-.23.05h-.14v-.21Z"/>
        <path class="cls-2" d="M36.36,44.9h.34v2.32h1.55v.31h-1.89v-2.63Z"/>
        <path class="cls-2" d="M39.19,47.41c-.19-.11-.33-.27-.44-.47-.1-.2-.16-.44-.16-.72s.05-.52.16-.72c.11-.2.25-.36.44-.47.19-.11.4-.16.63-.16s.44.05.63.16c.19.11.33.27.44.47.1.2.16.44.16.72s-.05.51-.16.72c-.11.2-.25.36-.44.47-.19.11-.4.16-.63.16s-.45-.05-.63-.16ZM40.29,47.14c.13-.08.23-.2.31-.36s.11-.34.11-.56-.04-.4-.11-.56c-.08-.16-.18-.28-.31-.36s-.28-.13-.45-.13h-.04c-.17,0-.32.04-.45.13-.13.08-.23.2-.31.36-.07.16-.11.34-.11.56s.04.4.11.56c.07.16.18.28.31.36.13.08.28.13.45.13h.04c.17,0,.32-.04.45-.13Z"/>
        <path class="cls-2" d="M41.85,44.9h.47l1.36,2.3-.06.02v-2.32h.34v2.63h-.46l-1.36-2.3h.06s0,2.3,0,2.3h-.34v-2.63Z"/>
        <path class="cls-2" d="M44.9,44.9h.93c.24,0,.45.05.63.16s.32.26.42.45c.1.2.15.43.15.71s-.05.5-.15.7-.24.35-.42.45c-.18.11-.39.16-.63.16h-.93v-2.63ZM46.29,47.11c.14-.08.24-.19.31-.34.07-.15.11-.33.11-.55,0-.33-.08-.58-.24-.75s-.38-.26-.67-.26h-.55v2.01h.55c.19,0,.36-.04.49-.12Z"/>
        <path class="cls-2" d="M48.28,47.41c-.19-.11-.33-.27-.44-.47-.1-.2-.16-.44-.16-.72s.05-.52.16-.72c.11-.2.25-.36.44-.47.19-.11.4-.16.63-.16s.44.05.63.16c.19.11.33.27.44.47.1.2.16.44.16.72s-.05.51-.16.72c-.11.2-.25.36-.44.47-.19.11-.4.16-.63.16s-.45-.05-.63-.16ZM49.38,47.14c.13-.08.23-.2.31-.36s.11-.34.11-.56-.04-.4-.11-.56c-.08-.16-.18-.28-.31-.36s-.28-.13-.45-.13h-.04c-.17,0-.32.04-.45.13-.13.08-.23.2-.31.36-.07.16-.11.34-.11.56s.04.4.11.56c.07.16.18.28.31.36.13.08.28.13.45.13h.04c.17,0,.32-.04.45-.13Z"/>
        <path class="cls-2" d="M50.94,44.9h.47l1.36,2.3-.06.02v-2.32h.34v2.63h-.46l-1.36-2.3h.06s0,2.3,0,2.3h-.34v-2.63Z"/>
        <path class="cls-2" d="M22.71,51.45c-.15-.07-.27-.17-.35-.3-.08-.13-.13-.29-.13-.48h.34c0,.18.06.32.19.42s.3.15.51.15h.04c.18,0,.32-.04.42-.12.1-.08.15-.18.15-.3,0-.11-.04-.2-.11-.27-.07-.07-.18-.12-.33-.15l-.42-.09c-.21-.04-.38-.13-.49-.24-.11-.12-.17-.28-.17-.48,0-.14.04-.26.12-.38.08-.11.19-.21.33-.27.14-.07.3-.1.49-.1s.36.03.5.1.25.16.33.29c.08.12.12.27.13.43h-.34c-.01-.16-.07-.28-.18-.37-.11-.09-.25-.14-.42-.14h-.04c-.11,0-.21.02-.3.06-.09.04-.15.09-.2.16-.05.07-.07.14-.07.22,0,.1.03.19.1.25.07.07.16.11.29.14l.42.08c.23.04.4.13.52.25s.18.29.18.49c0,.15-.04.29-.12.4-.08.11-.19.2-.33.26-.14.06-.31.09-.5.09-.21,0-.39-.03-.54-.1Z"/>
        <path class="cls-2" d="M25.03,48.88h1.89v.31h-1.55v.82h1.33v.31h-1.33v.89h1.59v.31h-1.93v-2.63Z"/>
        <path class="cls-2" d="M28.12,49.23l.08.05-.69.67v-.4l.68-.66h.25v2.63h-.32v-2.28Z"/>
        <path class="cls-2" d="M30.47,50.91h-1.3v-.33l1.29-1.69h.33v1.73h.42v.29h-.42v.61h-.32v-.61ZM30.47,50.61v-1.29l-.98,1.29h.98Z"/>
        <path class="cls-2" d="M33.39,51.47c-.13-.06-.24-.14-.33-.25-.08-.11-.13-.24-.14-.39h.33c.02.14.08.24.18.32.1.08.23.11.38.11h.04c.11,0,.2-.02.29-.07.08-.05.15-.12.2-.21.05-.09.07-.18.07-.29,0-.15-.05-.28-.15-.38-.1-.1-.23-.15-.38-.15h-.04c-.1,0-.19.02-.28.07-.09.05-.17.11-.22.2h-.33l.32-1.55h1.38v.31h-1.13l-.19.88c.07-.07.15-.12.24-.15s.19-.05.29-.05c.16,0,.3.04.42.11.12.07.22.17.29.29.07.12.1.26.1.41,0,.17-.04.32-.12.46-.08.13-.19.24-.33.31s-.29.11-.46.11-.31-.03-.45-.08Z"/>
        <path class="cls-2" d="M35.55,48.88h.47l1.36,2.3-.06.02v-2.32h.34v2.63h-.46l-1.36-2.3h.06s0,2.3,0,2.3h-.34v-2.63Z"/>
        <path class="cls-2" d="M39.26,49.19h-.95v-.31h2.23v.31h-.95v2.32h-.34v-2.32Z"/>
      </g>
      <g>
        <path class="cls-2" d="M22.43,58.96h.57l.87,2.45h-.08s.86-2.45.86-2.45h.56v2.63h-.34v-2.46h.04s-.86,2.46-.86,2.46h-.44l-.88-2.45h.04s0,2.45,0,2.45h-.34v-2.63Z"/>
        <path class="cls-2" d="M26.9,58.96h.43l1.05,2.63h-.35l-.96-2.42h.08l-.95,2.42h-.35l1.06-2.63ZM26.39,60.59h1.42v.31h-1.42v-.31Z"/>
        <path class="cls-2" d="M29.01,58.96h.93c.24,0,.45.05.63.16s.32.26.42.45c.1.2.15.43.15.71s-.05.5-.15.7-.24.35-.42.45c-.18.11-.39.16-.63.16h-.93v-2.63ZM30.39,61.17c.14-.08.24-.19.31-.34.07-.15.11-.33.11-.55,0-.33-.08-.58-.24-.75s-.38-.26-.67-.26h-.55v2.01h.55c.19,0,.36-.04.49-.12Z"/>
        <path class="cls-2" d="M31.95,58.96h1.89v.31h-1.55v.82h1.33v.31h-1.33v.89h1.59v.31h-1.93v-2.63Z"/>
        <path class="cls-2" d="M35.84,58.96h.34v2.63h-.34v-2.63Z"/>
        <path class="cls-2" d="M37.13,58.96h.47l1.36,2.3-.06.02v-2.32h.34v2.63h-.46l-1.36-2.3h.06s0,2.3,0,2.3h-.34v-2.63Z"/>
        <path class="cls-2" d="M23.17,62.95h.43l1.05,2.63h-.35l-.96-2.42h.08l-.95,2.42h-.35l1.06-2.63ZM22.66,64.58h1.42v.31h-1.42v-.31Z"/>
        <path class="cls-2" d="M25.64,65.49c-.15-.08-.26-.19-.33-.34s-.11-.32-.11-.52v-1.69h.34v1.65c0,.23.05.4.16.52.11.12.26.18.47.18h.04c.2,0,.36-.06.46-.18.11-.12.16-.3.16-.52v-1.65h.34v1.69c0,.3-.08.54-.25.71-.17.18-.41.26-.73.26-.22,0-.4-.04-.54-.12Z"/>
        <path class="cls-2" d="M28.38,65.51c-.15-.07-.27-.17-.35-.3-.08-.13-.13-.29-.13-.48h.34c0,.18.06.32.19.42s.3.15.51.15h.04c.18,0,.32-.04.42-.12.1-.08.15-.18.15-.3,0-.11-.04-.2-.11-.27-.07-.07-.18-.12-.33-.15l-.42-.09c-.21-.04-.38-.13-.49-.24-.11-.12-.17-.28-.17-.48,0-.14.04-.26.12-.38.08-.11.19-.21.33-.27.14-.07.3-.1.49-.1s.36.03.5.1.25.16.33.29c.08.12.12.27.13.43h-.34c-.01-.16-.07-.28-.18-.37-.11-.09-.25-.14-.42-.14h-.04c-.11,0-.21.02-.3.06-.09.04-.15.09-.2.16-.05.07-.07.14-.07.22,0,.1.03.19.1.25.07.07.16.11.29.14l.42.08c.23.04.4.13.52.25s.18.29.18.49c0,.15-.04.29-.12.4-.08.11-.19.2-.33.26-.14.06-.31.09-.5.09-.21,0-.39-.03-.54-.1Z"/>
        <path class="cls-2" d="M31.28,63.25h-.95v-.31h2.23v.31h-.95v2.32h-.34v-2.32Z"/>
        <path class="cls-2" d="M33.23,62.95h1.11c.16,0,.3.03.42.09s.22.15.29.25c.07.11.1.23.1.36,0,.16-.04.3-.12.42-.08.12-.18.2-.3.24.14,0,.24.03.3.08.06.06.09.15.09.28v.9h-.34v-.84c0-.09-.02-.15-.05-.18-.03-.03-.09-.05-.18-.05h-.98v1.07h-.34v-2.63ZM34.57,64.13c.08-.04.14-.1.19-.17s.07-.16.07-.26c0-.14-.05-.26-.14-.33-.09-.08-.22-.12-.39-.12h-.72v.94h.72c.1,0,.19-.02.28-.06Z"/>
        <path class="cls-2" d="M36.78,62.95h.43l1.05,2.63h-.35l-.96-2.42h.08l-.95,2.42h-.35l1.06-2.63ZM36.28,64.58h1.42v.31h-1.42v-.31Z"/>
        <path class="cls-2" d="M38.89,62.95h.34v2.32h1.55v.31h-1.89v-2.63Z"/>
        <path class="cls-2" d="M41.46,62.95h.34v2.63h-.34v-2.63Z"/>
        <path class="cls-2" d="M43.49,62.95h.43l1.05,2.63h-.35l-.96-2.42h.08l-.95,2.42h-.35l1.06-2.63ZM42.99,64.58h1.42v.31h-1.42v-.31Z"/>
      </g>
      <g>
        <rect class="cls-11" x="18.68" y="130.39" width="111.01" height="10.59"/>
        <g>
          <path d="M51.48,135.64c0,1.24-.46,1.93-1.27,1.93-.71,0-1.2-.67-1.21-1.88,0-1.22.53-1.9,1.27-1.9s1.21.69,1.21,1.85ZM49.5,135.7c0,.95.29,1.49.74,1.49.51,0,.75-.59.75-1.52,0-.9-.23-1.49-.74-1.49-.43,0-.75.53-.75,1.52Z"/>
          <path d="M53.4,134.31h-.01l-.63.34-.1-.38.8-.43h.42v3.65h-.48v-3.19Z"/>
          <path d="M59.61,135.64c0,1.24-.46,1.93-1.27,1.93-.71,0-1.2-.67-1.21-1.88,0-1.22.53-1.9,1.27-1.9s1.21.69,1.21,1.85ZM57.63,135.7c0,.95.29,1.49.74,1.49.5,0,.75-.59.75-1.52,0-.9-.23-1.49-.74-1.49-.43,0-.75.53-.75,1.52Z"/>
          <path d="M61.53,134.31h-.01l-.63.34-.1-.38.8-.43h.42v3.65h-.48v-3.19Z"/>
          <path d="M67.74,135.64c0,1.24-.46,1.93-1.27,1.93-.71,0-1.2-.67-1.21-1.88,0-1.22.53-1.9,1.27-1.9s1.21.69,1.21,1.85ZM65.76,135.7c0,.95.29,1.49.74,1.49.51,0,.75-.59.75-1.52,0-.9-.23-1.49-.74-1.49-.43,0-.75.53-.75,1.52Z"/>
          <path d="M68.54,136.58c0-.46.27-.79.72-.98v-.02c-.41-.19-.58-.51-.58-.82,0-.58.49-.97,1.13-.97.71,0,1.06.44,1.06.9,0,.31-.15.64-.6.85v.02c.45.18.73.5.73.94,0,.63-.54,1.06-1.24,1.06-.76,0-1.22-.45-1.22-.99ZM70.51,136.55c0-.44-.31-.66-.8-.8-.43.12-.66.4-.66.75-.02.37.26.7.73.7s.73-.27.73-.65ZM69.15,134.73c0,.36.28.56.7.67.31-.11.56-.33.56-.66,0-.29-.17-.59-.62-.59-.41,0-.63.27-.63.58Z"/>
          <path d="M72.93,134.31h-.01l-.63.34-.1-.38.8-.43h.42v3.65h-.48v-3.19Z"/>
          <path d="M75.25,136.94c.14.09.47.23.81.23.63,0,.83-.4.83-.71,0-.51-.47-.73-.94-.73h-.28v-.37h.28c.36,0,.81-.19.81-.62,0-.29-.19-.55-.64-.55-.29,0-.57.13-.73.24l-.13-.36c.19-.14.56-.28.96-.28.72,0,1.04.43,1.04.87,0,.38-.22.7-.67.86h0c.45.1.81.44.81.95,0,.58-.46,1.09-1.33,1.09-.41,0-.77-.13-.95-.25l.13-.38Z"/>
          <path d="M80.83,135.64c0,1.24-.46,1.93-1.27,1.93-.71,0-1.2-.67-1.21-1.88,0-1.22.53-1.9,1.27-1.9s1.21.69,1.21,1.85ZM78.85,135.7c0,.95.29,1.49.74,1.49.5,0,.75-.59.75-1.52,0-.9-.23-1.49-.74-1.49-.43,0-.75.53-.75,1.52Z"/>
          <path d="M83.21,137.5v-.99h-1.7v-.33l1.63-2.33h.53v2.27s.51,0,.51,0v.39h-.51v.99h-.47ZM83.21,136.12v-1.22c0-.19,0-.38.02-.57h-.02c-.11.21-.2.37-.3.54l-.89,1.24h0s1.2.01,1.2.01Z"/>
        </g>
      </g>
      <g>
        <path class="cls-2" d="M75.15,27.52h.47l1.36,2.3-.06.02v-2.32h.34v2.63h-.46l-1.36-2.3h.06s0,2.3,0,2.3h-.34v-2.63Z"/>
        <path class="cls-2" d="M78.94,27.52h.43l1.05,2.63h-.35l-.96-2.42h.08l-.95,2.42h-.35l1.06-2.63ZM78.44,29.15h1.42v.31h-1.42v-.31Z"/>
        <path class="cls-2" d="M81.41,27.83h-.95v-.31h2.23v.31h-.95v2.32h-.34v-2.32Z"/>
        <path class="cls-2" d="M83.78,30.07c-.15-.08-.26-.19-.33-.34s-.11-.32-.11-.52v-1.69h.34v1.65c0,.23.05.4.16.52.11.12.26.18.47.18h.04c.2,0,.36-.06.46-.18.11-.12.16-.3.16-.52v-1.65h.34v1.69c0,.3-.08.54-.25.71-.17.18-.41.26-.73.26-.22,0-.4-.04-.54-.12Z"/>
        <path class="cls-2" d="M86.24,27.52h1.11c.16,0,.3.03.42.09s.22.15.29.25c.07.11.1.23.1.36,0,.16-.04.3-.12.42-.08.12-.18.2-.3.24.14,0,.24.03.3.08.06.06.09.15.09.28v.9h-.34v-.84c0-.09-.02-.15-.05-.18-.03-.03-.09-.05-.18-.05h-.98v1.07h-.34v-2.63ZM87.57,28.71c.08-.04.14-.1.19-.17s.07-.16.07-.26c0-.14-.05-.26-.14-.33-.09-.08-.22-.12-.39-.12h-.72v.94h.72c.1,0,.19-.02.28-.06Z"/>
        <path class="cls-2" d="M89.78,27.52h.43l1.05,2.63h-.35l-.96-2.42h.08l-.95,2.42h-.35l1.06-2.63ZM89.28,29.15h1.42v.31h-1.42v-.31Z"/>
        <path class="cls-2" d="M91.9,27.52h.34v2.32h1.55v.31h-1.89v-2.63Z"/>
        <path class="cls-2" d="M75.44,34.07c-.15-.07-.27-.17-.35-.3-.08-.13-.13-.29-.13-.48h.34c0,.18.06.32.19.42s.3.15.51.15h.04c.18,0,.32-.04.42-.12.1-.08.15-.18.15-.3,0-.11-.04-.2-.11-.27-.07-.07-.18-.12-.33-.15l-.42-.09c-.21-.04-.38-.13-.49-.24-.11-.12-.17-.28-.17-.48,0-.14.04-.26.12-.38.08-.11.19-.21.33-.27.14-.07.3-.1.49-.1s.36.03.5.1.25.16.33.29c.08.12.12.27.13.43h-.34c-.01-.16-.07-.28-.18-.37-.11-.09-.25-.14-.42-.14h-.04c-.11,0-.21.02-.3.06-.09.04-.15.09-.2.16-.05.07-.07.14-.07.22,0,.1.03.19.1.25.07.07.16.11.29.14l.42.08c.23.04.4.13.52.25s.18.29.18.49c0,.15-.04.29-.12.4-.08.11-.19.2-.33.26-.14.06-.31.09-.5.09-.21,0-.39-.03-.54-.1Z"/>
        <path class="cls-2" d="M77.76,31.51h1.09c.16,0,.3.03.43.09.13.06.23.15.3.27.07.12.11.26.11.42s-.04.31-.11.43-.17.21-.3.27c-.13.06-.27.09-.43.09h-.75v1.05h-.34v-2.63ZM79.2,32.65c.1-.08.15-.2.15-.36s-.05-.28-.15-.36-.24-.12-.41-.12h-.69v.96h.69c.18,0,.32-.04.41-.12Z"/>
        <path class="cls-2" d="M80.43,31.51h1.11c.16,0,.3.03.42.09s.22.15.29.25c.07.11.1.23.1.36,0,.16-.04.3-.12.42-.08.12-.18.2-.3.24.14,0,.24.03.3.08.06.06.09.15.09.28v.9h-.34v-.84c0-.09-.02-.15-.05-.18-.03-.03-.09-.05-.18-.05h-.98v1.07h-.34v-2.63ZM81.76,32.69c.08-.04.14-.1.19-.17s.07-.16.07-.26c0-.14-.05-.26-.14-.33-.09-.08-.22-.12-.39-.12h-.72v.94h.72c.1,0,.19-.02.28-.06Z"/>
        <path class="cls-2" d="M83.97,31.51h.43l1.05,2.63h-.35l-.96-2.42h.08l-.95,2.42h-.35l1.06-2.63ZM83.47,33.14h1.42v.31h-1.42v-.31Z"/>
        <path class="cls-2" d="M86.48,33.05l-.95-1.54h.39l.73,1.21.73-1.21h.38l-.95,1.54v1.09h-.34v-1.09Z"/>
      </g>
      <g>
        <path class="cls-2" d="M23.17,27.52h.43l1.05,2.63h-.35l-.96-2.42h.08l-.95,2.42h-.35l1.06-2.63ZM22.66,29.15h1.42v.31h-1.42v-.31Z"/>
        <path class="cls-2" d="M25.64,30.07c-.15-.08-.26-.19-.33-.34s-.11-.32-.11-.52v-1.69h.34v1.65c0,.23.05.4.16.52.11.12.26.18.47.18h.04c.2,0,.36-.06.46-.18.11-.12.16-.3.16-.52v-1.65h.34v1.69c0,.3-.08.54-.25.71-.17.18-.41.26-.73.26-.22,0-.4-.04-.54-.12Z"/>
        <path class="cls-2" d="M28.38,30.09c-.15-.07-.27-.17-.35-.3-.08-.13-.13-.29-.13-.48h.34c0,.18.06.32.19.42s.3.15.51.15h.04c.18,0,.32-.04.42-.12.1-.08.15-.18.15-.3,0-.11-.04-.2-.11-.27-.07-.07-.18-.12-.33-.15l-.42-.09c-.21-.04-.38-.13-.49-.24-.11-.12-.17-.28-.17-.48,0-.14.04-.26.12-.38.08-.11.19-.21.33-.27.14-.07.3-.1.49-.1s.36.03.5.1.25.16.33.29c.08.12.12.27.13.43h-.34c-.01-.16-.07-.28-.18-.37-.11-.09-.25-.14-.42-.14h-.04c-.11,0-.21.02-.3.06-.09.04-.15.09-.2.16-.05.07-.07.14-.07.22,0,.1.03.19.1.25.07.07.16.11.29.14l.42.08c.23.04.4.13.52.25s.18.29.18.49c0,.15-.04.29-.12.4-.08.11-.19.2-.33.26-.14.06-.31.09-.5.09-.21,0-.39-.03-.54-.1Z"/>
        <path class="cls-2" d="M31.28,27.83h-.95v-.31h2.23v.31h-.95v2.32h-.34v-2.32Z"/>
        <path class="cls-2" d="M33.23,27.52h1.11c.16,0,.3.03.42.09s.22.15.29.25c.07.11.1.23.1.36,0,.16-.04.3-.12.42-.08.12-.18.2-.3.24.14,0,.24.03.3.08.06.06.09.15.09.28v.9h-.34v-.84c0-.09-.02-.15-.05-.18-.03-.03-.09-.05-.18-.05h-.98v1.07h-.34v-2.63ZM34.57,28.71c.08-.04.14-.1.19-.17s.07-.16.07-.26c0-.14-.05-.26-.14-.33-.09-.08-.22-.12-.39-.12h-.72v.94h.72c.1,0,.19-.02.28-.06Z"/>
        <path class="cls-2" d="M36.78,27.52h.43l1.05,2.63h-.35l-.96-2.42h.08l-.95,2.42h-.35l1.06-2.63ZM36.28,29.15h1.42v.31h-1.42v-.31Z"/>
        <path class="cls-2" d="M38.9,27.52h.34v2.32h1.55v.31h-1.89v-2.63Z"/>
        <path class="cls-2" d="M41.46,27.52h.34v2.63h-.34v-2.63Z"/>
        <path class="cls-2" d="M43.49,27.52h.43l1.05,2.63h-.35l-.96-2.42h.08l-.95,2.42h-.35l1.06-2.63ZM42.99,29.15h1.42v.31h-1.42v-.31Z"/>
        <path class="cls-2" d="M45.6,27.52h.47l1.36,2.3-.06.02v-2.32h.34v2.63h-.46l-1.36-2.3h.06s0,2.3,0,2.3h-.34v-2.63Z"/>
        <path class="cls-2" d="M22.43,31.51h1.81v.31h-1.47v.89h1.28v.31h-1.28v1.12h-.34v-2.63Z"/>
        <path class="cls-2" d="M24.95,31.51h1.11c.16,0,.3.03.42.09s.22.15.29.25c.07.11.1.23.1.36,0,.16-.04.3-.12.42-.08.12-.18.2-.3.24.14,0,.24.03.3.08.06.06.09.15.09.28v.9h-.34v-.84c0-.09-.02-.15-.05-.18-.03-.03-.09-.05-.18-.05h-.98v1.07h-.34v-2.63ZM26.29,32.69c.08-.04.14-.1.19-.17s.07-.16.07-.26c0-.14-.05-.26-.14-.33-.09-.08-.22-.12-.39-.12h-.72v.94h.72c.1,0,.19-.02.28-.06Z"/>
        <path class="cls-2" d="M28.5,31.51h.43l1.05,2.63h-.35l-.96-2.42h.08l-.95,2.42h-.35l1.06-2.63ZM27.99,33.14h1.42v.31h-1.42v-.31Z"/>
        <path class="cls-2" d="M30.98,34c-.19-.12-.33-.28-.43-.48-.1-.21-.15-.44-.15-.7s.05-.5.15-.7c.1-.2.25-.36.44-.48.19-.12.41-.17.67-.17.21,0,.39.04.55.11.15.08.27.18.36.32.09.13.14.29.15.46h-.34c-.02-.18-.09-.33-.22-.43s-.29-.15-.49-.15h-.04c-.18,0-.34.04-.47.12-.14.08-.24.2-.32.36-.08.16-.11.35-.11.56s.04.41.11.56c.08.16.18.28.32.36.14.08.29.12.48.12h.04c.15,0,.28-.03.39-.08.12-.06.2-.13.27-.24.06-.1.09-.21.09-.34v-.09h-.77v-.3h.78c.1,0,.17.03.22.08.05.05.07.12.07.22v1.03h-.3v-.31c-.04.05-.1.11-.17.16s-.16.1-.27.13c-.11.03-.23.05-.36.05-.25,0-.47-.06-.65-.17Z"/>
        <path class="cls-2" d="M33.57,31.51h1.11c.16,0,.3.03.42.09s.22.15.29.25c.07.11.1.23.1.36,0,.16-.04.3-.12.42-.08.12-.18.2-.3.24.14,0,.24.03.3.08.06.06.09.15.09.28v.9h-.34v-.84c0-.09-.02-.15-.05-.18-.03-.03-.09-.05-.18-.05h-.98v1.07h-.34v-2.63ZM34.9,32.69c.08-.04.14-.1.19-.17s.07-.16.07-.26c0-.14-.05-.26-.14-.33-.09-.08-.22-.12-.39-.12h-.72v.94h.72c.1,0,.19-.02.28-.06Z"/>
        <path class="cls-2" d="M37.11,31.51h.43l1.05,2.63h-.35l-.96-2.42h.08l-.95,2.42h-.35l1.06-2.63ZM36.61,33.14h1.42v.31h-1.42v-.31Z"/>
        <path class="cls-2" d="M39.23,31.51h.47l1.36,2.3-.06.02v-2.32h.34v2.63h-.46l-1.36-2.3h.06s0,2.3,0,2.3h-.34v-2.63Z"/>
        <path class="cls-2" d="M42.7,34c-.19-.12-.33-.28-.43-.48-.1-.2-.15-.43-.15-.69s.05-.49.15-.69c.1-.2.24-.37.43-.48.19-.12.4-.18.65-.18.19,0,.36.04.51.11.15.07.28.17.37.3.09.13.14.28.15.45h-.34c-.02-.16-.09-.29-.21-.4-.12-.1-.28-.15-.47-.15h-.04c-.18,0-.34.05-.47.14-.13.09-.23.22-.3.38-.07.16-.1.34-.1.53s.03.37.1.53c.07.16.17.28.3.38.13.09.29.14.47.14h.04c.13,0,.24-.02.34-.07.1-.05.18-.11.23-.2s.09-.18.1-.28h.34c-.01.17-.06.32-.15.45-.09.13-.22.23-.37.3-.15.07-.32.11-.51.11-.25,0-.46-.06-.65-.18Z"/>
        <path class="cls-2" d="M45.18,31.51h1.89v.31h-1.55v.82h1.33v.31h-1.33v.89h1.59v.31h-1.93v-2.63Z"/>
        <path class="cls-2" d="M48.16,34.07c-.15-.07-.27-.17-.35-.3-.08-.13-.13-.29-.13-.48h.34c0,.18.06.32.19.42s.3.15.51.15h.04c.18,0,.32-.04.42-.12.1-.08.15-.18.15-.3,0-.11-.04-.2-.11-.27-.07-.07-.18-.12-.33-.15l-.42-.09c-.21-.04-.38-.13-.49-.24-.11-.12-.17-.28-.17-.48,0-.14.04-.26.12-.38.08-.11.19-.21.33-.27.14-.07.3-.1.49-.1s.36.03.5.1.25.16.33.29c.08.12.12.27.13.43h-.34c-.01-.16-.07-.28-.18-.37-.11-.09-.25-.14-.42-.14h-.04c-.11,0-.21.02-.3.06-.09.04-.15.09-.2.16-.05.07-.07.14-.07.22,0,.1.03.19.1.25.07.07.16.11.29.14l.42.08c.23.04.4.13.52.25s.18.29.18.49c0,.15-.04.29-.12.4-.08.11-.19.2-.33.26-.14.06-.31.09-.5.09-.21,0-.39-.03-.54-.1Z"/>
      </g>
      <g>
        <g>
          <path class="cls-2" d="M75.44,45.14c-.19-.12-.33-.28-.43-.48-.1-.2-.15-.43-.15-.69s.05-.49.15-.69c.1-.2.24-.37.43-.48.19-.12.4-.18.65-.18.19,0,.36.04.51.11.15.07.28.17.37.3.09.13.14.28.15.45h-.34c-.02-.16-.09-.29-.21-.4-.12-.1-.28-.15-.47-.15h-.04c-.18,0-.34.05-.47.14-.13.09-.23.22-.3.38-.07.16-.1.34-.1.53s.03.37.1.53c.07.16.17.28.3.38.13.09.29.14.47.14h.04c.13,0,.24-.02.34-.07.1-.05.18-.11.23-.2s.09-.18.1-.28h.34c-.01.17-.06.32-.15.45-.09.13-.22.23-.37.3-.15.07-.32.11-.51.11-.25,0-.46-.06-.65-.18Z"/>
          <path class="cls-2" d="M78.36,45.15c-.19-.11-.33-.27-.44-.47-.1-.2-.16-.44-.16-.72s.05-.52.16-.72c.11-.2.25-.36.44-.47.19-.11.4-.16.63-.16s.44.05.63.16c.19.11.33.27.44.47.1.2.16.44.16.72s-.05.51-.16.72c-.11.2-.25.36-.44.47-.19.11-.4.16-.63.16s-.45-.05-.63-.16ZM79.46,44.88c.13-.08.23-.2.31-.36s.11-.34.11-.56-.04-.4-.11-.56c-.08-.16-.18-.28-.31-.36s-.28-.13-.45-.13h-.04c-.17,0-.32.04-.45.13-.13.08-.23.2-.31.36-.07.16-.11.34-.11.56s.04.4.11.56c.07.16.18.28.31.36.13.08.28.13.45.13h.04c.17,0,.32-.04.45-.13Z"/>
          <path class="cls-2" d="M81.46,45.15c-.19-.11-.33-.27-.44-.47-.1-.2-.16-.44-.16-.72s.05-.52.16-.72c.11-.2.25-.36.44-.47.19-.11.4-.16.63-.16s.44.05.63.16c.19.11.33.27.44.47.1.2.16.44.16.72s-.05.51-.16.72c-.11.2-.25.36-.44.47-.19.11-.4.16-.63.16s-.45-.05-.63-.16ZM82.55,44.88c.13-.08.23-.2.31-.36s.11-.34.11-.56-.04-.4-.11-.56c-.08-.16-.18-.28-.31-.36s-.28-.13-.45-.13h-.04c-.17,0-.32.04-.45.13-.13.08-.23.2-.31.36-.07.16-.11.34-.11.56s.04.4.11.56c.07.16.18.28.31.36.13.08.28.13.45.13h.04c.17,0,.32-.04.45-.13Z"/>
          <path class="cls-2" d="M84.12,42.65h1.89v.31h-1.55v.82h1.33v.31h-1.33v.89h1.59v.31h-1.93v-2.63Z"/>
          <path class="cls-2" d="M86.82,42.65h1.89v.31h-1.55v.82h1.33v.31h-1.33v.89h1.59v.31h-1.93v-2.63Z"/>
          <path class="cls-2" d="M89.42,44.85h.43v.42h-.43v-.42Z"/>
          <path class="cls-2" d="M91.45,42.65h.43l1.05,2.63h-.35l-.96-2.42h.08l-.95,2.42h-.35l1.06-2.63ZM90.94,44.28h1.42v.31h-1.42v-.31Z"/>
          <path class="cls-2" d="M93.92,45.19c-.15-.08-.26-.19-.33-.34s-.11-.32-.11-.52v-1.69h.34v1.65c0,.23.05.4.16.52.11.12.26.18.47.18h.04c.2,0,.36-.06.46-.18.11-.12.16-.3.16-.52v-1.65h.34v1.69c0,.3-.08.54-.25.71-.17.18-.41.26-.73.26-.22,0-.4-.04-.54-.12Z"/>
        </g>
        <path class="cls-10" d="M95.86,47.26c-7.09.47-14.18.47-21.27,0-1.05-.07-1.87-.95-1.87-2.01v-2.4c0-1.07.84-1.96,1.9-2.01,7.07-.35,14.14-.35,21.2,0,1.07.05,1.9.94,1.9,2.01v2.4c0,1.05-.82,1.94-1.87,2.01Z"/>
      </g>
      <g>
        <g>
          <g>
            <path class="cls-2" d="M40.37,89.64c-.14-.06-.25-.15-.34-.27s-.13-.25-.13-.41h.46c.01.08.04.15.08.2.04.06.09.1.16.13.07.03.15.04.24.04h.04c.1,0,.18-.02.25-.06.07-.04.13-.09.16-.15.04-.06.06-.13.06-.2,0-.12-.04-.22-.13-.29-.09-.07-.21-.11-.35-.11h-.21v-.4h.19c.1,0,.18-.02.25-.05.07-.03.13-.08.17-.15.04-.06.06-.13.06-.21,0-.12-.04-.21-.13-.28s-.19-.11-.32-.11h-.04c-.12,0-.22.04-.3.11-.08.07-.13.16-.14.28h-.45c0-.15.05-.28.13-.4s.19-.21.33-.28.29-.1.46-.1.33.03.47.1c.14.07.25.16.33.27.08.11.12.24.12.37,0,.16-.04.3-.13.41s-.2.19-.34.23c.14.04.26.11.36.23.09.11.14.25.14.41s-.04.29-.12.41-.2.21-.34.27c-.14.06-.31.09-.49.09s-.34-.03-.48-.09Z"/>
            <path class="cls-2" d="M42.59,89.58c-.15-.1-.27-.25-.35-.45-.08-.2-.12-.43-.12-.71s.05-.55.16-.77c.1-.23.25-.4.43-.53s.38-.19.6-.19c.15,0,.29.03.41.09.12.06.22.14.3.25.08.11.13.24.15.39h-.46c-.02-.1-.07-.17-.14-.23s-.16-.09-.28-.09h-.04c-.13,0-.25.04-.37.13-.11.09-.2.22-.27.4-.07.18-.1.39-.1.65l-.04-.09c.04-.16.14-.28.28-.38s.3-.14.48-.14c.16,0,.3.04.44.11.13.07.24.18.32.31.08.13.12.29.12.47s-.04.33-.12.48c-.08.14-.19.25-.34.33-.15.08-.32.12-.51.12-.21,0-.39-.05-.55-.15ZM43.41,89.27c.07-.04.13-.11.18-.18.04-.08.07-.17.07-.26s-.02-.19-.07-.26c-.04-.08-.1-.14-.18-.18s-.16-.07-.25-.07h-.04c-.09,0-.18.02-.26.07-.08.05-.14.11-.19.19s-.07.17-.07.26.02.18.07.26c.05.08.11.14.19.18.08.04.16.07.26.07h.04c.09,0,.17-.02.25-.07Z"/>
            <path class="cls-2" d="M44.55,86.98h.74l.76,2.3h-.05l.74-2.3h.74v2.72h-.46v-2.32h.02s-.75,2.32-.75,2.32h-.54l-.77-2.32h.03s0,2.32,0,2.32h-.46v-2.72Z"/>
          </g>
          <path class="cls-2" d="M43.75,86.37c-1.65,0-4.78-.19-4.78-.89s3.13-.89,4.78-.89,4.78.18,4.78.89-3.13.89-4.78.89ZM43.75,84.83c-2.99,0-4.55.43-4.55.66s1.56.66,4.55.66,4.55-.43,4.55-.66-1.56-.66-4.55-.66Z"/>
          <path class="cls-2" d="M37.82,83.41c-.08,0-.13-.02-.15-.05-.2-.38,3.01-2.12,4.4-2.85,1.39-.73,4.65-2.38,4.84-2.01h0c.2.38-3.01,2.12-4.4,2.85-1.25.66-4.01,2.07-4.7,2.07ZM46.59,78.67c-.53.15-2.12.83-4.41,2.04s-3.76,2.12-4.18,2.48c.53-.15,2.12-.83,4.41-2.04,2.29-1.21,3.76-2.12,4.18-2.48Z"/>
          <path class="cls-2" d="M38.49,84.71s-.04,0-.06,0c-.05-.02-.08-.05-.09-.07l-.67-1.27.2-.11.65,1.24c.3-.01,1.98-.71,4.56-2.07,2.58-1.36,4.11-2.35,4.29-2.58l-.65-1.24.2-.11.67,1.27c.2.38-3.01,2.12-4.4,2.85-1.41.74-4.13,2.09-4.69,2.09Z"/>
          <path class="cls-2" d="M43.75,90.89c-1.65,0-4.78-.18-4.78-.89v-4.52h.22v4.52c0,.23,1.56.66,4.55.66s4.55-.43,4.55-.66v-4.52h.22v4.52c0,.7-3.13.89-4.78.89Z"/>
          <g>
            <path class="cls-2" d="M23.2,86.35c0-2.45,1.73-4.35,4.29-4.35v-1.38c1.15.66,2.06,1.63,2.55,2.74-.46,1.19-1.42,2.18-2.55,2.85v-1.6c-1.12.66-2.07,1.66-2.54,2.85.48,1.11,1.4,2.07,2.55,2.74v-1.38c2.57,0,4.29-1.9,4.29-4.35,0-2.29-1.62-4.19-3.82-4.43,2.76.24,4.91,2.55,4.91,5.37,0,2.99-2.42,5.41-5.41,5.41-.16,0-.33-.01-.49-.03-2.18-.24-3.79-2.14-3.79-4.43Z"/>
            <g>
              <path class="cls-2" d="M26.98,90.9c-2.81-.25-5-2.66-5-5.49,0-3.04,2.47-5.51,5.51-5.51v.22c-2.91,0-5.28,2.37-5.28,5.28,0,2.72,2.11,5.03,4.8,5.26l-.02.22Z"/>
              <path class="cls-2" d="M27.48,90.93v-.22c2.92,0,5.29-2.38,5.29-5.29,0-2.76-2.07-5.01-4.81-5.25l.02-.22c2.86.25,5.02,2.61,5.02,5.48,0,3.04-2.48,5.52-5.52,5.52Z"/>
              <path class="cls-2" d="M27.48,90.93c-.17,0-.35-.01-.51-.03-2.21-.24-3.88-2.2-3.88-4.54,0-2.55,1.8-4.41,4.29-4.46v-1.27s.02-.08.06-.1c.04-.02.08-.02.11,0,1.19.69,2.11,1.68,2.59,2.79.01.03.01.06,0,.09-.45,1.15-1.37,2.18-2.59,2.91-.04.02-.08.02-.11,0-.03-.02-.06-.06-.06-.1v-1.4c-1.07.68-1.89,1.61-2.3,2.65.45,1,1.26,1.89,2.31,2.54v-1.18c0-.06.05-.11.11-.11,2.42,0,4.18-1.78,4.18-4.24,0-2.23-1.6-4.08-3.72-4.32-.16-.02-.31-.03-.48-.03v-.22c.18,0,.34,0,.51.03,2.23.25,3.91,2.2,3.91,4.54,0,2.55-1.8,4.41-4.29,4.46v1.27s-.02.08-.06.1c-.04.02-.08.02-.11,0-1.19-.69-2.11-1.68-2.59-2.79-.01-.03-.01-.06,0-.09.45-1.15,1.37-2.18,2.59-2.91.04-.02.08-.02.11,0,.04.02.06.06.06.1v1.4c1.07-.68,1.89-1.61,2.3-2.65-.45-1-1.26-1.89-2.31-2.54v1.18c0,.06-.05.11-.11.11-2.42,0-4.18,1.78-4.18,4.24,0,2.23,1.58,4.09,3.69,4.32.15.02.32.03.48.03v.22Z"/>
            </g>
          </g>
          <g>
            <g>
              <path class="cls-2" d="M62,84.48c-.1-.09-.19.4-.34.19.15-.55.37-1.27-.21-1.64.02.29-.04.74-.34.85v-.75c0-.54-.26-1.31-.81-1.51.08.26.25.64.17.91-.02.06-.05.12-.1.2-.18-.91-1.02-1.57-1.01-2.6-.55.59-.14,1.46-.17,2.13l-.08-.15c-.23-.32-.52-.63-.94-.66.3.5.73,1.28.28,1.79-.26-.29-.59-.57-1-.6.45.42.54,1.07.43,1.66-.26-.16-.64-.47-.94-.28.77.35.44.95.44,1.57,0,.33.06.63.18.91.22.53.77.85,1.34.85h0c-.18-.08-.3-.19-.39-.29-.4-.45-.57-.94-.38-1.61.02-.05.12-.26.22-.38.12.47.24,1.14.73,1.36-.27-.58-.38-1.25-.01-1.74-.02.38.21.8.55.94,0-.63.18-1.26.66-1.62-.14.62-.08,1.09,0,1.57.3-.18.64-.52.76-.78.1.44,0,.95-.29,1.15.05.1.43-.21.58-.44.03.96-.5,1.57-1.08,1.83h.15c.31,0,.61-.09.86-.27.79-.6,1.1-1.61.74-2.6Z"/>
              <path class="cls-2" d="M60.4,87.39h-.15s-.03-.01-.04-.03c0-.02,0-.04.02-.04.66-.29,1.05-.91,1.06-1.68-.15.17-.39.38-.5.38-.03,0-.06-.01-.07-.04,0-.02,0-.04.01-.05.23-.17.35-.59.29-1-.15.24-.44.53-.72.7-.01,0-.03,0-.04,0-.01,0-.02-.02-.02-.03-.07-.41-.14-.88-.02-1.48-.37.32-.57.87-.56,1.52,0,.01,0,.03-.02.03s-.02,0-.04,0c-.31-.13-.55-.49-.57-.85-.32.54-.09,1.22.08,1.59,0,.01,0,.03,0,.04-.01.01-.03.02-.04,0-.46-.21-.6-.78-.72-1.24,0-.02-.01-.05-.02-.07-.09.12-.16.27-.17.3-.17.6-.05,1.08.38,1.57.11.12.23.21.38.28.02,0,.03.03.02.04s-.02.03-.04.03c-.61,0-1.15-.34-1.38-.87-.12-.27-.18-.58-.18-.92,0-.15.02-.3.04-.44.06-.45.1-.84-.46-1.09-.01,0-.02-.02-.02-.03,0-.01,0-.03.02-.04.28-.19.62.04.87.21.02.01.04.03.06.04.11-.64-.04-1.21-.42-1.57-.01-.01-.02-.03,0-.04,0-.01.02-.02.04-.02.43.03.76.32,1,.58.4-.51-.06-1.29-.31-1.71,0-.01,0-.03,0-.04,0-.01.02-.02.04-.02.46.03.77.4.96.68v.02c0-.16-.02-.34-.04-.52-.08-.53-.15-1.07.24-1.49.01-.01.03-.02.04,0,.01,0,.02.02.02.04,0,.58.27,1.04.53,1.49.18.32.37.64.46,1.01.02-.03.03-.07.04-.11.07-.21-.04-.51-.12-.74-.02-.05-.04-.1-.05-.15,0-.01,0-.03,0-.04.01-.01.03-.01.04,0,.54.2.83.95.83,1.55v.68c.24-.14.28-.55.26-.79,0-.01,0-.03.02-.04.01,0,.03,0,.04,0,.58.36.4,1.05.25,1.61v.06s0,.02.02.02h0s.08-.07.1-.12c.04-.07.07-.12.12-.13.01,0,.04,0,.06.02,0,0,0,0,0,.02.35.99.06,2.03-.76,2.65-.24.18-.55.28-.88.28ZM61.32,85.49s0,0,.01,0c.02,0,.03.02.03.04.02.79-.33,1.45-.96,1.79.31,0,.6-.09.82-.26.78-.59,1.07-1.59.74-2.54-.01.01-.04.06-.06.09-.05.08-.09.16-.17.16-.04,0-.08-.02-.11-.07,0,0,0-.02,0-.03l.02-.08c.13-.51.3-1.13-.15-1.48,0,.33-.08.71-.37.81-.01,0-.03,0-.04,0,0,0-.02-.02-.02-.03v-.75c0-.47-.22-1.2-.71-1.44,0,.02.01.04.02.07.09.25.19.55.12.79-.02.07-.06.14-.1.21,0,.01-.02.01-.04.02-.02,0-.03-.02-.03-.03-.08-.39-.27-.72-.48-1.08-.25-.43-.51-.88-.53-1.43-.29.38-.22.87-.15,1.35.03.24.07.47.06.68,0,.02-.01.03-.03.04-.02,0-.04,0-.04-.02l-.08-.15c-.17-.24-.44-.57-.83-.63.27.46.7,1.24.23,1.76,0,0-.02.01-.03.01h0s-.02,0-.03-.01c-.21-.23-.5-.5-.87-.57.36.39.49.97.36,1.62,0,.01-.01.02-.02.03s-.03,0-.04,0c-.03-.02-.07-.05-.11-.07-.22-.15-.49-.33-.72-.24.54.28.48.7.43,1.14-.02.14-.04.29-.04.43,0,.33.06.63.17.89.19.45.63.76,1.14.81-.09-.06-.18-.13-.25-.22-.45-.51-.57-1.01-.39-1.64.02-.06.12-.27.23-.39,0,0,.02-.01.04-.01.01,0,.02.01.03.03.01.05.03.1.04.15.1.41.23.91.58,1.14-.18-.43-.36-1.13.04-1.67.01-.01.03-.02.04-.01.02,0,.03.02.03.04-.02.34.19.72.47.88,0-.7.25-1.27.68-1.59.01,0,.03-.01.04,0,.01,0,.02.03.02.04-.14.61-.07,1.08,0,1.5.29-.19.59-.5.7-.74,0-.01.03-.03.04-.02.02,0,.03.01.03.03.1.42,0,.88-.22,1.12.12-.07.33-.25.44-.42,0-.01.02-.02.03-.02Z"/>
            </g>
            <g>
              <rect class="cls-2" x="57.72" y="87.79" width="3.62" height=".4"/>
              <path class="cls-2" d="M61.34,88.27h-3.62s-.08-.04-.08-.08v-.4s.04-.08.08-.08h3.62s.08.04.08.08v.4s-.04.08-.08.08ZM57.79,88.11h3.46v-.25h-3.46v.25Z"/>
            </g>
          </g>
          <path class="cls-2" d="M59.53,91.35l-.08-.08-6.56-6.56.08-.08,6.56-6.56.08.08,6.56,6.56-.08.08-6.56,6.56ZM53.21,84.71l6.32,6.32,6.32-6.32-6.32-6.32-6.32,6.32Z"/>
        </g>
        <g>
          <path class="cls-2" d="M79.76,89.7l-.68-1.88-.23.46s-.42-.12-.88-.56c-.5-.49-.92-1.44-.43-2.17-.97.89-.83,2.05-.73,2.44.06.23.23.95,1.03,1.48l.26.15-.25.48,1.91-.39Z"/>
          <path class="cls-2" d="M80.96,87.41l.25-.14.26.47.7-1.85-1.92-.43.26.45h0c-.05.05-.33.3-.93.45-.67.17-1.69.02-2.04-.79.23,1.31,1.27,1.8,1.65,1.93.22.07.91.31,1.79-.09Z"/>
          <path class="cls-2" d="M79.44,83.21h0c.01.06.07.44-.13,1.04-.22.67-.9,1.46-1.76,1.32,1.21.51,2.18-.11,2.49-.36.18-.15.75-.61.88-1.58l.02-.3.52.03-1.16-1.59-1.39,1.42.51.02Z"/>
          <path class="cls-2" d="M74.3,82c0,.45.36.81.79.81s.79-.36.79-.81-.36-.81-.79-.81-.79.36-.79.81Z"/>
          <path class="cls-2" d="M76.6,89.53c-.14.01-.28.02-.42.02-.22,0-.44-.02-.65-.05l-.02-.14-.49-4.27c-.07-.81.39-.94.67-.81l1.58.64c.18.08.27-.07.27-.07,0,0,.1-.16-.08-.28,0,0-2.15-1.45-2.61-1.53-.63-.12-1.24.4-1.38,1.06l-.76,3.8c-.66-.8-1.05-1.83-1.05-2.95,0-2.54,2.04-4.61,4.54-4.61,1.34,0,2.54.59,3.37,1.53l.47-.48c-.95-1.06-2.32-1.72-3.84-1.72-2.87,0-5.2,2.37-5.2,5.28s2.33,5.28,5.2,5.28c.15,0,.3-.01.45-.02l.03.53.95-.93-1.07-.82.04.56ZM73.26,88.46l.61-1.73c.07-.19.17-.18.17-.18,0,0,.09-.02.14.17l.74,2.64c-.62-.18-1.18-.49-1.66-.91Z"/>
        </g>
      </g>
      <path class="cls-2" d="M38.54,18.42h2.02v-1.29h-2.02c-.17,0-.31-.14-.31-.31h0c0-.17.14-.31.31-.31h2.38v-1.28h-3.95v5.06h3.95v-1.23h-2.38c-.17,0-.31-.14-.31-.31h0c0-.18.14-.32.31-.32ZM31.23,17.75c0,1.46-1.01,2.65-2.64,2.65s-2.64-1.19-2.64-2.65.99-2.65,2.64-2.65,2.64,1.19,2.64,2.65ZM28.58,16.58c-.73,0-1.16.52-1.16,1.17s.41,1.17,1.16,1.17,1.16-.52,1.16-1.17-.44-1.17-1.16-1.17ZM34.09,15.1c-1.65,0-2.64,1.19-2.64,2.65s.93,2.65,2.64,2.65,2.64-1.19,2.64-2.65-1.01-2.65-2.64-2.65ZM35.25,17.75c0,.65-.44,1.17-1.16,1.17s-1.16-.52-1.16-1.17.44-1.17,1.16-1.17,1.16.52,1.16,1.17ZM24.88,16.56c.43,0,.62.03,1.05.11v-1.39c-.32-.08-.69-.12-1.19-.12h0c-1.56,0-2.65,1.17-2.65,2.6s1.08,2.6,2.65,2.6h0c.45,0,.78-.04,1.19-.13v-1.39c-.42.08-.61.11-1.05.11-.8,0-1.33-.54-1.33-1.2s.47-1.2,1.33-1.2ZM42.84,18.42h2.02v-1.29h-2.02c-.17,0-.31-.14-.31-.31h0c0-.17.14-.31.31-.31h2.38v-1.28h-3.95v5.06h3.95v-1.23h-2.38c-.17,0-.31-.14-.31-.31h0c0-.18.14-.32.31-.32Z"/>
      <g>
        <path class="cls-2" d="M114.55,28.9v-.08c0-.34-.13-.65-.35-.88h0s0-.01,0-.01c-.26-.28-.63-.46-1.05-.46s-.79.18-1.05.46h-.01v.03c-.22.24-.34.53-.34.86,0,.8.57,1.36,1.39,1.36.77,0,1.15-.37,1.34-.68l-.13-.08c-.16.28-.51.6-1.21.6-.42,0-.75-.18-.97-.46v-.68h2.4ZM113.15,27.62c.4,0,.75.2.98.48v.65h-1.97v-.64c.23-.29.58-.5.99-.5Z"/>
        <g>
          <path class="cls-2" d="M117.5,27.86l.08.05-.69.67v-.4l.68-.66h.25v2.63h-.32v-2.28Z"/>
          <path class="cls-2" d="M119.13,30.03c-.15-.1-.27-.26-.35-.46-.08-.2-.12-.45-.12-.74s.04-.54.12-.74.2-.36.35-.46.34-.15.55-.15.4.05.55.15.27.25.35.46.12.45.12.74-.04.54-.12.74c-.08.2-.2.36-.35.46s-.34.15-.55.15-.4-.05-.55-.15ZM120.01,29.8c.1-.06.18-.18.25-.33.07-.16.1-.37.1-.63s-.03-.47-.1-.63c-.07-.16-.15-.27-.25-.33-.1-.07-.21-.1-.32-.1h-.04c-.11,0-.22.03-.32.1s-.19.18-.25.33c-.07.16-.1.37-.1.63s.03.47.1.63c.07.16.15.27.25.33.1.07.21.1.32.1h.04c.11,0,.21-.03.32-.1Z"/>
          <path class="cls-2" d="M121.86,30.03c-.15-.1-.27-.26-.35-.46-.08-.2-.12-.45-.12-.74s.04-.54.12-.74.2-.36.35-.46.34-.15.55-.15.4.05.55.15.27.25.35.46.12.45.12.74-.04.54-.12.74c-.08.2-.2.36-.35.46s-.34.15-.55.15-.4-.05-.55-.15ZM122.74,29.8c.1-.06.18-.18.25-.33.07-.16.1-.37.1-.63s-.03-.47-.1-.63c-.07-.16-.15-.27-.25-.33-.1-.07-.21-.1-.32-.1h-.04c-.11,0-.22.03-.32.1s-.19.18-.25.33c-.07.16-.1.37-.1.63s.03.47.1.63c.07.16.15.27.25.33.1.07.21.1.32.1h.04c.11,0,.21-.03.32-.1Z"/>
          <path class="cls-2" d="M125.44,27.52h.57l.87,2.45h-.08s.86-2.45.86-2.45h.56v2.63h-.34v-2.46h.04s-.86,2.46-.86,2.46h-.44l-.88-2.45h.04s0,2.45,0,2.45h-.34v-2.63Z"/>
          <path class="cls-2" d="M129.17,27.52h.34v2.32h1.55v.31h-1.89v-2.63Z"/>
          <path class="cls-2" d="M112.96,32.6c.19-.39.46-.67.8-.85v.06s-1.56,0-1.56,0v-.31h1.8v.34c-.23.14-.41.31-.56.51-.15.2-.26.44-.33.72-.07.28-.11.61-.11.98v.08h-.33v-.11c0-.56.1-1.03.29-1.42Z"/>
          <path class="cls-2" d="M115.03,34.08c-.12-.06-.22-.14-.29-.25s-.1-.23-.1-.36c0-.1.02-.19.06-.28s.09-.15.16-.21c.07-.06.14-.1.23-.14-.13-.04-.25-.11-.35-.23s-.15-.26-.15-.41c0-.15.04-.27.11-.39.07-.11.17-.2.31-.26.13-.06.28-.09.45-.09s.32.03.45.09c.13.06.23.15.31.26.07.11.11.24.11.39,0,.1-.02.2-.07.29-.05.09-.11.17-.18.23-.08.06-.16.1-.24.13.13.05.23.13.32.24.08.11.13.24.13.39,0,.13-.03.25-.1.36-.07.11-.16.19-.29.25s-.26.09-.42.09-.3-.03-.42-.09ZM115.73,32.63c.08-.04.14-.1.19-.17s.07-.15.07-.24c0-.13-.05-.25-.14-.33-.1-.09-.22-.13-.37-.13h-.04c-.15,0-.27.04-.37.13-.1.09-.14.2-.14.33,0,.09.02.17.07.24s.11.13.19.17c.08.04.17.06.26.06h.04c.1,0,.18-.02.26-.06ZM115.8,33.75c.09-.08.13-.19.13-.31,0-.08-.02-.16-.06-.23-.04-.07-.1-.12-.17-.16s-.15-.06-.24-.06h-.04c-.09,0-.17.02-.24.06s-.13.09-.17.16c-.04.07-.06.14-.06.23,0,.13.04.23.13.31.09.08.2.12.33.12h.04c.14,0,.25-.04.33-.12Z"/>
          <path class="cls-2" d="M117.08,32.8c-.11-.14-.17-.32-.17-.55,0-.15.03-.28.08-.4.05-.11.12-.2.22-.27.09-.06.2-.09.33-.09.19,0,.35.07.46.21.11.14.17.32.17.55,0,.15-.03.29-.08.4-.05.12-.12.2-.22.27-.09.06-.21.09-.33.09-.19,0-.35-.07-.46-.21ZM117.75,32.71c.05-.05.09-.12.12-.2.03-.08.04-.17.04-.26,0-.14-.03-.27-.09-.38s-.15-.16-.26-.16h-.02c-.08,0-.14.03-.2.08-.05.05-.09.12-.12.2-.03.08-.04.17-.04.26,0,.15.03.27.09.38.06.11.15.16.26.16h.02c.08,0,.14-.03.2-.08ZM119.17,31.5h.3l-1.58,2.63h-.3l1.58-2.63ZM119.05,33.94c-.11-.14-.17-.32-.17-.55,0-.15.03-.28.08-.4.05-.12.12-.2.22-.27.09-.06.2-.09.33-.09.19,0,.35.07.46.21.11.14.17.32.17.55,0,.15-.03.29-.08.4-.05.12-.12.2-.22.27-.09.06-.2.09-.33.09-.19,0-.35-.07-.46-.21ZM119.71,33.85c.05-.05.09-.12.12-.2s.04-.17.04-.26c0-.14-.03-.27-.09-.38s-.15-.16-.26-.16h-.02c-.08,0-.14.03-.2.08-.05.05-.09.12-.12.2s-.04.17-.04.26c0,.15.03.27.09.38s.15.16.26.16h.02c.08,0,.14-.03.2-.08Z"/>
          <path class="cls-2" d="M121.64,31.5h.36l.97,2.38h-.06s.92-2.38.92-2.38h.36l-1.05,2.63h-.42l-1.07-2.63Z"/>
          <path class="cls-2" d="M125.2,34c-.19-.11-.33-.27-.44-.47-.11-.2-.16-.44-.16-.72s.05-.52.16-.72c.1-.2.25-.36.44-.47.19-.11.4-.16.63-.16s.44.05.63.16c.19.11.33.27.44.47.11.2.16.44.16.72s-.05.51-.16.72c-.1.2-.25.36-.44.47-.19.11-.4.16-.63.16s-.45-.05-.63-.16ZM126.3,33.73c.13-.08.23-.2.31-.36s.11-.34.11-.56-.04-.4-.11-.56c-.08-.16-.18-.28-.31-.36s-.28-.13-.45-.13h-.04c-.17,0-.32.04-.45.13-.13.08-.23.2-.31.36-.07.16-.11.34-.11.56s.04.4.11.56c.07.16.18.28.31.36.13.08.28.13.45.13h.04c.17,0,.32-.04.45-.13Z"/>
          <path class="cls-2" d="M127.86,31.5h.34v2.32h1.55v.31h-1.89v-2.63Z"/>
          <path class="cls-2" d="M130.33,33.71h.43v.42h-.43v-.42Z"/>
        </g>
      </g>
      <g>
        <path class="cls-2" d="M120.41,40.73h-4.33v4.33h4.33v-4.33ZM119.79,44.44h-3.1v-3.1h3.1v3.1Z"/>
        <rect class="cls-2" x="121.03" y="45.68" width=".62" height=".62"/>
        <path class="cls-2" d="M116.07,53.73h4.33v-4.33h-4.33v4.33ZM116.69,50.02h3.1v3.1h-3.1v-3.1Z"/>
        <polygon class="cls-2" points="122.26 46.3 122.88 46.3 122.88 45.68 122.88 45.06 122.88 44.44 123.5 44.44 123.5 43.83 122.88 43.83 122.88 43.21 122.26 43.21 121.65 43.21 121.03 43.21 121.03 43.83 121.65 43.83 122.26 43.83 122.26 44.44 122.26 45.06 121.65 45.06 121.65 45.68 122.26 45.68 122.26 46.3"/>
        <polygon class="cls-2" points="122.88 47.54 123.5 47.54 123.5 46.92 123.5 46.3 122.88 46.3 122.88 46.92 122.88 47.54"/>
        <rect class="cls-2" x="117.31" y="41.97" width="1.86" height="1.86"/>
        <rect class="cls-2" x="117.31" y="50.63" width="1.86" height="1.86"/>
        <polygon class="cls-2" points="122.26 41.35 122.88 41.35 122.88 40.73 122.26 40.73 121.65 40.73 121.65 41.35 121.03 41.35 121.03 41.97 121.65 41.97 121.65 42.59 122.26 42.59 122.88 42.59 122.88 41.97 122.26 41.97 122.26 41.35"/>
        <polygon class="cls-2" points="124.12 43.21 124.12 42.59 124.12 41.97 124.12 41.35 123.5 41.35 122.88 41.35 122.88 41.97 123.5 41.97 123.5 42.59 123.5 43.21 123.5 43.83 124.12 43.83 124.12 43.21"/>
        <rect class="cls-2" x="119.79" y="48.16" width=".62" height=".62"/>
        <rect class="cls-2" x="121.03" y="44.44" width=".62" height=".62"/>
        <polygon class="cls-2" points="123.5 48.78 123.5 49.4 123.5 50.02 124.12 50.02 124.12 49.4 124.12 48.78 124.74 48.78 124.74 48.16 124.74 47.54 124.74 46.92 124.12 46.92 124.12 47.54 123.5 47.54 123.5 48.16 123.5 48.78"/>
        <polygon class="cls-2" points="123.5 45.68 124.12 45.68 124.12 45.06 124.12 44.44 123.5 44.44 123.5 45.06 123.5 45.68"/>
        <rect class="cls-2" x="124.12" y="45.68" width=".62" height=".62"/>
        <path class="cls-2" d="M124.74,40.73v4.33h4.33v-4.33h-4.33ZM128.45,44.44h-3.1v-3.1h3.1v3.1Z"/>
        <polygon class="cls-2" points="122.26 51.25 122.88 51.25 123.5 51.25 123.5 50.63 122.88 50.63 122.26 50.63 122.26 50.02 122.26 49.4 121.65 49.4 121.65 50.02 121.03 50.02 121.03 50.63 121.03 51.25 121.65 51.25 121.65 51.87 122.26 51.87 122.26 51.25"/>
        <polygon class="cls-2" points="124.12 52.49 123.5 52.49 122.88 52.49 122.88 51.87 122.26 51.87 122.26 52.49 121.65 52.49 121.65 53.11 122.26 53.11 122.88 53.11 122.88 53.73 123.5 53.73 124.12 53.73 124.12 53.11 124.74 53.11 125.36 53.11 125.36 52.49 125.36 51.87 124.74 51.87 124.74 52.49 124.12 52.49"/>
        <rect class="cls-2" x="122.26" y="48.78" width=".62" height=".62"/>
        <polygon class="cls-2" points="124.12 50.63 124.12 51.25 124.12 51.87 124.74 51.87 124.74 51.25 125.36 51.25 125.36 50.63 124.74 50.63 124.12 50.63"/>
        <polygon class="cls-2" points="127.22 46.92 127.22 46.3 126.6 46.3 126.6 45.68 125.98 45.68 125.98 46.3 125.36 46.3 125.36 46.92 125.98 46.92 126.6 46.92 126.6 47.54 127.22 47.54 127.84 47.54 127.84 48.16 127.22 48.16 126.6 48.16 126.6 47.54 125.98 47.54 125.36 47.54 125.36 48.16 125.98 48.16 125.98 48.78 125.36 48.78 125.36 49.4 124.74 49.4 124.74 50.02 125.36 50.02 125.36 50.63 125.98 50.63 125.98 51.25 126.6 51.25 126.6 51.87 126.6 52.49 125.98 52.49 125.98 53.11 126.6 53.11 126.6 53.73 127.22 53.73 127.22 53.11 127.22 52.49 127.22 51.87 127.22 51.25 127.84 51.25 128.45 51.25 128.45 50.63 127.84 50.63 127.84 50.02 127.22 50.02 127.22 50.63 126.6 50.63 126.6 50.02 127.22 50.02 127.22 49.4 127.84 49.4 127.84 48.78 128.45 48.78 128.45 48.16 129.07 48.16 129.07 47.54 128.45 47.54 128.45 46.92 127.84 46.92 127.22 46.92"/>
        <rect class="cls-2" x="120.41" y="46.3" width=".62" height=".62"/>
        <rect class="cls-2" x="121.03" y="48.78" width=".62" height=".62"/>
        <rect class="cls-2" x="125.98" y="41.97" width="1.86" height="1.86"/>
        <rect class="cls-2" x="128.45" y="46.3" width=".62" height=".62"/>
        <rect class="cls-2" x="127.84" y="45.68" width=".62" height=".62"/>
        <polygon class="cls-2" points="118.55 47.54 117.93 47.54 117.93 48.16 118.55 48.16 119.17 48.16 119.17 47.54 119.17 46.92 118.55 46.92 118.55 47.54"/>
        <polygon class="cls-2" points="116.69 48.16 116.69 48.78 117.31 48.78 117.93 48.78 117.93 48.16 117.31 48.16 116.69 48.16"/>
        <polygon class="cls-2" points="120.41 46.3 120.41 45.68 119.79 45.68 119.17 45.68 118.55 45.68 118.55 46.3 119.17 46.3 119.17 46.92 119.79 46.92 119.79 46.3 120.41 46.3"/>
        <polygon class="cls-2" points="116.69 46.92 117.31 46.92 117.31 47.54 117.93 47.54 117.93 46.92 118.55 46.92 118.55 46.3 117.93 46.3 117.93 45.68 117.31 45.68 117.31 46.3 116.69 46.3 116.07 46.3 116.07 46.92 116.07 47.54 116.07 48.16 116.69 48.16 116.69 47.54 116.69 46.92"/>
        <polygon class="cls-2" points="121.65 48.16 122.26 48.16 122.88 48.16 122.88 47.54 122.26 47.54 122.26 46.92 122.26 46.3 121.65 46.3 121.65 46.92 121.03 46.92 121.03 47.54 120.41 47.54 120.41 48.16 121.03 48.16 121.65 48.16"/>
        <polygon class="cls-2" points="129.07 50.02 129.07 49.4 128.45 49.4 128.45 50.02 128.45 50.63 129.07 50.63 129.07 50.02"/>
        <rect class="cls-2" x="119.79" y="46.92" width=".62" height=".62"/>
        <rect class="cls-2" x="128.45" y="53.11" width=".62" height=".62"/>
        <rect class="cls-2" x="121.03" y="51.87" width=".62" height=".62"/>
      </g>
      <g>
        <path class="cls-2" d="M109.75,80.17c-1.95,0-2.64,2.9-3.28,5.23-.23-.22-.94-.91-.94-.91-.15-.13-.31-.1-.41,0-.1.1-.11.28,0,.39,0,0,.96.92,1.3,1.24.09.09.22.13.36.06.14-.08.16-.22.16-.22,1.13-4.88,2.16-5.24,2.81-5.24.56,0,1.19.39,1.19,1.18.83,0,1.34,1.04.68,1.68.55.25.8.57.8.97s-.35.81-.86.81-.76-.31-1.15-.31c-.18,0-.29.14-.29.27v.99h-.74v-.98c0-.15-.12-.27-.27-.27h-.06l-1,.12c-.12.02-.23.14-.23.27,0,.15.13.28.3.27h.05l.63-.08v.97c0,.13.15.24.28.24h1.32c.15,0,.29-.13.29-.28v-.89c.28.16.66.22.86.22.74,0,1.45-.56,1.45-1.38,0-.74-.6-1.11-.6-1.11.35-.89-.22-1.74-.94-1.98-.26-.91-1.08-1.26-1.71-1.26"/>
        <path class="cls-2" d="M109.75,80.17c-1.95,0-2.64,2.9-3.28,5.23-.23-.22-.94-.91-.94-.91-.15-.13-.31-.1-.41,0-.1.1-.11.28,0,.39,0,0,.96.92,1.3,1.24.09.09.22.13.36.06.14-.08.16-.22.16-.22,1.13-4.88,2.16-5.24,2.81-5.24.56,0,1.19.39,1.19,1.18.83,0,1.34,1.04.68,1.68.55.25.8.57.8.97s-.35.81-.86.81-.76-.31-1.15-.31c-.18,0-.29.14-.29.27v.99h-.74v-.98c0-.15-.12-.27-.27-.27h-.06l-1,.12c-.12.02-.23.14-.23.27,0,.15.13.28.3.27h.05l.63-.08v.97c0,.13.15.24.28.24h1.32c.15,0,.29-.13.29-.28v-.89c.28.16.66.22.86.22.74,0,1.45-.56,1.45-1.38,0-.74-.6-1.11-.6-1.11.35-.89-.22-1.74-.94-1.98-.26-.91-1.08-1.26-1.71-1.26"/>
        <path class="cls-2" d="M108.92,87.93c0,.23.27.37.7.57.35.16.55.32.55.46,0,.22-.24.29-.47.29-.35,0-.56-.13-.67-.43v-.03h-.04c-.06,0-.11,0-.14.04-.03.03-.02.07,0,.11l.08.31c.02.08.05.09.17.11.06,0,.34.06.58.06.67,0,.97-.26.97-.52,0-.19-.2-.37-.61-.57l-.19-.09c-.29-.13-.46-.21-.46-.35s.18-.23.44-.23c.34,0,.42.18.46.34v.03h.04c.08,0,.12,0,.15-.04.02-.02.03-.04.02-.06l-.03-.27c0-.08-.08-.1-.17-.11-.11-.02-.25-.04-.45-.04-.57,0-.91.16-.91.43"/>
        <path class="cls-2" d="M110.85,88.47c0,.46.42.93,1.22.93.41,0,.63-.09.81-.18l.04-.03-.08-.08h0s-.03-.02-.06-.02h-.04c-.06.04-.25.12-.58.12-.42,0-.86-.26-.86-.83s.49-.74.9-.74c.3,0,.46.1.49.31v.04h.04s.13,0,.13-.07v-.32c0-.08-.1-.09-.13-.1h-.04c-.1-.02-.18-.03-.43-.03-.82,0-1.42.41-1.42.98"/>
        <path class="cls-2" d="M107.81,87.52h-.72s-.48,0-.48,0h-.08s-.08.03-.08.07c0,.02,0,.08.08.08.29,0,.3.03.3.13v.36s0,.61,0,.61c0,.1,0,.27-.01.39,0,.04,0,.08-.26.08-.07,0-.11.01-.11.08,0,.02,0,.07.07.07h.02s.11,0,.51,0c.43,0,.51,0,.55,0h.01c.06,0,.11,0,.11-.07,0-.08-.06-.08-.18-.08-.26,0-.26-.04-.26-.07,0-.12-.01-.29-.01-.39v-.22h.22c.33,0,.37,0,.42.25.01.05.06.06.1.06.08,0,.09-.04.09-.06v-.09c-.01-.05-.02-.12-.02-.21v-.37c0-.06-.07-.06-.11-.06-.06,0-.08.04-.12.22-.02.07-.15.11-.37.11h-.2v-.55c0-.15.03-.15.06-.15.13,0,.44-.02.53-.02s.17.02.22.05c.16.1.25.16.3.2.05.04.08.06.12.06.03,0,.1,0,.1-.06,0-.01,0-.03-.03-.08-.03-.06-.07-.15-.13-.29-.02-.04-.07-.04-.17-.04h-.46Z"/>
        <path class="cls-2" d="M112.13,80.45c.11,0,.2.04.28.11.08.08.11.17.11.27,0,.11-.04.2-.11.28-.08.08-.17.11-.28.11s-.2-.04-.28-.11-.11-.17-.11-.28.04-.2.11-.27.17-.11.28-.11M112.13,81.16c.09,0,.16-.03.23-.1s.1-.14.1-.23-.03-.16-.1-.23-.14-.1-.23-.1-.16.03-.23.1-.1.14-.1.23.03.16.1.23c.06.06.13.1.23.1M112.31,81.06h-.08c-.05-.1-.09-.15-.1-.16-.02-.01-.04-.02-.06-.02h-.04v.18h-.06v-.42h.15s.08,0,.1,0c.03,0,.04.02.06.04s.02.04.02.06c0,.03-.01.06-.03.08-.02.03-.05.04-.09.04h0s.06.04.1.11l.05.09ZM112.02,80.81h.08s.06,0,.08-.02c.01-.01.03-.03.03-.04s0-.04-.02-.04c-.01-.01-.04-.02-.09-.02h-.08v.13Z"/>
        <path class="cls-2" d="M112.13,81.25c-.11,0-.21-.04-.29-.12-.08-.08-.12-.18-.12-.29s.04-.21.12-.29c.08-.08.18-.12.29-.12s.21.04.29.12c.08.08.12.18.12.29s-.04.21-.12.29c-.08.08-.18.12-.29.12M112.13,80.47c-.1,0-.19.04-.26.11-.07.07-.11.16-.11.26s.04.19.11.26c.07.07.16.11.26.11s.19-.04.26-.11c.07-.07.11-.16.11-.26s-.04-.19-.11-.26c-.08-.07-.16-.11-.26-.11M112.13,81.18c-.1,0-.18-.03-.25-.1-.07-.07-.1-.15-.1-.25,0-.1.03-.18.1-.25.07-.07.15-.1.25-.1s.18.03.25.1c.07.07.1.15.1.25s-.04.18-.1.25c-.08.07-.16.1-.25.1M112.13,80.53c-.08,0-.16.03-.22.09-.06.06-.09.13-.09.22s.03.16.09.22c.06.06.13.09.22.09.08,0,.14-.03.19-.07h-.11c-.07-.13-.09-.16-.1-.16-.01,0-.03-.01-.05-.01h-.02v.18h-.11v-.46h.16s.08,0,.11.01c.03,0,.05.03.07.04.02.03.03.05.03.08,0,.03-.01.06-.04.09-.01.02-.03.03-.06.04.02.02.04.04.06.08l.06.1h0c.06-.06.09-.14.09-.22s-.03-.16-.09-.22c-.06-.04-.13-.07-.22-.08M112.24,81.03h.03l-.03-.05c-.05-.08-.08-.1-.08-.1h-.01s.04.05.1.15M111.98,81.03h.03v-.18h.06s.05,0,.07.03h0v-.03h.02s.06-.02.08-.04.03-.04.03-.06c0-.02,0-.04-.02-.05-.01-.02-.03-.03-.04-.03s-.05,0-.1,0h-.13v.37ZM112.11,80.84h-.1v-.16h.1c.05,0,.08,0,.1.02s.03.04.03.06-.01.05-.03.06c-.03.01-.06.02-.1.02M112.04,80.8h.06s.06,0,.07-.01c0,0,.01-.02.01-.03s0-.03-.01-.03c0,0-.03-.01-.08-.01h-.06v.09h0Z"/>
        <polygon class="cls-2" points="117.7 88.25 117.18 88.25 117.18 88.54 117.62 88.54 117.62 88.66 117.18 88.66 117.18 89.08 117.06 89.08 117.06 88.14 117.7 88.14 117.7 88.25"/>
        <path class="cls-2" d="M117.21,89.1h-.17v-.99h.68v.17h-.51v.24h.44v.17h-.44v.42ZM117.08,89.05h.07v-.42h.44v-.06h-.44v-.35h.52v-.06h-.58v.89h0Z"/>
        <path class="cls-2" d="M118.47,88.41c0-.06-.02-.1-.06-.13-.04-.03-.09-.05-.17-.05-.06,0-.12.02-.16.04s-.06.06-.06.1c0,.04.02.07.05.09.03.02.09.04.18.06.08.02.14.03.19.06.05.02.09.05.13.09s.06.09.06.15c0,.08-.03.15-.09.2-.06.06-.15.08-.25.08-.13,0-.23-.03-.3-.09-.06-.06-.1-.13-.1-.23h.12c0,.07.03.12.09.16.06.03.12.06.19.06s.13-.02.17-.04c.04-.03.06-.07.06-.12,0-.06-.02-.09-.07-.11s-.12-.05-.23-.07-.18-.06-.23-.09-.07-.09-.07-.17c0-.08.03-.13.09-.19.06-.05.14-.07.24-.07s.19.02.25.07c.06.05.09.12.1.21l-.12-.02Z"/>
        <path class="cls-2" d="M118.27,89.12c-.14,0-.24-.03-.31-.09-.07-.06-.11-.15-.11-.24v-.02l.17-.02v.02c0,.07.03.12.08.14.05.03.11.05.18.05.06,0,.12-.02.16-.04s.06-.06.06-.09-.02-.07-.06-.09c-.05-.02-.12-.05-.22-.07-.11-.02-.19-.06-.24-.1-.06-.05-.08-.11-.08-.18,0-.08.03-.15.09-.2.06-.06.15-.08.26-.08s.2.02.27.08c.07.06.11.13.11.23v.02l-.17.02v-.02c0-.06-.02-.09-.06-.12-.03-.02-.09-.04-.15-.04s-.11,0-.14.03-.05.05-.05.09c0,.03,0,.06.03.07.02.02.06.03.17.06.08.02.15.03.2.06.06.02.09.05.13.09s.06.1.06.17c0,.09-.04.17-.1.22-.08.05-.17.08-.28.08M117.9,88.8c0,.08.04.14.09.19.06.06.16.08.28.08.1,0,.18-.02.24-.07s.09-.11.09-.18c0-.06-.02-.1-.05-.13-.03-.03-.07-.06-.12-.08s-.11-.03-.19-.06c-.09-.02-.16-.04-.19-.06-.04-.02-.06-.06-.06-.11,0-.06.02-.09.07-.13.05-.02.1-.04.17-.04.08,0,.14.02.18.05s.06.07.07.13h.07c0-.08-.04-.13-.09-.17-.06-.05-.14-.07-.24-.07s-.17.02-.23.07c-.06.05-.08.1-.08.17,0,.06.02.1.06.14.05.04.12.07.22.09.11.02.19.05.24.07.06.03.08.07.08.13,0,.06-.02.1-.08.14-.05.03-.11.05-.18.05-.08,0-.15-.02-.2-.06-.06-.03-.09-.09-.09-.16h-.08Z"/>
        <path class="cls-2" d="M119.64,88.78c-.03.1-.08.18-.14.24-.07.06-.15.08-.24.08-.16,0-.27-.05-.34-.14-.07-.09-.1-.21-.1-.35,0-.15.04-.27.13-.35s.19-.13.32-.13c.09,0,.17.02.24.07s.11.12.13.2l-.13.03c-.02-.06-.06-.12-.09-.15s-.09-.05-.16-.05c-.1,0-.18.03-.24.1-.06.06-.08.16-.08.27,0,.13.03.23.09.29.06.06.13.09.22.09.07,0,.13-.02.18-.06.05-.04.08-.1.09-.18l.12.03Z"/>
        <path class="cls-2" d="M119.25,89.12c-.17,0-.28-.06-.36-.16-.07-.1-.11-.22-.11-.36,0-.16.05-.28.13-.37s.2-.13.34-.13c.09,0,.18.02.25.08.07.05.12.13.15.22v.02s-.17.04-.17.04v-.02c-.02-.06-.06-.1-.09-.13-.04-.03-.09-.05-.14-.05-.09,0-.17.03-.21.09-.05.06-.07.15-.07.25,0,.13.02.22.08.28s.12.09.2.09c.07,0,.13-.02.17-.06s.07-.09.09-.17v-.02s.18.05.18.05v.02c-.04.11-.09.2-.17.25-.07.05-.16.08-.26.08M119.25,88.15c-.13,0-.23.04-.3.12-.08.08-.12.19-.12.33,0,.13.03.24.1.33.06.09.17.13.31.13.09,0,.17-.02.23-.07.06-.05.1-.11.13-.2l-.07-.02c-.02.07-.06.13-.1.17-.05.05-.12.06-.2.06-.09,0-.18-.03-.24-.1-.06-.07-.09-.17-.09-.31,0-.12.03-.21.09-.28s.14-.11.25-.11c.07,0,.13.02.17.06.04.03.07.08.09.13l.07-.02c-.02-.07-.06-.13-.12-.17-.05-.04-.13-.06-.21-.06"/>
        <path class="cls-2" d="M119.94,88.13c.06,0,.13.02.17.07s.07.1.07.17c0,.06-.02.13-.07.17s-.1.07-.17.07c-.06,0-.13-.02-.17-.07s-.07-.1-.07-.17c0-.06.02-.13.07-.17.06-.05.11-.07.17-.07M119.94,88.58c.06,0,.1-.02.14-.06s.06-.09.06-.14-.02-.1-.06-.14-.09-.06-.14-.06-.1.02-.14.06-.06.09-.06.14.02.1.06.14c.04.05.09.07.14.07M120.06,88.51h-.06c-.03-.06-.06-.09-.06-.1,0,0-.02,0-.04,0h-.02v.11h-.04v-.26h.09s.05,0,.06,0c.02,0,.02.02.03.02,0,.02.02.02.02.04s0,.03-.02.05c-.02.02-.03.02-.06.02h0s.04.02.06.06l.03.06ZM119.88,88.37h.06s.04,0,.05,0,.02-.02.02-.03,0-.02-.02-.03-.02,0-.06,0h-.05v.08Z"/>
        <path class="cls-2" d="M119.94,88.63c-.07,0-.13-.02-.18-.07-.05-.05-.08-.11-.08-.18s.02-.13.08-.18c.05-.05.11-.08.18-.08s.13.02.18.07c.05.05.08.11.08.18s-.02.13-.07.18c-.06.05-.12.08-.19.08M119.94,88.15c-.06,0-.12.02-.17.07s-.07.1-.07.17.02.12.07.17.1.07.17.07.12-.02.17-.07.07-.09.07-.17c0-.06-.02-.12-.07-.17-.05-.05-.09-.07-.17-.07M119.94,88.59c-.06,0-.11-.02-.15-.06s-.06-.09-.06-.15c0-.06.02-.11.06-.15s.09-.06.15-.06.11.02.15.06.06.09.06.15-.02.11-.06.15c-.04.05-.09.06-.15.06M119.94,88.18c-.06,0-.09.02-.13.06s-.06.08-.06.13.02.09.06.13.08.06.13.06c.05,0,.09-.02.12-.04h-.06c-.04-.08-.06-.1-.06-.1,0,0-.02,0-.03,0h-.02v.11h-.07v-.28h.1s.05,0,.06,0c.02,0,.03.02.04.03,0,.02.02.03.02.05,0,.02,0,.04-.02.06,0,0-.02.02-.03.02.02,0,.02.03.04.06l.04.06h0s.06-.08.06-.13-.02-.09-.06-.13c-.02-.06-.06-.07-.12-.07M120.01,88.5h.02l-.02-.03c-.03-.06-.05-.06-.06-.06h0s.02.03.06.09M119.86,88.5h.02v-.11h.04s.03,0,.05.02h0v-.02h.02s.04,0,.05-.02c0-.02.02-.02.02-.04s0-.02,0-.03-.02-.02-.03-.02c-.02,0-.03,0-.06,0h-.08v.24h0ZM119.94,88.37h-.06v-.1h.06s.05,0,.06.02c.02,0,.02.02.02.04s0,.03-.02.04c-.02,0-.04,0-.06,0M119.9,88.35h.04s.04,0,.04,0t0-.02s0-.02,0-.02c0,0-.02,0-.05,0h-.03v.05Z"/>
        <path class="cls-2" d="M121.51,89.08h-.14l-.11-.28h-.39l-.1.28h-.13l.36-.94h.13l.39.94ZM121.22,88.7c-.08-.2-.12-.32-.13-.35,0-.03-.02-.06-.03-.11h0c-.02.06-.03.12-.05.17l-.1.28h.31Z"/>
        <path class="cls-2" d="M121.55,89.1h-.2l-.11-.28h-.36l-.1.28h-.19l.39-.99h.17l.4.99ZM121.39,89.05h.09l-.36-.89h-.1l-.35.89h.08l.1-.28h.43l.11.28ZM121.26,88.72h-.39l.12-.31c.02-.06.03-.11.05-.17v-.02h.06v.02s.03.08.04.11c0,.02.03.09.08.22l.06.17ZM120.94,88.66h.24l-.04-.09c-.05-.13-.07-.2-.08-.22,0,0,0-.02,0-.02,0,.03-.02.06-.03.09l-.09.25Z"/>
        <path class="cls-2" d="M121.93,88.14c.2,0,.31.16.31.48,0,.17-.02.28-.08.36s-.13.12-.23.12c-.2,0-.31-.16-.31-.48,0-.17.02-.28.08-.36.06-.08.13-.12.23-.12M121.93,89c.06,0,.11-.03.14-.09.03-.06.05-.16.05-.29,0-.09,0-.17-.02-.22-.02-.06-.03-.09-.06-.13-.03-.02-.06-.04-.1-.04-.06,0-.11.03-.14.09-.03.06-.05.16-.05.29,0,.09,0,.17.02.22.02.06.03.09.06.12.02.02.06.04.1.04"/>
        <path class="cls-2" d="M121.93,89.12c-.22,0-.33-.17-.33-.5,0-.17.03-.29.09-.38.06-.09.14-.13.25-.13.22,0,.33.17.33.5,0,.17-.03.29-.09.38-.06.09-.14.13-.25.13M121.93,88.16c-.09,0-.16.04-.2.11s-.07.19-.07.35c0,.31.09.46.28.46.09,0,.16-.03.2-.11.05-.07.07-.19.07-.35,0-.31-.09-.46-.28-.46M121.93,89.03s-.09-.02-.13-.05c-.03-.03-.06-.07-.07-.13-.02-.06-.02-.13-.02-.23,0-.14.02-.24.05-.31.04-.07.09-.1.17-.1.05,0,.09.02.13.05s.06.08.07.13c.02.06.02.13.02.23,0,.14-.02.24-.05.31-.04.06-.09.1-.17.1M121.93,88.26c-.06,0-.09.02-.12.08s-.05.15-.05.28c0,.09,0,.17.02.22.02.05.03.09.06.11.02.02.05.03.09.03.06,0,.09-.02.12-.08.03-.06.05-.15.05-.28,0-.09,0-.17-.02-.22-.02-.05-.03-.09-.06-.11-.02-.02-.06-.03-.09-.03"/>
        <path class="cls-2" d="M122.72,88.14c.2,0,.31.16.31.48,0,.17-.02.28-.08.36s-.13.12-.23.12c-.2,0-.31-.16-.31-.48,0-.17.02-.28.08-.36.05-.08.13-.12.23-.12M122.72,89c.06,0,.11-.03.14-.09.03-.06.05-.16.05-.29,0-.09,0-.17-.02-.22-.02-.06-.03-.09-.06-.13-.03-.02-.06-.04-.1-.04-.06,0-.11.03-.14.09s-.05.16-.05.29c0,.09,0,.17.02.22.02.06.04.09.06.12s.06.04.1.04"/>
        <path class="cls-2" d="M122.72,89.12c-.22,0-.33-.17-.33-.5,0-.17.02-.29.09-.38.06-.09.14-.13.25-.13.22,0,.33.17.33.5,0,.17-.03.29-.09.38-.06.09-.15.13-.25.13M122.72,88.16c-.09,0-.16.04-.2.11s-.08.19-.08.35c0,.31.09.46.28.46.09,0,.16-.03.2-.11.05-.07.08-.19.08-.35,0-.31-.09-.46-.28-.46M122.72,89.03s-.09-.02-.13-.05c-.03-.03-.06-.07-.07-.13-.02-.06-.02-.13-.02-.23,0-.14.02-.24.05-.31.04-.07.09-.1.17-.1.05,0,.09.02.13.05.03.03.06.08.07.13s.02.13.02.23c0,.14-.02.24-.05.31-.04.07-.09.1-.17.1M122.72,88.26c-.06,0-.09.02-.12.08-.03.06-.05.15-.05.28,0,.09,0,.17.02.22.02.05.03.09.06.11s.06.03.09.03c.06,0,.09-.02.12-.08.03-.06.05-.15.05-.28,0-.09,0-.17-.02-.22-.02-.05-.03-.09-.06-.11-.02-.02-.06-.03-.09-.03"/>
        <path class="cls-2" d="M123.5,88.14c.2,0,.31.16.31.48,0,.17-.02.28-.08.36s-.13.12-.23.12c-.2,0-.31-.16-.31-.48,0-.17.02-.28.08-.36.05-.08.13-.12.23-.12M123.5,89c.06,0,.11-.03.14-.09.03-.06.05-.16.05-.29,0-.09,0-.17-.02-.22-.02-.06-.03-.09-.06-.13-.03-.02-.06-.04-.11-.04-.06,0-.11.03-.14.09s-.05.16-.05.29c0,.09,0,.17.02.22.02.06.03.09.06.12.03.02.06.04.11.04"/>
        <path class="cls-2" d="M123.5,89.12c-.22,0-.33-.17-.33-.5,0-.17.03-.29.09-.38.06-.09.14-.13.25-.13.22,0,.33.17.33.5,0,.17-.03.29-.09.38-.06.09-.15.13-.25.13M123.5,88.16c-.09,0-.16.04-.2.11-.05.08-.08.19-.08.35,0,.31.09.46.28.46.09,0,.16-.03.2-.11.05-.07.08-.19.08-.35,0-.31-.09-.46-.28-.46M123.5,89.03s-.09-.02-.13-.05c-.03-.03-.06-.07-.07-.13-.02-.06-.02-.13-.02-.23,0-.14.02-.24.05-.31.03-.07.09-.1.17-.1.05,0,.09.02.13.05.03.03.06.08.07.13s.02.13.02.23c0,.14-.02.24-.05.31-.04.06-.09.1-.17.1M123.5,88.26c-.06,0-.09.02-.12.08-.03.06-.05.15-.05.28,0,.09,0,.17.02.22.02.05.03.09.06.11s.06.03.09.03c.06,0,.09-.02.12-.08.03-.06.05-.15.05-.28,0-.09,0-.17-.02-.22-.02-.05-.03-.09-.06-.11-.02-.02-.05-.03-.09-.03"/>
        <path class="cls-2" d="M124.12,88.51c.06-.04.12-.06.18-.06.08,0,.15.02.2.09.06.06.09.13.09.22s-.03.17-.09.24c-.06.06-.13.09-.24.09-.08,0-.15-.02-.2-.06-.06-.05-.09-.11-.1-.2h.12c0,.06.03.09.06.13.03.03.07.05.12.05.06,0,.11-.02.14-.06.04-.05.06-.1.06-.17s-.02-.12-.06-.16-.09-.06-.14-.06c-.07,0-.13.03-.17.09l-.11-.02.09-.49h.47v.11h-.38l-.05.24Z"/>
        <path class="cls-2" d="M124.27,89.12c-.09,0-.16-.02-.22-.07s-.1-.12-.11-.21v-.02l.17-.02v.02c0,.06.02.09.06.12s.06.04.1.04c.06,0,.09-.02.13-.06.03-.04.05-.09.05-.15s-.02-.1-.05-.14c-.03-.03-.07-.05-.13-.05-.06,0-.12.02-.15.08v.02s-.16-.02-.16-.02l.1-.53h.51v.17h-.38l-.04.17s.09-.03.14-.03c.09,0,.16.03.22.09.06.06.09.14.09.24s-.03.18-.09.25c-.06.06-.14.1-.25.1M124.01,88.85c0,.06.04.12.09.15.06.04.12.06.19.06.09,0,.16-.03.21-.09.06-.06.08-.13.08-.22s-.02-.15-.08-.2c-.06-.05-.12-.08-.19-.08-.06,0-.11.02-.17.06l-.06.03.07-.33h.37v-.06h-.42l-.09.43h.07c.05-.06.11-.08.18-.08.06,0,.12.02.17.06.04.04.06.1.06.17s-.02.13-.06.18c-.04.05-.09.08-.17.08-.06,0-.1-.02-.13-.06-.03-.03-.06-.07-.06-.13l-.06.02Z"/>
        <path class="cls-2" d="M125.37,89.08h-.63c0-.06.02-.11.06-.16.04-.06.1-.13.21-.2.06-.05.12-.1.17-.16s.07-.11.07-.17c0-.05-.02-.09-.05-.12-.03-.03-.08-.05-.13-.05-.06,0-.09.02-.13.05-.03.03-.06.08-.06.14l-.12-.02c0-.09.04-.16.09-.2s.13-.07.21-.07c.09,0,.17.02.22.08.05.05.08.11.08.19,0,.06-.02.12-.06.18-.05.06-.13.14-.26.25-.07.06-.11.1-.13.14h.46v.11h0Z"/>
        <path class="cls-2" d="M125.4,89.1h-.68v-.02c0-.06.02-.12.06-.17s.11-.13.21-.21c.06-.05.12-.1.17-.15s.07-.1.07-.15c0-.04-.02-.07-.04-.1-.03-.02-.06-.04-.11-.04s-.09.02-.11.04c-.03.02-.05.07-.05.13v.03l-.17-.02v-.02c0-.09.04-.17.1-.22.06-.05.13-.08.23-.08.1,0,.18.03.24.09s.09.13.09.2c0,.06-.02.13-.07.2-.05.06-.13.15-.27.25-.05.03-.08.06-.1.09h.44v.16h0ZM124.77,89.05h.57v-.06h-.48l.02-.04s.07-.09.14-.15c.13-.1.21-.18.26-.24.04-.06.06-.11.06-.17,0-.06-.02-.12-.07-.17-.05-.05-.11-.07-.2-.07-.08,0-.14.02-.2.06-.05.04-.07.09-.08.16h.06s.02-.09.06-.13c.04-.04.09-.06.15-.06.06,0,.11.02.15.06s.06.08.06.13c0,.06-.02.13-.08.18-.05.06-.1.11-.17.16-.1.08-.17.14-.2.2s-.06.09-.06.13"/>
        <path class="cls-2" d="M125.98,89.08h-.12v-.74c-.06.06-.13.1-.24.14v-.11c.13-.06.23-.14.28-.24h.08v.94Z"/>
        <path class="cls-2" d="M126.01,89.1h-.17v-.71c-.06.04-.12.08-.2.11l-.03.02v-.17h.02c.13-.07.21-.14.26-.24v-.02h.13v1h0ZM125.89,89.05h.06v-.89h-.03c-.05.09-.14.17-.26.23v.06c.08-.03.14-.07.19-.12l.05-.04v.76h0Z"/>
        <g>
          <path class="cls-2" d="M118.65,82.63h.34l.35,1.06h-.02l.34-1.06h.34v1.25h-.21v-1.07h.01s-.35,1.07-.35,1.07h-.25l-.36-1.07h.01s0,1.07,0,1.07h-.21v-1.25Z"/>
          <path class="cls-2" d="M120.43,82.63h.21v1.25h-.21v-1.25Z"/>
          <path class="cls-2" d="M121.8,82.63h.24l-.86,1.25h-.24l.86-1.25ZM120.96,82.63h.25l.85,1.25h-.25l-.85-1.25Z"/>
          <path class="cls-2" d="M122.35,82.63h.93v.19h-.72v.32h.61v.19h-.61v.36h.74v.19h-.95v-1.25Z"/>
          <path class="cls-2" d="M123.64,82.63h.44c.12,0,.23.02.32.07s.16.12.21.21c.05.09.08.21.08.34s-.03.25-.08.34c-.05.09-.12.16-.21.21-.09.05-.2.07-.32.07h-.44v-1.25ZM124.29,83.64c.06-.03.11-.08.14-.14s.05-.15.05-.25c0-.15-.04-.26-.11-.33-.07-.07-.17-.1-.31-.1h-.21v.87h.21c.09,0,.16-.01.22-.04Z"/>
          <path class="cls-2" d="M116.04,84.52h.55c.08,0,.15.01.21.05.06.03.11.07.14.13s.05.13.05.21-.02.15-.05.21c-.03.06-.08.1-.14.13-.06.03-.13.05-.21.05h-.33v.47h-.21v-1.25ZM116.72,85.05s.06-.08.06-.14-.02-.11-.06-.14c-.04-.04-.09-.05-.16-.05h-.31v.39h.31c.07,0,.12-.02.16-.05Z"/>
          <path class="cls-2" d="M117.58,84.52h.26l.49,1.25h-.22l-.41-1.07h.03l-.41,1.07h-.22l.5-1.25ZM117.39,85.27h.67v.19s-.7,0-.7,0l.04-.19Z"/>
          <path class="cls-2" d="M118.79,85.71c-.09-.05-.16-.13-.21-.23s-.07-.21-.07-.33.02-.24.07-.33.12-.17.21-.23c.09-.05.2-.08.32-.08.1,0,.19.02.26.05.08.04.13.09.18.15.04.06.07.14.08.22h-.21c-.01-.07-.04-.13-.1-.17s-.12-.06-.2-.06h-.02c-.08,0-.14.02-.2.06s-.1.09-.13.16c-.03.07-.04.15-.04.24s.01.17.04.24c.03.07.07.12.13.16s.12.06.2.06h.02c.05,0,.1,0,.14-.03s.07-.04.1-.08.04-.08.05-.12h.21c0,.08-.03.16-.07.22-.04.06-.1.11-.18.15s-.16.05-.26.05c-.12,0-.23-.03-.32-.08Z"/>
          <path class="cls-2" d="M119.97,84.52h.21v1.25h-.21v-1.25ZM120.15,85.15l.61-.63h.27l-.88.91v-.29ZM120.32,85.13l.17-.14.54.78h-.27l-.44-.64Z"/>
          <path class="cls-2" d="M121.66,84.52h.26l.49,1.25h-.22l-.41-1.07h.03l-.41,1.07h-.22l.5-1.25ZM121.47,85.27h.67v.19s-.7,0-.7,0l.04-.19Z"/>
          <path class="cls-2" d="M122.87,85.71c-.09-.05-.16-.13-.21-.23-.05-.1-.07-.21-.07-.33s.03-.23.08-.33.12-.17.21-.23c.09-.06.2-.08.32-.08.1,0,.2.02.27.06.08.04.14.09.18.16.04.07.07.14.07.23h-.21c0-.08-.04-.14-.09-.18-.05-.04-.12-.07-.21-.07h-.02c-.08,0-.15.02-.21.05-.06.04-.1.09-.13.16-.03.07-.05.15-.05.24s.02.17.05.24c.03.07.08.12.13.16.06.04.13.05.21.05h.02c.06,0,.11-.01.16-.03.05-.02.09-.05.12-.09.03-.04.05-.08.06-.14v-.02s-.35,0-.35,0v-.19h.38s.09.01.11.04.04.06.04.11v.49h-.19v-.13s-.05.05-.08.07-.07.04-.12.05c-.05.01-.1.02-.16.02-.12,0-.22-.03-.31-.08Z"/>
          <path class="cls-2" d="M124.11,84.52h.21v1.25h-.21v-1.25Z"/>
          <path class="cls-2" d="M124.76,84.52h.29l.55,1.01-.02.02v-1.03h.21v1.25h-.29l-.55-1.01.02-.02v1.02h-.21v-1.25Z"/>
          <path class="cls-2" d="M126.43,85.71c-.09-.05-.16-.13-.21-.23-.05-.1-.07-.21-.07-.33s.03-.23.08-.33.12-.17.21-.23c.09-.06.2-.08.32-.08.1,0,.2.02.27.06.08.04.14.09.18.16.04.07.07.14.07.23h-.21c0-.08-.04-.14-.09-.18-.05-.04-.12-.07-.21-.07h-.02c-.08,0-.15.02-.21.05-.06.04-.1.09-.13.16-.03.07-.05.15-.05.24s.02.17.05.24c.03.07.08.12.13.16.06.04.13.05.21.05h.02c.06,0,.11-.01.16-.03.05-.02.09-.05.12-.09.03-.04.05-.08.06-.14v-.02s-.35,0-.35,0v-.19h.38s.09.01.11.04.04.06.04.11v.49h-.19v-.13s-.05.05-.08.07-.07.04-.12.05c-.05.01-.1.02-.16.02-.12,0-.22-.03-.31-.08Z"/>
        </g>
      </g>
      <rect class="cls-10" x="103.1" y="78.92" width="26.7" height="12.26" rx="1.81" ry="1.81"/>
    </g>
  </g>
</svg>