<?xml version="1.0" encoding="UTF-8"?>
<svg id="Layer_2" data-name="Layer 2" xmlns="http://www.w3.org/2000/svg" viewBox="0 0 149.76 154.2">
  <defs>
    <style>
      .cls-1 {
        fill: #fa4803;
      }

      .cls-2 {
        fill: #ffc9ef;
      }
    </style>
  </defs>
  <g id="Layer_1-2" data-name="Layer 1">
    <g>
      <rect class="cls-2" width="149.76" height="154.2"/>
      <g>
        <path class="cls-1" d="M44.49,72.98h.98l2.85,4.84-.13.04v-4.88h.71v5.54h-.96l-2.86-4.85.12-.03v4.88h-.71v-5.54Z"/>
        <path class="cls-1" d="M50.88,78.34c-.28-.17-.51-.42-.67-.73-.16-.31-.25-.67-.25-1.07s.08-.76.25-1.07c.16-.31.39-.55.67-.73.28-.17.6-.26.95-.26s.67.09.96.26c.28.17.51.42.67.73.16.31.25.67.25,1.07s-.08.76-.25,1.07c-.16.31-.39.55-.67.73s-.6.26-.96.26-.66-.09-.95-.26ZM52.46,77.85c.18-.12.31-.29.42-.51.1-.22.15-.49.15-.79s-.05-.57-.15-.79c-.1-.22-.24-.4-.42-.51-.18-.12-.38-.18-.6-.18h-.07c-.22,0-.42.06-.6.18-.18.12-.32.29-.42.51-.1.22-.15.49-.15.79s.05.57.15.79c.1.22.24.4.42.51.18.12.38.18.6.18h.07c.22,0,.42-.06.6-.18Z"/>
        <path class="cls-1" d="M55.24,78.42c-.2-.12-.36-.29-.46-.5-.1-.21-.15-.46-.15-.74v-2.61h.67v2.45c0,.34.07.59.21.76s.35.25.64.25h.07c.18,0,.35-.05.51-.16s.29-.26.39-.46c.1-.2.15-.43.15-.7v-2.14h.67v3.95h-.67v-.75c-.09.25-.25.45-.47.6-.22.15-.49.23-.81.23-.29,0-.54-.06-.74-.18Z"/>
        <path class="cls-1" d="M59.16,74.56h.63v.88c.08-.29.23-.52.44-.68.21-.16.46-.24.73-.24h.36v.64h-.32c-.36,0-.65.12-.86.37-.21.25-.31.58-.31,1.01v1.98h-.67v-3.95Z"/>
        <path class="cls-1" d="M62.04,73.05h.75v.81h-.75v-.81ZM62.08,74.56h.67v3.95h-.67v-3.95Z"/>
        <path class="cls-1" d="M64.09,78.24c-.28-.24-.42-.55-.44-.93h.67c.03.24.12.42.29.54s.38.18.64.18h.07c.23,0,.42-.05.57-.16.15-.11.22-.25.22-.42,0-.14-.05-.26-.14-.34-.09-.09-.24-.15-.46-.19l-.58-.12c-.34-.07-.62-.19-.82-.37-.21-.18-.31-.42-.31-.74,0-.25.07-.47.2-.65.13-.18.31-.32.54-.41.22-.09.47-.14.73-.14.49,0,.87.12,1.13.36s.4.55.41.92h-.67c-.03-.21-.11-.38-.25-.51s-.33-.21-.58-.21h-.07c-.23,0-.42.05-.56.16-.14.11-.21.24-.21.4,0,.15.05.27.14.35.1.09.25.15.47.19l.62.13c.33.06.59.18.78.36s.29.43.29.75c0,.24-.06.45-.19.62-.13.18-.31.32-.54.42-.23.1-.49.15-.79.15-.5,0-.89-.12-1.17-.36Z"/>
        <path class="cls-1" d="M67.79,72.98h.67v2.17c.13-.21.31-.38.53-.49.22-.12.48-.18.79-.18s.55.06.76.17c.21.12.37.28.48.49.11.21.16.46.16.74v2.63h-.67v-2.47c0-.21-.03-.39-.09-.54-.06-.15-.15-.26-.28-.34s-.28-.12-.47-.12h-.07c-.19,0-.38.05-.55.15-.17.1-.31.25-.42.44-.11.19-.16.42-.16.68v2.19h-.67v-5.54Z"/>
        <path class="cls-1" d="M73.02,78.36c-.28-.16-.5-.39-.66-.7-.16-.31-.25-.69-.25-1.13s.08-.81.25-1.12.39-.54.67-.7c.28-.16.57-.23.89-.23.33,0,.62.07.87.22s.44.35.58.62c.13.27.2.57.2.91v.4h-2.79c.01.31.07.56.18.77.11.21.25.36.43.47.17.1.35.15.54.15h.06c.23,0,.42-.06.59-.17.16-.11.27-.28.32-.5h.67c-.07.39-.26.69-.56.91s-.65.32-1.07.32c-.34,0-.64-.08-.92-.23ZM74.62,75.32c-.17-.18-.4-.27-.66-.27h-.06c-.25,0-.48.08-.68.25s-.33.43-.4.79h2.09c-.02-.33-.11-.59-.28-.77Z"/>
        <path class="cls-1" d="M77.17,78.35c-.26-.17-.46-.4-.61-.71s-.22-.67-.22-1.09.08-.79.23-1.1c.16-.31.37-.55.64-.71.27-.17.57-.25.91-.25.26,0,.51.06.75.19s.4.28.51.47v-2.16h.67v5.54h-.67v-.58c-.11.19-.28.35-.53.47-.25.12-.51.19-.78.19-.34,0-.64-.08-.89-.25ZM78.8,77.85c.18-.12.32-.29.42-.52.1-.22.15-.49.15-.79s-.05-.56-.15-.79c-.1-.22-.24-.4-.42-.52-.18-.12-.38-.18-.6-.18h-.06c-.23,0-.42.06-.59.18-.17.12-.3.29-.4.52-.09.22-.14.49-.14.79,0,.46.1.82.31,1.09.21.27.48.4.82.4h.06c.22,0,.42-.06.6-.18Z"/>
        <path class="cls-1" d="M84.4,78.41c-.25-.12-.42-.28-.53-.47v.58h-.67v-5.54h.67v2.16c.11-.19.27-.35.51-.47s.48-.19.75-.19c.33,0,.63.08.91.25s.48.4.64.71c.15.31.23.67.23,1.1s-.07.79-.22,1.09c-.15.31-.35.55-.61.71s-.56.25-.89.25c-.27,0-.53-.06-.77-.19ZM85.69,77.85c.17-.12.3-.29.4-.52.1-.22.14-.49.14-.79,0-.46-.1-.82-.31-1.09-.21-.27-.48-.4-.83-.4h-.06c-.22,0-.42.06-.6.18-.18.12-.31.29-.42.52s-.15.49-.15.79.05.56.15.79c.1.22.24.4.42.52s.38.18.6.18h.06c.23,0,.43-.06.6-.18Z"/>
        <path class="cls-1" d="M87.26,74.56h.72l1.47,3.24-.25,1-1.94-4.25ZM87.47,79.31h.79c.14,0,.25-.03.32-.09.07-.06.14-.17.21-.34l1.71-4.32h.7l-1.87,4.66c-.11.26-.23.44-.37.53-.14.1-.34.15-.59.15h-.9v-.59Z"/>
        <path class="cls-1" d="M93.85,78.24c-.28-.24-.42-.55-.43-.93h.67c.03.24.12.42.29.54s.38.18.64.18h.07c.23,0,.42-.05.57-.16.15-.11.22-.25.22-.42,0-.14-.05-.26-.14-.34-.09-.09-.24-.15-.45-.19l-.58-.12c-.34-.07-.62-.19-.82-.37-.21-.18-.31-.42-.31-.74,0-.25.07-.47.2-.65.13-.18.31-.32.54-.41.22-.09.47-.14.73-.14.49,0,.87.12,1.13.36s.4.55.41.92h-.67c-.03-.21-.11-.38-.25-.51-.14-.14-.33-.21-.58-.21h-.07c-.23,0-.42.05-.56.16-.14.11-.21.24-.21.4,0,.15.05.27.14.35.1.09.25.15.47.19l.62.13c.33.06.59.18.78.36.19.18.29.43.29.75,0,.24-.06.45-.19.62-.13.18-.31.32-.54.42-.23.1-.49.15-.79.15-.5,0-.89-.12-1.17-.36Z"/>
        <path class="cls-1" d="M98.13,78.42c-.2-.12-.36-.29-.46-.5-.1-.21-.15-.46-.15-.74v-2.61h.67v2.45c0,.34.07.59.21.76s.35.25.64.25h.07c.18,0,.35-.05.51-.16s.29-.26.39-.46c.1-.2.15-.43.15-.7v-2.14h.67v3.95h-.67v-.75c-.09.25-.25.45-.47.6-.22.15-.49.23-.81.23-.29,0-.54-.06-.74-.18Z"/>
        <path class="cls-1" d="M102.04,74.56h.67v.59c.13-.21.3-.37.52-.49.22-.12.48-.18.79-.18s.54.06.75.17c.21.11.37.28.49.49.11.21.17.46.17.75v2.62h-.67v-2.47c0-.22-.03-.4-.09-.55s-.15-.26-.28-.34c-.13-.08-.29-.12-.47-.12h-.06c-.22,0-.41.06-.58.17-.17.11-.31.27-.4.47s-.15.43-.15.69v2.13h-.67v-3.95Z"/>
      </g>
    </g>
  </g>
</svg>