<?xml version="1.0" encoding="UTF-8"?>
<svg id="Layer_2" data-name="Layer 2" xmlns="http://www.w3.org/2000/svg" xmlns:xlink="http://www.w3.org/1999/xlink" viewBox="203.59 0 149.76 489.04">
  <defs>
    <style>
      .cls-1, .cls-2 {
        fill: none;
      }

      .cls-3 {
        fill: #fa4803;
      }

      .cls-4 {
        fill: #ffc9ef;
      }

      .cls-2 {
        stroke: #ffc9ef;
        stroke-miterlimit: 10;
        stroke-width: .25px;
      }

      .cls-5 {
        clip-path: url(#clippath);
      }
    </style>
    <clipPath id="clippath">
      <rect class="cls-1" x="203.71" width="149.33" height="489.04"/>
    </clipPath>
  </defs>
  <g id="Layer_1-2" data-name="Layer 1">
    <g>
      <rect class="cls-3" x="203.71" width="149.33" height="489.04"/>
      <path class="cls-2" d="M337.4,448.78c-.09,0-.16-.08-.16-.17v-.23h1v-1.1h0c2.11-.62,3.03-2.29,3.03-4.89,0-4.18-.94-5.34-4-5.34-1.97,0-4.7.72-6.1,1.75-1.13.83-1.09,2.27-.95,3.63.34,3.43.96,4.55,2.94,4.9v1.05h1.09v.23c0,.09-.07.17-.16.17l-3.14.55c-.21.04-.37.22-.37.44v25.7c0,.11.09.2.2.2h10c.11,0,.2-.09.2-.2v-25.7c0-.22-.15-.4-.37-.44l-3.22-.55Z"/>
      <g>
        <path class="cls-4" d="M336.45,467.59h.29v-.18h-.29s-.04-.02-.04-.04h0s.02-.04.04-.04h.34v-.18h-.56v.71h.56v-.17h-.34s-.04-.02-.04-.04h0s.02-.05.04-.05ZM335.41,467.49c0,.21-.14.37-.37.37s-.37-.17-.37-.37.14-.37.37-.37.37.17.37.37ZM335.04,467.33c-.1,0-.16.07-.16.16s.06.16.16.16.16-.07.16-.16-.06-.16-.16-.16ZM335.82,467.12c-.23,0-.37.17-.37.37s.13.37.37.37.37-.17.37-.37-.14-.37-.37-.37ZM335.98,467.49c0,.09-.06.16-.16.16s-.16-.07-.16-.16.06-.16.16-.16.16.07.16.16ZM334.52,467.32c.06,0,.09,0,.15.01v-.2s-.1-.02-.17-.02h0c-.22,0-.37.16-.37.37s.15.37.37.37h0c.06,0,.11,0,.17-.02v-.2c-.06.01-.09.01-.15.01-.11,0-.19-.08-.19-.17s.07-.17.19-.17ZM337.05,467.59h.29v-.18h-.29s-.04-.02-.04-.04h0s.02-.04.04-.04h.34v-.18h-.56v.71h.56v-.17h-.34s-.04-.02-.04-.04h0s.02-.05.04-.05Z"/>
        <g>
          <path class="cls-4" d="M336.08,473.2h-.41v.73h.22v-.22h.19c.14,0,.25-.11.25-.25h0c0-.14-.11-.25-.25-.25ZM336.05,473.52h-.16v-.14h.16s.07.03.07.07-.03.07-.07.07Z"/>
          <path class="cls-4" d="M332.54,473.2h-.22,0s-.31.73-.31.73h.22l.05-.12h.31l.05.12h.22l-.32-.73h0ZM332.36,473.62l.07-.17.07.17h-.15Z"/>
          <path class="cls-4" d="M336.73,473.2h-.22,0s-.31.73-.31.73h.22l.05-.12h.31l.05.12h.22l-.32-.73h0ZM336.55,473.62l.07-.17.07.17h-.15Z"/>
          <path class="cls-4" d="M331.42,473.93h.57v-.18h-.34s-.05-.02-.05-.05h0s.02-.05.05-.05h.29v-.19h-.29s-.05-.02-.05-.05.02-.05.05-.05h.34v-.19h-.57v.73Z"/>
          <path class="cls-4" d="M334.71,473.93h.57v-.18h-.34s-.05-.02-.05-.05h0s.02-.05.05-.05h.29v-.19h-.29s-.05-.02-.05-.05.02-.05.05-.05h.34v-.19h-.57v.73Z"/>
          <path class="cls-4" d="M338,473.66h.32v-.19h-.31s-.05-.02-.05-.05.02-.05.05-.05h.36v-.19h-.59v.73h.22v-.27Z"/>
          <path class="cls-4" d="M337.72,473.44h0c0-.14-.11-.25-.25-.25h-.42v.73h.22v-.28l.21.29h.24l-.18-.25c.1-.03.18-.13.18-.24ZM337.5,473.44s-.03.06-.06.06h-.17v-.13h.17s.06.03.06.06h0Z"/>
          <path class="cls-4" d="M334.26,473.93c.23,0,.36-.16.36-.37s-.14-.37-.36-.37h-.35v.73h.35ZM334.26,473.38c.1,0,.16.08.16.18s-.06.18-.16.18h-.13v-.37h.13Z"/>
          <path class="cls-4" d="M333.54,473.2h-.22v.37c0,.13-.08.15-.15.15-.06,0-.15-.02-.15-.15v-.37h-.22v.37c0,.22.15.37.37.37s.37-.15.37-.37v-.37h0Z"/>
          <path class="cls-4" d="M339.15,473.2h-.22v.37c0,.13-.08.15-.15.15-.06,0-.15-.02-.15-.15v-.37h-.22v.37c0,.22.15.37.37.37s.37-.15.37-.37v-.37h0Z"/>
          <polygon class="cls-4" points="339.65 473.65 339.44 473.2 339.2 473.2 339.2 473.93 339.39 473.93 339.39 473.57 339.56 473.93 339.71 473.93 339.89 473.57 339.89 473.93 340.09 473.93 340.09 473.2 339.86 473.2 339.65 473.65"/>
        </g>
        <g>
          <path class="cls-4" d="M334.7,470.18h-.21v.37c0,.12-.08.15-.15.15-.06,0-.15-.02-.15-.15v-.37h-.21v.37c0,.21.15.36.36.36s.36-.15.36-.36v-.37h0Z"/>
          <path class="cls-4" d="M337.45,470.18h-.21v.71h.21v-.71Z"/>
          <path class="cls-4" d="M335.29,470.55l-.38-.37h-.14v.71h.21v-.37l.38.37h.14v-.71h-.21v.37Z"/>
          <path class="cls-4" d="M338.04,470.18v.37l-.38-.37h-.14v.71h.21v-.37l.38.37h.14v-.71h-.21Z"/>
          <path class="cls-4" d="M336.97,470.18l-.21.22s-.05,0-.05-.02v-.2h-.21v.71h.21v-.2s.03-.04.05-.02l.21.22h.25l-.34-.36.34-.35h-.25Z"/>
          <path class="cls-4" d="M336.17,470.62c.05,0,.08.02.08.04,0,.03-.04.05-.15.05-.12,0-.23-.04-.32-.09v.19c.09.05.19.08.33.08.26,0,.34-.11.34-.24,0-.12-.08-.2-.26-.21-.04,0-.1,0-.15-.01-.05,0-.08-.02-.08-.04,0-.03.04-.05.15-.05s.21.03.31.06v-.19c-.09-.03-.2-.06-.31-.06-.24,0-.34.11-.34.24,0,.12.08.2.26.21.06,0,.1,0,.15.01Z"/>
          <path class="cls-4" d="M333.67,470.62c.05,0,.08.02.08.04,0,.03-.04.05-.15.05-.12,0-.23-.04-.32-.09v.19c.09.05.19.08.33.08.26,0,.34-.11.34-.24,0-.12-.08-.2-.26-.21-.04,0-.1,0-.15-.01-.05,0-.08-.02-.08-.04,0-.03.04-.05.15-.05s.21.03.31.06v-.19c-.09-.03-.2-.06-.31-.06-.24,0-.34.11-.34.24,0,.12.08.2.26.21.06,0,.1,0,.15.01Z"/>
        </g>
      </g>
      <g class="cls-5">
        <g>
          <path class="cls-4" d="M71.55,344.42h-10.56v18.11c0,6.12-4.03,7.41-7.41,7.41-2.77,0-7.41-.96-7.41-7.41v-18.11h-10.56v18.11c0,10.59,7.39,17.98,17.98,17.98s17.98-7.23,17.98-17.98v-18.11h-.03Z"/>
          <path class="cls-4" d="M207.85,344.42h-10.56v35.3h10.56v-35.3Z"/>
          <path class="cls-4" d="M100.43,362.78l-19.08-18.36h-7.15v35.29h10.56v-18.36l19.08,18.36h7.15v-35.29h-10.56v18.36Z"/>
          <path class="cls-4" d="M236.99,344.42v18.36l-19.08-18.36h-7.15v35.29h10.56v-18.36l19.08,18.36h7.15v-35.29h-10.56Z"/>
          <path class="cls-4" d="M184.19,344.42l-10.28,10.71c-.85.89-2.35.29-2.35-.94v-9.77h-10.56v35.3h10.56v-9.93c0-1.23,1.51-1.83,2.35-.93l10.28,10.88h12.43l-16.81-17.79,16.81-17.51h-12.43Z"/>
          <path class="cls-4" d="M144.26,366.51c2.64.24,4.02.78,4.02,2.2,0,1.66-2.16,2.55-7.39,2.55-5.94,0-11.42-2.06-15.98-4.38v9.58c4.56,2.47,9.52,4.07,16.22,4.07,12.83,0,16.89-5.54,16.89-11.83,0-5.72-4.19-9.91-12.73-10.65-2.07-.19-5.15-.42-7.53-.64-2.64-.24-4.02-.78-4.02-2.2,0-1.66,2.16-2.55,7.39-2.55s10.44,1.33,15.16,2.99v-9.45c-4.48-1.65-9.91-2.81-15.4-2.81-11.94,0-16.89,5.64-16.89,11.83,0,5.72,4.19,9.91,12.73,10.65,2.99.26,5.09.43,7.53.64Z"/>
          <path class="cls-4" d="M20.26,366.51c2.64.24,4.02.78,4.02,2.2,0,1.66-2.16,2.55-7.39,2.55-5.94,0-11.42-2.06-15.98-4.38v9.58c4.56,2.47,9.52,4.07,16.22,4.07,12.83,0,16.89-5.54,16.89-11.83,0-5.72-4.19-9.91-12.73-10.65-2.07-.19-5.15-.42-7.53-.64-2.64-.24-4.02-.78-4.02-2.2,0-1.66,2.16-2.55,7.39-2.55s10.44,1.33,15.16,2.99v-9.45c-4.48-1.65-9.91-2.81-15.4-2.81-11.94,0-16.89,5.64-16.89,11.83,0,5.72,4.19,9.91,12.73,10.65,2.99.26,5.09.43,7.53.64Z"/>
        </g>
      </g>
      <g>
        <path class="cls-4" d="M244.87,467.22h2.38v.41h-1.94v1.17h1.69v.41h-1.69v1.48h-.44v-3.46Z"/>
        <path class="cls-4" d="M248.12,470.56c-.18-.11-.32-.26-.42-.46-.1-.19-.15-.42-.15-.67s.05-.47.15-.67.24-.35.42-.45c.18-.11.38-.16.59-.16s.42.05.6.16.32.26.42.45c.1.19.15.42.15.67s-.05.47-.15.67c-.1.19-.24.35-.42.46-.18.11-.38.16-.6.16s-.41-.05-.59-.16ZM249.11,470.26c.11-.07.2-.18.26-.32s.09-.31.09-.5-.03-.36-.09-.5c-.06-.14-.15-.25-.26-.32s-.23-.11-.37-.11h-.04c-.14,0-.26.04-.37.11s-.2.18-.26.32c-.06.14-.09.3-.09.5s.03.36.09.5.15.25.26.32.23.11.37.11h.04c.14,0,.26-.04.37-.11Z"/>
        <path class="cls-4" d="M250.49,468.21h.4v.55c.05-.18.14-.33.27-.42s.29-.15.46-.15h.22v.4h-.2c-.23,0-.41.08-.54.23s-.2.36-.2.63v1.23h-.42v-2.47Z"/>
        <path class="cls-4" d="M252.31,468.21h.42v.36c.08-.12.18-.22.31-.3.13-.08.28-.11.45-.11.18,0,.35.04.48.12s.24.2.32.36c.09-.17.21-.29.35-.36s.31-.12.48-.12.34.04.47.11c.13.07.23.17.3.3s.11.29.11.47v1.64h-.42v-1.54c0-.2-.04-.36-.13-.46s-.22-.16-.4-.16h-.03c-.12,0-.23.04-.33.1-.1.07-.18.17-.24.29-.06.13-.09.27-.09.43v1.33h-.42v-1.54c0-.2-.04-.36-.13-.46s-.21-.16-.39-.16h-.04c-.12,0-.23.04-.33.1-.1.07-.18.17-.24.29-.06.13-.09.27-.09.43v1.33h-.42v-2.47Z"/>
        <path class="cls-4" d="M257.1,470.61c-.13-.08-.22-.18-.29-.31-.06-.13-.1-.29-.1-.46v-1.63h.42v1.53c0,.21.04.37.13.47s.22.16.4.16h.04c.11,0,.22-.03.32-.1s.18-.16.24-.29.09-.27.09-.44v-1.33h.42v2.47h-.42v-.47c-.06.15-.15.28-.29.38s-.31.14-.51.14c-.18,0-.33-.04-.46-.11Z"/>
        <path class="cls-4" d="M259.54,467.22h.42v3.46h-.42v-3.46Z"/>
        <path class="cls-4" d="M260.96,470.63c-.12-.06-.22-.15-.29-.26-.07-.11-.11-.24-.11-.38,0-.17.04-.32.13-.42.09-.11.2-.19.33-.24.13-.05.27-.08.42-.09l.71-.06v-.08c0-.12-.02-.23-.07-.32-.04-.08-.11-.15-.19-.2-.08-.05-.18-.07-.29-.07h-.03c-.15,0-.27.04-.37.1-.1.07-.16.17-.17.3h-.42c.01-.22.11-.41.29-.55s.41-.21.69-.21c.21,0,.39.04.54.13s.26.2.34.34c.07.14.11.3.11.47v1.04c0,.25,0,.43.02.54h-.4c-.02-.09-.02-.22-.02-.4-.05.12-.15.23-.3.31-.15.09-.32.13-.51.13-.15,0-.29-.03-.41-.09ZM261.78,470.29c.11-.05.2-.12.27-.21.07-.09.11-.19.11-.29v-.28l-.65.05c-.16.01-.29.06-.38.13s-.15.17-.15.29.04.21.12.28c.08.08.18.11.31.11h.04c.11,0,.21-.03.32-.08Z"/>
        <path class="cls-4" d="M263.67,470.54c-.09-.09-.13-.21-.13-.38v-1.6h-.55v-.36h.55v-.8h.42v.8h.6v.36h-.6v1.54c0,.07.01.12.04.15.03.03.08.04.15.04h.48v.37h-.58c-.17,0-.3-.04-.39-.13Z"/>
        <path class="cls-4" d="M265.52,470.58c-.17-.1-.31-.24-.41-.44s-.15-.43-.15-.71.05-.51.16-.7.24-.34.42-.43c.17-.1.36-.15.56-.15.21,0,.39.05.55.14.16.09.28.22.36.39.08.17.13.36.13.57v.25h-1.74c0,.19.04.35.11.48.07.13.16.23.27.29s.22.1.34.1h.04c.14,0,.26-.03.37-.1.1-.07.17-.17.2-.31h.42c-.05.24-.16.43-.35.57-.19.14-.41.2-.67.2-.21,0-.4-.05-.58-.15ZM266.52,468.68c-.11-.11-.25-.17-.41-.17h-.04c-.16,0-.3.05-.42.16-.12.1-.21.27-.25.49h1.3c0-.21-.07-.37-.18-.48Z"/>
        <path class="cls-4" d="M268.12,470.57c-.16-.1-.29-.25-.38-.44-.09-.19-.14-.42-.14-.68s.05-.49.15-.68c.1-.19.23-.34.4-.45.17-.1.36-.16.57-.16.17,0,.32.04.47.12s.25.17.32.29v-1.35h.42v3.46h-.42v-.36c-.07.12-.18.22-.33.29s-.32.12-.49.12c-.21,0-.4-.05-.56-.16ZM269.13,470.25c.11-.08.2-.18.26-.32.06-.14.1-.3.1-.49s-.03-.35-.1-.49c-.06-.14-.15-.25-.26-.32-.11-.08-.23-.11-.37-.11h-.03c-.14,0-.27.04-.37.11-.1.08-.19.18-.25.32-.06.14-.09.3-.09.49,0,.29.06.51.19.68s.3.25.51.25h.03c.14,0,.26-.04.37-.11Z"/>
        <path class="cls-4" d="M272.13,470.63c-.12-.06-.22-.15-.29-.26-.07-.11-.11-.24-.11-.38,0-.17.04-.32.13-.42.09-.11.2-.19.33-.24.13-.05.27-.08.42-.09l.71-.06v-.08c0-.12-.02-.23-.07-.32-.04-.08-.11-.15-.19-.2-.08-.05-.18-.07-.29-.07h-.03c-.15,0-.27.04-.37.1-.1.07-.16.17-.17.3h-.42c.01-.22.11-.41.29-.55s.41-.21.69-.21c.21,0,.39.04.54.13s.26.2.34.34c.07.14.11.3.11.47v1.04c0,.25,0,.43.02.54h-.4c-.02-.09-.02-.22-.02-.4-.05.12-.15.23-.3.31-.15.09-.32.13-.51.13-.15,0-.29-.03-.41-.09ZM272.95,470.29c.11-.05.2-.12.27-.21.07-.09.11-.19.11-.29v-.28l-.65.05c-.16.01-.29.06-.38.13s-.15.17-.15.29.04.21.12.28c.08.08.18.11.31.11h.04c.11,0,.21-.03.32-.08Z"/>
        <path class="cls-4" d="M274.49,468.21h.42v.37c.08-.13.19-.23.32-.31.14-.08.3-.11.49-.11s.34.04.47.11c.13.07.23.17.3.3s.11.29.11.47v1.64h-.42v-1.54c0-.13-.02-.25-.06-.34-.04-.09-.1-.16-.18-.21-.08-.05-.18-.07-.3-.07h-.04c-.14,0-.26.04-.36.1-.11.07-.19.17-.25.29-.06.13-.09.27-.09.43v1.33h-.42v-2.47Z"/>
        <path class="cls-4" d="M277.71,470.57c-.16-.1-.29-.25-.38-.44-.09-.19-.14-.42-.14-.68s.05-.49.15-.68c.1-.19.23-.34.4-.45.17-.1.36-.16.57-.16.17,0,.32.04.47.12s.25.17.32.29v-1.35h.42v3.46h-.42v-.36c-.07.12-.18.22-.33.29s-.32.12-.49.12c-.21,0-.4-.05-.56-.16ZM278.72,470.25c.11-.08.2-.18.26-.32.06-.14.1-.3.1-.49s-.03-.35-.1-.49c-.06-.14-.15-.25-.26-.32-.11-.08-.23-.11-.37-.11h-.03c-.14,0-.27.04-.37.11-.1.08-.19.18-.25.32-.06.14-.09.3-.09.49,0,.29.06.51.19.68s.3.25.51.25h.03c.14,0,.26-.04.37-.11Z"/>
        <path class="cls-4" d="M281.47,467.22h.42v1.36c.08-.13.19-.23.33-.31.14-.07.3-.11.49-.11s.34.04.47.11c.13.07.23.17.3.31s.1.29.1.46v1.64h-.42v-1.55c0-.13-.02-.24-.06-.34-.04-.09-.1-.16-.18-.21-.08-.05-.18-.07-.3-.07h-.04c-.12,0-.24.03-.34.1s-.19.16-.26.28-.1.26-.1.42v1.37h-.42v-3.46Z"/>
        <path class="cls-4" d="M284.57,470.63c-.12-.06-.22-.15-.29-.26-.07-.11-.11-.24-.11-.38,0-.17.04-.32.13-.42.09-.11.2-.19.33-.24.13-.05.27-.08.42-.09l.71-.06v-.08c0-.12-.02-.23-.07-.32-.04-.08-.11-.15-.19-.2-.08-.05-.18-.07-.29-.07h-.03c-.14,0-.27.04-.37.1-.1.07-.16.17-.17.3h-.42c.01-.22.11-.41.29-.55s.41-.21.69-.21c.21,0,.39.04.54.13s.26.2.34.34.11.3.11.47v1.04c0,.25,0,.43.02.54h-.4c-.02-.09-.02-.22-.02-.4-.05.12-.15.23-.3.31-.15.09-.32.13-.51.13-.15,0-.29-.03-.41-.09ZM285.39,470.29c.11-.05.2-.12.27-.21.07-.09.11-.19.11-.29v-.28l-.65.05c-.16.01-.29.06-.38.13s-.15.17-.15.29.04.21.12.28c.08.08.18.11.31.11h.04c.1,0,.21-.03.32-.08Z"/>
        <path class="cls-4" d="M286.92,468.21h.42v.37c.08-.13.19-.23.32-.31.14-.08.3-.11.49-.11s.34.04.47.11c.13.07.23.17.3.3s.11.29.11.47v1.64h-.42v-1.54c0-.13-.02-.25-.06-.34-.04-.09-.1-.16-.18-.21-.08-.05-.18-.07-.3-.07h-.04c-.13,0-.26.04-.36.1-.11.07-.19.17-.25.29-.06.13-.09.27-.09.43v1.33h-.42v-2.47Z"/>
        <path class="cls-4" d="M290.14,470.57c-.16-.1-.29-.25-.38-.44s-.14-.42-.14-.68.05-.49.15-.68c.1-.19.23-.34.4-.45.17-.1.36-.16.57-.16.16,0,.32.04.47.12s.25.17.32.29v-1.35h.42v3.46h-.42v-.36c-.07.12-.18.22-.33.29-.16.08-.32.12-.49.12-.21,0-.4-.05-.56-.16ZM291.16,470.25c.11-.08.2-.18.26-.32.06-.14.1-.3.1-.49s-.03-.35-.1-.49c-.06-.14-.15-.25-.26-.32-.11-.08-.23-.11-.37-.11h-.03c-.14,0-.27.04-.37.11-.11.08-.19.18-.25.32-.06.14-.09.3-.09.49,0,.29.06.51.19.68s.3.25.51.25h.03c.14,0,.26-.04.37-.11Z"/>
        <path class="cls-4" d="M292.65,469h1.3v.37h-1.3v-.37Z"/>
        <path class="cls-4" d="M295.41,470.61c-.15-.08-.27-.18-.33-.29v.36h-.42v-3.46h.42v1.35c.07-.12.17-.22.32-.29.15-.08.3-.12.47-.12.21,0,.4.05.57.16.17.1.3.25.4.45.1.19.14.42.14.68s-.05.49-.14.68-.22.34-.38.44c-.16.1-.35.16-.56.16-.17,0-.33-.04-.48-.12ZM296.21,470.25c.11-.08.19-.18.25-.32s.09-.3.09-.49c0-.29-.06-.51-.2-.68-.13-.17-.3-.25-.52-.25h-.03c-.14,0-.26.04-.37.11-.11.08-.2.18-.26.32-.06.14-.09.3-.09.49s.03.35.09.49.15.25.26.32c.11.08.23.11.37.11h.03c.14,0,.27-.04.37-.11Z"/>
        <path class="cls-4" d="M297.58,467.22h.42v3.46h-.42v-3.46Z"/>
        <path class="cls-4" d="M299.17,470.58c-.17-.1-.31-.24-.41-.44-.1-.19-.15-.43-.15-.71s.05-.51.16-.7.24-.34.42-.43c.17-.1.36-.15.56-.15.21,0,.39.05.55.14.16.09.28.22.36.39.08.17.13.36.13.57v.25h-1.74c0,.19.04.35.11.48.07.13.16.23.27.29.11.06.22.1.34.1h.04c.14,0,.26-.03.37-.1.1-.07.17-.17.2-.31h.42c-.05.24-.16.43-.35.57-.19.14-.41.2-.67.2-.21,0-.4-.05-.58-.15ZM300.17,468.68c-.11-.11-.25-.17-.42-.17h-.04c-.16,0-.3.05-.42.16-.12.1-.21.27-.25.49h1.3c0-.21-.07-.37-.18-.48Z"/>
        <path class="cls-4" d="M301.39,468.21h.42v.37c.08-.13.19-.23.32-.31.14-.08.3-.11.49-.11s.34.04.47.11c.13.07.23.17.3.3s.11.29.11.47v1.64h-.42v-1.54c0-.13-.02-.25-.06-.34-.04-.09-.1-.16-.17-.21-.08-.05-.18-.07-.3-.07h-.04c-.14,0-.26.04-.36.1-.11.07-.19.17-.25.29-.06.13-.09.27-.09.43v1.33h-.42v-2.47Z"/>
        <path class="cls-4" d="M304.61,470.57c-.16-.1-.29-.25-.38-.44s-.14-.42-.14-.68.05-.49.15-.68c.1-.19.23-.34.4-.45.17-.1.36-.16.57-.16.16,0,.32.04.47.12s.25.17.32.29v-1.35h.42v3.46h-.42v-.36c-.07.12-.18.22-.33.29-.16.08-.32.12-.49.12-.21,0-.4-.05-.56-.16ZM305.63,470.25c.11-.08.2-.18.26-.32s.1-.3.1-.49-.03-.35-.1-.49c-.06-.14-.15-.25-.26-.32-.11-.08-.23-.11-.37-.11h-.03c-.14,0-.27.04-.37.11-.1.08-.19.18-.25.32-.06.14-.09.3-.09.49,0,.29.06.51.19.68s.3.25.51.25h.03c.14,0,.26-.04.37-.11Z"/>
        <path class="cls-4" d="M307.58,470.58c-.17-.1-.31-.24-.41-.44s-.15-.43-.15-.71.05-.51.16-.7.24-.34.42-.43c.17-.1.36-.15.56-.15.21,0,.39.05.55.14.16.09.28.22.36.39.08.17.13.36.13.57v.25h-1.74c0,.19.04.35.11.48.07.13.16.23.27.29.11.06.22.1.34.1h.04c.14,0,.26-.03.37-.1.1-.07.17-.17.2-.31h.42c-.05.24-.16.43-.35.57-.19.14-.41.2-.67.2-.21,0-.4-.05-.58-.15ZM308.58,468.68c-.11-.11-.25-.17-.42-.17h-.04c-.16,0-.3.05-.42.16-.12.1-.21.27-.25.49h1.3c-.01-.21-.07-.37-.18-.48Z"/>
        <path class="cls-4" d="M310.17,470.57c-.16-.1-.29-.25-.38-.44-.09-.19-.14-.42-.14-.68s.05-.49.15-.68c.1-.19.23-.34.4-.45.17-.1.36-.16.57-.16.16,0,.32.04.47.12s.25.17.32.29v-1.35h.42v3.46h-.42v-.36c-.07.12-.18.22-.33.29s-.32.12-.49.12c-.21,0-.4-.05-.56-.16ZM311.19,470.25c.11-.08.2-.18.26-.32.06-.14.1-.3.1-.49s-.03-.35-.1-.49c-.06-.14-.15-.25-.26-.32-.11-.08-.23-.11-.37-.11h-.03c-.14,0-.27.04-.37.11-.11.08-.19.18-.25.32-.06.14-.09.3-.09.49,0,.29.06.51.19.68.13.17.3.25.51.25h.03c.14,0,.26-.04.37-.11Z"/>
        <path class="cls-4" d="M260.11,472.49h.47v.5h-.47v-.5ZM260.14,473.44h.42v2.47h-.42v-2.47Z"/>
        <path class="cls-4" d="M261.31,473.44h.42v.37c.08-.13.19-.23.32-.31.14-.08.3-.11.49-.11s.34.04.47.11c.13.07.23.17.3.3s.11.29.11.47v1.64h-.42v-1.54c0-.13-.02-.25-.06-.34-.04-.09-.1-.16-.18-.21-.08-.05-.18-.07-.3-.07h-.04c-.13,0-.26.04-.36.1-.11.07-.19.17-.25.29-.06.13-.09.27-.09.43v1.33h-.42v-2.47Z"/>
        <path class="cls-4" d="M265.46,475.73c-.17-.15-.27-.34-.27-.58h.42c.02.15.08.26.18.34.1.08.24.11.4.11h.04c.14,0,.26-.03.36-.1.09-.07.14-.15.14-.26,0-.09-.03-.16-.09-.21-.06-.05-.15-.09-.28-.12l-.36-.07c-.21-.04-.39-.12-.51-.23-.13-.11-.19-.26-.19-.46,0-.16.04-.29.13-.41.08-.11.2-.2.34-.26.14-.06.29-.09.46-.09.31,0,.54.08.71.23s.25.34.26.58h-.42c-.02-.13-.07-.24-.16-.32-.09-.09-.21-.13-.36-.13h-.04c-.15,0-.26.03-.35.1-.09.07-.13.15-.13.25,0,.09.03.17.09.22.06.05.16.09.29.12l.39.08c.2.04.37.11.49.22s.18.27.18.47c0,.15-.04.28-.12.39-.08.11-.19.2-.34.26-.14.06-.31.09-.5.09-.31,0-.56-.08-.73-.23Z"/>
        <path class="cls-4" d="M267.77,473.44h.42v.36c.08-.12.18-.22.31-.3.13-.08.28-.11.45-.11.18,0,.35.04.48.12.14.08.24.2.32.36.09-.17.21-.29.35-.36s.31-.12.48-.12.34.04.47.11c.13.07.23.17.3.3.07.13.11.29.11.47v1.64h-.42v-1.54c0-.2-.04-.36-.13-.46-.09-.11-.22-.16-.4-.16h-.03c-.12,0-.23.04-.33.1-.1.07-.18.17-.24.29-.06.13-.09.27-.09.43v1.33h-.42v-1.54c0-.2-.04-.36-.13-.46s-.21-.16-.39-.16h-.04c-.12,0-.23.04-.33.1-.1.07-.18.17-.24.29-.06.13-.09.27-.09.43v1.33h-.42v-2.47Z"/>
        <path class="cls-4" d="M272.44,475.86c-.12-.06-.22-.15-.29-.26-.07-.11-.11-.24-.11-.38,0-.17.04-.32.13-.42.09-.11.2-.19.33-.24.13-.05.27-.08.42-.09l.71-.06v-.08c0-.12-.02-.23-.07-.32-.04-.08-.11-.15-.19-.2s-.18-.07-.29-.07h-.03c-.15,0-.27.04-.37.1-.1.07-.16.17-.17.3h-.42c.01-.22.11-.41.29-.55.18-.14.41-.21.69-.21.21,0,.39.04.54.13s.26.2.34.34.11.3.11.47v1.04c0,.25,0,.43.02.54h-.4c-.02-.09-.02-.22-.02-.4-.05.12-.15.23-.3.31-.15.09-.32.13-.51.13-.15,0-.29-.03-.41-.09ZM273.26,475.53c.11-.05.2-.12.27-.21.07-.09.11-.19.11-.29v-.28l-.65.05c-.16.01-.29.06-.38.13s-.15.17-.15.29.04.21.12.28c.08.08.18.11.31.11h.04c.1,0,.21-.03.32-.08Z"/>
        <path class="cls-4" d="M274.8,472.45h.42v3.46h-.42v-3.46Z"/>
        <path class="cls-4" d="M275.97,472.45h.42v3.46h-.42v-3.46Z"/>
        <path class="cls-4" d="M279.11,475.84c-.15-.08-.26-.18-.33-.29v.36h-.42v-3.46h.42v1.35c.07-.12.17-.22.32-.29.14-.08.3-.12.47-.12.21,0,.4.05.57.16.17.1.3.25.4.45.1.19.14.42.14.68s-.05.49-.14.68-.22.34-.38.44-.35.16-.56.16c-.17,0-.33-.04-.48-.12ZM279.92,475.49c.11-.08.19-.18.25-.32.06-.14.09-.3.09-.49,0-.29-.06-.51-.19-.68-.13-.17-.3-.25-.52-.25h-.03c-.14,0-.26.04-.37.11-.11.08-.2.18-.26.32-.06.14-.09.3-.09.49s.03.35.09.49c.06.14.15.25.26.32.11.08.23.11.37.11h.03c.14,0,.27-.04.37-.11Z"/>
        <path class="cls-4" d="M281.53,475.86c-.12-.06-.22-.15-.29-.26-.07-.11-.11-.24-.11-.38,0-.17.04-.32.13-.42.09-.11.2-.19.33-.24s.27-.08.42-.09l.71-.06v-.08c0-.12-.02-.23-.07-.32-.04-.08-.11-.15-.19-.2-.08-.05-.18-.07-.29-.07h-.03c-.15,0-.27.04-.37.1-.1.07-.16.17-.17.3h-.42c.01-.22.11-.41.29-.55.18-.14.41-.21.69-.21.21,0,.39.04.54.13.15.08.26.2.34.34.07.14.11.3.11.47v1.04c0,.25,0,.43.02.54h-.4c-.02-.09-.02-.22-.02-.4-.05.12-.15.23-.3.31-.15.09-.32.13-.51.13-.15,0-.29-.03-.41-.09ZM282.35,475.53c.11-.05.2-.12.27-.21.07-.09.11-.19.11-.29v-.28l-.65.05c-.16.01-.29.06-.38.13-.1.07-.15.17-.15.29s.04.21.12.28c.08.08.18.11.31.11h.04c.11,0,.21-.03.32-.08Z"/>
        <path class="cls-4" d="M284.24,475.78c-.09-.09-.13-.21-.13-.38v-1.6h-.55v-.36h.55v-.8h.42v.8h.6v.36h-.6v1.54c0,.07.02.12.04.15.03.03.08.04.15.04h.48v.37h-.58c-.17,0-.3-.04-.39-.13Z"/>
        <path class="cls-4" d="M286.07,475.79c-.17-.11-.31-.27-.4-.46-.09-.19-.14-.41-.14-.66s.05-.46.14-.66c.09-.19.23-.35.4-.46.17-.11.38-.17.63-.17.18,0,.35.04.49.1.15.07.26.17.35.3.09.13.14.28.16.45h-.42c-.02-.15-.08-.27-.19-.36-.1-.09-.22-.14-.37-.14h-.04c-.16,0-.29.04-.4.13-.11.08-.19.2-.24.34-.05.14-.08.3-.08.46,0,.26.06.48.19.66.13.18.3.27.54.27h.04c.15,0,.27-.05.37-.14s.16-.21.19-.36h.42c-.03.26-.13.47-.31.62-.18.15-.41.23-.68.23-.24,0-.45-.06-.63-.17Z"/>
        <path class="cls-4" d="M288.28,472.45h.42v1.36c.08-.13.19-.23.33-.31.14-.07.3-.11.49-.11s.34.04.47.11c.13.07.23.17.3.31.07.13.1.29.1.46v1.64h-.42v-1.55c0-.13-.02-.24-.06-.34-.04-.09-.1-.16-.18-.21-.08-.05-.18-.07-.3-.07h-.04c-.12,0-.24.03-.34.1s-.19.16-.26.28c-.07.12-.1.26-.1.42v1.37h-.42v-3.46Z"/>
        <path class="cls-4" d="M291.55,475.81c-.17-.1-.31-.24-.41-.44s-.15-.43-.15-.71.05-.51.16-.7.24-.34.42-.43c.17-.1.36-.15.56-.15.21,0,.39.05.55.14.16.09.28.22.36.39.08.17.13.36.13.57v.25h-1.74c0,.19.04.35.11.48.07.13.16.23.27.29.11.06.22.1.34.1h.04c.14,0,.26-.03.37-.1.1-.07.17-.17.2-.31h.42c-.05.24-.16.43-.35.57-.19.14-.41.2-.67.2-.21,0-.4-.05-.58-.15ZM292.55,473.91c-.11-.11-.25-.17-.41-.17h-.04c-.16,0-.3.05-.42.16-.12.1-.21.27-.25.49h1.3c0-.21-.07-.37-.18-.48Z"/>
        <path class="cls-4" d="M293.85,475.73c-.17-.15-.27-.34-.27-.58h.42c.02.15.08.26.18.34.1.08.24.11.4.11h.04c.14,0,.26-.03.36-.1.09-.07.14-.15.14-.26,0-.09-.03-.16-.09-.21-.06-.05-.15-.09-.28-.12l-.36-.07c-.21-.04-.38-.12-.51-.23-.13-.11-.19-.26-.19-.46,0-.16.04-.29.13-.41.08-.11.2-.2.34-.26.14-.06.29-.09.46-.09.31,0,.54.08.71.23s.25.34.26.58h-.42c-.02-.13-.07-.24-.16-.32-.09-.09-.21-.13-.36-.13h-.04c-.15,0-.26.03-.35.1-.09.07-.13.15-.13.25,0,.09.03.17.09.22.06.05.16.09.29.12l.39.08c.2.04.37.11.49.22.12.11.18.27.18.47,0,.15-.04.28-.12.39-.08.11-.19.2-.34.26s-.31.09-.5.09c-.31,0-.56-.08-.73-.23Z"/>
        <path class="cls-4" d="M296.11,475.35h.56v.56h-.56v-.56Z"/>
      </g>
    </g>
  </g>
</svg>