<?xml version="1.0" encoding="UTF-8"?>
<svg id="Layer_2" data-name="Layer 2" xmlns="http://www.w3.org/2000/svg" viewBox="0 0 149.76 154.2">
  <defs>
    <style>
      .cls-1 {
        fill: #510e74;
      }

      .cls-2 {
        fill: #98bada;
      }
    </style>
  </defs>
  <g id="Layer_1-2" data-name="Layer 1">
    <g>
      <rect class="cls-2" width="149.76" height="154.2"/>
      <g>
        <path class="cls-1" d="M33.02,73.63h-1.99v-.65h4.7v.65h-1.99v4.89h-.71v-4.89Z"/>
        <path class="cls-1" d="M36.46,72.98h.67v2.17c.13-.21.31-.38.53-.49.22-.12.48-.18.79-.18s.55.06.76.17c.21.12.37.28.48.49.11.21.16.46.16.74v2.63h-.67v-2.47c0-.21-.03-.39-.09-.54s-.15-.26-.28-.34-.28-.12-.47-.12h-.07c-.2,0-.38.05-.55.15-.17.1-.31.25-.42.44s-.16.42-.16.68v2.19h-.67v-5.54Z"/>
        <path class="cls-1" d="M41.69,78.36c-.28-.16-.5-.39-.66-.7-.16-.31-.25-.69-.25-1.13s.08-.81.25-1.12.39-.54.67-.7c.28-.16.57-.23.89-.23.33,0,.62.07.87.22s.44.35.58.62c.13.27.2.57.2.91v.4h-2.79c.01.31.07.56.18.77.11.21.25.36.43.47.17.1.35.15.54.15h.06c.23,0,.42-.06.59-.17.16-.11.27-.28.32-.5h.67c-.07.39-.26.69-.56.91s-.65.32-1.07.32c-.34,0-.64-.08-.92-.23ZM43.29,75.32c-.17-.18-.4-.27-.66-.27h-.06c-.25,0-.48.08-.68.25s-.33.43-.4.79h2.09c-.02-.33-.11-.59-.28-.77Z"/>
        <path class="cls-1" d="M47.19,74.56h.67v.59c.13-.21.3-.37.52-.49.22-.12.48-.18.79-.18.29,0,.54.06.75.17.21.11.37.28.49.49.11.21.17.46.17.75v2.62h-.67v-2.47c0-.22-.03-.4-.09-.55s-.15-.26-.28-.34c-.13-.08-.28-.12-.47-.12h-.06c-.22,0-.41.06-.58.17-.17.11-.31.27-.4.47-.1.2-.15.43-.15.69v2.13h-.67v-3.95Z"/>
        <path class="cls-1" d="M51.71,73.05h.75v.81h-.75v-.81ZM51.75,74.56h.67v3.95h-.67v-3.95Z"/>
        <path class="cls-1" d="M54.2,80.1c-.27-.1-.47-.25-.62-.43-.15-.18-.23-.39-.26-.63h.67c.04.21.16.36.36.47.2.11.45.17.75.17h.08c.36,0,.65-.1.87-.31.22-.21.33-.52.33-.94v-.58c-.12.2-.28.35-.49.47s-.46.18-.74.18c-.32,0-.61-.08-.88-.23-.26-.15-.47-.38-.63-.68s-.23-.67-.23-1.1.08-.8.23-1.11.37-.54.63-.69c.26-.16.56-.23.88-.23.29,0,.54.06.76.19s.37.28.47.47v-.58h.67v3.95c0,.33-.08.63-.23.9-.15.27-.37.47-.66.62-.29.15-.63.22-1.02.22-.36,0-.67-.05-.94-.15ZM55.8,77.77c.17-.12.31-.28.42-.5.1-.22.15-.47.15-.76s-.05-.55-.15-.77-.23-.39-.4-.51c-.17-.12-.35-.18-.55-.18h-.07c-.21,0-.4.05-.57.16-.17.11-.3.27-.4.49-.1.22-.15.49-.15.81,0,.47.1.83.3,1.07.2.24.47.36.79.36h.06c.21,0,.4-.06.57-.17Z"/>
        <path class="cls-1" d="M58.25,72.98h.67v2.17c.13-.21.31-.38.53-.49.22-.12.48-.18.79-.18s.55.06.76.17c.21.12.37.28.48.49.11.21.16.46.16.74v2.63h-.67v-2.47c0-.21-.03-.39-.09-.54-.06-.15-.15-.26-.28-.34s-.28-.12-.47-.12h-.07c-.19,0-.38.05-.55.15-.17.1-.31.25-.42.44-.11.19-.16.42-.16.68v2.19h-.67v-5.54Z"/>
        <path class="cls-1" d="M63.39,78.31c-.14-.14-.21-.34-.21-.6v-2.56h-.89v-.58h.89v-1.28h.67v1.28h.96v.58h-.96v2.47c0,.12.02.2.07.25.05.05.13.07.25.07h.77v.59h-.93c-.27,0-.47-.07-.62-.21Z"/>
        <path class="cls-1" d="M68.89,78.41c-.25-.12-.42-.28-.53-.47v.58h-.67v-5.54h.67v2.16c.11-.19.27-.35.51-.47.23-.12.48-.19.75-.19.33,0,.63.08.91.25s.48.4.64.71.23.67.23,1.1-.07.79-.22,1.09-.35.55-.61.71-.56.25-.89.25c-.27,0-.53-.06-.77-.19ZM70.17,77.85c.17-.12.3-.29.4-.52.1-.22.14-.49.14-.79,0-.46-.1-.82-.31-1.09-.21-.27-.48-.4-.83-.4h-.06c-.22,0-.42.06-.6.18-.18.12-.31.29-.42.52-.1.22-.15.49-.15.79s.05.56.15.79c.1.22.24.4.42.52s.38.18.6.18h.06c.23,0,.43-.06.6-.18Z"/>
        <path class="cls-1" d="M73.03,78.36c-.28-.16-.5-.39-.66-.7-.16-.31-.25-.69-.25-1.13s.08-.81.25-1.12.39-.54.67-.7c.28-.16.57-.23.89-.23.33,0,.62.07.87.22s.44.35.58.62c.13.27.2.57.2.91v.4h-2.79c.01.31.07.56.18.77.11.21.25.36.43.47.17.1.35.15.54.15h.06c.23,0,.42-.06.59-.17.16-.11.27-.28.32-.5h.67c-.07.39-.26.69-.56.91s-.65.32-1.07.32c-.34,0-.64-.08-.92-.23ZM74.63,75.32c-.17-.18-.4-.27-.66-.27h-.06c-.25,0-.48.08-.68.25s-.33.43-.4.79h2.09c-.02-.33-.11-.59-.28-.77Z"/>
        <path class="cls-1" d="M76.97,75.14h-.89v-.58h.89v-.79c0-.27.07-.47.2-.6.13-.13.34-.19.6-.19h1.07v.58h-.89c-.12,0-.2.02-.25.07-.05.04-.07.13-.07.25v.68h1v.58h-1v3.38h-.67v-3.38Z"/>
        <path class="cls-1" d="M79.97,78.34c-.28-.17-.51-.42-.67-.73-.16-.31-.25-.67-.25-1.07s.08-.76.25-1.07c.16-.31.39-.55.67-.73.28-.17.6-.26.95-.26s.67.09.96.26c.28.17.51.42.67.73.16.31.25.67.25,1.07s-.08.76-.25,1.07c-.16.31-.39.55-.67.73s-.6.26-.96.26-.66-.09-.95-.26ZM81.56,77.85c.18-.12.31-.29.42-.51.1-.22.15-.49.15-.79s-.05-.57-.15-.79c-.1-.22-.24-.4-.42-.51-.18-.12-.38-.18-.6-.18h-.07c-.22,0-.42.06-.6.18-.18.12-.31.29-.42.51-.1.22-.15.49-.15.79s.05.57.15.79c.1.22.24.4.42.51.18.12.38.18.6.18h.07c.22,0,.42-.06.6-.18Z"/>
        <path class="cls-1" d="M83.77,74.56h.63v.88c.08-.29.23-.52.44-.68.21-.16.46-.24.73-.24h.36v.64h-.32c-.36,0-.65.12-.86.37-.21.25-.31.58-.31,1.01v1.98h-.67v-3.95Z"/>
        <path class="cls-1" d="M87.21,78.36c-.28-.16-.5-.39-.66-.7-.16-.31-.25-.69-.25-1.13s.08-.81.25-1.12.39-.54.67-.7c.28-.16.57-.23.89-.23.33,0,.62.07.87.22s.44.35.58.62c.13.27.2.57.2.91v.4h-2.79c.01.31.07.56.18.77.11.21.25.36.43.47.17.1.35.15.54.15h.06c.23,0,.42-.06.59-.17.16-.11.27-.28.32-.5h.67c-.07.39-.26.69-.56.91s-.65.32-1.07.32c-.34,0-.64-.08-.92-.23ZM88.81,75.32c-.17-.18-.4-.27-.66-.27h-.06c-.25,0-.48.08-.68.25-.2.17-.33.43-.4.79h2.09c-.02-.33-.11-.59-.28-.77Z"/>
        <path class="cls-1" d="M92.67,73.05h.75v.81h-.75v-.81ZM92.71,74.56h.67v3.95h-.67v-3.95Z"/>
        <path class="cls-1" d="M95.21,78.31c-.14-.14-.21-.34-.21-.6v-2.56h-.89v-.58h.89v-1.28h.67v1.28h.96v.58h-.96v2.47c0,.12.02.2.07.25.05.05.13.07.25.07h.77v.59h-.93c-.27,0-.47-.07-.62-.21Z"/>
        <path class="cls-1" d="M100.71,78.41c-.25-.12-.42-.28-.53-.47v.58h-.67v-5.54h.67v2.16c.11-.19.27-.35.51-.47s.48-.19.75-.19c.33,0,.63.08.91.25.27.17.48.4.64.71.15.31.23.67.23,1.1s-.07.79-.22,1.09c-.15.31-.35.55-.61.71-.26.17-.56.25-.89.25-.27,0-.53-.06-.78-.19ZM101.99,77.85c.17-.12.3-.29.4-.52.09-.22.14-.49.14-.79,0-.46-.1-.82-.31-1.09-.21-.27-.48-.4-.83-.4h-.06c-.22,0-.42.06-.6.18-.18.12-.32.29-.42.52s-.15.49-.15.79.05.56.15.79c.1.22.24.4.42.52.18.12.38.18.6.18h.06c.23,0,.43-.06.6-.18Z"/>
        <path class="cls-1" d="M104.85,78.36c-.28-.16-.5-.39-.66-.7-.16-.31-.25-.69-.25-1.13s.08-.81.25-1.12c.17-.31.39-.54.67-.7s.57-.23.89-.23c.33,0,.62.07.87.22.25.15.44.35.58.62.13.27.2.57.2.91v.4h-2.79c.01.31.07.56.18.77.11.21.25.36.43.47s.35.15.54.15h.06c.23,0,.42-.06.58-.17s.27-.28.32-.5h.67c-.07.39-.26.69-.56.91s-.66.32-1.07.32c-.34,0-.64-.08-.92-.23ZM106.45,75.32c-.17-.18-.4-.27-.66-.27h-.06c-.25,0-.48.08-.68.25-.2.17-.33.43-.4.79h2.09c-.02-.33-.11-.59-.28-.77Z"/>
        <path class="cls-1" d="M108.97,80.1c-.27-.1-.47-.25-.62-.43-.15-.18-.23-.39-.26-.63h.67c.04.21.16.36.36.47.2.11.45.17.75.17h.08c.36,0,.65-.1.87-.31.22-.21.33-.52.33-.94v-.58c-.12.2-.28.35-.49.47-.21.12-.46.18-.74.18-.32,0-.61-.08-.88-.23-.26-.15-.47-.38-.63-.68s-.23-.67-.23-1.1.08-.8.23-1.11.37-.54.63-.69c.26-.16.56-.23.88-.23.29,0,.54.06.76.19.22.12.37.28.47.47v-.58h.67v3.95c0,.33-.08.63-.23.9-.15.27-.37.47-.66.62-.29.15-.63.22-1.02.22-.36,0-.67-.05-.94-.15ZM110.57,77.77c.17-.12.31-.28.42-.5.1-.22.15-.47.15-.76s-.05-.55-.15-.77-.23-.39-.4-.51c-.17-.12-.35-.18-.55-.18h-.07c-.21,0-.4.05-.57.16-.17.11-.3.27-.4.49s-.15.49-.15.81c0,.47.1.83.3,1.07.2.24.47.36.79.36h.06c.21,0,.4-.06.57-.17Z"/>
        <path class="cls-1" d="M112.99,73.05h.75v.81h-.75v-.81ZM113.03,74.56h.67v3.95h-.67v-3.95Z"/>
        <path class="cls-1" d="M114.91,74.56h.67v.59c.13-.21.3-.37.52-.49.22-.12.48-.18.79-.18.29,0,.54.06.75.17.21.11.37.28.49.49.11.21.17.46.17.75v2.62h-.67v-2.47c0-.22-.03-.4-.09-.55-.06-.15-.15-.26-.28-.34s-.28-.12-.47-.12h-.06c-.22,0-.41.06-.58.17-.17.11-.31.27-.4.47s-.15.43-.15.69v2.13h-.67v-3.95Z"/>
      </g>
    </g>
  </g>
</svg>