<?xml version="1.0" encoding="UTF-8"?>
<svg id="Layer_2" data-name="Layer 2" xmlns="http://www.w3.org/2000/svg" viewBox="0.00 0 149.76 489.04">
  <defs>
    <style>
      .cls-1 {
        fill: #510e74;
      }

      .cls-2 {
        fill: #98bada;
      }
    </style>
  </defs>
  <g id="Layer_1-2" data-name="Layer 1">
    <g>
      <rect class="cls-1" y="0" width="149.33" height="489.04"/>
      <g>
        <g>
          <path class="cls-2" d="M27.52,467.14c-2.34,0-3.73,1.91-3.73,4.26s1.32,4.26,3.73,4.26,3.73-1.91,3.73-4.26-1.42-4.26-3.73-4.26ZM27.52,473.28c-.96,0-1.48-.84-1.48-1.88s.55-1.88,1.48-1.88,1.48.84,1.48,1.88-.56,1.88-1.48,1.88Z"/>
          <path class="cls-2" d="M19.65,467.14c-2.34,0-3.73,1.91-3.73,4.26s1.32,4.26,3.73,4.26,3.73-1.91,3.73-4.26-1.42-4.26-3.73-4.26ZM19.65,473.28c-.96,0-1.48-.84-1.48-1.88s.55-1.88,1.48-1.88,1.48.84,1.48,1.88-.56,1.88-1.48,1.88Z"/>
          <polygon class="cls-2" points="37.91 472.33 35.6 467.37 32.93 467.37 32.93 475.47 35 475.47 35 471.44 36.92 475.47 38.62 475.47 40.54 471.44 40.54 475.47 42.82 475.47 42.82 467.37 40.26 467.37 37.91 472.33"/>
          <path class="cls-2" d="M46.25,472.99v-5.63h-2.03v8.11h6.34v-1.98h-3.82c-.28,0-.5-.22-.5-.5v-.02"/>
          <polyline class="cls-2" points="13.41 475.47 15.44 475.47 15.44 467.37 13.91 467.37 11.65 468.61 11.65 470.88 13.41 469.91"/>
        </g>
        <g>
          <path class="cls-2" d="M86.4,467.14c-1.14,0-2.15.14-2.95.37v2.07c.89-.24,1.65-.37,2.41-.37,1,0,1.32.2,1.32.52v.02c0,.29-.23.46-.5.52-.62.15-1.36.22-1.99.22v1.73c.99,0,1.79.06,2.41.22.31.08.45.2.45.42,0,.35-.51.63-1.56.63-.9,0-1.8-.29-2.54-.52v2.16c.94.36,1.72.52,3,.52,1.9,0,3.13-.88,3.13-2.21h0c0-1.13-.6-1.82-2.17-2.05l-.6-.07.6-.05c1.21-.16,1.8-.97,1.8-2.05h0c0-1.15-.87-2.09-2.82-2.09Z"/>
          <path class="cls-2" d="M104.8,472.48h3.56v-2.08h-3.46c-.28,0-.5-.22-.5-.5s.22-.5.5-.5h4.03v-2.06h-6.56v8.14h2.42v-3Z"/>
          <path class="cls-2" d="M123.23,467.14c-2.66,0-4.25,1.91-4.25,4.26s1.5,4.26,4.25,4.26,4.25-1.91,4.25-4.26-1.61-4.26-4.25-4.26ZM123.23,473.28c-1.21,0-1.87-.84-1.87-1.88s.7-1.88,1.87-1.88,1.87.84,1.87,1.88-.71,1.88-1.87,1.88Z"/>
          <path class="cls-2" d="M111.71,472.96v-5.63h-2.03v8.11h6.2v-1.98h-3.68c-.28,0-.5-.22-.5-.5v-.02"/>
          <polygon class="cls-2" points="134.65 467.34 128.09 467.34 128.09 469.32 131.68 469.32 128.02 474.14 128.02 475.47 134.86 475.47 134.86 473.5 130.99 473.5 134.65 468.67 134.65 467.34"/>
          <path class="cls-2" d="M117.79,475.67c-.77,0-1.19-.53-1.19-1.19s.44-1.19,1.19-1.19,1.19.53,1.19,1.19-.45,1.19-1.19,1.19Z"/>
          <path class="cls-2" d="M91.15,475.67c-.77,0-1.19-.53-1.19-1.19s.44-1.19,1.19-1.19,1.19.53,1.19,1.19-.45,1.19-1.19,1.19Z"/>
          <path class="cls-2" d="M96.14,467.14c-1.14,0-2.15.14-2.95.37v2.07c.89-.24,1.65-.37,2.41-.37,1,0,1.32.2,1.32.52v.02c0,.29-.23.46-.5.52-.62.15-1.36.22-1.99.22v1.73c.99,0,1.79.06,2.41.22.31.08.45.2.45.42,0,.35-.51.63-1.56.63-.9,0-1.8-.29-2.54-.52v2.16c.94.36,1.72.52,3,.52,1.9,0,3.13-.88,3.13-2.21h0c0-1.13-.6-1.82-2.17-2.05l-.6-.07.6-.05c1.21-.16,1.8-.97,1.8-2.05h0c0-1.15-.87-2.09-2.82-2.09Z"/>
          <path class="cls-2" d="M136.6,475.67c-.77,0-1.19-.53-1.19-1.19s.44-1.19,1.19-1.19,1.19.53,1.19,1.19-.45,1.19-1.19,1.19Z"/>
        </g>
        <path class="cls-2" d="M56.49,474.91c-1.12,0-2.07-.38-2.75-1.01-.14-.13-.21-.32-.21-.52v-.85c0-.38.31-.69.69-.69h6.72v-.41c0-2.36-2.03-4.29-4.53-4.29s-4.53,1.92-4.53,4.29c0,2.48,1.94,4.29,4.62,4.29,1.55,0,2.87-.44,3.89-1.26v-1.14c-.91,1.03-2.25,1.58-3.89,1.58ZM59.28,469.55v.8c0,.38-.31.69-.69.69h-4.38c-.38,0-.69-.31-.69-.69v-.8c0-.19.07-.38.2-.51.68-.66,1.62-1.07,2.67-1.07s2,.41,2.67,1.07c.14.13.2.32.2.51Z"/>
      </g>
    </g>
  </g>
</svg>