<?xml version="1.0" encoding="UTF-8"?>
<svg id="Layer_2" data-name="Layer 2" xmlns="http://www.w3.org/2000/svg" viewBox="0.00 0 149.76 489.04">
  <defs>
    <style>
      .cls-1 {
        fill: #510e74;
      }

      .cls-2 {
        fill: none;
        stroke: #99bbdb;
        stroke-miterlimit: 10;
        stroke-width: .2px;
      }

      .cls-3 {
        fill: #98bada;
      }
    </style>
  </defs>
  <g id="Layer_1-2" data-name="Layer 1">
    <g>
      <rect class="cls-1" x="0" width="149.33" height="489.04"/>
      <g>
        <path class="cls-3" d="M41.16,467.22h2.38v.41h-1.94v1.17h1.69v.41h-1.69v1.48h-.44v-3.46Z"/>
        <path class="cls-3" d="M44.4,470.56c-.18-.11-.32-.26-.42-.46-.1-.19-.15-.42-.15-.67s.05-.47.15-.67c.1-.19.24-.35.42-.45s.38-.16.59-.16.42.05.6.16.32.26.42.45.15.42.15.67-.05.47-.15.67c-.1.19-.24.35-.42.46-.18.11-.38.16-.6.16s-.42-.05-.59-.16ZM45.39,470.26c.11-.07.2-.18.26-.32s.09-.31.09-.5-.03-.36-.09-.5c-.06-.14-.15-.25-.26-.32-.11-.07-.23-.11-.37-.11h-.04c-.14,0-.26.04-.37.11-.11.07-.2.18-.26.32-.06.14-.09.3-.09.5s.03.36.09.5.15.25.26.32c.11.07.23.11.37.11h.04c.14,0,.26-.04.37-.11Z"/>
        <path class="cls-3" d="M46.77,468.21h.39v.55c.05-.18.14-.33.27-.42s.29-.15.46-.15h.22v.4h-.2c-.23,0-.41.08-.54.23-.13.15-.19.36-.19.63v1.23h-.42v-2.47Z"/>
        <path class="cls-3" d="M48.6,468.21h.42v.36c.08-.12.18-.22.31-.3.13-.08.28-.11.45-.11.18,0,.35.04.48.12.14.08.24.2.32.36.09-.17.21-.29.35-.36s.31-.12.48-.12.34.04.47.11c.13.07.23.17.3.3.07.13.11.29.11.47v1.64h-.42v-1.54c0-.2-.04-.36-.13-.46s-.22-.16-.4-.16h-.03c-.12,0-.23.04-.33.1-.1.07-.18.17-.24.29-.06.13-.09.27-.09.43v1.33h-.42v-1.54c0-.2-.04-.36-.13-.46s-.21-.16-.39-.16h-.04c-.12,0-.23.04-.33.1-.1.07-.18.17-.24.29-.06.13-.09.27-.09.43v1.33h-.42v-2.47Z"/>
        <path class="cls-3" d="M53.39,470.61c-.13-.08-.22-.18-.29-.31-.06-.13-.1-.29-.1-.46v-1.63h.42v1.53c0,.21.04.37.13.47.09.11.22.16.4.16h.04c.11,0,.22-.03.32-.1s.18-.16.24-.29.09-.27.09-.44v-1.33h.42v2.47h-.42v-.47c-.06.15-.15.28-.29.38s-.31.14-.51.14c-.18,0-.33-.04-.46-.11Z"/>
        <path class="cls-3" d="M55.83,467.22h.42v3.46h-.42v-3.46Z"/>
        <path class="cls-3" d="M57.25,470.63c-.12-.06-.22-.15-.29-.26-.07-.11-.11-.24-.11-.38,0-.17.04-.32.13-.42.09-.11.2-.19.33-.24s.27-.08.42-.09l.71-.06v-.08c0-.12-.02-.23-.07-.32-.04-.08-.11-.15-.19-.2-.08-.05-.18-.07-.29-.07h-.03c-.15,0-.27.04-.37.1-.1.07-.16.17-.17.3h-.42c.01-.22.11-.41.29-.55.18-.14.41-.21.69-.21.21,0,.39.04.54.13.15.08.26.2.34.34.07.14.11.3.11.47v1.04c0,.25,0,.43.02.54h-.4c-.02-.09-.02-.22-.02-.4-.05.12-.15.23-.3.31-.15.09-.32.13-.51.13-.15,0-.29-.03-.41-.09ZM58.07,470.29c.11-.05.2-.12.27-.21.07-.09.11-.19.11-.29v-.28l-.65.05c-.16.01-.29.06-.38.13-.1.07-.15.17-.15.29s.04.21.12.28c.08.08.18.11.31.11h.04c.11,0,.21-.03.32-.08Z"/>
        <path class="cls-3" d="M59.96,470.54c-.09-.09-.13-.21-.13-.38v-1.6h-.55v-.36h.55v-.8h.42v.8h.6v.36h-.6v1.54c0,.07.01.12.04.15.03.03.08.04.15.04h.48v.37h-.58c-.17,0-.3-.04-.38-.13Z"/>
        <path class="cls-3" d="M61.81,470.58c-.17-.1-.31-.24-.41-.44-.1-.19-.15-.43-.15-.71s.05-.51.16-.7c.1-.19.24-.34.42-.43.17-.1.36-.15.56-.15.21,0,.39.05.55.14.16.09.28.22.36.39.08.17.13.36.13.57v.25h-1.74c0,.19.04.35.11.48.07.13.16.23.27.29.11.06.22.1.34.1h.04c.14,0,.26-.03.37-.1.1-.07.17-.17.2-.31h.42c-.05.24-.16.43-.35.57-.19.14-.41.2-.67.2-.21,0-.4-.05-.58-.15ZM62.81,468.68c-.11-.11-.25-.17-.41-.17h-.04c-.16,0-.3.05-.42.16-.13.1-.21.27-.25.49h1.3c0-.21-.07-.37-.18-.48Z"/>
        <path class="cls-3" d="M64.4,470.57c-.16-.1-.29-.25-.38-.44s-.14-.42-.14-.68.05-.49.15-.68c.1-.19.23-.34.4-.45.17-.1.36-.16.57-.16.16,0,.32.04.47.12s.25.17.32.29v-1.35h.42v3.46h-.42v-.36c-.07.12-.18.22-.33.29s-.32.12-.49.12c-.21,0-.4-.05-.56-.16ZM65.42,470.25c.11-.08.2-.18.26-.32.06-.14.1-.3.1-.49s-.03-.35-.1-.49c-.06-.14-.15-.25-.26-.32-.11-.08-.23-.11-.37-.11h-.03c-.14,0-.27.04-.37.11-.11.08-.19.18-.25.32-.06.14-.09.3-.09.49,0,.29.06.51.19.68s.3.25.51.25h.03c.14,0,.26-.04.37-.11Z"/>
        <path class="cls-3" d="M68.42,470.63c-.12-.06-.22-.15-.29-.26-.07-.11-.11-.24-.11-.38,0-.17.04-.32.13-.42.09-.11.2-.19.33-.24s.27-.08.42-.09l.71-.06v-.08c0-.12-.02-.23-.07-.32-.04-.08-.11-.15-.19-.2-.08-.05-.18-.07-.29-.07h-.03c-.15,0-.27.04-.37.1-.1.07-.16.17-.17.3h-.42c.01-.22.11-.41.29-.55.18-.14.41-.21.69-.21.21,0,.39.04.54.13.15.08.26.2.34.34.07.14.11.3.11.47v1.04c0,.25,0,.43.02.54h-.4c-.02-.09-.02-.22-.02-.4-.05.12-.15.23-.3.31-.15.09-.32.13-.51.13-.15,0-.29-.03-.41-.09ZM69.23,470.29c.11-.05.2-.12.27-.21.07-.09.11-.19.11-.29v-.28l-.65.05c-.16.01-.29.06-.38.13-.1.07-.15.17-.15.29s.04.21.12.28c.08.08.18.11.31.11h.04c.11,0,.21-.03.32-.08Z"/>
        <path class="cls-3" d="M70.77,468.21h.42v.37c.08-.13.19-.23.32-.31.14-.08.3-.11.49-.11.18,0,.34.04.47.11.13.07.23.17.3.3.07.13.11.29.11.47v1.64h-.42v-1.54c0-.13-.02-.25-.06-.34-.04-.09-.1-.16-.18-.21-.08-.05-.18-.07-.3-.07h-.04c-.13,0-.26.04-.36.1-.11.07-.19.17-.25.29-.06.13-.09.27-.09.43v1.33h-.42v-2.47Z"/>
        <path class="cls-3" d="M73.99,470.57c-.16-.1-.29-.25-.38-.44s-.14-.42-.14-.68.05-.49.15-.68c.1-.19.23-.34.4-.45.17-.1.36-.16.57-.16.16,0,.32.04.47.12s.25.17.32.29v-1.35h.42v3.46h-.42v-.36c-.07.12-.18.22-.33.29s-.32.12-.49.12c-.21,0-.4-.05-.56-.16ZM75.01,470.25c.11-.08.2-.18.26-.32.06-.14.1-.3.1-.49s-.03-.35-.1-.49c-.06-.14-.15-.25-.26-.32-.11-.08-.23-.11-.37-.11h-.03c-.14,0-.27.04-.37.11-.11.08-.19.18-.25.32-.06.14-.09.3-.09.49,0,.29.06.51.19.68s.3.25.51.25h.03c.14,0,.26-.04.37-.11Z"/>
        <path class="cls-3" d="M77.76,467.22h.42v1.36c.08-.13.19-.23.33-.31s.3-.11.49-.11.34.04.47.11c.13.07.23.17.3.31.07.13.1.29.1.46v1.64h-.42v-1.55c0-.13-.02-.24-.06-.34-.04-.09-.1-.16-.18-.21-.08-.05-.18-.07-.3-.07h-.04c-.12,0-.24.03-.34.1-.11.06-.19.16-.26.28-.07.12-.1.26-.1.42v1.37h-.42v-3.46Z"/>
        <path class="cls-3" d="M80.85,470.63c-.12-.06-.22-.15-.29-.26-.07-.11-.11-.24-.11-.38,0-.17.04-.32.13-.42.09-.11.2-.19.33-.24s.27-.08.42-.09l.71-.06v-.08c0-.12-.02-.23-.07-.32-.04-.08-.11-.15-.19-.2-.08-.05-.18-.07-.29-.07h-.03c-.15,0-.27.04-.37.1-.1.07-.16.17-.17.3h-.42c.01-.22.11-.41.29-.55.18-.14.41-.21.69-.21.21,0,.39.04.54.13.15.08.26.2.34.34s.11.3.11.47v1.04c0,.25,0,.43.02.54h-.4c-.02-.09-.02-.22-.02-.4-.05.12-.15.23-.3.31-.15.09-.32.13-.51.13-.15,0-.29-.03-.41-.09ZM81.67,470.29c.11-.05.2-.12.27-.21.07-.09.11-.19.11-.29v-.28l-.65.05c-.16.01-.29.06-.38.13-.1.07-.15.17-.15.29s.04.21.12.28c.08.08.18.11.31.11h.04c.11,0,.21-.03.32-.08Z"/>
        <path class="cls-3" d="M83.21,468.21h.42v.37c.08-.13.19-.23.32-.31.14-.08.3-.11.49-.11s.34.04.47.11c.13.07.23.17.3.3s.11.29.11.47v1.64h-.42v-1.54c0-.13-.02-.25-.06-.34-.04-.09-.1-.16-.18-.21-.08-.05-.18-.07-.3-.07h-.04c-.13,0-.26.04-.36.1-.11.07-.19.17-.25.29-.06.13-.09.27-.09.43v1.33h-.42v-2.47Z"/>
        <path class="cls-3" d="M86.43,470.57c-.16-.1-.29-.25-.38-.44-.09-.19-.14-.42-.14-.68s.05-.49.15-.68c.1-.19.23-.34.4-.45.17-.1.36-.16.57-.16.16,0,.32.04.47.12s.25.17.32.29v-1.35h.42v3.46h-.42v-.36c-.07.12-.18.22-.33.29-.16.08-.32.12-.49.12-.21,0-.4-.05-.56-.16ZM87.45,470.25c.11-.08.2-.18.26-.32.06-.14.1-.3.1-.49s-.03-.35-.1-.49c-.06-.14-.15-.25-.26-.32-.11-.08-.23-.11-.37-.11h-.03c-.14,0-.26.04-.37.11-.11.08-.19.18-.25.32-.06.14-.09.3-.09.49,0,.29.06.51.19.68s.3.25.51.25h.03c.14,0,.26-.04.37-.11Z"/>
        <path class="cls-3" d="M88.93,469h1.3v.37h-1.3v-.37Z"/>
        <path class="cls-3" d="M91.69,470.61c-.15-.08-.27-.18-.33-.29v.36h-.42v-3.46h.42v1.35c.07-.12.17-.22.32-.29s.3-.12.47-.12c.21,0,.4.05.57.16.17.1.3.25.4.45.1.19.14.42.14.68s-.05.49-.14.68c-.09.19-.22.34-.38.44s-.35.16-.56.16c-.17,0-.33-.04-.48-.12ZM92.5,470.25c.11-.08.19-.18.25-.32.06-.14.09-.3.09-.49,0-.29-.06-.51-.19-.68-.13-.17-.3-.25-.52-.25h-.03c-.14,0-.26.04-.37.11-.11.08-.2.18-.26.32-.06.14-.09.3-.09.49s.03.35.09.49.15.25.26.32c.11.08.23.11.37.11h.03c.14,0,.27-.04.37-.11Z"/>
        <path class="cls-3" d="M93.87,467.22h.42v3.46h-.42v-3.46Z"/>
        <path class="cls-3" d="M95.46,470.58c-.17-.1-.31-.24-.41-.44s-.15-.43-.15-.71.05-.51.16-.7.24-.34.42-.43c.17-.1.36-.15.56-.15.21,0,.39.05.55.14.16.09.28.22.36.39.08.17.13.36.13.57v.25h-1.74c0,.19.04.35.11.48.07.13.16.23.27.29s.22.1.34.1h.04c.14,0,.26-.03.37-.1.1-.07.17-.17.2-.31h.42c-.05.24-.16.43-.35.57-.19.14-.41.2-.67.2-.21,0-.4-.05-.58-.15ZM96.46,468.68c-.11-.11-.25-.17-.41-.17h-.04c-.16,0-.3.05-.42.16-.12.1-.21.27-.25.49h1.3c0-.21-.07-.37-.18-.48Z"/>
        <path class="cls-3" d="M97.68,468.21h.42v.37c.08-.13.19-.23.32-.31.14-.08.3-.11.49-.11s.34.04.47.11c.13.07.23.17.3.3.07.13.11.29.11.47v1.64h-.42v-1.54c0-.13-.02-.25-.06-.34-.04-.09-.1-.16-.18-.21-.08-.05-.18-.07-.3-.07h-.04c-.13,0-.26.04-.36.1-.11.07-.19.17-.25.29-.06.13-.09.27-.09.43v1.33h-.42v-2.47Z"/>
        <path class="cls-3" d="M100.9,470.57c-.16-.1-.29-.25-.38-.44-.09-.19-.14-.42-.14-.68s.05-.49.15-.68c.1-.19.23-.34.4-.45.17-.1.36-.16.57-.16.16,0,.32.04.47.12s.25.17.32.29v-1.35h.42v3.46h-.42v-.36c-.07.12-.18.22-.33.29s-.32.12-.49.12c-.21,0-.4-.05-.56-.16ZM101.92,470.25c.11-.08.2-.18.26-.32.06-.14.1-.3.1-.49s-.03-.35-.1-.49c-.06-.14-.15-.25-.26-.32-.11-.08-.23-.11-.37-.11h-.03c-.14,0-.26.04-.37.11-.11.08-.19.18-.25.32-.06.14-.09.3-.09.49,0,.29.06.51.19.68.13.17.3.25.51.25h.03c.14,0,.26-.04.37-.11Z"/>
        <path class="cls-3" d="M103.87,470.58c-.17-.1-.31-.24-.41-.44s-.15-.43-.15-.71.05-.51.16-.7.24-.34.42-.43c.17-.1.36-.15.56-.15.21,0,.39.05.55.14.16.09.28.22.36.39.08.17.13.36.13.57v.25h-1.74c0,.19.04.35.11.48.07.13.16.23.27.29.11.06.22.1.34.1h.04c.14,0,.26-.03.37-.1.1-.07.17-.17.2-.31h.42c-.05.24-.16.43-.35.57-.19.14-.41.2-.67.2-.21,0-.4-.05-.58-.15ZM104.87,468.68c-.11-.11-.25-.17-.41-.17h-.04c-.16,0-.3.05-.42.16-.12.1-.21.27-.25.49h1.3c0-.21-.07-.37-.18-.48Z"/>
        <path class="cls-3" d="M106.46,470.57c-.16-.1-.29-.25-.38-.44s-.14-.42-.14-.68.05-.49.15-.68c.1-.19.23-.34.4-.45.17-.1.36-.16.57-.16.16,0,.32.04.47.12s.25.17.32.29v-1.35h.42v3.46h-.42v-.36c-.07.12-.18.22-.33.29-.16.08-.32.12-.49.12-.21,0-.4-.05-.56-.16ZM107.48,470.25c.11-.08.2-.18.26-.32s.1-.3.1-.49-.03-.35-.1-.49c-.06-.14-.15-.25-.26-.32-.11-.08-.23-.11-.37-.11h-.03c-.14,0-.27.04-.37.11-.1.08-.19.18-.25.32-.06.14-.09.3-.09.49,0,.29.06.51.19.68s.3.25.51.25h.03c.14,0,.26-.04.37-.11Z"/>
        <path class="cls-3" d="M56.4,472.49h.47v.5h-.47v-.5ZM56.42,473.44h.42v2.47h-.42v-2.47Z"/>
        <path class="cls-3" d="M57.6,473.44h.42v.37c.08-.13.19-.23.32-.31.14-.08.3-.11.49-.11s.34.04.47.11c.13.07.23.17.3.3s.11.29.11.47v1.64h-.42v-1.54c0-.13-.02-.25-.06-.34-.04-.09-.1-.16-.18-.21-.08-.05-.18-.07-.3-.07h-.04c-.13,0-.26.04-.36.1-.11.07-.19.17-.25.29-.06.13-.09.27-.09.43v1.33h-.42v-2.47Z"/>
        <path class="cls-3" d="M61.74,475.73c-.17-.15-.27-.34-.27-.58h.42c.02.15.08.26.18.34.1.08.24.11.4.11h.04c.15,0,.26-.03.36-.1.09-.07.14-.15.14-.26,0-.09-.03-.16-.09-.21-.06-.05-.15-.09-.28-.12l-.36-.07c-.21-.04-.39-.12-.51-.23s-.19-.26-.19-.46c0-.16.04-.29.13-.41.08-.11.2-.2.34-.26s.29-.09.46-.09c.31,0,.54.08.71.23s.25.34.26.58h-.42c-.02-.13-.07-.24-.16-.32-.09-.09-.21-.13-.36-.13h-.04c-.14,0-.26.03-.35.1s-.13.15-.13.25c0,.09.03.17.09.22.06.05.16.09.29.12l.39.08c.2.04.37.11.49.22s.18.27.18.47c0,.15-.04.28-.12.39-.08.11-.19.2-.34.26s-.31.09-.5.09c-.31,0-.56-.08-.73-.23Z"/>
        <path class="cls-3" d="M64.05,473.44h.42v.36c.08-.12.18-.22.31-.3.13-.08.28-.11.45-.11.18,0,.35.04.48.12s.24.2.32.36c.09-.17.21-.29.35-.36s.31-.12.48-.12.34.04.47.11c.13.07.23.17.3.3s.11.29.11.47v1.64h-.42v-1.54c0-.2-.04-.36-.13-.46s-.22-.16-.4-.16h-.03c-.12,0-.23.04-.33.1-.1.07-.18.17-.24.29-.06.13-.09.27-.09.43v1.33h-.42v-1.54c0-.2-.04-.36-.13-.46s-.21-.16-.39-.16h-.04c-.12,0-.23.04-.33.1-.1.07-.18.17-.24.29-.06.13-.09.27-.09.43v1.33h-.42v-2.47Z"/>
        <path class="cls-3" d="M68.73,475.86c-.12-.06-.22-.15-.29-.26-.07-.11-.11-.24-.11-.38,0-.17.04-.32.13-.42.09-.11.2-.19.33-.24.13-.05.27-.08.42-.09l.71-.06v-.08c0-.12-.02-.23-.07-.32-.04-.08-.11-.15-.19-.2-.08-.05-.18-.07-.29-.07h-.03c-.15,0-.27.04-.37.1-.1.07-.16.17-.17.3h-.42c.01-.22.11-.41.29-.55s.41-.21.69-.21c.21,0,.39.04.54.13.15.08.26.2.34.34.07.14.11.3.11.47v1.04c0,.25,0,.43.02.54h-.4c-.02-.09-.02-.22-.02-.4-.05.12-.15.23-.3.31-.15.09-.32.13-.51.13-.15,0-.29-.03-.41-.09ZM69.55,475.53c.11-.05.2-.12.27-.21.07-.09.11-.19.11-.29v-.28l-.65.05c-.16.01-.29.06-.38.13s-.15.17-.15.29.04.21.12.28c.08.08.18.11.31.11h.04c.11,0,.21-.03.32-.08Z"/>
        <path class="cls-3" d="M71.08,472.45h.42v3.46h-.42v-3.46Z"/>
        <path class="cls-3" d="M72.26,472.45h.42v3.46h-.42v-3.46Z"/>
        <path class="cls-3" d="M75.4,475.84c-.15-.08-.27-.18-.33-.29v.36h-.42v-3.46h.42v1.35c.07-.12.17-.22.32-.29.15-.08.3-.12.47-.12.21,0,.4.05.57.16.17.1.3.25.4.45.1.19.14.42.14.68s-.05.49-.14.68-.22.34-.38.44c-.16.1-.35.16-.56.16-.17,0-.33-.04-.48-.12ZM76.2,475.49c.11-.08.19-.18.25-.32s.09-.3.09-.49c0-.29-.06-.51-.2-.68-.13-.17-.3-.25-.52-.25h-.03c-.14,0-.26.04-.37.11-.11.08-.2.18-.26.32-.06.14-.09.3-.09.49s.03.35.09.49.15.25.26.32c.11.08.23.11.37.11h.03c.14,0,.27-.04.37-.11Z"/>
        <path class="cls-3" d="M77.82,475.86c-.12-.06-.22-.15-.29-.26-.07-.11-.11-.24-.11-.38,0-.17.04-.32.13-.42.09-.11.2-.19.33-.24.13-.05.27-.08.42-.09l.71-.06v-.08c0-.12-.02-.23-.07-.32-.04-.08-.11-.15-.19-.2-.08-.05-.18-.07-.29-.07h-.03c-.14,0-.27.04-.37.1-.1.07-.16.17-.17.3h-.42c.01-.22.11-.41.29-.55s.41-.21.69-.21c.21,0,.39.04.54.13s.26.2.34.34.11.3.11.47v1.04c0,.25,0,.43.02.54h-.4c-.02-.09-.02-.22-.02-.4-.05.12-.15.23-.3.31-.15.09-.32.13-.51.13-.15,0-.29-.03-.41-.09ZM78.64,475.53c.11-.05.2-.12.27-.21.07-.09.11-.19.11-.29v-.28l-.65.05c-.16.01-.29.06-.38.13s-.15.17-.15.29.04.21.12.28c.08.08.18.11.31.11h.04c.1,0,.21-.03.32-.08Z"/>
        <path class="cls-3" d="M80.53,475.78c-.09-.09-.13-.21-.13-.38v-1.6h-.55v-.36h.55v-.8h.42v.8h.6v.36h-.6v1.54c0,.07.01.12.04.15.03.03.08.04.15.04h.48v.37h-.58c-.17,0-.3-.04-.39-.13Z"/>
        <path class="cls-3" d="M82.35,475.79c-.17-.11-.31-.27-.4-.46-.09-.19-.14-.41-.14-.66s.05-.46.14-.66.23-.35.4-.46c.17-.11.38-.17.63-.17.18,0,.35.04.49.1.14.07.26.17.35.3s.14.28.16.45h-.42c-.02-.15-.08-.27-.19-.36-.1-.09-.22-.14-.37-.14h-.04c-.16,0-.29.04-.4.13s-.19.2-.24.34-.08.3-.08.46c0,.26.06.48.19.66s.3.27.54.27h.04c.15,0,.27-.05.37-.14.1-.09.16-.21.19-.36h.42c-.03.26-.13.47-.31.62-.18.15-.41.23-.68.23-.24,0-.45-.06-.63-.17Z"/>
        <path class="cls-3" d="M84.57,472.45h.42v1.36c.08-.13.19-.23.33-.31s.3-.11.49-.11.34.04.47.11c.13.07.23.17.3.31s.1.29.1.46v1.64h-.42v-1.55c0-.13-.02-.24-.06-.34-.04-.09-.1-.16-.18-.21-.08-.05-.18-.07-.3-.07h-.04c-.12,0-.24.03-.34.1-.11.06-.19.16-.26.28s-.1.26-.1.42v1.37h-.42v-3.46Z"/>
        <path class="cls-3" d="M87.84,475.81c-.17-.1-.31-.24-.41-.44s-.15-.43-.15-.71.05-.51.16-.7.24-.34.42-.43c.17-.1.36-.15.56-.15.21,0,.39.05.55.14.16.09.28.22.36.39.08.17.13.36.13.57v.25h-1.74c0,.19.04.35.11.48.07.13.16.23.27.29.11.06.22.1.34.1h.04c.14,0,.26-.03.37-.1.1-.07.17-.17.2-.31h.42c-.05.24-.16.43-.35.57-.19.14-.41.2-.67.2-.21,0-.4-.05-.58-.15ZM88.84,473.91c-.11-.11-.25-.17-.42-.17h-.04c-.16,0-.3.05-.42.16-.12.1-.21.27-.25.49h1.3c-.01-.21-.07-.37-.18-.48Z"/>
        <path class="cls-3" d="M90.14,475.73c-.17-.15-.26-.34-.27-.58h.42c.02.15.08.26.18.34.1.08.24.11.4.11h.04c.15,0,.26-.03.36-.1.09-.07.14-.15.14-.26,0-.09-.03-.16-.09-.21-.06-.05-.15-.09-.28-.12l-.36-.07c-.21-.04-.39-.12-.51-.23s-.19-.26-.19-.46c0-.16.04-.29.13-.41.08-.11.2-.2.34-.26.14-.06.29-.09.46-.09.31,0,.54.08.71.23.16.15.25.34.26.58h-.42c-.02-.13-.07-.24-.16-.32-.09-.09-.21-.13-.36-.13h-.04c-.15,0-.26.03-.35.1-.09.07-.13.15-.13.25,0,.09.03.17.09.22.06.05.16.09.29.12l.39.08c.2.04.37.11.49.22s.18.27.18.47c0,.15-.04.28-.12.39-.08.11-.19.2-.34.26-.14.06-.31.09-.5.09-.31,0-.56-.08-.73-.23Z"/>
        <path class="cls-3" d="M92.4,475.35h.56v.56h-.56v-.56Z"/>
      </g>
      <path class="cls-2" d="M133.79,448.53c-.09,0-.17-.08-.17-.18v-.23h1.04v-1.14h0c2.18-.64,3.13-2.36,3.13-5.05,0-4.31-.97-5.51-4.13-5.51-2.04,0-4.85.74-6.3,1.81-1.17.86-1.12,2.34-.98,3.75.36,3.54.99,4.7,3.04,5.05v1.09h1.12v.23c0,.09-.07.17-.17.18l-3.24.57c-.22.04-.38.23-.38.45v26.54c0,.11.09.21.21.21h10.33c.11,0,.21-.09.21-.21v-26.54c0-.22-.16-.41-.38-.45l-3.32-.57Z"/>
      <g>
        <path class="cls-3" d="M129.99,450.81h.29v-.19h-.29s-.05-.02-.05-.05h0s.02-.05.05-.05h.35v-.19h-.58v.74h.58v-.18h-.35s-.05-.02-.05-.05h0s.02-.05.05-.05ZM128.93,450.71c0,.21-.15.39-.38.39s-.38-.17-.38-.39.14-.39.38-.39.38.17.38.39ZM128.54,450.54c-.11,0-.17.08-.17.17s.06.17.17.17.17-.08.17-.17-.06-.17-.17-.17ZM129.34,450.32c-.24,0-.38.17-.38.39s.14.39.38.39.38-.17.38-.39-.15-.39-.38-.39ZM129.51,450.71c0,.09-.06.17-.17.17s-.17-.08-.17-.17.06-.17.17-.17.17.08.17.17ZM128,450.54c.06,0,.09,0,.15.02v-.2s-.1-.02-.17-.02h0c-.23,0-.39.17-.39.38s.16.38.39.38h0c.07,0,.11,0,.17-.02v-.2c-.06.01-.09.02-.15.02-.12,0-.19-.08-.19-.17s.07-.17.19-.17ZM130.62,450.81h.29v-.19h-.29s-.05-.02-.05-.05h0s.02-.05.05-.05h.35v-.19h-.58v.74h.58v-.18h-.35s-.05-.02-.05-.05h0s.02-.05.05-.05Z"/>
        <g>
          <rect class="cls-3" x="133.8" y="462.43" width=".22" height=".74"/>
          <path class="cls-3" d="M132.13,462.43h-.41v.74h.22v-.23h.19c.14,0,.26-.11.26-.26h0c0-.14-.11-.26-.26-.26ZM132.1,462.75h-.15v-.14h.15s.07.03.07.07-.03.07-.07.07Z"/>
          <path class="cls-3" d="M131.41,462.43h-.22,0s-.32.74-.32.74h.22l.05-.12h.31l.05.12h.22l-.32-.74h0ZM131.22,462.86l.07-.17.07.17h-.15Z"/>
          <path class="cls-3" d="M132.42,463.17h.58v-.18h-.35s-.05-.02-.05-.05h0s.02-.05.05-.05h.29v-.19h-.29s-.05-.02-.05-.05.02-.05.05-.05h.35v-.19h-.58v.74Z"/>
          <polygon class="cls-3" points="135.63 462.43 135.45 462.83 135.28 462.43 135.04 462.43 135.36 463.17 135.54 463.17 135.86 462.43 135.63 462.43"/>
          <path class="cls-3" d="M133.74,462.68h0c0-.14-.11-.25-.25-.25h-.42v.74h.22v-.29l.21.29h.25l-.18-.25c.1-.03.18-.13.18-.24ZM133.52,462.68s-.03.06-.06.06h-.17v-.13h.17s.06.03.06.06h0Z"/>
          <path class="cls-3" d="M136.16,462.41c-.24,0-.38.17-.38.39s.14.39.38.39.38-.17.38-.39-.15-.39-.38-.39ZM136.16,462.97c-.11,0-.17-.08-.17-.17s.06-.17.17-.17.17.08.17.17-.06.17-.17.17Z"/>
          <rect class="cls-3" x="134.79" y="462.43" width=".22" height=".74"/>
          <polygon class="cls-3" points="134.06 462.64 134.3 462.64 134.3 463.17 134.52 463.17 134.52 462.64 134.76 462.64 134.76 462.43 134.06 462.43 134.06 462.64"/>
        </g>
        <g>
          <path class="cls-3" d="M132.41,474.55h-.42v.75h.23v-.23h.2c.14,0,.26-.12.26-.26h0c0-.14-.12-.26-.26-.26ZM132.37,474.88h-.16v-.14h.16s.07.03.07.07-.03.07-.07.07Z"/>
          <path class="cls-3" d="M128.75,474.55h-.22,0s-.32.76-.32.76h.22l.05-.13h.32l.05.13h.23l-.33-.76h0ZM128.56,474.99l.08-.18.08.18h-.15Z"/>
          <path class="cls-3" d="M133.08,474.55h-.22,0s-.32.76-.32.76h.22l.05-.13h.32l.05.13h.23l-.33-.76h0ZM132.89,474.99l.08-.18.08.18h-.15Z"/>
          <path class="cls-3" d="M127.6,475.31h.59v-.18h-.35s-.05-.02-.05-.05h0s.02-.05.05-.05h.3v-.19h-.3s-.05-.02-.05-.05.02-.05.05-.05h.35v-.19h-.59v.76Z"/>
          <path class="cls-3" d="M130.99,475.31h.59v-.18h-.35s-.05-.02-.05-.05h0s.02-.05.05-.05h.3v-.19h-.3s-.05-.02-.05-.05.02-.05.05-.05h.35v-.19h-.59v.76Z"/>
          <path class="cls-3" d="M134.38,475.03h.33v-.19h-.32s-.05-.02-.05-.05.02-.05.05-.05h.37v-.19h-.61v.76h.22v-.28Z"/>
          <path class="cls-3" d="M134.1,474.81h0c0-.14-.11-.26-.26-.26h-.43v.75h.23v-.29l.22.29h.25l-.19-.25c.1-.03.18-.13.18-.24ZM133.87,474.81s-.03.06-.06.06h-.17v-.13h.17s.06.03.06.06h0Z"/>
          <path class="cls-3" d="M130.53,475.31c.23,0,.38-.17.38-.38s-.14-.38-.38-.38h-.36v.76h.36ZM130.52,474.74c.1,0,.17.09.17.19s-.06.19-.17.19h-.13v-.38h.13Z"/>
          <path class="cls-3" d="M129.79,474.55h-.22v.39c0,.13-.09.16-.16.16-.06,0-.16-.02-.16-.16v-.39h-.22v.39c0,.23.16.38.38.38s.38-.15.38-.38v-.39h0Z"/>
          <path class="cls-3" d="M135.57,474.55h-.22v.39c0,.13-.09.16-.16.16-.06,0-.16-.02-.16-.16v-.39h-.22v.39c0,.23.16.38.38.38s.38-.15.38-.38v-.39h0Z"/>
          <polygon class="cls-3" points="136.09 475.01 135.87 474.55 135.62 474.55 135.62 475.31 135.82 475.31 135.82 474.93 136 475.31 136.15 475.31 136.33 474.93 136.33 475.31 136.54 475.31 136.54 474.55 136.3 474.55 136.09 475.01"/>
        </g>
      </g>
    </g>
  </g>
</svg>