<?xml version="1.0" encoding="UTF-8"?>
<svg id="Layer_2" data-name="Layer 2" xmlns="http://www.w3.org/2000/svg" viewBox="0 0 149.76 154.2">
  <defs>
    <style>
      .cls-1 {
        fill: #510e74;
      }

      .cls-2 {
        fill: #98bada;
      }
    </style>
  </defs>
  <g id="Layer_1-2" data-name="Layer 1">
    <g>
      <rect class="cls-1" width="149.76" height="154.2" transform="translate(149.76 154.2) rotate(180)"/>
      <path class="cls-2" d="M82.99,74.88h3.35v-2.14h-3.35c-.29,0-.52-.23-.52-.52h0c0-.29.23-.52.52-.52h3.94v-2.13h-6.55v8.4h6.55v-2.04h-3.94c-.29,0-.52-.23-.52-.52v-.02c0-.29.23-.52.52-.52ZM70.86,73.77c0,2.43-1.67,4.4-4.38,4.4s-4.38-1.97-4.38-4.4,1.64-4.4,4.38-4.4,4.38,1.97,4.38,4.4ZM66.47,71.83c-1.21,0-1.93.87-1.93,1.94s.68,1.94,1.93,1.94,1.93-.87,1.93-1.94-.73-1.94-1.93-1.94ZM75.6,69.37c-2.74,0-4.38,1.97-4.38,4.4s1.55,4.4,4.38,4.4,4.38-1.97,4.38-4.4-1.67-4.4-4.38-4.4ZM77.53,73.77c0,1.07-.73,1.94-1.93,1.94s-1.93-.87-1.93-1.94.72-1.94,1.93-1.94,1.93.87,1.93,1.94ZM60.32,71.79c.71,0,1.04.04,1.74.17v-2.3c-.53-.14-1.15-.21-1.97-.21h0c-2.59,0-4.4,1.93-4.4,4.32s1.8,4.32,4.4,4.32h0c.75,0,1.3-.07,1.97-.21v-2.3c-.69.14-1.01.17-1.74.17-1.33,0-2.21-.89-2.21-1.98,0-1.1.79-1.98,2.21-1.98ZM90.13,74.88h3.35v-2.14h-3.35c-.29,0-.52-.23-.52-.52h0c0-.29.23-.52.52-.52h3.94v-2.13h-6.55v8.4h6.55v-2.04h-3.94c-.29,0-.52-.23-.52-.52v-.02c0-.29.23-.52.52-.52Z"/>
      <g>
        <path class="cls-2" d="M64.31,81.4h.54l1.02,2.63h-.47l-.87-2.25h.07l-.86,2.25h-.47l1.04-2.63ZM63.91,82.98h1.4v.41s-1.48,0-1.48,0l.08-.41Z"/>
        <path class="cls-2" d="M66.85,83.95c-.15-.08-.26-.19-.34-.33-.07-.14-.11-.32-.11-.52v-1.7h.45v1.64c0,.21.05.37.14.47.09.1.23.15.41.15h.04c.18,0,.32-.05.41-.15.09-.1.14-.26.14-.47v-1.64h.45v1.7c0,.3-.09.54-.26.71-.17.17-.42.25-.76.25-.23,0-.42-.04-.57-.12Z"/>
        <path class="cls-2" d="M69.6,83.96c-.15-.07-.27-.18-.35-.31-.08-.14-.13-.3-.13-.49h.45c0,.16.06.28.17.37.11.09.26.14.46.14h.04c.15,0,.27-.03.35-.1s.13-.15.13-.25c0-.09-.03-.16-.08-.22s-.14-.09-.27-.12l-.45-.09c-.23-.05-.39-.13-.5-.26-.11-.12-.17-.29-.17-.49,0-.14.04-.26.12-.38.08-.12.19-.21.34-.28.15-.07.32-.11.52-.11s.37.04.52.11c.15.07.26.17.34.3.08.13.12.28.12.44h-.45c0-.14-.06-.25-.16-.33s-.22-.12-.37-.12h-.04c-.1,0-.18.02-.26.05-.08.03-.13.07-.17.13-.04.06-.06.12-.06.18,0,.09.03.17.08.22s.14.09.26.11l.41.08c.23.05.41.13.54.26.12.12.19.29.19.5,0,.15-.04.29-.12.41-.08.12-.19.21-.34.28-.15.07-.33.1-.53.1-.23,0-.42-.04-.57-.11Z"/>
        <path class="cls-2" d="M72.54,81.8h-.92v-.4h2.3v.4h-.92v2.23h-.45v-2.23Z"/>
        <path class="cls-2" d="M74.56,81.4h1.18c.15,0,.29.03.42.09s.22.15.29.25c.07.11.11.23.11.37,0,.17-.04.31-.12.42s-.19.19-.32.24c.14,0,.25.03.31.09.06.06.09.15.09.28v.88h-.45v-.77c0-.1-.02-.17-.05-.2-.04-.03-.1-.05-.2-.05h-.81v1.02h-.45v-2.63ZM75.9,82.56c.07-.04.12-.08.16-.15.04-.06.05-.14.05-.22,0-.13-.04-.23-.12-.29-.08-.07-.2-.1-.35-.1h-.62v.81h.62c.1,0,.19-.02.26-.05Z"/>
        <path class="cls-2" d="M78.12,81.4h.54l1.02,2.63h-.47l-.87-2.25h.07l-.86,2.25h-.47l1.04-2.63ZM77.72,82.98h1.4v.41s-1.48,0-1.48,0l.08-.41Z"/>
        <path class="cls-2" d="M80.3,81.4h.45v2.23h1.51v.4h-1.96v-2.63Z"/>
        <path class="cls-2" d="M82.91,81.4h.45v2.63h-.45v-2.63Z"/>
        <path class="cls-2" d="M85,81.4h.54l1.02,2.63h-.47l-.87-2.25h.07l-.86,2.25h-.47l1.04-2.63ZM84.6,82.98h1.4v.41s-1.48,0-1.48,0l.08-.41Z"/>
      </g>
    </g>
  </g>
</svg>