<?xml version="1.0" encoding="UTF-8"?>
<svg id="Layer_2" data-name="Layer 2" xmlns="http://www.w3.org/2000/svg" viewBox="0 0 203.03 60.1">
  <g id="Layer_1-2" data-name="Layer 1">
    <g>
      <path d="M89.04,17.95h10.93v-6.99h-10.93c-.93,0-1.69-.75-1.69-1.69h0c0-.93.75-1.69,1.69-1.69h12.86V.65h-21.37v27.4h21.37v-6.66h-12.86c-.93,0-1.69-.75-1.69-1.69v-.06c0-.93.75-1.69,1.69-1.69ZM49.46,14.35c0,7.93-5.44,14.35-14.3,14.35s-14.3-6.42-14.3-14.35S26.21,0,35.16,0s14.3,6.42,14.3,14.35ZM35.16,8.03c-3.94,0-6.3,2.83-6.3,6.32s2.23,6.32,6.3,6.32,6.3-2.83,6.3-6.32-2.4-6.32-6.3-6.32ZM64.94,0c-8.95,0-14.3,6.42-14.3,14.35s5.05,14.35,14.3,14.35,14.3-6.42,14.3-14.35S73.8,0,64.94,0ZM71.24,14.35c0,3.49-2.4,6.32-6.3,6.32s-6.3-2.83-6.3-6.32,2.36-6.32,6.3-6.32,6.3,2.83,6.3,6.32ZM15.11,7.88c2.33,0,3.38.14,5.66.57V.95c-1.74-.45-3.74-.68-6.42-.68h0C5.91.27,0,6.58,0,14.35s5.86,14.08,14.35,14.08h0c2.43,0,4.24-.23,6.42-.68v-7.5c-2.25.45-3.3.57-5.66.57-4.33,0-7.22-2.9-7.22-6.47s2.57-6.47,7.22-6.47ZM112.31,17.95h10.93v-6.99h-10.93c-.93,0-1.69-.75-1.69-1.69h0c0-.93.75-1.69,1.69-1.69h12.86V.65h-21.37v27.4h21.37v-6.66h-12.86c-.93,0-1.69-.75-1.69-1.69v-.06c0-.93.75-1.69,1.69-1.69Z"/>
      <g>
        <path d="M72.34,32.04v27.41h21.81v-7.38h-11.78c-.93,0-1.69-.76-1.69-1.69v-18.34s-8.35,0-8.35,0Z"/>
        <path d="M70.49,45.75c0,7.93-5.44,14.35-14.31,14.35s-14.31-6.43-14.31-14.35,5.35-14.35,14.31-14.35,14.31,6.43,14.31,14.35ZM56.19,39.43c-3.94,0-6.3,2.83-6.3,6.32s2.23,6.32,6.3,6.32,6.3-2.83,6.3-6.32-2.4-6.32-6.3-6.32Z"/>
        <path d="M107.79,31.39c-8.95,0-14.31,6.43-14.31,14.35s5.06,14.35,14.31,14.35,14.31-6.43,14.31-14.35-5.44-14.35-14.31-14.35ZM114.09,45.75c0,3.49-2.4,6.32-6.3,6.32s-6.3-2.83-6.3-6.32,2.36-6.32,6.3-6.32,6.3,2.83,6.3,6.32Z"/>
        <path d="M36.13,39.28c2.33,0,3.38.14,5.67.57v-7.51c-1.74-.45-3.74-.68-6.42-.68h0c-8.44,0-14.35,6.31-14.35,14.08s5.86,14.08,14.35,14.08h0c2.43,0,4.24-.23,6.42-.68v-7.5c-2.25.45-3.31.57-5.67.57-4.33,0-7.22-2.9-7.22-6.47,0-3.57,2.57-6.47,7.22-6.47Z"/>
        <path d="M190.17,49.35h10.93v-6.99h-10.93c-.93,0-1.69-.76-1.69-1.69h0c0-.93.76-1.69,1.69-1.69h12.86v-6.94h-21.37v27.41h21.37v-6.66h-12.86c-.93,0-1.69-.76-1.69-1.69v-.06c0-.93.76-1.69,1.69-1.69Z"/>
        <path d="M170.41,45.79l-13.58-13.61h-5.52v27.28h8.16v-13.61l13.58,13.61h5.52v-27.28h-8.16v13.61Z"/>
        <path d="M148.59,57.88v-15.54h-12.51v6.53h5.09c.9,0,1.63.73,1.63,1.63h0c0,.82-.61,1.52-1.43,1.62-.79.1-1.76.18-2.96.18-5.39,0-7.22-2.9-7.22-6.47s2.4-6.47,8.19-6.47c2.76,0,5.51.32,8.08.98v-7.51c-2.57-.68-5.61-1.08-8.83-1.08h0c-9.62,0-15.32,6.31-15.32,14.08s5.54,14.08,14.13,14.08h1.04c3.23,0,7.08-.76,10.11-2.03Z"/>
      </g>
    </g>
  </g>
</svg>