<?xml version="1.0" encoding="UTF-8"?>
<svg id="Layer_2" data-name="Layer 2" xmlns="http://www.w3.org/2000/svg" viewBox="0 0 188.6 28.29">
  <g id="Layer_1-2" data-name="Layer 1">
    <g>
      <path d="M54.51.78h-8.04v13.8c0,4.67-3.07,5.65-5.65,5.65-2.11,0-5.65-.73-5.65-5.65V.78h-8.04v13.8c0,8.07,5.63,13.7,13.7,13.7s13.7-5.51,13.7-13.7V.78h-.02Z"/>
      <path d="M158.35.78h-8.04v26.89h8.04V.78Z"/>
      <path d="M76.51,14.77L61.98.78h-5.45v26.89h8.04v-13.99l14.54,13.99h5.45V.78h-8.04v13.99Z"/>
      <path d="M180.56.78v13.99l-14.54-13.99h-5.44v26.89h8.04v-13.99l14.54,13.99h5.44V.78h-8.04Z"/>
      <path d="M140.32.78l-7.84,8.16c-.65.68-1.79.22-1.79-.72V.78h-8.04v26.89h8.04v-7.57c0-.94,1.15-1.4,1.79-.71l7.83,8.29h9.47l-12.81-13.56,12.81-13.34h-9.47Z"/>
      <path d="M109.91,17.61c2.01.19,3.06.6,3.06,1.68,0,1.27-1.64,1.94-5.63,1.94-4.52,0-8.7-1.57-12.17-3.34v7.3c3.47,1.88,7.25,3.1,12.35,3.1,9.78,0,12.87-4.22,12.87-9.01,0-4.35-3.19-7.55-9.7-8.11-1.58-.14-3.92-.32-5.74-.48-2.01-.19-3.06-.6-3.06-1.68,0-1.27,1.64-1.94,5.63-1.94s7.95,1.01,11.55,2.28V2.14c-3.41-1.26-7.55-2.14-11.73-2.14-9.1,0-12.87,4.3-12.87,9.01,0,4.35,3.19,7.55,9.7,8.11,2.28.2,3.87.33,5.74.48Z"/>
      <path d="M15.44,17.61c2.01.19,3.06.6,3.06,1.68,0,1.27-1.64,1.94-5.63,1.94-4.52,0-8.7-1.57-12.17-3.34v7.3c3.47,1.88,7.25,3.1,12.35,3.1,9.78,0,12.87-4.22,12.87-9.01,0-4.35-3.19-7.55-9.7-8.11-1.58-.14-3.92-.32-5.74-.48-2.01-.19-3.06-.6-3.06-1.68,0-1.27,1.64-1.94,5.63-1.94s7.95,1.01,11.55,2.28V2.14c-3.41-1.26-7.55-2.14-11.73-2.14C3.77,0,0,4.3,0,9.01c0,4.35,3.19,7.55,9.7,8.11,2.28.2,3.87.33,5.74.48Z"/>
    </g>
  </g>
</svg>