<?xml version="1.0" encoding="UTF-8"?>
<svg id="Layer_2" data-name="Layer 2" xmlns="http://www.w3.org/2000/svg" xmlns:xlink="http://www.w3.org/1999/xlink" viewBox="0 0 247.55 489.04">
  <defs>
    <style>
      .cls-1 {
        fill: none;
      }

      .cls-2 {
        fill: #fa4803;
      }

      .cls-3 {
        fill: #ffc9ef;
      }

      .cls-4 {
        clip-path: url(#clippath);
      }
    </style>
    <clipPath id="clippath">
      <rect class="cls-1" x="54.38" y="0" width="149.33" height="489.04"/>
    </clipPath>
  </defs>
  <g id="Layer_1-2" data-name="Layer 1">
    <g>
      <rect class="cls-2" x="54.38" y="0" width="149.33" height="489.04"/>
      <g>
        <path class="cls-3" d="M133.3,404.85h-4.65v8.33h2.49v-2.55h2.16c1.59,0,2.89-1.29,2.89-2.89h0c0-1.59-1.29-2.89-2.89-2.89ZM132.92,408.51h-1.78v-1.55h1.78c.43,0,.78.35.78.78s-.35.78-.78.78Z"/>
        <path class="cls-3" d="M92.93,404.85h-2.47,0s-3.58,8.33-3.58,8.33h2.45l.6-1.4h3.5l.6,1.4h2.48l-3.59-8.33h-.02ZM90.86,409.67l.84-1.96.84,1.96h-1.68Z"/>
        <path class="cls-3" d="M140.69,404.85h-2.47,0s-3.58,8.33-3.58,8.33h2.45l.6-1.4h3.5l.6,1.4h2.48l-3.59-8.33h-.02ZM138.61,409.67l.84-1.96.84,1.96h-1.68Z"/>
        <path class="cls-3" d="M80.22,413.18h6.5v-2.03h-3.91c-.28,0-.51-.23-.51-.51v-.02c0-.28.23-.51.51-.51h3.32v-2.13h-3.32c-.28,0-.51-.23-.51-.51s.23-.51.51-.51h3.91v-2.11h-6.5v8.33Z"/>
        <path class="cls-3" d="M117.61,413.18h6.5v-2.03h-3.91c-.28,0-.51-.23-.51-.51v-.02c0-.28.23-.51.51-.51h3.32v-2.13h-3.32c-.28,0-.51-.23-.51-.51s.23-.51.51-.51h3.91v-2.11h-6.5v8.33Z"/>
        <path class="cls-3" d="M155.07,410.11h3.65v-2.13h-3.54c-.28,0-.51-.23-.51-.51s.23-.51.51-.51h4.13v-2.11h-6.72v8.33h2.48v-3.07Z"/>
        <path class="cls-3" d="M151.92,407.67h0c0-1.56-1.26-2.82-2.82-2.82h-4.76v8.33h2.49v-3.24l2.38,3.25h2.78l-2.06-2.81c1.15-.35,1.99-1.43,1.99-2.7ZM149.43,407.67c0,.39-.32.71-.71.71h-1.89v-1.42h1.89c.39,0,.71.32.71.71h0Z"/>
        <path class="cls-3" d="M112.56,413.18c2.57,0,4.15-1.87,4.15-4.17s-1.58-4.17-4.15-4.17h-4v8.33h4ZM112.49,406.96c1.13,0,1.83.94,1.83,2.1s-.7,2.1-1.83,2.1h-1.45v-4.2h1.45Z"/>
        <path class="cls-3" d="M104.38,404.89h-2.48v4.26c0,1.44-.95,1.74-1.74,1.74-.65,0-1.74-.23-1.74-1.74v-4.26h-2.48v4.26c0,2.49,1.74,4.23,4.23,4.23s4.23-1.7,4.23-4.23v-4.26h0Z"/>
        <path class="cls-3" d="M168.16,404.89h-2.48v4.26c0,1.44-.95,1.74-1.74,1.74-.65,0-1.74-.23-1.74-1.74v-4.26h-2.48v4.26c0,2.49,1.74,4.23,4.23,4.23s4.23-1.7,4.23-4.23v-4.26h0Z"/>
        <polygon class="cls-3" points="173.89 409.96 171.52 404.89 168.79 404.89 168.79 413.18 170.9 413.18 170.9 409.05 172.87 413.18 174.61 413.18 176.58 409.05 176.58 413.18 178.92 413.18 178.92 404.89 176.29 404.89 173.89 409.96"/>
      </g>
      <g class="cls-4">
        <g>
          <path class="cls-3" d="M71.55,344.42h-10.56v18.11c0,6.12-4.03,7.41-7.41,7.41-2.77,0-7.41-.96-7.41-7.41v-18.11h-10.56v18.11c0,10.59,7.39,17.98,17.98,17.98s17.98-7.23,17.98-17.98v-18.11h-.03Z"/>
          <path class="cls-3" d="M207.85,344.42h-10.56v35.3h10.56v-35.3Z"/>
          <path class="cls-3" d="M100.43,362.78l-19.08-18.36h-7.15v35.29h10.56v-18.36l19.08,18.36h7.15v-35.29h-10.56v18.36Z"/>
          <path class="cls-3" d="M236.99,344.42v18.36l-19.08-18.36h-7.15v35.29h10.56v-18.36l19.08,18.36h7.15v-35.29h-10.56Z"/>
          <path class="cls-3" d="M184.19,344.42l-10.28,10.71c-.85.89-2.35.29-2.35-.94v-9.77h-10.56v35.3h10.56v-9.93c0-1.23,1.51-1.83,2.35-.93l10.28,10.88h12.43l-16.81-17.79,16.81-17.51h-12.43Z"/>
          <path class="cls-3" d="M144.26,366.51c2.64.24,4.02.78,4.02,2.2,0,1.66-2.16,2.55-7.39,2.55-5.94,0-11.42-2.06-15.98-4.38v9.58c4.56,2.47,9.52,4.07,16.22,4.07,12.83,0,16.89-5.54,16.89-11.83,0-5.72-4.19-9.91-12.73-10.65-2.07-.19-5.15-.42-7.53-.64-2.64-.24-4.02-.78-4.02-2.2,0-1.66,2.16-2.55,7.39-2.55s10.44,1.33,15.16,2.99v-9.45c-4.48-1.65-9.91-2.81-15.4-2.81-11.94,0-16.89,5.64-16.89,11.83,0,5.72,4.19,9.91,12.73,10.65,2.99.26,5.09.43,7.53.64Z"/>
          <path class="cls-3" d="M20.26,366.51c2.64.24,4.02.78,4.02,2.2,0,1.66-2.16,2.55-7.39,2.55-5.94,0-11.42-2.06-15.98-4.38v9.58c4.56,2.47,9.52,4.07,16.22,4.07,12.83,0,16.89-5.54,16.89-11.83,0-5.72-4.19-9.91-12.73-10.65-2.07-.19-5.15-.42-7.53-.64-2.64-.24-4.02-.78-4.02-2.2,0-1.66,2.16-2.55,7.39-2.55s10.44,1.33,15.16,2.99v-9.45c-4.48-1.65-9.91-2.81-15.4-2.81-11.94,0-16.89,5.64-16.89,11.83,0,5.72,4.19,9.91,12.73,10.65,2.99.26,5.09.43,7.53.64Z"/>
        </g>
      </g>
      <path class="cls-3" d="M137.43,323.99h3.25v-2.08h-3.25c-.28,0-.5-.22-.5-.5h0c0-.28.22-.5.5-.5h3.82v-2.06h-6.34v8.14h6.34v-1.98h-3.82c-.28,0-.5-.22-.5-.5v-.02c0-.28.22-.5.5-.5ZM125.67,322.92c0,2.35-1.62,4.26-4.25,4.26s-4.25-1.91-4.25-4.26,1.59-4.26,4.25-4.26,4.25,1.91,4.25,4.26ZM121.43,321.04c-1.17,0-1.87.84-1.87,1.88s.66,1.88,1.87,1.88,1.87-.84,1.87-1.88-.71-1.88-1.87-1.88ZM130.27,318.66c-2.66,0-4.25,1.91-4.25,4.26s1.5,4.26,4.25,4.26,4.25-1.91,4.25-4.26-1.62-4.26-4.25-4.26ZM132.14,322.92c0,1.04-.71,1.88-1.87,1.88s-1.87-.84-1.87-1.88.7-1.88,1.87-1.88,1.87.84,1.87,1.88ZM115.47,321c.69,0,1,.04,1.68.17v-2.23c-.52-.13-1.11-.2-1.91-.2h0c-2.51,0-4.26,1.87-4.26,4.18s1.74,4.18,4.26,4.18h0c.72,0,1.26-.07,1.91-.2v-2.23c-.67.13-.98.17-1.68.17-1.29,0-2.14-.86-2.14-1.92,0-1.06.76-1.92,2.14-1.92ZM144.34,323.99h3.25v-2.08h-3.25c-.28,0-.5-.22-.5-.5h0c0-.28.22-.5.5-.5h3.82v-2.06h-6.34v8.14h6.34v-1.98h-3.82c-.28,0-.5-.22-.5-.5v-.02c0-.28.22-.5.5-.5Z"/>
    </g>
  </g>
</svg>