<?xml version="1.0" encoding="UTF-8"?>
<svg id="Layer_2" data-name="Layer 2" xmlns="http://www.w3.org/2000/svg" viewBox="0 0 149.76 45.82">
  <defs>
    <style>
      .cls-1 {
        fill: #fa4803;
      }

      .cls-2 {
        fill: #ffc9ef;
      }

      .cls-3 {
        fill: none;
        stroke: #fa4803;
        stroke-miterlimit: 10;
        stroke-width: .15px;
      }
    </style>
  </defs>
  <g id="Layer_1-2" data-name="Layer 1">
    <g>
      <path class="cls-2" d="M149.76,45.82H0L3.74,8C4.19,3.46,7.98,0,12.52,0h124.71c4.54,0,8.34,3.46,8.79,8l3.74,37.81Z"/>
      <g>
        <g>
          <path class="cls-1" d="M84.66,21.87c.19.12.33.28.43.48.1.2.15.43.15.69s-.05.49-.15.69c-.1.2-.24.37-.43.48-.19.12-.4.18-.65.18-.19,0-.36-.04-.51-.11-.15-.07-.28-.17-.37-.3-.09-.13-.14-.28-.15-.45h.34c.02.16.09.29.21.4.12.1.28.15.47.15h.04c.18,0,.34-.05.47-.14.13-.09.23-.22.3-.38.07-.16.1-.34.1-.53s-.03-.37-.1-.53c-.07-.16-.17-.28-.3-.38-.13-.09-.29-.14-.47-.14h-.04c-.13,0-.24.02-.34.07-.1.05-.18.11-.23.2s-.09.18-.1.28h-.34c.01-.17.06-.32.15-.45.09-.13.22-.23.37-.3.15-.07.32-.11.51-.11.25,0,.46.06.65.18Z"/>
          <path class="cls-1" d="M81.75,21.85c.19.11.33.27.44.47.1.2.16.44.16.72s-.05.52-.16.72c-.11.2-.25.36-.44.47-.19.11-.4.16-.63.16s-.44-.05-.63-.16c-.19-.11-.33-.27-.44-.47-.1-.2-.16-.44-.16-.72s.05-.51.16-.72c.11-.2.25-.36.44-.47.19-.11.4-.16.63-.16s.45.05.63.16ZM80.65,22.12c-.13.08-.23.2-.31.36s-.11.34-.11.56.04.4.11.56c.08.16.18.28.31.36s.28.13.45.13h.04c.17,0,.32-.04.45-.13.13-.08.23-.2.31-.36.07-.16.11-.34.11-.56s-.04-.4-.11-.56c-.07-.16-.18-.28-.31-.36-.13-.08-.28-.13-.45-.13h-.04c-.17,0-.32.04-.45.13Z"/>
          <path class="cls-1" d="M78.65,21.85c.19.11.33.27.44.47.1.2.16.44.16.72s-.05.52-.16.72c-.11.2-.25.36-.44.47-.19.11-.4.16-.63.16s-.44-.05-.63-.16c-.19-.11-.33-.27-.44-.47-.1-.2-.16-.44-.16-.72s.05-.51.16-.72c.11-.2.25-.36.44-.47.19-.11.4-.16.63-.16s.45.05.63.16ZM77.55,22.12c-.13.08-.23.2-.31.36s-.11.34-.11.56.04.4.11.56c.08.16.18.28.31.36s.28.13.45.13h.04c.17,0,.32-.04.45-.13.13-.08.23-.2.31-.36.07-.16.11-.34.11-.56s-.04-.4-.11-.56c-.07-.16-.18-.28-.31-.36-.13-.08-.28-.13-.45-.13h-.04c-.17,0-.32.04-.45.13Z"/>
          <path class="cls-1" d="M75.99,24.36h-1.89v-.31h1.55v-.82h-1.33v-.31h1.33v-.89h-1.59v-.31h1.93v2.63Z"/>
          <path class="cls-1" d="M73.29,24.36h-1.89v-.31h1.55v-.82h-1.33v-.31h1.33v-.89h-1.59v-.31h1.93v2.63Z"/>
          <path class="cls-1" d="M70.69,22.15h-.43v-.42h.43v.42Z"/>
          <path class="cls-1" d="M68.66,24.36h-.43l-1.05-2.63h.35l.96,2.42h-.08l.95-2.42h.35l-1.06,2.63ZM69.16,22.73h-1.42v-.31h1.42v.31Z"/>
          <path class="cls-1" d="M66.19,21.81c.15.08.26.19.33.34s.11.32.11.52v1.69h-.34v-1.65c0-.23-.05-.4-.16-.52-.11-.12-.26-.18-.47-.18h-.04c-.2,0-.36.06-.46.18-.11.12-.16.3-.16.52v1.65h-.34v-1.69c0-.3.08-.54.25-.71.17-.18.41-.26.73-.26.22,0,.4.04.54.12Z"/>
        </g>
        <path class="cls-3" d="M64.24,19.75c7.09-.47,14.18-.47,21.27,0,1.05.07,1.87.95,1.87,2.01v2.4c0,1.07-.84,1.96-1.9,2.01-7.07.35-14.14.35-21.2,0-1.07-.05-1.9-.94-1.9-2.01v-2.4c0-1.05.82-1.94,1.87-2.01Z"/>
      </g>
    </g>
  </g>
</svg>