<?xml version="1.0" encoding="UTF-8"?>
<svg id="Layer_2" data-name="Layer 2" xmlns="http://www.w3.org/2000/svg" viewBox="0 0 207.57 28.28">
  <g id="Layer_1-2" data-name="Layer 1">
    <g>
      <rect x="107.27" y=".64" width="8.07" height="26.98"/>
      <path d="M46.18.63h-14.91s0,26.98,0,26.98h8.07v-8.27s6.84,0,6.84,0c5.17,0,9.36-4.19,9.36-9.36h0c0-5.17-4.19-9.36-9.36-9.36ZM44.95,12.5h-5.61s0-5.03,0-5.03h5.61c1.39,0,2.52,1.13,2.52,2.52s-1.13,2.52-2.52,2.52Z"/>
      <path d="M19.58.64h-7.95s-.04,0-.04,0l.02.04L0,27.64h7.95s1.96-4.55,1.96-4.55h11.35s1.96,4.55,1.96,4.55h8.05S19.64.64,19.64.64h-.06ZM12.86,16.26l2.73-6.34,2.73,6.34h-5.46Z"/>
      <path d="M56.68,27.64h21.06s0-6.57,0-6.57h-12.67c-.92,0-1.66-.74-1.66-1.66v-.06c0-.92.74-1.66,1.66-1.66h10.77v-6.89h-10.77c-.92,0-1.66-.74-1.66-1.66s.74-1.66,1.66-1.66h12.67V.64s-21.06,0-21.06,0v27Z"/>
      <polygon points="174.12 .64 167.74 15.46 161.36 .64 152.61 .64 164.24 27.64 170.86 27.64 182.49 .64 174.12 .64"/>
      <path d="M105.1,9.78h0c0-5.05-4.1-9.15-9.15-9.15h-15.42s0,26.98,0,26.98h8.07v-10.5s7.73,10.52,7.73,10.52h8.99s-6.69-9.11-6.69-9.11c3.74-1.15,6.46-4.63,6.46-8.75ZM97.03,9.78c0,1.27-1.03,2.31-2.31,2.31h-6.12s0-4.62,0-4.62h6.12c1.27,0,2.31,1.03,2.31,2.31h0Z"/>
      <path d="M193.48,0c-8.82,0-14.09,6.33-14.09,14.14s4.98,14.14,14.09,14.14,14.09-6.33,14.09-14.14S202.21,0,193.48,0ZM193.48,20.37c-4.01,0-6.21-2.79-6.21-6.23s2.32-6.23,6.21-6.23,6.21,2.79,6.21,6.23-2.36,6.23-6.21,6.23Z"/>
      <rect x="143.41" y=".64" width="8.07" height="26.98"/>
      <polygon points="116.67 8.46 125.39 8.46 125.39 27.62 133.46 27.62 133.46 8.46 142.18 8.46 142.18 .64 116.67 .64 116.67 8.46"/>
    </g>
  </g>
</svg>