<?xml version="1.0" encoding="UTF-8"?>
<svg id="Layer_2" data-name="Layer 2" xmlns="http://www.w3.org/2000/svg" viewBox="0 0 1097.24 251.6">
  <g id="Layer_1-2" data-name="Layer 1">
    <path d="M780.54,157.4h95.82v-61.29h-95.82c-8.16,0-14.78-6.62-14.78-14.78h0c0-8.16,6.62-14.78,14.78-14.78h112.71V5.7h-187.31v240.21h187.31v-58.4h-112.71c-8.16,0-14.78-6.62-14.78-14.78v-.54c0-8.16,6.62-14.78,14.78-14.78ZM433.59,125.8c0,69.48-47.68,125.8-125.37,125.8s-125.37-56.32-125.37-125.8S229.74,0,308.22,0s125.37,56.32,125.37,125.8ZM308.22,70.4c-34.56,0-55.21,24.8-55.21,55.4s19.51,55.4,55.21,55.4,55.21-24.8,55.21-55.4-21-55.4-55.21-55.4ZM569.3,0c-78.48,0-125.37,56.32-125.37,125.8s44.31,125.8,125.37,125.8,125.37-56.32,125.37-125.8S646.99,0,569.3,0ZM624.51,125.8c0,30.6-21,55.4-55.21,55.4s-55.21-24.8-55.21-55.4,20.65-55.4,55.21-55.4,55.21,24.8,55.21,55.4ZM132.42,69.09c20.41,0,29.6,1.24,49.65,5V8.31c-15.23-3.95-32.81-5.93-56.29-5.93v.02C51.81,2.41,0,57.65,0,125.8s51.34,123.39,125.78,123.39v.02c21.33,0,37.19-2.03,56.29-5.98v-65.72c-19.72,3.94-28.97,5-49.65,5-37.99,0-63.31-25.39-63.31-56.71,0-31.32,22.5-56.71,63.31-56.71ZM984.53,157.4h95.82v-61.29h-95.82c-8.16,0-14.78-6.62-14.78-14.78h0c0-8.16,6.62-14.78,14.78-14.78h112.71V5.7h-187.31v240.21h187.31v-58.4h-112.71c-8.16,0-14.78-6.62-14.78-14.78v-.54c0-8.16,6.62-14.78,14.78-14.78Z"/>
  </g>
</svg>